<svg width="550" height="500" viewBox="0 0 550 500" fill="none" xmlns="http://www.w3.org/2000/svg">
<path d="M504.34 145.256C491.427 151.942 481.525 163.452 474.405 176.127C467.285 188.801 462.696 202.708 458.151 216.516L454.174 287.724C469.199 262.175 481.259 232.141 484.518 202.685C481.185 202.388 477.852 202.092 474.519 201.795C481.223 200.772 486.851 195.917 490.431 190.16C494.011 184.403 495.854 177.765 497.653 171.229C493.587 171.833 489.52 172.437 485.454 173.042C495.005 166.669 501.931 156.48 504.34 145.256Z" fill="#E0E0E0"/>
<path d="M451.947 304.408C451.947 304.408 419.334 265.393 419.711 228.147H432.885C432.885 228.147 418.575 218.742 419.708 213.475C420.84 208.208 421.217 188.269 421.217 188.269L433.262 191.279C433.262 191.279 424.228 186.764 423.099 179.616C421.97 172.468 425.734 139.361 425.734 139.361C425.734 139.361 440.414 154.786 444.931 170.587C449.448 186.388 461.304 204.823 457.823 252.978C454.34 301.133 451.947 304.408 451.947 304.408Z" fill="#EBEBEB"/>
<path d="M468.481 308.091C468.481 308.091 503.814 284.565 511.664 254.539L501.072 251.658C501.072 251.658 514.636 247.226 514.878 242.743C515.121 238.261 519.183 222.148 519.183 222.148L508.84 221.934C508.84 221.934 517.091 220.28 519.564 214.78C522.037 209.28 526.257 181.84 526.257 181.84C526.257 181.84 511.078 191.031 503.988 202.747C496.898 214.463 483.33 226.691 475.588 266.168C467.847 305.645 468.481 308.091 468.481 308.091Z" fill="#EBEBEB"/>
<path d="M434.643 173.379C434.652 173.377 434.69 173.514 434.756 173.785C434.825 174.079 434.917 174.478 435.036 174.987C435.277 176.073 435.621 177.628 436.062 179.619C436.511 181.629 437.035 184.095 437.603 186.965C438.181 189.834 438.855 193.097 439.515 196.721C440.908 203.955 442.378 212.604 443.893 222.226C445.361 231.855 446.828 242.464 448.133 253.629C449.412 264.801 450.405 275.467 451.174 285.178C451.895 294.893 452.438 303.649 452.734 311.01C452.919 314.689 453.007 318.02 453.1 320.944C453.202 323.868 453.256 326.388 453.277 328.447C453.302 330.485 453.321 332.078 453.335 333.19C453.336 333.712 453.336 334.121 453.337 334.423C453.334 334.701 453.329 334.843 453.32 334.843C453.311 334.843 453.299 334.701 453.284 334.423C453.271 334.121 453.253 333.713 453.23 333.191C453.194 332.08 453.141 330.488 453.074 328.451C453.021 326.393 452.939 323.875 452.809 320.953C452.689 318.031 452.575 314.702 452.367 311.026C452.024 303.671 451.444 294.921 450.697 285.214C449.902 275.51 448.895 264.852 447.617 253.687C446.313 242.529 444.861 231.925 443.42 222.297C441.932 212.677 440.5 204.026 439.154 196.787C438.518 193.161 437.869 189.894 437.319 187.021C436.778 184.146 436.284 181.676 435.866 179.659C435.466 177.66 435.154 176.098 434.935 175.008C434.838 174.494 434.762 174.093 434.706 173.796C434.655 173.522 434.634 173.381 434.643 173.379Z" fill="#E0E0E0"/>
<path d="M447.423 328.301C447.423 328.301 417.578 294.455 408.311 273.995L415.307 271.008C410.236 271.844 405.041 269.666 401.109 266.358C397.177 263.05 394.29 258.699 391.459 254.412L400.675 252.856C392.295 250.506 384.911 244.789 380.539 237.266C391.414 239.053 401.253 245.024 409.36 252.486C415.926 258.529 421.485 265.544 426.824 272.711C429.429 276.207 431.708 279.932 433.607 283.857C438.622 294.219 447.441 315.871 447.423 328.301Z" fill="#EBEBEB"/>
<path d="M512.132 201.541C512.14 201.545 512.092 201.661 511.99 201.884C511.875 202.129 511.722 202.454 511.527 202.866C511.097 203.751 510.485 205.01 509.703 206.617C508.901 208.241 507.925 210.23 506.825 212.556C505.72 214.879 504.431 217.509 503.081 220.453C500.325 226.313 497.157 233.343 493.752 241.198C490.376 249.065 486.782 257.765 483.207 266.975C479.652 276.196 476.455 285.052 473.657 293.144C470.888 301.246 468.501 308.579 466.596 314.768C465.614 317.853 464.797 320.666 464.051 323.128C463.3 325.589 462.683 327.716 462.183 329.457C461.679 331.172 461.285 332.514 461.008 333.459C460.874 333.895 460.769 334.238 460.69 334.496C460.615 334.729 460.573 334.847 460.564 334.845C460.555 334.843 460.581 334.72 460.638 334.482C460.705 334.22 460.794 333.872 460.907 333.431C461.162 332.48 461.525 331.129 461.988 329.402C462.458 327.652 463.047 325.516 463.771 323.046C464.491 320.575 465.283 317.754 466.243 314.66C468.104 308.454 470.457 301.105 473.203 292.989C475.978 284.883 479.164 276.015 482.721 266.787C486.299 257.571 489.91 248.87 493.312 241.008C496.743 233.158 499.948 226.139 502.748 220.296C504.12 217.361 505.433 214.741 506.563 212.429C507.689 210.115 508.691 208.138 509.522 206.528C510.341 204.939 510.983 203.695 511.434 202.82C511.648 202.418 511.816 202.101 511.943 201.862C512.06 201.645 512.124 201.537 512.132 201.541Z" fill="#E0E0E0"/>
<path d="M449.955 342.803C449.937 342.805 449.892 342.59 449.821 342.18C449.748 341.715 449.654 341.119 449.538 340.382C449.426 339.6 449.283 338.645 449.078 337.542C448.879 336.438 448.688 335.175 448.389 333.796C447.857 331.024 447.092 327.75 446.117 324.15C445.11 320.559 443.873 316.647 442.363 312.616C440.83 308.592 439.171 304.839 437.552 301.478C435.903 298.132 434.312 295.17 432.879 292.739C432.191 291.506 431.499 290.433 430.919 289.473C430.343 288.51 429.819 287.699 429.386 287.038C428.986 286.409 428.663 285.9 428.41 285.502C428.192 285.148 428.084 284.956 428.099 284.946C428.114 284.936 428.25 285.107 428.497 285.442C428.771 285.826 429.121 286.317 429.555 286.925C430.015 287.569 430.565 288.366 431.165 289.316C431.77 290.263 432.485 291.326 433.196 292.55C434.674 294.965 436.305 297.918 437.983 301.266C439.632 304.628 441.311 308.391 442.85 312.432C444.366 316.479 445.594 320.412 446.58 324.024C447.534 327.645 448.263 330.938 448.751 333.727C449.027 335.115 449.194 336.386 449.366 337.496C449.544 338.606 449.658 339.568 449.739 340.355C449.816 341.097 449.877 341.698 449.926 342.167C449.962 342.583 449.973 342.801 449.955 342.803Z" fill="#E0E0E0"/>
<path d="M489.336 334.842H424.016V348.16H489.336V334.842Z" fill="#E0E0E0"/>
<path d="M430.24 348.16L437.305 392.955H476.775L483.361 348.16H430.24Z" fill="#E0E0E0"/>
<path d="M485.33 348.16C485.33 348.304 472.973 348.42 457.734 348.42C442.489 348.42 430.135 348.303 430.135 348.16C430.135 348.017 442.489 347.9 457.734 347.9C472.974 347.899 485.33 348.016 485.33 348.16Z" fill="#EBEBEB"/>
<path d="M382.849 91.8732C381.474 97.2852 378.49 101.194 378.49 101.194L382.78 105.203L382.784 105.198L401.082 121.709L400.653 121.908C400.653 121.908 416.489 110.845 420.867 107.235C424.479 104.257 434.144 98.1132 434.93 92.1512C435.213 90.0032 434.047 87.8622 432.094 86.9232C430.975 86.3852 429.517 86.1892 427.917 87.2562C427.917 87.2562 432.177 82.2622 428.809 78.9782C425.441 75.6942 422.81 78.2672 422.81 78.2672C422.81 78.2672 426.977 71.9172 423.109 68.3922C423.109 68.3922 420.655 66.3002 417.46 68.0972L419.03 66.4182L427.126 57.7562C429.096 55.6482 429.2 52.2962 427.165 50.2512C425.057 48.1322 421.638 48.1792 419.588 50.3172L396.788 74.0932L397.947 61.1352C398.239 57.7682 393.691 55.3282 391.67 56.5652C391.67 56.5652 388.564 57.7762 387.713 63.0482C387.077 66.9892 382.849 91.8732 382.849 91.8732Z" fill="#F5F5F5"/>
<path d="M382.85 91.873C382.85 91.873 382.867 91.652 382.93 91.226C382.999 90.78 383.095 90.152 383.22 89.336C383.491 87.655 383.885 85.211 384.392 82.068C384.913 78.904 385.548 75.038 386.287 70.546C386.66 68.297 387.058 65.892 387.481 63.339C387.691 62.059 387.992 60.715 388.65 59.478C389.285 58.241 390.212 57.064 391.597 56.379L391.565 56.395C392.369 55.942 393.323 55.977 394.163 56.21C395.012 56.455 395.809 56.892 396.494 57.486C397.174 58.079 397.748 58.852 398.02 59.767C398.093 59.992 398.113 60.234 398.16 60.469C398.169 60.707 398.168 60.952 398.163 61.189C398.123 61.643 398.083 62.1 398.043 62.559C397.72 66.237 397.381 70.098 397.028 74.113L396.615 73.925C402.972 67.282 409.936 60.005 417.344 52.263C417.807 51.779 418.272 51.294 418.739 50.806C419.202 50.335 419.659 49.791 420.262 49.384C421.441 48.57 422.951 48.239 424.38 48.495C425.812 48.74 427.137 49.581 427.973 50.796C428.817 52.01 429.106 53.577 428.818 55.031C428.678 55.759 428.395 56.461 427.994 57.09C427.59 57.736 427.049 58.233 426.578 58.754C425.603 59.798 424.623 60.847 423.637 61.902C421.666 64.011 419.676 66.142 417.668 68.291L417.32 67.848C418.417 67.232 419.86 66.872 421.231 67.213C421.792 67.339 422.327 67.557 422.821 67.847C423.057 67.984 423.326 68.176 423.502 68.398C423.686 68.617 423.913 68.804 424.059 69.051C424.737 69.981 425.037 71.141 425.038 72.255C425.015 74.508 424.155 76.571 423.047 78.421L422.612 78.063C423.72 77.071 425.325 76.77 426.681 77.266C427.364 77.487 427.952 77.889 428.489 78.319C428.745 78.551 429.018 78.757 429.236 79.041L429.579 79.442L429.846 79.901C430.574 81.151 430.459 82.682 430.058 83.946C429.634 85.237 428.964 86.391 428.128 87.434L427.763 87.023C428.921 86.197 430.544 85.955 431.862 86.522C433.182 87.04 434.246 88.103 434.796 89.378C435.068 90.016 435.228 90.703 435.24 91.394C435.268 92.093 435.072 92.753 434.917 93.406C434.498 94.69 433.793 95.818 433.036 96.871C429.835 100.988 425.659 103.831 421.909 106.727C418.202 109.726 414.452 112.37 410.917 114.921C407.353 117.435 403.965 119.825 400.772 122.078L400.564 121.716C400.719 121.645 400.856 121.581 400.993 121.518L400.941 121.862C393.604 115.204 387.473 109.639 382.69 105.299L382.884 105.291L382.88 105.296L382.785 105.398L382.684 105.303C381.011 103.725 379.642 102.435 378.412 101.275L378.34 101.207L378.399 101.124C380.339 98.424 381.371 96.018 381.997 94.396C382.309 93.58 382.511 92.944 382.638 92.516C382.769 92.089 382.85 91.873 382.85 91.873C382.85 91.873 382.688 92.781 382.109 94.438C381.513 96.083 380.517 98.506 378.581 101.262L378.568 101.112C379.808 102.261 381.188 103.539 382.875 105.102L382.68 105.109L382.684 105.104L382.777 105.005L382.878 105.096C387.685 109.409 393.848 114.938 401.223 121.554L401.458 121.765L401.171 121.899C401.034 121.963 400.897 122.027 400.742 122.099L400.534 121.737C403.717 119.474 407.095 117.072 410.648 114.546C414.176 111.982 417.905 109.339 421.602 106.332C425.359 103.422 429.499 100.573 432.61 96.555C433.342 95.534 434.015 94.446 434.404 93.246C434.544 92.639 434.727 92.028 434.699 91.408C434.688 90.789 434.542 90.172 434.297 89.598C433.8 88.45 432.841 87.497 431.662 87.037C430.489 86.546 429.133 86.744 428.072 87.488L426.489 88.598L427.706 87.077C428.481 86.109 429.138 84.977 429.526 83.78C429.898 82.595 429.986 81.247 429.352 80.171C428.741 79.126 427.666 78.223 426.498 77.802C425.326 77.363 423.931 77.652 423.008 78.47L421.618 79.702L422.573 78.112C423.623 76.364 424.458 74.33 424.469 72.261C424.506 70.21 423.22 68.134 421.106 67.771C419.885 67.467 418.61 67.784 417.6 68.347L416.013 69.231L417.253 67.905C419.261 65.757 421.253 63.627 423.224 61.518C424.21 60.464 425.191 59.415 426.166 58.372C426.652 57.837 427.17 57.358 427.52 56.791C427.883 56.223 428.14 55.587 428.267 54.928C428.528 53.611 428.266 52.202 427.513 51.117C426.767 50.03 425.571 49.265 424.284 49.046C422.997 48.814 421.635 49.111 420.573 49.842C420.041 50.197 419.614 50.7 419.134 51.189C418.667 51.676 418.201 52.161 417.737 52.644C410.312 60.37 403.333 67.633 396.962 74.263L396.487 74.758L396.549 74.075C396.915 70.061 397.266 66.201 397.601 62.524C397.658 61.594 397.876 60.693 397.604 59.89C397.366 59.074 396.846 58.362 396.216 57.808C395.583 57.253 394.835 56.839 394.053 56.61C393.276 56.388 392.427 56.377 391.776 56.74L391.773 56.742L391.744 56.756C390.53 57.349 389.589 58.479 388.99 59.657C388.352 60.843 388.053 62.136 387.838 63.4C387.4 65.951 386.986 68.356 386.6 70.603C385.824 75.09 385.156 78.952 384.609 82.112C384.057 85.247 383.627 87.685 383.332 89.361C383.183 90.172 383.068 90.796 382.986 91.24C382.905 91.66 382.85 91.873 382.85 91.873Z" fill="#E0E0E0"/>
<path d="M395.272 128.405L372.73 107.336C371.017 105.735 370.926 103.049 372.527 101.336L372.731 101.118C374.332 99.4052 377.018 99.3142 378.731 100.915L401.273 121.984C402.986 123.585 403.077 126.271 401.476 127.984L401.272 128.202C399.671 129.915 396.985 130.006 395.272 128.405Z" fill="#F5F5F5"/>
<path d="M395.272 128.404C395.293 128.38 395.516 128.603 396.023 128.896C396.528 129.173 397.366 129.514 398.468 129.421C399.013 129.374 399.612 129.21 400.189 128.882C400.754 128.553 401.296 128.023 401.736 127.397C402.619 126.16 402.778 124.062 401.521 122.553C395.602 117.035 387.494 109.475 378.537 101.124C377.488 100.134 375.914 99.8075 374.585 100.255C373.924 100.484 373.33 100.863 372.862 101.388C372.359 101.895 372.009 102.481 371.819 103.137C371.431 104.442 371.781 105.892 372.652 106.866C373.604 107.812 374.644 108.751 375.6 109.661C379.464 113.304 382.948 116.588 385.89 119.362C388.774 122.109 391.122 124.346 392.793 125.938C393.57 126.695 394.188 127.297 394.65 127.747C395.071 128.163 395.285 128.39 395.272 128.404C395.259 128.418 395.018 128.22 394.573 127.829C394.093 127.399 393.45 126.822 392.643 126.098C390.942 124.538 388.552 122.346 385.616 119.654C382.65 116.906 379.139 113.652 375.243 110.043C374.267 109.122 373.273 108.241 372.247 107.226C371.251 106.122 370.846 104.472 371.285 102.983C371.491 102.243 371.918 101.543 372.453 101.004C372.965 100.427 373.658 99.9745 374.41 99.7175C375.926 99.2025 377.73 99.5755 378.928 100.708C387.895 109.119 396.019 116.659 401.837 122.3C403.198 123.981 402.978 126.263 402.001 127.578C401.509 128.246 400.95 128.769 400.325 129.119C399.702 129.455 399.061 129.61 398.486 129.643C397.322 129.706 396.465 129.311 395.966 128.995C395.463 128.661 395.272 128.404 395.272 128.404Z" fill="#E0E0E0"/>
<path d="M409.017 76.7458C408.902 76.6388 410.758 74.4658 413.162 71.8948C415.566 69.3218 417.608 67.3248 417.723 67.4318C417.838 67.5388 415.982 69.7108 413.578 72.2838C411.174 74.8548 409.131 76.8528 409.017 76.7458Z" fill="#E0E0E0"/>
<path d="M417.63 83.6074C417.515 83.5004 418.581 82.1734 420.01 80.6444C421.44 79.1144 422.691 77.9624 422.806 78.0694C422.921 78.1764 421.855 79.5034 420.426 81.0334C418.997 82.5624 417.745 83.7144 417.63 83.6074Z" fill="#E0E0E0"/>
<path d="M422.766 92.7725C422.651 92.6655 423.717 91.3385 425.146 89.8085C426.576 88.2785 427.828 87.1265 427.942 87.2335C428.056 87.3405 426.991 88.6675 425.562 90.1975C424.133 91.7275 422.881 92.8795 422.766 92.7725Z" fill="#E0E0E0"/>
<path d="M421.841 44.5979C421.693 44.6519 420.566 41.9109 419.324 38.4769C418.081 35.0419 417.194 32.2149 417.342 32.1609C417.49 32.1079 418.617 34.8479 419.86 38.2829C421.102 41.7169 421.989 44.5449 421.841 44.5979Z" fill="#E0E0E0"/>
<path d="M427.795 46.0468C427.665 45.9588 429.694 42.7428 432.326 38.8648C434.959 34.9858 437.199 31.9138 437.329 32.0018C437.459 32.0898 435.431 35.3058 432.797 39.1848C430.165 43.0628 427.925 46.1358 427.795 46.0468Z" fill="#E0E0E0"/>
<path d="M432.125 51.14C432.092 50.986 435.082 50.223 438.802 49.436C442.523 48.648 445.565 48.135 445.597 48.289C445.63 48.443 442.641 49.206 438.92 49.994C435.2 50.78 432.158 51.294 432.125 51.14Z" fill="#E0E0E0"/>
<path d="M145.423 263.117L113.316 392.942H121.767L154.667 263.117H145.423Z" fill="#F5F5F5"/>
<path d="M205.901 263.117L235.943 392.942H227.491L196.658 263.117H205.901Z" fill="#F5F5F5"/>
<path d="M180.798 391.033H170.959L169.494 242.029H179.332L180.798 391.033Z" fill="#F5F5F5"/>
<path d="M243.828 154.52H105V243.463H243.828V154.52Z" fill="#EBEBEB"/>
<path d="M209.292 261.752H139.611V270.342H209.292V261.752Z" fill="#F5F5F5"/>
<path d="M114.225 231.859C114.258 231.859 114.29 232.37 114.32 233.486H114.13C113.987 229.136 113.883 214.725 113.883 197.647C113.922 187.341 113.957 178.015 113.983 171.151C114.028 167.831 114.065 165.111 114.092 163.122C114.118 162.235 114.139 161.513 114.156 160.939C114.178 160.44 114.201 160.178 114.225 160.178C114.249 160.178 114.272 160.44 114.294 160.939C114.311 161.513 114.332 162.236 114.358 163.122C114.385 165.111 114.422 167.831 114.467 171.151C114.493 178.016 114.528 187.341 114.567 197.647C114.567 214.725 114.463 229.137 114.32 233.486H114.13C114.161 232.371 114.192 231.859 114.225 231.859Z" fill="#F5F5F5"/>
<path d="M124.559 231.859C124.592 231.859 124.624 232.37 124.654 233.486H124.464C124.321 229.136 124.217 214.725 124.217 197.647C124.256 187.341 124.291 178.015 124.317 171.151C124.362 167.831 124.399 165.111 124.426 163.122C124.452 162.235 124.473 161.513 124.49 160.939C124.512 160.44 124.535 160.178 124.559 160.178C124.583 160.178 124.606 160.44 124.628 160.939C124.645 161.513 124.666 162.236 124.692 163.122C124.719 165.111 124.756 167.831 124.801 171.151C124.827 178.016 124.862 187.341 124.901 197.647C124.901 214.725 124.797 229.137 124.654 233.486H124.464C124.494 232.371 124.526 231.859 124.559 231.859Z" fill="#F5F5F5"/>
<path d="M134.891 231.859C134.924 231.859 134.956 232.37 134.986 233.486H134.796C134.653 229.136 134.549 214.725 134.549 197.647C134.588 187.341 134.623 178.015 134.649 171.151C134.694 167.831 134.731 165.111 134.758 163.122C134.784 162.235 134.805 161.513 134.822 160.939C134.844 160.44 134.867 160.178 134.891 160.178C134.915 160.178 134.938 160.44 134.96 160.939C134.977 161.513 134.998 162.236 135.024 163.122C135.051 165.111 135.088 167.831 135.133 171.151C135.159 178.016 135.194 187.341 135.233 197.647C135.233 214.725 135.129 229.137 134.986 233.486H134.796C134.827 232.371 134.859 231.859 134.891 231.859Z" fill="#F5F5F5"/>
<path d="M145.223 231.859C145.256 231.859 145.288 232.37 145.318 233.486H145.128C144.985 229.136 144.881 214.725 144.881 197.647C144.92 187.341 144.955 178.015 144.981 171.151C145.026 167.831 145.063 165.111 145.09 163.122C145.116 162.235 145.137 161.513 145.154 160.939C145.176 160.44 145.199 160.178 145.223 160.178C145.247 160.178 145.27 160.44 145.292 160.939C145.309 161.513 145.33 162.236 145.356 163.122C145.383 165.111 145.42 167.831 145.465 171.151C145.491 178.016 145.526 187.341 145.565 197.647C145.565 214.725 145.461 229.137 145.318 233.486H145.128C145.158 232.371 145.19 231.859 145.223 231.859Z" fill="#F5F5F5"/>
<path d="M155.555 231.859C155.588 231.859 155.62 232.37 155.65 233.486H155.46C155.317 229.136 155.213 214.725 155.213 197.647C155.252 187.341 155.287 178.015 155.313 171.151C155.358 167.831 155.395 165.111 155.422 163.122C155.448 162.235 155.469 161.513 155.486 160.939C155.508 160.44 155.531 160.178 155.555 160.178C155.579 160.178 155.602 160.44 155.624 160.939C155.641 161.513 155.662 162.236 155.688 163.122C155.715 165.111 155.752 167.831 155.797 171.151C155.823 178.016 155.858 187.341 155.897 197.647C155.897 214.725 155.793 229.137 155.65 233.486H155.46C155.491 232.371 155.523 231.859 155.555 231.859Z" fill="#F5F5F5"/>
<path d="M165.889 231.859C165.922 231.859 165.954 232.37 165.984 233.486H165.794C165.651 229.136 165.547 214.725 165.547 197.647C165.586 187.341 165.621 178.015 165.647 171.151C165.692 167.831 165.729 165.111 165.756 163.122C165.782 162.235 165.803 161.513 165.82 160.939C165.842 160.44 165.865 160.178 165.889 160.178C165.913 160.178 165.936 160.44 165.958 160.939C165.975 161.513 165.996 162.236 166.022 163.122C166.049 165.111 166.086 167.831 166.131 171.151C166.157 178.016 166.192 187.341 166.231 197.647C166.231 214.725 166.127 229.137 165.984 233.486H165.794C165.824 232.371 165.856 231.859 165.889 231.859Z" fill="#F5F5F5"/>
<path d="M176.221 231.859C176.254 231.859 176.286 232.37 176.316 233.486H176.126C175.983 229.136 175.879 214.725 175.879 197.647C175.918 187.341 175.953 178.015 175.979 171.151C176.024 167.831 176.061 165.111 176.088 163.122C176.114 162.235 176.135 161.513 176.152 160.939C176.174 160.44 176.197 160.178 176.221 160.178C176.244 160.178 176.268 160.44 176.29 160.939C176.307 161.513 176.328 162.236 176.354 163.122C176.381 165.111 176.418 167.831 176.463 171.151C176.489 178.016 176.524 187.341 176.563 197.647C176.563 214.725 176.459 229.137 176.316 233.486H176.126C176.156 232.371 176.188 231.859 176.221 231.859Z" fill="#F5F5F5"/>
<path d="M186.553 231.859C186.586 231.859 186.618 232.37 186.648 233.486H186.458C186.315 229.136 186.211 214.725 186.211 197.647C186.25 187.341 186.285 178.015 186.311 171.151C186.356 167.831 186.393 165.111 186.42 163.122C186.446 162.235 186.467 161.513 186.484 160.939C186.506 160.44 186.529 160.178 186.553 160.178C186.576 160.178 186.6 160.44 186.622 160.939C186.639 161.513 186.66 162.236 186.686 163.122C186.713 165.111 186.75 167.831 186.795 171.151C186.821 178.016 186.856 187.341 186.895 197.647C186.895 214.725 186.791 229.137 186.648 233.486H186.458C186.488 232.371 186.52 231.859 186.553 231.859Z" fill="#F5F5F5"/>
<path d="M196.887 231.859C196.92 231.859 196.952 232.37 196.982 233.486H196.792C196.649 229.136 196.545 214.725 196.545 197.647C196.584 187.341 196.619 178.015 196.645 171.151C196.69 167.831 196.727 165.111 196.754 163.122C196.78 162.235 196.801 161.513 196.818 160.939C196.84 160.44 196.864 160.178 196.887 160.178C196.911 160.178 196.934 160.44 196.956 160.939C196.973 161.513 196.994 162.236 197.02 163.122C197.047 165.111 197.084 167.831 197.129 171.151C197.155 178.016 197.19 187.341 197.229 197.647C197.229 214.725 197.125 229.137 196.982 233.486H196.792C196.822 232.371 196.854 231.859 196.887 231.859Z" fill="#F5F5F5"/>
<path d="M207.219 231.859C207.252 231.859 207.284 232.37 207.314 233.486H207.124C206.981 229.136 206.877 214.725 206.877 197.647C206.916 187.341 206.951 178.015 206.977 171.151C207.022 167.831 207.059 165.111 207.086 163.122C207.112 162.235 207.133 161.513 207.15 160.939C207.172 160.44 207.195 160.178 207.219 160.178C207.243 160.178 207.266 160.44 207.288 160.939C207.305 161.513 207.326 162.236 207.352 163.122C207.379 165.111 207.416 167.831 207.461 171.151C207.487 178.016 207.522 187.341 207.561 197.647C207.561 214.725 207.457 229.137 207.314 233.486H207.124C207.154 232.371 207.186 231.859 207.219 231.859Z" fill="#F5F5F5"/>
<path d="M217.551 231.859C217.584 231.859 217.616 232.37 217.646 233.486H217.456C217.313 229.136 217.209 214.725 217.209 197.647C217.248 187.341 217.283 178.015 217.309 171.151C217.354 167.831 217.391 165.111 217.418 163.122C217.444 162.235 217.465 161.513 217.482 160.939C217.504 160.44 217.527 160.178 217.551 160.178C217.575 160.178 217.598 160.44 217.62 160.939C217.637 161.513 217.658 162.236 217.684 163.122C217.711 165.111 217.748 167.831 217.793 171.151C217.819 178.016 217.854 187.341 217.893 197.647C217.893 214.725 217.789 229.137 217.646 233.486H217.456C217.486 232.371 217.518 231.859 217.551 231.859Z" fill="#F5F5F5"/>
<path d="M227.883 231.859C227.916 231.859 227.948 232.37 227.978 233.486H227.788C227.645 229.136 227.541 214.725 227.541 197.647C227.58 187.341 227.615 178.015 227.641 171.151C227.686 167.831 227.723 165.111 227.75 163.122C227.776 162.235 227.797 161.513 227.814 160.939C227.836 160.44 227.859 160.178 227.883 160.178C227.907 160.178 227.93 160.44 227.952 160.939C227.969 161.513 227.99 162.236 228.016 163.122C228.043 165.111 228.08 167.831 228.125 171.151C228.151 178.016 228.186 187.341 228.225 197.647C228.225 214.725 228.121 229.137 227.978 233.486H227.788C227.818 232.371 227.85 231.859 227.883 231.859Z" fill="#F5F5F5"/>
<path d="M238.215 231.859C238.248 231.859 238.28 232.37 238.31 233.486H238.12C237.977 229.136 237.873 214.725 237.873 197.647C237.912 187.341 237.947 178.015 237.973 171.151C238.018 167.831 238.055 165.111 238.082 163.122C238.108 162.235 238.129 161.513 238.146 160.939C238.168 160.44 238.191 160.178 238.215 160.178C238.238 160.178 238.262 160.44 238.284 160.939C238.301 161.513 238.322 162.236 238.348 163.122C238.375 165.111 238.412 167.831 238.457 171.151C238.483 178.016 238.518 187.341 238.557 197.647C238.557 214.725 238.453 229.137 238.31 233.486H238.12C238.15 232.371 238.182 231.859 238.215 231.859Z" fill="#F5F5F5"/>
<path d="M343.18 90.9859L335.385 161.179C334.059 173.116 329.673 190.38 310.896 187.423C294.798 183.629 292.379 167.647 293.627 156.509C294.219 151.226 294.702 146.818 294.727 146.272C294.727 146.272 277.045 142.607 277.718 124.777C278.044 116.161 280.159 98.4689 282.259 82.4859C284.513 65.3199 299.592 52.7749 316.883 53.6419L318.602 53.7279C337.087 55.7409 345.704 72.5639 343.18 90.9859Z" fill="#EDD0AE"/>
<path d="M294.728 146.271C294.728 146.271 305.926 147.493 318.272 140.576C318.272 140.576 311.96 153.307 294.26 150.81L294.728 146.271Z" fill="#DAB67F"/>
<path d="M311.531 93.4469C311.838 93.8469 314.077 92.4589 317.044 92.7449C320.011 92.9869 322.037 94.7539 322.395 94.4119C322.569 94.2619 322.285 93.5639 321.405 92.7679C320.539 91.9759 319.013 91.1429 317.164 90.9779C315.315 90.8159 313.694 91.3659 312.733 91.9969C311.751 92.6289 311.378 93.2659 311.531 93.4469Z" fill="#263238"/>
<path d="M310.864 99.5725C310.756 100.841 311.74 101.979 313.063 102.117C314.383 102.254 315.544 101.34 315.653 100.071C315.762 98.8035 314.777 97.6635 313.456 97.5255C312.134 97.3875 310.973 98.3035 310.864 99.5725Z" fill="#263238"/>
<path d="M301.584 113.093C301.605 112.938 299.917 112.558 297.177 112.068C296.481 111.961 295.827 111.789 295.733 111.306C295.593 110.792 295.924 110.053 296.304 109.257C297.046 107.598 297.823 105.859 298.639 104.036C301.891 96.5989 304.282 90.4709 303.982 90.3419C303.681 90.2139 300.801 96.1369 297.55 103.573C296.765 105.408 296.014 107.156 295.3 108.83C294.996 109.611 294.496 110.49 294.8 111.556C294.962 112.088 295.456 112.493 295.898 112.635C296.34 112.795 296.733 112.822 297.078 112.86C299.845 113.149 301.566 113.248 301.584 113.093Z" fill="#263238"/>
<path d="M314.161 82.4897C314.365 83.1807 316.793 82.9797 319.608 83.4757C322.434 83.9117 324.676 84.8847 325.082 84.2947C325.264 84.0117 324.898 83.3527 324.007 82.6487C323.124 81.9467 321.694 81.2497 320.003 80.9687C318.312 80.6917 316.74 80.8927 315.687 81.2747C314.625 81.6547 314.075 82.1617 314.161 82.4897Z" fill="#263238"/>
<path d="M286.375 82.4837C286.619 83.0567 288.999 82.7487 291.805 83.0077C294.617 83.2167 296.887 83.9117 297.251 83.3897C297.413 83.1397 297.012 82.6037 296.09 82.0577C295.177 81.5137 293.724 81.0047 292.04 80.8637C290.356 80.7257 288.82 80.9847 287.804 81.3677C286.78 81.7507 286.269 82.2117 286.375 82.4837Z" fill="#263238"/>
<path d="M341.063 104.105C341.374 103.989 353.488 101.098 352.487 113.26C351.487 125.422 339.483 121.909 339.49 121.559C339.499 121.209 341.063 104.105 341.063 104.105Z" fill="#EDD0AE"/>
<path d="M343.585 117.257C343.642 117.223 343.785 117.423 344.129 117.616C344.465 117.804 345.057 117.964 345.71 117.779C347.033 117.413 348.283 115.462 348.523 113.275C348.645 112.171 348.5 111.098 348.179 110.193C347.881 109.273 347.357 108.604 346.719 108.436C346.088 108.234 345.598 108.584 345.421 108.914C345.23 109.24 345.287 109.49 345.221 109.505C345.184 109.532 344.977 109.28 345.116 108.785C345.186 108.548 345.352 108.272 345.657 108.062C345.969 107.849 346.408 107.763 346.854 107.849C347.787 107.991 348.56 108.923 348.912 109.917C349.316 110.919 349.505 112.127 349.368 113.367C349.088 115.812 347.645 118.001 345.845 118.365C344.971 118.518 344.279 118.201 343.934 117.884C343.583 117.553 343.541 117.275 343.585 117.257Z" fill="#DAB67F"/>
<path d="M303.401 121.824C303.307 121.502 305.765 121.085 307.707 119.067C308.676 118.075 309.303 116.941 309.772 116.114C310.234 115.279 310.569 114.761 310.695 114.817C310.813 114.871 310.71 115.462 310.397 116.393C310.078 117.313 309.499 118.613 308.402 119.74C307.317 120.881 305.978 121.477 305.018 121.724C304.048 121.985 303.42 121.931 303.401 121.824Z" fill="#263238"/>
<path d="M285.502 89.6138C285.809 90.0138 288.048 88.6258 291.015 88.9118C293.982 89.1538 296.008 90.9208 296.366 90.5788C296.54 90.4278 296.256 89.7308 295.376 88.9358C294.51 88.1438 292.984 87.3108 291.135 87.1458C289.286 86.9838 287.665 87.5338 286.704 88.1648C285.722 88.7958 285.349 89.4338 285.502 89.6138Z" fill="#263238"/>
<path d="M285.293 96.4084C285.185 97.6774 286.169 98.8154 287.492 98.9534C288.812 99.0914 289.973 98.1764 290.082 96.9074C290.191 95.6394 289.206 94.4994 287.885 94.3614C286.562 94.2234 285.402 95.1404 285.293 96.4084Z" fill="#263238"/>
<path d="M350.673 93.2231C349.778 96.6161 347.66 104.35 344.626 103.66C338.612 102.291 338.983 111.918 336.085 110.784C333.228 109.666 332.505 102.004 332.828 98.9531C333.835 89.4281 337.49 82.5811 333.464 71.7041C330.836 67.3641 326.265 64.4731 321.191 64.4731C316.117 64.4721 311.276 67.1531 308.647 71.4931C308.032 68.1651 306.29 63.1651 303.277 61.6251C300.264 60.0841 296.296 60.3661 293.784 62.6341C291.272 64.9021 290.668 69.1351 292.749 71.8041C291.396 72.2791 289.756 71.7311 288.959 70.5391C288.87 72.0991 289.462 73.6871 290.552 74.8071C289.324 74.5271 288.206 73.7861 287.469 72.7631C287.798 74.1391 288.127 75.5141 288.456 76.8901C283.418 77.1401 278.372 72.3731 276.872 68.0621C274.598 61.5271 276.082 54.8491 279.625 48.9071C283.169 42.9651 289.662 38.6851 296.58 38.5881C303.498 38.4911 309.366 41.6351 312.182 47.9551C316.598 44.6741 325.666 43.3641 330.725 45.5231C335.784 47.6831 339.532 52.6531 340.218 58.1111C343.318 56.7141 347.101 57.6571 349.789 59.7401C350.013 59.9141 350.231 60.0941 350.442 60.2801C354.137 63.5371 355.735 68.5851 354.923 73.4431C354.601 75.3701 353.984 77.3701 353.629 78.9181C352.573 83.5161 350.673 93.2231 350.673 93.2231Z" fill="#263238"/>
<path d="M288.165 70.2486C288.153 70.2626 288.013 70.1566 287.756 69.9396C287.499 69.7246 287.137 69.3786 286.74 68.8746C285.935 67.8916 284.972 66.2106 284.65 63.9136C284.315 61.6646 284.772 58.6666 286.824 56.3166C288.785 53.9876 292.154 52.2846 295.737 52.7126C297.506 52.9196 299.146 53.5896 300.55 54.4726C301.958 55.3586 303.156 56.4456 304.137 57.6046C306.124 59.9166 307.29 62.4596 307.91 64.6556C308.54 66.8616 308.643 68.7326 308.621 70.0036C308.592 70.6416 308.563 71.1346 308.509 71.4666C308.465 71.7986 308.434 71.9716 308.416 71.9696C308.272 71.9866 308.855 69.1016 307.557 64.7596C306.904 62.6176 305.728 60.1506 303.774 57.9186C301.86 55.7116 299.061 53.6446 295.675 53.2306C292.298 52.8226 289.076 54.4256 287.187 56.6296C285.216 58.8476 284.739 61.6836 285.014 63.8686C285.279 66.0916 286.16 67.7536 286.9 68.7526C287.647 69.7656 288.204 70.2076 288.165 70.2486Z" fill="#455A64"/>
<path d="M285.979 75.5686C285.963 75.5776 285.836 75.3826 285.609 75.0026C285.383 74.6226 285.054 74.0596 284.648 73.3236C283.851 71.8486 282.658 69.7056 281.728 66.8216C281.277 65.3806 280.914 63.7426 280.842 61.9536C280.775 60.1726 280.978 58.2226 281.735 56.3356C282.477 54.4486 283.847 52.6936 285.662 51.4366C287.478 50.1866 289.684 49.3666 292.012 49.1706C294.343 48.9606 296.632 49.3656 298.695 50.0816C300.76 50.8126 302.615 51.8626 304.221 53.0616C307.444 55.4596 309.598 58.6076 310.378 61.5586C311.182 64.5166 310.772 67.0686 310.194 68.6426C309.914 69.4446 309.575 70.0136 309.353 70.3966C309.104 70.7656 308.966 70.9526 308.951 70.9426C308.897 70.9126 309.483 70.1636 310.002 68.5776C310.511 67.0146 310.85 64.5186 310.024 61.6586C309.222 58.8076 307.101 55.7706 303.935 53.4466C300.809 51.1426 296.586 49.3116 292.058 49.6896C289.82 49.8776 287.696 50.6646 285.953 51.8556C284.21 53.0566 282.904 54.7126 282.18 56.5156C281.443 58.3176 281.228 60.2036 281.274 61.9386C281.326 63.6826 281.659 65.2866 282.081 66.7136C282.951 69.5676 284.088 71.7286 284.828 73.2286C285.188 73.9386 285.478 74.5106 285.702 74.9516C285.899 75.3476 285.995 75.5596 285.979 75.5686Z" fill="#455A64"/>
<path d="M346.342 85.7019C346.278 85.6269 347.407 84.7939 348.799 83.0599C350.189 81.3469 351.768 78.6189 352.38 75.2899C352.991 71.9589 352.483 68.8479 351.791 66.7529C351.105 64.6369 350.346 63.4579 350.432 63.4109C350.459 63.3939 350.674 63.6709 351 64.2109C351.328 64.7509 351.745 65.5699 352.139 66.6329C352.936 68.7399 353.523 71.9429 352.892 75.3829C352.26 78.8219 350.575 81.6069 349.082 83.2949C348.336 84.1489 347.655 84.7669 347.157 85.1549C346.66 85.5449 346.361 85.7269 346.342 85.7019Z" fill="#455A64"/>
<path d="M335.608 85.611C335.585 85.561 336.191 85.336 337.108 84.678C338.008 84.024 339.239 82.864 339.995 81.032L340.465 79.895L340.383 81.125C340.272 82.785 340.145 84.699 340.006 86.773L339.617 86.552C340.985 85.577 342.307 84.271 343.378 82.696C344.744 80.706 345.551 78.495 345.866 76.433C346.178 74.363 346.031 72.451 345.705 70.901C345.033 67.778 343.819 66.119 343.928 66.071C343.943 66.061 344.022 66.159 344.157 66.354C344.298 66.546 344.479 66.846 344.702 67.241C345.138 68.032 345.68 69.24 346.064 70.821C346.444 72.398 346.636 74.361 346.34 76.503C346.041 78.638 345.219 80.932 343.807 82.99C342.7 84.618 341.325 85.964 339.9 86.958L339.468 87.26L339.511 86.737C339.683 84.665 339.841 82.754 339.979 81.096L340.366 81.189C339.524 83.097 338.197 84.25 337.234 84.866C336.746 85.178 336.336 85.366 336.054 85.48C335.77 85.587 335.615 85.629 335.608 85.611Z" fill="#455A64"/>
<path d="M331.769 60.8909C331.667 60.9659 331.125 59.2269 328.964 57.5549C327.895 56.7429 326.431 55.9879 324.682 55.6819C322.94 55.3659 320.932 55.5739 319.025 56.3259C317.118 57.0889 315.513 58.2949 314.352 59.6439C313.177 60.9889 312.404 62.4289 311.888 63.6799C310.879 66.2119 310.808 67.9469 310.702 67.9269C310.673 67.9249 310.663 67.4959 310.759 66.7279C310.855 65.9619 311.071 64.8549 311.545 63.5469C312.029 62.2479 312.79 60.7439 313.989 59.3309C315.175 57.9129 316.842 56.6389 318.834 55.8419C320.826 55.0559 322.939 54.8509 324.768 55.2099C326.602 55.5589 328.111 56.3859 329.192 57.2659C330.272 58.1609 330.945 59.0939 331.313 59.7769C331.495 60.1209 331.622 60.3939 331.686 60.5889C331.757 60.7809 331.785 60.8839 331.769 60.8909Z" fill="#455A64"/>
<path d="M328.807 51.9656C328.756 52.0646 327.643 51.2226 325.531 50.7886C323.459 50.3376 320.319 50.4866 317.472 52.1166C314.628 53.7616 312.842 56.2956 311.883 58.2006C310.906 60.1276 310.609 61.4576 310.515 61.4306C310.484 61.4236 310.527 61.0856 310.675 60.4896C310.821 59.8936 311.095 59.0436 311.552 58.0396C312.445 56.0536 314.241 53.3836 317.212 51.6646C320.195 49.9556 323.485 49.8666 325.611 50.4286C326.687 50.7006 327.51 51.0776 328.036 51.3996C328.565 51.7176 328.824 51.9416 328.807 51.9656Z" fill="#455A64"/>
<path d="M256.755 328.944L368.513 330.467C368.513 330.467 399.767 317.389 408.353 317.037C416.939 316.685 433.983 317.777 441.867 330.467C450.016 343.583 451.155 366.723 426.041 383.54C401.586 399.916 289.753 415.048 274.422 413.656L246.163 375.724C246.163 375.724 245.867 344.637 246.163 343.156C246.459 341.676 251.196 328.353 251.196 328.353L256.755 328.944Z" fill="#263238"/>
<path d="M323.656 381.422L381.56 402.93L355.169 475.107C348.429 472.164 348.239 429.762 348.239 429.762L310.574 417.504L323.656 381.422Z" fill="#DABDFF"/>
<g opacity="0.6">
<path d="M353.272 406.3C354.165 405.043 356.089 404.652 357.382 405.492C358.675 406.332 359.089 408.284 358.219 409.557C357.348 410.83 355.053 411.37 353.863 410.39C352.672 409.41 352.311 407.091 353.462 406.064" fill="white"/>
</g>
<path d="M381.56 402.931L375.715 400.76L352.549 470.919C352.549 470.919 352.772 474.644 355.168 475.108L381.56 402.931Z" fill="#263238"/>
<path d="M347.446 430.798C347.802 430.915 348.606 429.211 350.374 427.892C352.107 426.526 353.96 426.19 353.939 425.815C353.989 425.465 351.69 425.22 349.579 426.856C347.453 428.472 347.094 430.756 347.446 430.798Z" fill="#263238"/>
<path d="M347.809 439.513C348.121 439.719 349.278 438.411 351.207 437.76C353.116 437.051 354.839 437.338 354.951 436.982C355.127 436.671 353.152 435.672 350.77 436.529C348.381 437.364 347.475 439.383 347.809 439.513Z" fill="#263238"/>
<path d="M355.297 447.126C355.489 446.833 353.907 445.699 351.647 445.898C349.384 446.081 348.015 447.465 348.254 447.721C348.471 448.026 349.898 447.335 351.757 447.199C353.611 447.021 355.134 447.463 355.297 447.126Z" fill="#263238"/>
<path d="M339.17 427.052C339.545 427.022 339.65 425.227 340.514 423.285C341.338 421.325 342.574 420.019 342.339 419.725C342.159 419.428 340.301 420.465 339.315 422.767C338.313 425.06 338.83 427.124 339.17 427.052Z" fill="#263238"/>
<path d="M331.236 422.202C331.38 422.259 332.107 420.946 332.539 418.58C332.752 417.403 332.867 415.965 332.76 414.374C332.706 413.579 332.596 412.746 332.418 411.895C332.326 411.485 332.254 411.011 331.967 410.493C331.742 409.968 330.889 409.404 330.151 409.646C329.461 409.813 328.983 410.379 328.781 410.895C328.569 411.421 328.518 411.891 328.473 412.319C328.374 413.194 328.365 414.045 328.422 414.849C328.545 416.457 328.929 417.868 329.391 418.982C330.329 421.224 331.437 422.277 331.549 422.181C331.724 422.064 330.918 420.845 330.261 418.673C329.935 417.59 329.673 416.264 329.623 414.785C329.603 414.045 329.635 413.269 329.742 412.475C329.82 411.637 330.053 410.985 330.465 410.913C330.621 410.889 330.675 410.899 330.84 411.14C330.986 411.38 331.075 411.764 331.167 412.169C331.35 412.96 331.477 413.735 331.56 414.478C331.724 415.966 331.711 417.325 331.621 418.462C331.444 420.742 331.043 422.138 331.236 422.202Z" fill="#263238"/>
<path d="M331.907 421.929C332.007 421.824 331 420.663 328.764 419.699C327.654 419.225 326.239 418.841 324.626 418.745C323.82 418.702 322.968 418.733 322.095 418.863C321.227 419.025 320.084 419.192 319.427 420.502C319.139 421.206 319.48 422.003 319.883 422.38C320.284 422.797 320.686 422.998 321.073 423.236C321.868 423.677 322.7 423.963 323.507 424.128C325.126 424.463 326.634 424.301 327.806 423.95C330.192 423.224 331.151 421.907 331.042 421.833C330.908 421.651 329.779 422.631 327.587 423.053C326.506 423.261 325.164 423.307 323.772 422.954C323.077 422.78 322.372 422.511 321.707 422.124C320.981 421.731 320.467 421.217 320.651 420.958C320.776 420.597 321.577 420.198 322.297 420.127C323.08 419.993 323.85 419.94 324.584 419.948C326.054 419.973 327.375 420.232 328.447 420.567C330.601 421.242 331.783 422.101 331.907 421.929Z" fill="#263238"/>
<path d="M275.892 372.504L219.857 398.495L251.837 468.376C258.325 464.912 255.183 422.627 255.183 422.627L291.769 407.447L275.892 372.504Z" fill="#DABDFF"/>
<g opacity="0.6">
<path d="M248.323 399.634C247.334 398.451 245.386 398.213 244.163 399.152C242.94 400.091 242.681 402.07 243.648 403.271C244.616 404.471 246.946 404.829 248.056 403.759C249.166 402.689 249.344 400.348 248.116 399.415" fill="white"/>
</g>
<path d="M219.857 398.496L225.513 395.873L254.12 463.995C254.12 463.995 254.19 467.726 251.838 468.377L219.857 398.496Z" fill="#263238"/>
<path d="M256.058 423.597C255.712 423.742 254.776 422.106 252.91 420.93C251.075 419.704 249.201 419.515 249.193 419.139C249.115 418.794 251.388 418.37 253.622 419.834C255.869 421.278 256.405 423.527 256.058 423.597Z" fill="#263238"/>
<path d="M256.38 432.314C256.085 432.544 254.829 431.331 252.855 430.833C250.896 430.276 249.202 430.698 249.061 430.352C248.861 430.056 250.751 428.905 253.193 429.572C255.641 430.216 256.703 432.158 256.38 432.314Z" fill="#263238"/>
<path d="M249.513 440.492C249.298 440.215 250.786 438.96 253.056 438.981C255.327 438.986 256.8 440.258 256.582 440.532C256.39 440.853 254.913 440.276 253.049 440.287C251.186 440.255 249.702 440.816 249.513 440.492Z" fill="#263238"/>
<path d="M264.013 419.212C263.637 419.211 263.391 417.43 262.377 415.562C261.401 413.673 260.067 412.468 260.278 412.156C260.434 411.846 262.368 412.733 263.531 414.951C264.711 417.159 264.357 419.258 264.013 419.212Z" fill="#263238"/>
<path d="M271.542 413.753C271.403 413.822 270.575 412.569 269.958 410.245C269.653 409.088 269.425 407.664 269.407 406.069C269.399 405.272 269.442 404.434 269.553 403.571C269.613 403.155 269.647 402.677 269.893 402.138C270.076 401.597 270.882 400.968 271.636 401.151C272.337 401.263 272.858 401.79 273.1 402.289C273.353 402.797 273.44 403.262 273.519 403.685C273.687 404.55 273.762 405.398 273.769 406.204C273.772 407.817 273.501 409.252 273.127 410.399C272.368 412.707 271.346 413.844 271.227 413.758C271.043 413.655 271.751 412.378 272.235 410.161C272.475 409.056 272.632 407.713 272.565 406.235C272.527 405.496 272.434 404.725 272.264 403.942C272.12 403.113 271.837 402.481 271.421 402.442C271.264 402.43 271.21 402.443 271.065 402.697C270.938 402.948 270.88 403.338 270.82 403.749C270.7 404.552 270.634 405.334 270.609 406.081C270.562 407.577 270.683 408.931 270.861 410.058C271.221 412.314 271.73 413.674 271.542 413.753Z" fill="#263238"/>
<path d="M270.85 413.533C270.742 413.436 271.655 412.2 273.808 411.063C274.878 410.504 276.258 410.009 277.858 409.787C278.658 409.681 279.51 409.644 280.391 409.706C281.269 409.8 282.422 409.876 283.18 411.13C283.522 411.81 283.245 412.631 282.873 413.038C282.506 413.486 282.121 413.717 281.754 413.985C280.996 414.487 280.189 414.838 279.398 415.066C277.81 415.527 276.294 415.484 275.099 415.226C272.663 414.689 271.604 413.452 271.707 413.37C271.826 413.178 273.029 414.066 275.247 414.314C276.341 414.436 277.682 414.377 279.042 413.916C279.721 413.688 280.403 413.364 281.035 412.926C281.728 412.477 282.199 411.924 281.996 411.681C281.843 411.331 281.013 410.996 280.29 410.982C279.499 410.91 278.727 410.918 277.996 410.983C276.533 411.123 275.236 411.485 274.193 411.904C272.098 412.746 270.987 413.695 270.85 413.533Z" fill="#263238"/>
<path d="M251.197 328.351C251.197 328.351 202.937 310.327 185.173 312.659C175.24 313.963 159.711 321.541 158.527 334.272C157.343 347.003 160.45 364.033 177.622 372.323C194.794 380.613 263.331 411.369 279.615 416.107C295.899 420.844 336.499 431.937 336.499 431.937L351.925 387.981C351.925 387.981 267.777 358.846 263.336 355.589C258.895 352.332 247.644 347.891 247.644 347.891L251.197 328.351Z" fill="#263238"/>
<path d="M418.959 334.328C418.956 334.336 418.843 334.307 418.624 334.241C418.38 334.167 418.06 334.07 417.655 333.947C416.803 333.691 415.543 333.322 413.901 332.931C412.259 332.546 410.233 332.109 407.852 331.879C405.471 331.643 402.733 331.631 399.732 331.889C396.734 332.153 393.458 332.695 390.074 333.729C388.385 334.248 386.663 334.88 384.98 335.717C383.276 336.548 381.523 337.404 379.726 338.281C372.506 341.732 364.444 345.265 355.856 348.657C338.659 355.547 322.151 358.817 310.383 361.491C304.478 362.797 299.705 363.872 296.415 364.655C294.794 365.039 293.524 365.34 292.626 365.552C292.213 365.645 291.887 365.719 291.638 365.775C291.415 365.823 291.299 365.843 291.297 365.834C291.295 365.825 291.406 365.788 291.625 365.724C291.871 365.655 292.193 365.565 292.601 365.451C293.461 365.221 294.727 364.868 296.368 364.458C299.645 363.615 304.408 362.484 310.304 361.132C322.058 358.365 338.522 355.043 355.667 348.173C364.244 344.785 372.301 341.27 379.522 337.848C381.32 336.979 383.075 336.131 384.779 335.307C386.494 334.464 388.24 333.833 389.951 333.316C393.376 332.288 396.681 331.764 399.703 331.522C402.729 331.285 405.486 331.323 407.883 331.589C410.284 331.85 412.311 332.317 413.951 332.734C415.592 333.156 416.846 333.557 417.689 333.846C418.087 333.989 418.403 334.103 418.643 334.19C418.855 334.274 418.962 334.32 418.959 334.328Z" fill="#455A64"/>
<path d="M416.422 327.967C416.405 328.051 414.953 327.788 412.59 327.533C410.228 327.276 406.945 327.083 403.327 327.265C399.708 327.455 396.462 327.984 394.139 328.482C391.814 328.978 390.397 329.388 390.371 329.306C390.36 329.272 390.704 329.135 391.336 328.917C391.967 328.693 392.896 328.419 394.055 328.123C396.372 327.53 399.644 326.937 403.3 326.745C406.955 326.561 410.27 326.815 412.636 327.168C413.82 327.343 414.772 327.521 415.422 327.678C416.074 327.831 416.43 327.932 416.422 327.967Z" fill="#455A64"/>
<path d="M230.895 341.117C230.839 341.19 229.502 340.153 227.189 338.721C224.881 337.286 221.546 335.526 217.637 334.14C213.723 332.765 210.021 332.043 207.324 331.711C204.625 331.375 202.934 331.343 202.936 331.25C202.936 331.214 203.359 331.194 204.125 331.188C204.891 331.173 206 331.222 207.365 331.345C210.094 331.585 213.853 332.258 217.811 333.649C221.764 335.05 225.113 336.885 227.388 338.411C228.528 339.172 229.422 339.83 230.009 340.322C230.601 340.808 230.918 341.089 230.895 341.117Z" fill="#455A64"/>
<path d="M255.112 406.676C255.112 406.676 255.242 406.719 255.489 406.82C255.749 406.929 256.111 407.081 256.585 407.28C257.557 407.672 258.961 408.339 260.849 409.063C264.607 410.555 270.163 412.599 277.287 414.942C291.542 419.6 312.035 425.535 336.555 431.711L336.278 431.859C340.848 419.173 345.892 405.174 351.197 390.447L351.342 390.773C345.424 388.344 339.195 385.786 332.866 383.188C292.139 366.426 255.537 351.362 230.63 341.112L230.595 341.098L230.57 341.071C226.409 336.665 222.58 332.785 218.991 329.651C215.401 326.52 212.101 324.102 209.284 322.337C206.482 320.543 204.169 319.413 202.624 318.622C201.847 318.259 201.252 317.982 200.835 317.787C200.434 317.597 200.234 317.488 200.234 317.488C200.234 317.488 200.447 317.566 200.855 317.741C201.276 317.925 201.879 318.188 202.666 318.532C204.227 319.295 206.559 320.401 209.385 322.175C212.225 323.92 215.553 326.324 219.17 329.444C222.787 332.566 226.644 336.439 230.822 340.83L230.762 340.789C255.685 351.001 292.31 366.008 333.063 382.706C339.391 385.306 345.62 387.864 351.537 390.295L351.766 390.389L351.682 390.621C346.361 405.343 341.303 419.336 336.72 432.018L336.647 432.219L336.442 432.167C311.919 425.947 291.439 419.947 277.199 415.209C270.083 412.826 264.537 410.739 260.794 409.201C258.913 408.455 257.517 407.764 256.555 407.349C256.088 407.135 255.73 406.972 255.474 406.855C255.231 406.742 255.112 406.676 255.112 406.676Z" fill="#455A64"/>
<path d="M374.395 174.549C374.395 174.549 388.29 182.554 391.106 191.959C392.816 197.669 405.778 270.723 407.829 285.128C409.899 299.672 405.553 310.205 399.41 314.983C393.267 319.761 374.645 326.128 374.645 326.128L348.447 334.614L340.939 315.503L365.878 279.678L363.465 255.545L374.395 174.549Z" fill="#DABDFF"/>
<path d="M347.082 161.927L336.637 155.967C336.637 155.967 327.128 167.091 314.159 165.725C301.19 164.36 293.51 154.434 293.51 154.434L254.836 162.309C252.241 162.829 247.508 164.469 242.983 170.934C237.934 178.148 214.004 210.135 214.004 210.135H197.243C192.624 210.135 188.381 212.689 186.232 216.778C183.371 222.225 179.936 229.51 180.271 232.528C180.838 237.63 179.854 251.641 186.698 256.015C188.869 257.402 196.634 261.564 202.66 261.28C211.551 260.861 221.878 256.231 227.828 252.071C232.866 248.548 244.584 236.37 249.091 231.617L249.085 231.691L251.979 333.149L353.381 330.261L374.395 174.548C374.395 174.55 348.106 161.927 347.082 161.927Z" fill="#DABDFF"/>
<path d="M248.731 189.113C248.875 189.111 249.14 201.687 249.323 217.198C249.506 232.714 249.538 245.29 249.394 245.292C249.25 245.294 248.985 232.721 248.802 217.205C248.619 201.693 248.587 189.114 248.731 189.113Z" fill="#263238"/>
<path d="M386.672 271.128C386.677 271.18 385.812 271.266 384.28 271.558C382.746 271.838 380.556 272.445 378.001 273.557C375.441 274.659 372.573 276.371 369.64 278.607C366.71 280.849 363.742 283.635 360.833 286.752C357.931 289.882 355.286 292.981 352.796 295.731C350.311 298.484 347.98 300.889 345.889 302.767C343.803 304.65 341.999 306.043 340.697 306.922C340.06 307.381 339.526 307.681 339.179 307.904C338.826 308.119 338.637 308.225 338.627 308.21C338.617 308.195 338.788 308.06 339.121 307.816C339.449 307.565 339.962 307.239 340.578 306.757C341.838 305.832 343.596 304.403 345.638 302.496C347.686 300.594 349.978 298.175 352.438 295.41C354.903 292.649 357.537 289.539 360.451 286.396C363.375 283.263 366.376 280.466 369.349 278.224C372.324 275.989 375.246 274.289 377.854 273.218C380.457 272.136 382.686 271.579 384.242 271.358C385.014 271.205 385.63 271.201 386.04 271.151C386.454 271.119 386.67 271.11 386.672 271.128Z" fill="#263238"/>
<path d="M388.968 264.256C388.982 264.35 387.433 264.563 385.017 265.233C382.603 265.897 379.338 267.116 376.051 269.066C372.769 271.029 370.143 273.319 368.409 275.126C366.669 276.932 365.745 278.192 365.669 278.135C365.64 278.114 365.85 277.785 366.257 277.205C366.655 276.62 367.296 275.818 368.14 274.874C369.822 272.983 372.453 270.61 375.784 268.618C379.121 266.637 382.46 265.454 384.924 264.876C386.156 264.583 387.166 264.401 387.87 264.33C388.574 264.248 388.963 264.22 388.968 264.256Z" fill="#263238"/>
<g opacity="0.3">
<path d="M200.24 246.448C205.607 247.911 212.054 240.187 216.929 235.355C219.465 232.841 222.102 230.159 223.036 226.712C223.808 223.865 223.304 220.792 222.193 218.059C221.082 215.326 220.296 213.555 218.624 211.125C219.074 215.292 220.099 221.677 218.697 226.915C217.528 231.283 214.759 234.759 211.824 238.056C208.716 241.546 205.042 245.208 200.24 246.448Z" fill="black"/>
</g>
<path d="M223.189 242.029C223.088 241.997 223.71 240.26 224.213 237.349C224.475 235.896 224.647 234.144 224.705 232.197C224.729 230.249 224.619 228.105 224.28 225.881C223.917 223.661 223.361 221.587 222.738 219.74C222.082 217.905 221.379 216.291 220.682 214.99C219.307 212.376 218.18 210.916 218.266 210.854C218.295 210.832 218.586 211.187 219.091 211.851C219.349 212.179 219.651 212.59 219.961 213.095C220.276 213.596 220.664 214.151 221.006 214.815C221.752 216.108 222.501 217.728 223.191 219.58C223.848 221.443 224.427 223.546 224.795 225.8C225.139 228.057 225.236 230.235 225.185 232.21C225.1 234.184 224.886 235.955 224.575 237.416C224.454 238.153 224.256 238.801 224.111 239.374C223.971 239.95 223.811 240.434 223.667 240.826C223.391 241.613 223.223 242.04 223.189 242.029Z" fill="#263238"/>
<path d="M297.732 158.354C297.801 158.49 296.613 159.181 295.37 160.297C294.117 161.403 293.293 162.503 293.166 162.419C293.048 162.353 293.709 161.071 295.024 159.909C296.331 158.738 297.681 158.229 297.732 158.354Z" fill="#263238"/>
<path d="M308.286 164.484C308.396 164.594 307.375 165.69 306.554 167.307C305.716 168.916 305.42 170.384 305.267 170.359C305.134 170.354 305.208 168.771 306.091 167.069C306.961 165.361 308.205 164.379 308.286 164.484Z" fill="#263238"/>
<path d="M326.352 170.847C326.207 170.879 325.795 169.491 325.191 167.822C324.592 166.151 324.024 164.819 324.156 164.751C324.278 164.685 325.068 165.936 325.681 167.645C326.299 169.353 326.488 170.82 326.352 170.847Z" fill="#263238"/>
<path d="M337.977 165.35C337.823 165.385 337.427 163.615 336.282 161.747C335.158 159.865 333.774 158.694 333.877 158.573C333.942 158.46 335.543 159.5 336.728 161.477C337.929 163.444 338.108 165.345 337.977 165.35Z" fill="#263238"/>
<path d="M371.365 198.205C371.508 198.224 369.791 212.082 367.531 229.155C365.27 246.233 363.323 260.058 363.18 260.039C363.038 260.02 364.754 246.165 367.014 229.087C369.274 212.014 371.222 198.187 371.365 198.205Z" fill="#263238"/>
<path d="M219.409 220.645C219.445 220.646 219.432 221.154 219.378 222.077C219.37 222.541 219.288 223.1 219.171 223.746C219.115 224.075 219.057 224.42 218.995 224.784C218.918 225.148 218.807 225.526 218.705 225.927C218.331 227.541 217.606 229.381 216.707 231.373C215.728 233.327 214.523 235.419 212.982 237.423C211.421 239.409 209.737 241.147 208.029 242.524C206.288 243.85 204.61 244.926 203.056 245.523C202.673 245.681 202.314 245.847 201.963 245.974C201.607 246.073 201.268 246.167 200.946 246.257C200.634 246.342 200.34 246.422 200.062 246.498C199.788 246.558 199.527 246.571 199.299 246.604C198.379 246.712 197.874 246.754 197.871 246.718C197.845 246.577 199.936 246.538 202.909 245.187C204.412 244.561 206.036 243.472 207.728 242.152C209.388 240.779 211.033 239.062 212.57 237.106C214.088 235.132 215.287 233.079 216.277 231.163C217.187 229.211 217.938 227.409 218.351 225.83C219.263 222.688 219.291 220.634 219.409 220.645Z" fill="#263238"/>
<g opacity="0.3">
<path d="M368.103 336.62C372.402 334.541 373.38 328.964 373.819 324.208C375.104 310.271 376.39 296.334 377.675 282.397C378.279 275.844 378.574 268.364 373.952 263.679C369.731 259.401 363.026 259.144 357.016 259.161C319.91 259.268 287.141 260.352 250.035 260.459L251.926 325.368L368.103 336.62Z" fill="black"/>
</g>
<path d="M234.043 270.516L237.994 345.799C238.146 348.701 240.571 350.976 243.512 350.974L363.432 351.183C366.378 351.182 368.806 348.895 368.95 345.987L373.526 271.983C373.678 268.91 371.491 264.821 368.378 264.76L239.672 264.772C236.464 264.709 233.877 267.35 234.043 270.516Z" fill="#E0E0E0"/>
<path d="M234.043 270.515C234.043 270.515 234.034 270.421 234.03 270.233C234.016 270.045 234.032 269.765 234.075 269.395C234.182 268.674 234.493 267.538 235.496 266.462C235.994 265.934 236.659 265.423 237.502 265.097C238.336 264.743 239.351 264.665 240.4 264.693C242.513 264.686 244.949 264.678 247.691 264.668C258.673 264.647 274.545 264.618 294.155 264.581C313.775 264.563 337.132 264.542 363.066 264.519C364.687 264.518 366.318 264.517 367.959 264.516C368.778 264.479 369.714 264.68 370.437 265.149C371.179 265.604 371.783 266.242 372.267 266.946C373.22 268.365 373.784 270.054 373.773 271.801C373.674 273.479 373.574 275.167 373.473 276.864C373.056 283.639 372.631 290.557 372.197 297.6C371.328 311.685 370.428 326.268 369.506 341.205L369.333 344.002C369.254 344.941 369.268 345.841 369.102 346.821C368.746 348.751 367.301 350.394 365.486 351.065C364.59 351.423 363.567 351.472 362.671 351.441L359.913 351.436C358.077 351.433 356.249 351.429 354.426 351.426C347.137 351.412 339.954 351.398 332.896 351.384C318.781 351.354 305.166 351.325 292.196 351.298C279.226 351.267 266.902 351.237 255.367 351.21C252.484 351.202 249.649 351.195 246.867 351.188C246.171 351.186 245.479 351.184 244.79 351.183C244.102 351.171 243.419 351.212 242.707 351.117C241.303 350.927 240 350.195 239.111 349.13C238.205 348.078 237.76 346.665 237.773 345.341C237.706 344.031 237.639 342.736 237.573 341.454C237.441 338.891 237.313 336.383 237.187 333.934C236.194 314.349 235.39 298.499 234.834 287.533C234.568 282.062 234.361 277.812 234.221 274.916C234.157 273.481 234.108 272.385 234.075 271.634C234.045 270.894 234.043 270.515 234.043 270.515C234.043 270.515 234.081 270.893 234.128 271.631C234.173 272.381 234.239 273.476 234.326 274.91C234.489 277.804 234.729 282.053 235.037 287.522C235.632 298.487 236.492 314.333 237.555 333.915C237.686 336.364 237.821 338.871 237.958 341.434C238.027 342.716 238.096 344.011 238.166 345.32C238.161 346.618 238.574 347.88 239.418 348.871C240.246 349.859 241.459 350.537 242.763 350.711C243.405 350.798 244.101 350.759 244.789 350.769C245.478 350.77 246.171 350.77 246.866 350.771C249.649 350.774 252.483 350.776 255.366 350.779C266.901 350.792 279.226 350.805 292.195 350.819C305.165 350.837 318.78 350.855 332.895 350.875C339.953 350.886 347.135 350.897 354.425 350.909C356.247 350.912 358.076 350.915 359.912 350.918L362.67 350.923C363.609 350.952 364.465 350.906 365.302 350.58C366.954 349.969 368.27 348.473 368.591 346.722C368.74 345.868 368.737 344.894 368.813 343.975L368.986 341.178C369.911 326.242 370.815 311.659 371.688 297.574C372.126 290.532 372.556 283.614 372.977 276.839C373.079 275.148 373.18 273.465 373.28 271.792C373.294 270.179 372.759 268.554 371.864 267.226C370.976 265.895 369.569 264.883 367.954 265.005C366.313 265.004 364.682 265.004 363.061 265.003C337.127 264.984 313.771 264.968 294.151 264.954C274.542 264.921 258.67 264.894 247.689 264.876C244.948 264.867 242.512 264.859 240.399 264.853C239.341 264.817 238.376 264.885 237.55 265.223C236.723 265.534 236.068 266.026 235.573 266.539C234.576 267.582 234.251 268.696 234.128 269.407C234.015 270.132 234.071 270.515 234.043 270.515Z" fill="#263238"/>
<path d="M304.674 314.296C308.575 314.296 311.737 311.134 311.737 307.233C311.737 303.332 308.575 300.17 304.674 300.17C300.774 300.17 297.611 303.332 297.611 307.233C297.611 311.134 300.774 314.296 304.674 314.296Z" fill="white"/>
<path d="M311.737 307.233C311.679 307.236 311.706 306.603 311.418 305.533C311.133 304.483 310.418 302.946 308.836 301.765C308.052 301.188 307.069 300.7 305.938 300.507C304.815 300.322 303.55 300.362 302.35 300.825C301.149 301.26 300.004 302.078 299.192 303.209C298.356 304.325 297.886 305.756 297.872 307.232C297.886 308.708 298.356 310.14 299.192 311.256C300.005 312.387 301.15 313.207 302.351 313.641C303.552 314.103 304.816 314.144 305.94 313.959C307.071 313.766 308.054 313.278 308.838 312.701C310.42 311.519 311.135 309.983 311.42 308.933C311.706 307.862 311.679 307.229 311.737 307.233C311.755 307.233 311.765 307.388 311.767 307.686C311.775 307.983 311.738 308.427 311.615 308.982C311.383 310.077 310.697 311.709 309.06 312.994C308.249 313.621 307.217 314.159 306.018 314.384C304.827 314.601 303.478 314.574 302.186 314.093C300.895 313.64 299.66 312.77 298.78 311.559C297.876 310.364 297.363 308.82 297.35 307.232C297.364 305.644 297.876 304.101 298.78 302.907C299.66 301.696 300.895 300.827 302.186 300.374C303.478 299.893 304.827 299.866 306.017 300.083C307.216 300.307 308.248 300.845 309.059 301.472C310.696 302.756 311.382 304.389 311.615 305.484C311.739 306.039 311.775 306.482 311.767 306.78C311.765 307.077 311.755 307.233 311.737 307.233Z" fill="#263238"/>
<path d="M238.082 278.848C238.226 278.843 238.817 291.494 239.402 307.101C239.987 322.714 240.345 335.371 240.202 335.376C240.058 335.381 239.467 322.733 238.882 307.12C238.297 291.513 237.939 278.853 238.082 278.848Z" fill="#263238"/>
<path d="M202.037 180.625C201.336 180.031 204.408 168.208 204.408 168.208C204.408 168.208 196.273 154.935 196.058 150.653C195.844 146.371 199.269 137.594 199.269 137.594L222.605 131.6C222.605 131.6 230.101 145.516 231.598 150.44C233.095 155.364 229.027 172.063 229.027 172.063L225.074 180.627C225.075 180.625 213.154 190.045 202.037 180.625Z" fill="#EDD0AE"/>
<path d="M196.104 153.212C196.104 153.212 195.092 151.458 193.646 148.03C192.169 144.526 190.354 141.09 193.646 139.131C195.583 137.978 197.162 138.576 197.162 138.576C197.162 138.576 196.657 135.627 198.419 134.52C200.181 133.413 201.879 134.219 201.879 134.219C201.879 134.219 201.323 130.059 203.86 128.295C207.042 126.082 210.323 128.111 210.323 128.111C210.323 128.111 208.315 109.901 208.14 108.936C207.501 105.395 208.811 102.263 212.334 103.136C213.625 103.456 214.342 104.817 215.856 110.747C217.37 116.677 219.803 126.798 219.803 126.798C219.803 126.798 223.901 133.92 225.837 137.782C227.773 141.645 231.6 150.439 231.918 152.768C232.742 158.793 229.214 166.769 229.214 166.769L204.408 168.208C204.408 168.208 197.049 154.94 196.104 153.212Z" fill="#EDD0AE"/>
<path d="M197.651 139.36C197.712 139.321 198.441 140.348 199.571 142.039C200.157 142.931 200.816 143.934 201.533 145.024C201.896 145.587 202.297 146.187 202.599 146.889C202.901 147.578 203.088 148.424 202.891 149.255C202.726 150.07 202.142 150.862 201.324 151.092C200.514 151.344 199.726 151.103 199.102 150.818C198.466 150.525 197.928 150.141 197.445 149.793C196.957 149.443 196.511 149.106 196.109 148.792C195.305 148.163 194.679 147.625 194.259 147.239C193.839 146.853 193.623 146.621 193.646 146.594C193.696 146.535 194.679 147.321 196.329 148.497C197.164 149.055 198.133 149.835 199.299 150.38C199.881 150.635 200.559 150.809 201.169 150.606C201.788 150.426 202.235 149.833 202.383 149.141C202.548 148.445 202.4 147.733 202.128 147.088C201.857 146.441 201.481 145.854 201.127 145.282C200.445 144.17 199.817 143.147 199.259 142.237C198.209 140.495 197.59 139.398 197.651 139.36Z" fill="#DAB67F"/>
<path d="M217.996 141.523C217.862 141.529 217.738 139.746 218.256 137.625C218.763 135.5 219.686 133.971 219.803 134.037C219.941 134.104 219.251 135.691 218.762 137.747C218.26 139.8 218.149 141.527 217.996 141.523Z" fill="#DAB67F"/>
<path d="M227.829 146.846C225.613 144.587 222.624 143.186 219.531 142.515C216.438 141.844 213.233 141.865 210.082 142.152C207.559 142.382 204.677 143.034 203.528 145.292C202.345 147.616 203.768 150.612 206.007 151.949C208.246 153.286 211.014 153.339 213.611 153.103C216.208 152.867 218.827 152.383 221.404 152.784" fill="#EDD0AE"/>
<path d="M221.403 152.785C221.397 152.829 220.704 152.719 219.445 152.734C218.185 152.735 216.379 152.965 214.129 153.239C213.002 153.364 211.753 153.468 210.405 153.396C209.066 153.319 207.597 153.069 206.226 152.346C204.848 151.636 203.668 150.351 203.121 148.736C202.839 147.934 202.766 147.031 202.945 146.154C203.151 145.284 203.626 144.459 204.313 143.86C205.697 142.637 207.471 142.245 209.082 142.009C210.718 141.811 212.287 141.73 213.795 141.725C216.806 141.714 219.527 142.159 221.681 142.919C223.842 143.669 225.427 144.674 226.414 145.473C226.912 145.871 227.268 146.215 227.5 146.455C227.728 146.7 227.84 146.835 227.828 146.847C227.793 146.883 227.31 146.371 226.292 145.634C225.281 144.895 223.699 143.959 221.565 143.268C219.438 142.568 216.768 142.168 213.798 142.205C212.317 142.223 210.745 142.315 209.152 142.515C207.585 142.747 205.897 143.148 204.664 144.247C204.048 144.783 203.636 145.509 203.452 146.267C203.296 147.036 203.351 147.842 203.607 148.576C204.1 150.055 205.183 151.257 206.452 151.923C207.731 152.613 209.132 152.873 210.433 152.965C211.742 153.053 212.972 152.973 214.093 152.873C216.335 152.647 218.174 152.47 219.448 152.532C220.084 152.554 220.576 152.617 220.906 152.667C221.236 152.725 221.406 152.767 221.403 152.785Z" fill="#DAB67F"/>
<path d="M197.832 139.645C200.442 143.609 202.746 147.965 204.946 152.17C205.586 153.393 206.263 154.687 207.438 155.411C208.379 155.991 210.714 154.939 211.759 154.58L204.593 138.273" fill="#EDD0AE"/>
<path d="M204.593 138.274C204.623 138.261 204.847 138.691 205.23 139.489C205.64 140.372 206.172 141.518 206.817 142.904C208.145 145.811 209.965 149.875 211.996 154.477L212.108 154.731L211.843 154.825C211.069 155.101 210.238 155.45 209.342 155.675C208.988 155.761 208.627 155.83 208.246 155.839C208.057 155.842 207.86 155.835 207.659 155.777C207.455 155.733 207.254 155.605 207.119 155.511C206.515 155.092 206.053 154.536 205.676 153.967C204.939 152.811 204.419 151.65 203.837 150.573C202.711 148.404 201.679 146.463 200.784 144.848C199.892 143.231 199.138 141.941 198.615 141.051C198.092 140.16 197.8 139.668 197.833 139.646C197.86 139.628 198.21 140.083 198.787 140.943C199.365 141.802 200.169 143.068 201.105 144.666C202.043 146.262 203.112 148.191 204.262 150.35C204.853 151.416 205.4 152.601 206.101 153.685C206.46 154.22 206.884 154.721 207.414 155.086C207.864 155.454 208.561 155.319 209.217 155.171C210.065 154.959 210.871 154.623 211.676 154.338L211.523 154.686C209.507 150.077 207.744 145.988 206.5 143.044C205.914 141.632 205.43 140.465 205.057 139.566C204.729 138.744 204.563 138.287 204.593 138.274Z" fill="#DAB67F"/>
<path d="M202.66 133.427C204.963 139.204 207.267 144.981 209.571 150.758C210.06 151.984 210.564 153.236 211.429 154.234C212.294 155.232 213.602 155.945 214.908 155.75C216.708 155.481 217.886 153.571 217.977 151.753C218.068 149.935 217.349 148.188 216.684 146.493C214.617 141.226 212.958 135.798 211.728 130.275" fill="#EDD0AE"/>
<path d="M211.727 130.275C211.745 130.271 211.804 130.453 211.901 130.803C212.01 131.209 212.145 131.716 212.311 132.335C212.668 133.664 213.188 135.587 213.919 137.935C214.648 140.283 215.59 143.057 216.78 146.08C217.357 147.586 218.104 149.189 218.227 151.038C218.294 151.95 218.134 152.93 217.705 153.791C217.284 154.648 216.591 155.448 215.628 155.826C214.664 156.212 213.572 156.047 212.725 155.591C211.861 155.145 211.177 154.437 210.685 153.669C209.705 152.108 209.229 150.457 208.594 148.96C207.414 145.944 206.347 143.217 205.441 140.902C204.581 138.653 203.876 136.809 203.357 135.453C203.138 134.85 202.959 134.357 202.815 133.962C202.697 133.619 202.642 133.436 202.659 133.429C202.676 133.422 202.763 133.593 202.913 133.923C203.081 134.309 203.29 134.79 203.546 135.378C204.103 136.718 204.86 138.542 205.783 140.766C206.719 143.069 207.821 145.781 209.04 148.782C209.683 150.272 210.19 151.943 211.111 153.389C211.576 154.107 212.193 154.734 212.963 155.131C213.72 155.534 214.636 155.661 215.438 155.341C216.243 155.028 216.86 154.335 217.24 153.563C217.628 152.781 217.775 151.922 217.718 151.068C217.614 149.351 216.905 147.775 216.333 146.255C215.162 143.208 214.253 140.411 213.567 138.042C212.879 135.672 212.412 133.731 212.115 132.384C211.97 131.71 211.862 131.185 211.8 130.828C211.735 130.469 211.71 130.279 211.727 130.275Z" fill="#DAB67F"/>
<path d="M203.217 174.061C203.217 174.061 187.392 220.704 186.767 222.994C186.142 225.284 189.89 241.943 196.762 245.899C203.634 249.855 216.96 233.405 218.626 227.367C220.292 221.328 218.626 211.125 218.626 211.125L229.294 170.934" fill="#EDD0AE"/>
<path d="M218.627 166.811C218.62 166.87 218.037 166.877 217.138 166.616C216.242 166.359 215.052 165.776 213.99 164.806C212.932 163.832 212.248 162.696 211.914 161.826C211.575 160.953 211.533 160.371 211.59 160.359C211.741 160.297 212.29 162.578 214.341 164.422C216.355 166.306 218.676 166.656 218.627 166.811Z" fill="#DAB67F"/>
<path d="M502.811 392.942C502.811 393.086 414.698 393.202 306.031 393.202C197.326 393.202 109.232 393.085 109.232 392.942C109.232 392.798 197.326 392.682 306.031 392.682C414.699 392.681 502.811 392.798 502.811 392.942Z" fill="#263238"/>
<path d="M237.447 99.1913H56.6386C51.9362 99.1913 48.123 96.1476 48.123 92.3941V52.3635C48.123 48.6101 51.9346 45.5664 56.6386 45.5664H237.447C242.15 45.5664 245.963 48.6101 245.963 52.3635V92.3941C245.961 96.1489 242.15 99.1913 237.447 99.1913Z" fill="#DABDFF"/>
<path d="M247.242 99.1826H73.3746C68.3645 99.1826 64.2871 95.9293 64.2871 91.9289V52.6364C64.2871 48.6374 68.3629 45.3828 73.3746 45.3828H247.242C252.252 45.3828 256.329 48.6374 256.329 52.6364V91.9289C256.327 95.9293 252.252 99.1826 247.242 99.1826ZM73.3746 46.6687C69.2521 46.6687 65.8981 49.3459 65.8981 52.6364V91.9289C65.8981 95.2195 69.2505 97.8967 73.3746 97.8967H247.242C251.364 97.8967 254.718 95.2195 254.718 91.9289V52.6364C254.718 49.3459 251.366 46.6687 247.242 46.6687H73.3746Z" fill="#DABDFF"/>
<path d="M91.8501 63.2898H89.7251C89.6645 62.9413 89.5528 62.6326 89.3899 62.3636C89.227 62.0909 89.0244 61.8598 88.782 61.6705C88.5395 61.4811 88.263 61.339 87.9524 61.2443C87.6456 61.1458 87.3142 61.0966 86.9581 61.0966C86.3255 61.0966 85.7649 61.2557 85.2763 61.5739C84.7876 61.8883 84.4051 62.3504 84.1286 62.9602C83.852 63.5663 83.7138 64.3068 83.7138 65.1818C83.7138 66.072 83.852 66.822 84.1286 67.4318C84.4089 68.0379 84.7914 68.4962 85.2763 68.8068C85.7649 69.1136 86.3236 69.267 86.9524 69.267C87.3009 69.267 87.6267 69.2216 87.9297 69.1307C88.2365 69.036 88.5111 68.8977 88.7536 68.7159C88.9998 68.5341 89.2062 68.3106 89.3729 68.0455C89.5433 67.7803 89.6607 67.4773 89.7251 67.1364L91.8501 67.1477C91.7706 67.7008 91.5982 68.2197 91.3331 68.7045C91.0717 69.1894 90.7289 69.6174 90.3047 69.9886C89.8804 70.3561 89.3842 70.6439 88.8161 70.8523C88.2479 71.0568 87.6172 71.1591 86.924 71.1591C85.9013 71.1591 84.9884 70.9223 84.1854 70.4489C83.3823 69.9754 82.7498 69.2917 82.2876 68.3977C81.8255 67.5038 81.5945 66.4318 81.5945 65.1818C81.5945 63.928 81.8274 62.8561 82.2933 61.9659C82.7592 61.072 83.3937 60.3883 84.1967 59.9148C84.9998 59.4413 85.9089 59.2045 86.924 59.2045C87.5717 59.2045 88.174 59.2955 88.7308 59.4773C89.2876 59.6591 89.7839 59.9261 90.2195 60.2784C90.6551 60.6269 91.013 61.0549 91.2933 61.5625C91.5774 62.0663 91.763 62.642 91.8501 63.2898ZM95.7464 59.3636V71H93.6896V59.3636H95.7464ZM97.8615 71V62.2727H99.9183V71H97.8615ZM98.8956 61.0341C98.5698 61.0341 98.2895 60.9261 98.0547 60.7102C97.8198 60.4905 97.7024 60.2273 97.7024 59.9205C97.7024 59.6098 97.8198 59.3466 98.0547 59.1307C98.2895 58.911 98.5698 58.8011 98.8956 58.8011C99.2251 58.8011 99.5054 58.911 99.7365 59.1307C99.9714 59.3466 100.089 59.6098 100.089 59.9205C100.089 60.2273 99.9714 60.4905 99.7365 60.7102C99.5054 60.9261 99.2251 61.0341 98.8956 61.0341ZM105.84 71.1705C104.969 71.1705 104.221 70.9792 103.596 70.5966C102.975 70.214 102.496 69.6856 102.158 69.0114C101.825 68.3333 101.658 67.553 101.658 66.6705C101.658 65.7841 101.829 65.0019 102.17 64.3239C102.511 63.642 102.992 63.1117 103.613 62.733C104.238 62.3504 104.977 62.1591 105.829 62.1591C106.537 62.1591 107.164 62.2898 107.71 62.5511C108.259 62.8087 108.696 63.1742 109.022 63.6477C109.348 64.1174 109.533 64.6667 109.579 65.2955H107.613C107.533 64.875 107.344 64.5246 107.045 64.2443C106.749 63.9602 106.353 63.8182 105.857 63.8182C105.437 63.8182 105.067 63.9318 104.749 64.1591C104.431 64.3826 104.183 64.7045 104.005 65.125C103.831 65.5455 103.744 66.0492 103.744 66.6364C103.744 67.2311 103.831 67.7424 104.005 68.1705C104.179 68.5947 104.424 68.9223 104.738 69.1534C105.056 69.3807 105.429 69.4943 105.857 69.4943C106.16 69.4943 106.431 69.4375 106.67 69.3239C106.912 69.2064 107.115 69.0379 107.278 68.8182C107.441 68.5985 107.552 68.3314 107.613 68.017H109.579C109.53 68.6345 109.348 69.1818 109.033 69.6591C108.719 70.1326 108.291 70.5038 107.749 70.7727C107.208 71.0379 106.571 71.1705 105.84 71.1705ZM113.143 68.2614L113.137 65.7784H113.467L116.603 62.2727H119.006L115.148 66.5682H114.722L113.143 68.2614ZM111.268 71V59.3636H113.325V71H111.268ZM116.745 71L113.904 67.0284L115.29 65.5795L119.205 71H116.745ZM123.925 61.1307V59.3636H133.21V61.1307H129.613V71H127.522V61.1307H123.925ZM136.965 65.8864V71H134.908V59.3636H136.92V63.7557H137.022C137.227 63.2633 137.543 62.875 137.971 62.5909C138.403 62.303 138.952 62.1591 139.619 62.1591C140.225 62.1591 140.753 62.286 141.204 62.5398C141.655 62.7936 142.003 63.1648 142.249 63.6534C142.499 64.142 142.624 64.7386 142.624 65.4432V71H140.567V65.7614C140.567 65.1742 140.416 64.7178 140.113 64.392C139.814 64.0625 139.393 63.8977 138.852 63.8977C138.488 63.8977 138.162 63.9773 137.874 64.1364C137.59 64.2917 137.367 64.517 137.204 64.8125C137.045 65.108 136.965 65.4659 136.965 65.8864ZM148.585 71.1705C147.71 71.1705 146.954 70.9886 146.317 70.625C145.685 70.2576 145.198 69.7386 144.857 69.0682C144.516 68.3939 144.346 67.6004 144.346 66.6875C144.346 65.7898 144.516 65.0019 144.857 64.3239C145.202 63.642 145.683 63.1117 146.3 62.733C146.918 62.3504 147.643 62.1591 148.477 62.1591C149.014 62.1591 149.522 62.2462 149.999 62.4205C150.48 62.5909 150.905 62.8561 151.272 63.2159C151.643 63.5758 151.935 64.0341 152.147 64.5909C152.359 65.1439 152.465 65.803 152.465 66.5682V67.1989H145.312V65.8125H150.494C150.49 65.4186 150.405 65.0682 150.238 64.7614C150.071 64.4508 149.838 64.2064 149.539 64.0284C149.244 63.8504 148.899 63.7614 148.505 63.7614C148.085 63.7614 147.715 63.8636 147.397 64.0682C147.079 64.2689 146.831 64.5341 146.653 64.8636C146.478 65.1894 146.389 65.5473 146.386 65.9375V67.1477C146.386 67.6553 146.478 68.0909 146.664 68.4545C146.85 68.8144 147.109 69.0909 147.442 69.2841C147.776 69.4735 148.166 69.5682 148.613 69.5682C148.912 69.5682 149.183 69.5265 149.425 69.4432C149.668 69.3561 149.878 69.2292 150.056 69.0625C150.234 68.8958 150.369 68.6894 150.46 68.4432L152.38 68.6591C152.259 69.1667 152.028 69.6098 151.687 69.9886C151.35 70.3636 150.918 70.6553 150.391 70.8636C149.865 71.0682 149.263 71.1705 148.585 71.1705ZM168.225 63.2898H166.1C166.04 62.9413 165.928 62.6326 165.765 62.3636C165.602 62.0909 165.399 61.8598 165.157 61.6705C164.915 61.4811 164.638 61.339 164.327 61.2443C164.021 61.1458 163.689 61.0966 163.333 61.0966C162.701 61.0966 162.14 61.2557 161.651 61.5739C161.163 61.8883 160.78 62.3504 160.504 62.9602C160.227 63.5663 160.089 64.3068 160.089 65.1818C160.089 66.072 160.227 66.822 160.504 67.4318C160.784 68.0379 161.166 68.4962 161.651 68.8068C162.14 69.1136 162.699 69.267 163.327 69.267C163.676 69.267 164.002 69.2216 164.305 69.1307C164.612 69.036 164.886 68.8977 165.129 68.7159C165.375 68.5341 165.581 68.3106 165.748 68.0455C165.918 67.7803 166.036 67.4773 166.1 67.1364L168.225 67.1477C168.146 67.7008 167.973 68.2197 167.708 68.7045C167.447 69.1894 167.104 69.6174 166.68 69.9886C166.255 70.3561 165.759 70.6439 165.191 70.8523C164.623 71.0568 163.992 71.1591 163.299 71.1591C162.276 71.1591 161.363 70.9223 160.56 70.4489C159.757 69.9754 159.125 69.2917 158.663 68.3977C158.201 67.5038 157.969 66.4318 157.969 65.1818C157.969 63.928 158.202 62.8561 158.668 61.9659C159.134 61.072 159.769 60.3883 160.572 59.9148C161.375 59.4413 162.284 59.2045 163.299 59.2045C163.947 59.2045 164.549 59.2955 165.106 59.4773C165.663 59.6591 166.159 59.9261 166.594 60.2784C167.03 60.6269 167.388 61.0549 167.668 61.5625C167.952 62.0663 168.138 62.642 168.225 63.2898ZM172.576 71.1761C172.023 71.1761 171.525 71.0777 171.082 70.8807C170.642 70.6799 170.294 70.3845 170.036 69.9943C169.782 69.6042 169.656 69.1231 169.656 68.5511C169.656 68.0587 169.746 67.6515 169.928 67.3295C170.11 67.0076 170.358 66.75 170.673 66.5568C170.987 66.3636 171.341 66.2178 171.735 66.1193C172.133 66.017 172.544 65.9432 172.968 65.8977C173.479 65.8447 173.894 65.7973 174.212 65.7557C174.531 65.7102 174.762 65.642 174.906 65.5511C175.053 65.4564 175.127 65.3106 175.127 65.1136V65.0795C175.127 64.6515 175 64.3201 174.746 64.0852C174.493 63.8504 174.127 63.733 173.65 63.733C173.146 63.733 172.746 63.8428 172.451 64.0625C172.159 64.2822 171.962 64.5417 171.86 64.8409L169.94 64.5682C170.091 64.0379 170.341 63.5947 170.69 63.2386C171.038 62.8788 171.464 62.6098 171.968 62.4318C172.472 62.25 173.029 62.1591 173.638 62.1591C174.059 62.1591 174.478 62.2083 174.894 62.3068C175.311 62.4053 175.692 62.5682 176.036 62.7955C176.381 63.0189 176.657 63.3239 176.866 63.7102C177.078 64.0966 177.184 64.5795 177.184 65.1591V71H175.207V69.8011H175.138C175.013 70.0436 174.837 70.2708 174.61 70.483C174.387 70.6913 174.104 70.8598 173.763 70.9886C173.426 71.1136 173.031 71.1761 172.576 71.1761ZM173.11 69.6648C173.523 69.6648 173.881 69.5833 174.184 69.4205C174.487 69.2538 174.72 69.0341 174.883 68.7614C175.049 68.4886 175.133 68.1913 175.133 67.8693V66.8409C175.068 66.8939 174.959 66.9432 174.803 66.9886C174.652 67.0341 174.481 67.0739 174.292 67.108C174.103 67.142 173.915 67.1723 173.729 67.1989C173.544 67.2254 173.383 67.2481 173.246 67.267C172.94 67.3087 172.665 67.3769 172.423 67.4716C172.18 67.5663 171.989 67.6989 171.849 67.8693C171.709 68.036 171.638 68.2519 171.638 68.517C171.638 68.8958 171.777 69.1818 172.053 69.375C172.33 69.5682 172.682 69.6648 173.11 69.6648ZM179.252 71V62.2727H181.246V63.7273H181.337C181.496 63.2235 181.769 62.8352 182.156 62.5625C182.546 62.286 182.991 62.1477 183.491 62.1477C183.604 62.1477 183.731 62.1534 183.871 62.1648C184.015 62.1723 184.135 62.1856 184.229 62.2045V64.0966C184.142 64.0663 184.004 64.0398 183.815 64.017C183.629 63.9905 183.449 63.9773 183.275 63.9773C182.9 63.9773 182.563 64.0587 182.263 64.2216C181.968 64.3807 181.735 64.6023 181.565 64.8864C181.394 65.1705 181.309 65.4981 181.309 65.8693V71H179.252ZM188.475 71.1534C187.79 71.1534 187.176 70.9773 186.634 70.625C186.093 70.2727 185.665 69.7614 185.35 69.0909C185.036 68.4205 184.879 67.6061 184.879 66.6477C184.879 65.678 185.038 64.8598 185.356 64.1932C185.678 63.5227 186.112 63.017 186.657 62.6761C187.202 62.3314 187.81 62.1591 188.481 62.1591C188.992 62.1591 189.413 62.2462 189.742 62.4205C190.072 62.5909 190.333 62.7973 190.526 63.0398C190.719 63.2784 190.869 63.5038 190.975 63.7159H191.06V59.3636H193.123V71H191.1V69.625H190.975C190.869 69.8371 190.716 70.0625 190.515 70.3011C190.314 70.536 190.049 70.7367 189.719 70.9034C189.39 71.0701 188.975 71.1534 188.475 71.1534ZM189.049 69.4659C189.485 69.4659 189.856 69.3485 190.163 69.1136C190.469 68.875 190.702 68.5436 190.862 68.1193C191.021 67.6951 191.1 67.2008 191.1 66.6364C191.1 66.072 191.021 65.5814 190.862 65.1648C190.706 64.7481 190.475 64.4242 190.168 64.1932C189.865 63.9621 189.492 63.8466 189.049 63.8466C188.591 63.8466 188.208 63.9659 187.901 64.2045C187.594 64.4432 187.363 64.7727 187.208 65.1932C187.053 65.6136 186.975 66.0947 186.975 66.6364C186.975 67.1818 187.053 67.6686 187.208 68.0966C187.367 68.5208 187.6 68.8561 187.907 69.1023C188.218 69.3447 188.598 69.4659 189.049 69.4659ZM198.863 61.1307V59.3636H208.147V61.1307H204.55V71H202.46V61.1307H198.863ZM212.387 71.1705C211.535 71.1705 210.796 70.983 210.171 70.608C209.546 70.233 209.061 69.7083 208.717 69.0341C208.376 68.3598 208.205 67.572 208.205 66.6705C208.205 65.7689 208.376 64.9792 208.717 64.3011C209.061 63.6231 209.546 63.0966 210.171 62.7216C210.796 62.3466 211.535 62.1591 212.387 62.1591C213.239 62.1591 213.978 62.3466 214.603 62.7216C215.228 63.0966 215.711 63.6231 216.052 64.3011C216.397 64.9792 216.569 65.7689 216.569 66.6705C216.569 67.572 216.397 68.3598 216.052 69.0341C215.711 69.7083 215.228 70.233 214.603 70.608C213.978 70.983 213.239 71.1705 212.387 71.1705ZM212.398 69.5227C212.861 69.5227 213.247 69.3958 213.558 69.142C213.868 68.8845 214.099 68.5398 214.251 68.108C214.406 67.6761 214.484 67.1951 214.484 66.6648C214.484 66.1307 214.406 65.6477 214.251 65.2159C214.099 64.7803 213.868 64.4337 213.558 64.1761C213.247 63.9186 212.861 63.7898 212.398 63.7898C211.925 63.7898 211.531 63.9186 211.217 64.1761C210.906 64.4337 210.673 64.7803 210.518 65.2159C210.366 65.6477 210.29 66.1307 210.29 66.6648C210.29 67.1951 210.366 67.6761 210.518 68.108C210.673 68.5398 210.906 68.8845 211.217 69.142C211.531 69.3958 211.925 69.5227 212.398 69.5227ZM106.585 90V78.3636H108.693V83.7102H108.835L113.375 78.3636H115.949L111.449 83.5852L115.989 90H113.455L109.983 85.0114L108.693 86.5341V90H106.585ZM119.379 84.8864V90H117.322V81.2727H119.288V82.7557H119.391C119.591 82.267 119.911 81.8788 120.351 81.5909C120.794 81.303 121.341 81.1591 121.993 81.1591C122.595 81.1591 123.12 81.2879 123.567 81.5455C124.018 81.803 124.366 82.1761 124.612 82.6648C124.862 83.1534 124.985 83.7462 124.982 84.4432V90H122.925V84.7614C122.925 84.178 122.773 83.7216 122.47 83.392C122.171 83.0625 121.756 82.8977 121.226 82.8977C120.866 82.8977 120.546 82.9773 120.266 83.1364C119.989 83.2917 119.771 83.517 119.612 83.8125C119.457 84.108 119.379 84.4659 119.379 84.8864ZM130.879 90.1705C130.027 90.1705 129.288 89.983 128.663 89.608C128.038 89.233 127.554 88.7083 127.209 88.0341C126.868 87.3598 126.697 86.572 126.697 85.6705C126.697 84.7689 126.868 83.9792 127.209 83.3011C127.554 82.6231 128.038 82.0966 128.663 81.7216C129.288 81.3466 130.027 81.1591 130.879 81.1591C131.732 81.1591 132.47 81.3466 133.095 81.7216C133.72 82.0966 134.203 82.6231 134.544 83.3011C134.889 83.9792 135.061 84.7689 135.061 85.6705C135.061 86.572 134.889 87.3598 134.544 88.0341C134.203 88.7083 133.72 89.233 133.095 89.608C132.47 89.983 131.732 90.1705 130.879 90.1705ZM130.891 88.5227C131.353 88.5227 131.739 88.3958 132.05 88.142C132.36 87.8845 132.591 87.5398 132.743 87.108C132.898 86.6761 132.976 86.1951 132.976 85.6648C132.976 85.1307 132.898 84.6477 132.743 84.2159C132.591 83.7803 132.36 83.4337 132.05 83.1761C131.739 82.9186 131.353 82.7898 130.891 82.7898C130.417 82.7898 130.023 82.9186 129.709 83.1761C129.398 83.4337 129.165 83.7803 129.01 84.2159C128.858 84.6477 128.783 85.1307 128.783 85.6648C128.783 86.1951 128.858 86.6761 129.01 87.108C129.165 87.5398 129.398 87.8845 129.709 88.142C130.023 88.3958 130.417 88.5227 130.891 88.5227ZM138.358 90L135.892 81.2727H137.989L139.523 87.4091H139.602L141.17 81.2727H143.244L144.812 87.375H144.898L146.409 81.2727H148.511L146.04 90H143.898L142.261 84.1023H142.142L140.506 90H138.358ZM154.007 78.3636H156.587L160.041 86.7955H160.178L163.632 78.3636H166.212V90H164.189V82.0057H164.081L160.865 89.9659H159.354L156.138 81.9886H156.03V90H154.007V78.3636ZM172.223 90.1705C171.371 90.1705 170.632 89.983 170.007 89.608C169.382 89.233 168.897 88.7083 168.553 88.0341C168.212 87.3598 168.041 86.572 168.041 85.6705C168.041 84.7689 168.212 83.9792 168.553 83.3011C168.897 82.6231 169.382 82.0966 170.007 81.7216C170.632 81.3466 171.371 81.1591 172.223 81.1591C173.075 81.1591 173.814 81.3466 174.439 81.7216C175.064 82.0966 175.547 82.6231 175.888 83.3011C176.232 83.9792 176.405 84.7689 176.405 85.6705C176.405 86.572 176.232 87.3598 175.888 88.0341C175.547 88.7083 175.064 89.233 174.439 89.608C173.814 89.983 173.075 90.1705 172.223 90.1705ZM172.234 88.5227C172.696 88.5227 173.083 88.3958 173.393 88.142C173.704 87.8845 173.935 87.5398 174.087 87.108C174.242 86.6761 174.32 86.1951 174.32 85.6648C174.32 85.1307 174.242 84.6477 174.087 84.2159C173.935 83.7803 173.704 83.4337 173.393 83.1761C173.083 82.9186 172.696 82.7898 172.234 82.7898C171.761 82.7898 171.367 82.9186 171.053 83.1761C170.742 83.4337 170.509 83.7803 170.354 84.2159C170.202 84.6477 170.126 85.1307 170.126 85.6648C170.126 86.1951 170.202 86.6761 170.354 87.108C170.509 87.5398 170.742 87.8845 171.053 88.142C171.367 88.3958 171.761 88.5227 172.234 88.5227ZM178.151 90V81.2727H180.145V82.7273H180.236C180.395 82.2235 180.668 81.8352 181.054 81.5625C181.444 81.286 181.889 81.1477 182.389 81.1477C182.503 81.1477 182.63 81.1534 182.77 81.1648C182.914 81.1723 183.033 81.1856 183.128 81.2045V83.0966C183.041 83.0663 182.902 83.0398 182.713 83.017C182.527 82.9905 182.348 82.9773 182.173 82.9773C181.798 82.9773 181.461 83.0587 181.162 83.2216C180.866 83.3807 180.634 83.6023 180.463 83.8864C180.293 84.1705 180.207 84.4981 180.207 84.8693V90H178.151ZM187.999 90.1705C187.124 90.1705 186.368 89.9886 185.732 89.625C185.099 89.2576 184.612 88.7386 184.271 88.0682C183.93 87.3939 183.76 86.6004 183.76 85.6875C183.76 84.7898 183.93 84.0019 184.271 83.3239C184.616 82.642 185.097 82.1117 185.714 81.733C186.332 81.3504 187.057 81.1591 187.891 81.1591C188.429 81.1591 188.936 81.2462 189.413 81.4205C189.894 81.5909 190.319 81.8561 190.686 82.2159C191.057 82.5758 191.349 83.0341 191.561 83.5909C191.773 84.1439 191.879 84.803 191.879 85.5682V86.1989H184.726V84.8125H189.908C189.904 84.4186 189.819 84.0682 189.652 83.7614C189.485 83.4508 189.252 83.2064 188.953 83.0284C188.658 82.8504 188.313 82.7614 187.919 82.7614C187.499 82.7614 187.129 82.8636 186.811 83.0682C186.493 83.2689 186.245 83.5341 186.067 83.8636C185.893 84.1894 185.804 84.5473 185.8 84.9375V86.1477C185.8 86.6553 185.893 87.0909 186.078 87.4545C186.264 87.8144 186.523 88.0909 186.857 88.2841C187.19 88.4735 187.58 88.5682 188.027 88.5682C188.326 88.5682 188.597 88.5265 188.839 88.4432C189.082 88.3561 189.292 88.2292 189.47 88.0625C189.648 87.8958 189.783 87.6894 189.874 87.4432L191.794 87.6591C191.673 88.1667 191.442 88.6098 191.101 88.9886C190.764 89.3636 190.332 89.6553 189.805 89.8636C189.279 90.0682 188.677 90.1705 187.999 90.1705Z" fill="white"/>
<path d="M249.003 97.9917C248.812 98.0958 247.292 96.5901 245.611 94.6278C243.929 92.6656 242.719 90.9901 242.911 90.886C243.102 90.7818 244.62 92.2876 246.303 94.2498C247.985 96.212 249.195 97.8875 249.003 97.9917Z" fill="#DABDFF"/>
<path d="M255.523 56.5551C255.336 56.6632 252.948 54.292 250.192 51.2573C247.436 48.2227 245.353 45.6741 245.541 45.566C245.728 45.458 248.115 47.8292 250.872 50.8639C253.628 53.8985 255.711 56.4471 255.523 56.5551Z" fill="#DABDFF"/>
<path d="M254.833 90.8899C254.598 91.0198 252.183 88.2423 249.532 84.6868C248.195 82.9123 247.023 81.2883 246.192 80.1065C245.369 78.9197 244.855 78.1944 244.948 78.1391C245.184 78.0093 247.598 80.7855 250.252 84.3422C251.589 86.1167 252.76 87.7395 253.591 88.9225C254.411 90.1094 254.925 90.8346 254.833 90.8899Z" fill="#DABDFF"/>
<path d="M255.571 79.6796C255.334 79.8108 252.756 76.8173 249.897 72.9969C248.457 71.09 247.192 69.3463 246.295 68.0759C245.404 66.8016 244.85 66.0223 244.942 65.967C245.178 65.8359 247.756 68.8294 250.615 72.6497C252.056 74.5567 253.32 76.3003 254.217 77.5695C255.108 78.8464 255.663 79.6243 255.571 79.6796Z" fill="#DABDFF"/>
<path d="M255.552 68.581C255.314 68.7122 252.725 65.7019 249.85 61.861C248.401 59.9438 247.129 58.1911 246.227 56.9143C245.331 55.6322 244.773 54.8504 244.865 54.7951C245.102 54.664 247.693 57.6742 250.568 61.5151C252.016 63.4324 253.287 65.185 254.191 66.4606C255.087 67.7426 255.644 68.5257 255.552 68.581Z" fill="#DABDFF"/>
<path d="M43.2472 53.8791C43.1892 54.0578 38.6076 53.2555 33.0176 52.0866C27.4259 50.9177 22.941 49.826 23.0006 49.646C23.0586 49.4673 27.6386 50.2697 33.2302 51.4385C38.8203 52.6087 43.3052 53.7004 43.2472 53.8791Z" fill="#263238"/>
<path d="M45.1987 44.2252C45.0199 44.3422 40.2256 39.9098 34.4922 34.3266C28.7572 28.7407 24.2545 24.1193 24.4349 24.0023C24.6137 23.8853 29.4064 28.3164 35.1414 33.9022C40.8749 39.4855 45.3775 44.1082 45.1987 44.2252Z" fill="#263238"/>
<path d="M60.1359 39.5725C59.9281 39.6252 58.6167 36.6407 57.9031 32.7972C57.1717 28.9537 57.3296 25.7943 57.5471 25.7969C57.7919 25.793 58.011 28.9074 58.7327 32.6982C59.4367 36.4889 60.3711 39.5185 60.1359 39.5725Z" fill="#263238"/>
</svg>
