<svg width="18" height="24" viewBox="0 0 18 24" fill="none" xmlns="http://www.w3.org/2000/svg">
<path fill-rule="evenodd" clip-rule="evenodd" d="M0 2.35192C0 1.70137 0.530895 1.17578 1.18802 1.17578H2.97004H3.56405H8.31612C10.9409 1.17578 13.0682 3.2818 13.0682 5.88033C13.0682 7.03074 12.6487 8.08926 11.9544 8.9052C12.9239 9.48469 13.669 10.3974 14.0252 11.4844C16.2631 11.7446 18 13.6465 18 15.9541C18 18.4394 15.9853 20.4541 13.5 20.4541C11.6115 20.4541 9.99472 19.2908 9.32714 17.6417H3.56405H2.97004H1.18802C0.530895 17.6417 0 17.1161 0 16.4656C0 15.815 0.530895 15.2894 1.18802 15.2894H1.78202V9.40874V3.52805H1.18802C0.530895 3.52805 0 3.00247 0 2.35192ZM9.50413 10.5849C10.4248 10.5849 11.2245 11.1054 11.6188 11.865C10.2655 12.4886 9.27454 13.7643 9.04875 15.2894H4.15806V10.5849H8.31612H9.50413ZM8.31612 8.2326C9.62665 8.2326 10.6921 7.17775 10.6921 5.88033C10.6921 4.5829 9.62665 3.52805 8.31612 3.52805H4.15806V8.2326H8.31612ZM11.9712 18.7451C11.8569 18.6865 11.7515 18.7319 11.6548 18.8813L11.4658 19.167C11.4336 19.2168 11.4175 19.2754 11.4175 19.3428C11.4175 19.4131 11.4878 19.5039 11.6284 19.6152C12.0649 19.9756 12.6875 20.1558 13.4961 20.1558C14.0322 20.1558 14.5068 19.9873 14.9199 19.6504C15.1191 19.4863 15.2803 19.2842 15.4033 19.0439C15.5293 18.8066 15.5923 18.5151 15.5923 18.1694C15.5923 17.8208 15.4473 17.5103 15.1572 17.2378C14.8555 16.9565 14.4717 16.8159 14.0059 16.8159C14.3545 16.6987 14.6445 16.5361 14.876 16.3281C15.21 16.0234 15.377 15.6558 15.377 15.2251C15.377 14.7065 15.1777 14.3008 14.7793 14.0078C14.6006 13.876 14.3955 13.7778 14.1641 13.7134C13.9355 13.6489 13.6851 13.6167 13.4126 13.6167C13.1431 13.6167 12.8662 13.668 12.582 13.7705C12.4385 13.8203 12.3022 13.8833 12.1733 13.9595C12.0444 14.0356 11.9302 14.125 11.8306 14.2275C11.7339 14.3271 11.6562 14.4414 11.5977 14.5703C11.542 14.6963 11.5142 14.8281 11.5142 14.9658C11.5142 15.1006 11.5493 15.2002 11.6196 15.2646C11.6636 15.3027 11.7251 15.335 11.8042 15.3613C11.8833 15.3848 11.9946 15.3965 12.1382 15.3965C12.2847 15.3965 12.3755 15.3276 12.4106 15.1899C12.4546 14.9937 12.604 14.8252 12.8589 14.6846C12.9966 14.6084 13.1665 14.5703 13.3687 14.5703C13.6235 14.5703 13.8389 14.6333 14.0146 14.7593C14.1025 14.8208 14.1714 14.8984 14.2212 14.9922C14.2739 15.083 14.3003 15.2031 14.3003 15.3525C14.3003 15.502 14.2578 15.6455 14.1729 15.7832C13.9502 16.1523 13.4126 16.4321 12.5601 16.6226C12.478 16.6401 12.4238 16.6753 12.3975 16.728C12.374 16.7778 12.3623 16.8438 12.3623 16.9258C12.3623 17.0049 12.3784 17.0957 12.4106 17.1982C12.4282 17.2539 12.4531 17.3022 12.4854 17.3433C12.5176 17.3843 12.5498 17.4048 12.582 17.4048C12.6143 17.4048 12.6816 17.396 12.7842 17.3784C12.8662 17.3638 12.9966 17.3564 13.1753 17.3564C13.5708 17.3564 13.8916 17.4297 14.1377 17.5762C14.3984 17.7344 14.5288 17.957 14.5288 18.2441C14.5288 18.5547 14.4028 18.7964 14.1509 18.9692C14.0396 19.0454 13.915 19.1011 13.7773 19.1362C13.6396 19.1714 13.4785 19.189 13.2939 19.189C13.1094 19.189 12.9219 19.1641 12.7314 19.1143C12.626 19.085 12.5205 19.0469 12.415 19C12.3125 18.9502 12.2217 18.9004 12.1426 18.8506C12.0635 18.7979 12.0063 18.7627 11.9712 18.7451Z" fill="#FFFEFE"/>
</svg>
