<svg width="18" height="24" viewBox="0 0 18 24" fill="none" xmlns="http://www.w3.org/2000/svg">
<path fill-rule="evenodd" clip-rule="evenodd" d="M0 2.35192C0 1.70137 0.530895 1.17578 1.18802 1.17578H2.97004H3.56405H8.31612C10.9409 1.17578 13.0682 3.2818 13.0682 5.88033C13.0682 7.03074 12.6487 8.08926 11.9544 8.9052C12.9239 9.48469 13.669 10.3974 14.0252 11.4844C16.2631 11.7446 18 13.6465 18 15.9541C18 18.4394 15.9853 20.4541 13.5 20.4541C11.6115 20.4541 9.99472 19.2908 9.32714 17.6417H3.56405H2.97004H1.18802C0.530895 17.6417 0 17.1161 0 16.4656C0 15.815 0.530895 15.2894 1.18802 15.2894H1.78202V9.40874V3.52805H1.18802C0.530895 3.52805 0 3.00247 0 2.35192ZM9.50413 10.5849C10.4248 10.5849 11.2245 11.1054 11.6188 11.865C10.2655 12.4886 9.27454 13.7643 9.04875 15.2894H4.15806V10.5849H8.31612H9.50413ZM8.31612 8.2326C9.62665 8.2326 10.6921 7.17775 10.6921 5.88033C10.6921 4.5829 9.62665 3.52805 8.31612 3.52805H4.15806V8.2326H8.31612ZM13.0195 15.0933C13.2129 15.0552 13.4019 14.9805 13.5864 14.8691V18.7231C13.5864 18.7993 13.6069 18.8652 13.6479 18.9209C13.6919 18.9736 13.7476 19 13.8149 19H14.4258C14.4902 19 14.5459 18.9736 14.5928 18.9209C14.6396 18.8652 14.6631 18.7993 14.6631 18.7231V14.0957C14.6631 13.9551 14.625 13.8467 14.5488 13.7705C14.4756 13.6943 14.3774 13.6562 14.2544 13.6562C14.1313 13.6562 14.0098 13.6929 13.8896 13.7661C13.834 13.8013 13.7725 13.8423 13.7051 13.8892C13.6406 13.936 13.5381 13.999 13.3975 14.0781C13.2568 14.1543 12.9961 14.2319 12.6152 14.311C12.4863 14.3374 12.397 14.374 12.3472 14.4209C12.3003 14.4648 12.2769 14.5249 12.2769 14.6011C12.2769 14.6743 12.29 14.7622 12.3164 14.8647C12.3457 14.9644 12.375 15.0332 12.4043 15.0713C12.4277 15.0947 12.4556 15.1138 12.4878 15.1284C12.5229 15.1431 12.5728 15.1504 12.6372 15.1504C12.7017 15.1504 12.8291 15.1313 13.0195 15.0933Z" fill="#FFFEFE"/>
</svg>
