<svg width="18" height="24" viewBox="0 0 18 24" fill="none" xmlns="http://www.w3.org/2000/svg">
<path fill-rule="evenodd" clip-rule="evenodd" d="M0 2.35192C0 1.70137 0.530895 1.17578 1.18802 1.17578H2.97004H3.56405H8.31612C10.9409 1.17578 13.0682 3.2818 13.0682 5.88033C13.0682 7.03074 12.6487 8.08926 11.9544 8.9052C12.9239 9.48469 13.669 10.3974 14.0252 11.4844C16.2631 11.7446 18 13.6465 18 15.9541C18 18.4394 15.9853 20.4541 13.5 20.4541C11.6115 20.4541 9.99472 19.2908 9.32714 17.6417H3.56405H2.97004H1.18802C0.530895 17.6417 0 17.1161 0 16.4656C0 15.815 0.530895 15.2894 1.18802 15.2894H1.78202V9.40874V3.52805H1.18802C0.530895 3.52805 0 3.00247 0 2.35192ZM9.50413 10.5849C10.4248 10.5849 11.2245 11.1054 11.6188 11.865C10.2655 12.4886 9.27454 13.7643 9.04875 15.2894H4.15806V10.5849H8.31612H9.50413ZM8.31612 8.2326C9.62665 8.2326 10.6921 7.17775 10.6921 5.88033C10.6921 4.5829 9.62665 3.52805 8.31612 3.52805H4.15806V8.2326H8.31612ZM16.1548 17.9365C16.1548 17.7812 16.0684 17.7036 15.8955 17.7036H15.2407V16.0469C15.2407 15.9736 15.2158 15.9048 15.166 15.8403C15.1191 15.7759 15.0371 15.7437 14.9199 15.7437H14.5552C14.4614 15.7437 14.3794 15.77 14.3091 15.8228C14.2388 15.8755 14.2036 15.9531 14.2036 16.0557V17.7036H12.4634C12.6567 17.2642 12.9585 16.4629 13.3687 15.2998C13.5444 14.793 13.6616 14.3638 13.7202 14.0122C13.7612 13.8013 13.6909 13.6665 13.5093 13.6079C13.2837 13.5376 13.1138 13.5024 12.9995 13.5024C12.812 13.5024 12.6948 13.6079 12.6479 13.8188C12.4751 14.6421 12.1895 15.6133 11.791 16.7324L11.501 17.5278C11.4219 17.7358 11.3823 17.8984 11.3823 18.0156C11.3823 18.1855 11.4409 18.3232 11.5581 18.4287C11.6753 18.5342 11.8306 18.5869 12.0239 18.5869H14.2036V19.7471C14.2036 19.835 14.2256 19.9067 14.2695 19.9624C14.3135 20.0181 14.3765 20.0459 14.4585 20.0459H14.9814C15.0576 20.0459 15.1191 20.021 15.166 19.9712C15.2158 19.9214 15.2407 19.854 15.2407 19.769V18.5781L15.8779 18.4507C15.9805 18.4302 16.0522 18.4009 16.0933 18.3628C16.1343 18.3218 16.1548 18.2588 16.1548 18.1738V17.9365Z" fill="#FFFEFE"/>
</svg>
