<svg width="18" height="24" viewBox="0 0 18 24" fill="none" xmlns="http://www.w3.org/2000/svg">
<path fill-rule="evenodd" clip-rule="evenodd" d="M0 2.35192C0 1.70137 0.530895 1.17578 1.18802 1.17578H2.97004H3.56405H8.31612C10.9409 1.17578 13.0682 3.2818 13.0682 5.88033C13.0682 7.03074 12.6487 8.08926 11.9544 8.9052C12.9239 9.48469 13.669 10.3974 14.0252 11.4844C16.2631 11.7446 18 13.6465 18 15.9541C18 18.4394 15.9853 20.4541 13.5 20.4541C11.6115 20.4541 9.99472 19.2908 9.32714 17.6417H3.56405H2.97004H1.18802C0.530895 17.6417 0 17.1161 0 16.4656C0 15.815 0.530895 15.2894 1.18802 15.2894H1.78202V9.40874V3.52805H1.18802C0.530895 3.52805 0 3.00247 0 2.35192ZM9.50413 10.5849C10.4248 10.5849 11.2245 11.1054 11.6188 11.865C10.2655 12.4886 9.27454 13.7643 9.04875 15.2894H4.15806V10.5849H8.31612H9.50413ZM8.31612 8.2326C9.62665 8.2326 10.6921 7.17775 10.6921 5.88033C10.6921 4.5829 9.62665 3.52805 8.31612 3.52805H4.15806V8.2326H8.31612ZM12.2197 14.3462C12.2197 14.5952 12.3633 14.7197 12.6504 14.7197H14.9443C14.8623 15.0742 14.7568 15.4316 14.6279 15.792L14.2808 16.7632C14.0435 17.4341 13.7944 17.9775 13.5337 18.3936C13.4048 18.6016 13.2744 18.7803 13.1426 18.9297C13.0137 19.0762 12.8862 19.1948 12.7603 19.2856C12.6372 19.3765 12.5757 19.4775 12.5757 19.5889C12.5757 19.6562 12.6035 19.7207 12.6592 19.7822L12.8569 20.0107C12.936 20.1074 13.0327 20.1558 13.147 20.1558C13.4019 20.1558 13.7109 19.9038 14.0742 19.3999C14.4375 18.9019 14.8374 18.0684 15.2739 16.8994L15.4146 16.5039C15.4761 16.3369 15.6885 15.7144 16.0518 14.6362C16.125 14.4048 16.1616 14.2363 16.1616 14.1309C16.1616 14.0225 16.1294 13.9287 16.0649 13.8496C16.0005 13.7676 15.9141 13.7266 15.8057 13.7266H12.4878C12.3735 13.7266 12.3003 13.7529 12.2681 13.8057C12.2358 13.8555 12.2197 13.9272 12.2197 14.021V14.3462Z" fill="#FFFEFE"/>
</svg>
