<svg width="18" height="24" viewBox="0 0 18 24" fill="none" xmlns="http://www.w3.org/2000/svg">
<path fill-rule="evenodd" clip-rule="evenodd" d="M0 2.35192C0 1.70137 0.530895 1.17578 1.18802 1.17578H2.97004H3.56405H8.31612C10.9409 1.17578 13.0682 3.2818 13.0682 5.88033C13.0682 7.03074 12.6487 8.08926 11.9544 8.9052C12.9239 9.48469 13.669 10.3974 14.0252 11.4844C16.2631 11.7446 18 13.6465 18 15.9541C18 18.4394 15.9853 20.4541 13.5 20.4541C11.6115 20.4541 9.99472 19.2908 9.32714 17.6417H3.56405H2.97004H1.18802C0.530895 17.6417 0 17.1161 0 16.4656C0 15.815 0.530895 15.2894 1.18802 15.2894H1.78202V9.40874V3.52805H1.18802C0.530895 3.52805 0 3.00247 0 2.35192ZM9.50413 10.5849C10.4248 10.5849 11.2245 11.1054 11.6188 11.865C10.2655 12.4886 9.27454 13.7643 9.04875 15.2894H4.15806V10.5849H8.31612H9.50413ZM8.31612 8.2326C9.62665 8.2326 10.6921 7.17775 10.6921 5.88033C10.6921 4.5829 9.62665 3.52805 8.31612 3.52805H4.15806V8.2326H8.31612ZM12.7271 19.9077C13.0171 20.0425 13.3438 20.1099 13.707 20.1099C14.3955 20.1099 14.9419 19.8857 15.3462 19.4375C15.7212 19.0215 15.9087 18.5117 15.9087 17.9082C15.9087 17.3252 15.7256 16.8652 15.3594 16.5283C15.1895 16.3672 14.9858 16.2456 14.7485 16.1636C14.5142 16.0815 14.3003 16.0405 14.1069 16.0405C13.9165 16.0405 13.7524 16.0508 13.6147 16.0713C13.0874 16.1562 12.6948 16.3672 12.437 16.7041C12.4517 16.0859 12.5645 15.5938 12.7754 15.2275C13.0303 14.7852 13.4141 14.564 13.9268 14.564C14.3779 14.564 14.7148 14.6504 14.9375 14.8232C15.043 14.9053 15.1367 14.9448 15.2188 14.9419C15.3008 14.939 15.3945 14.8584 15.5 14.7002L15.6011 14.5508C15.6597 14.4629 15.689 14.3867 15.689 14.3223C15.689 14.2549 15.6523 14.1787 15.5791 14.0938C15.5059 14.0088 15.3594 13.9238 15.1396 13.8389C14.7822 13.6953 14.4263 13.6235 14.0718 13.6235C13.3481 13.6235 12.7739 13.811 12.3491 14.186C12.1528 14.3589 11.9932 14.561 11.8701 14.7925C11.75 15.0239 11.6445 15.314 11.5537 15.6626C11.4629 16.0083 11.4175 16.4932 11.4175 17.1172C11.4175 18.0693 11.6123 18.8018 12.002 19.3145C12.1982 19.5723 12.4399 19.77 12.7271 19.9077ZM13.707 16.9722C14.4863 16.9722 14.876 17.3193 14.876 18.0137C14.876 18.374 14.7646 18.6626 14.542 18.8794C14.334 19.0815 14.0718 19.1826 13.7554 19.1826C13.3745 19.1826 13.0713 19.0537 12.8457 18.7959C12.5967 18.5146 12.4722 18.1045 12.4722 17.5654V17.5566C12.5483 17.4219 12.7461 17.2754 13.0654 17.1172C13.2559 17.0205 13.4697 16.9722 13.707 16.9722Z" fill="#FFFEFE"/>
</svg>
