<svg width="18" height="24" viewBox="0 0 18 24" fill="none" xmlns="http://www.w3.org/2000/svg">
<path fill-rule="evenodd" clip-rule="evenodd" d="M0 2.35192C0 1.70137 0.530895 1.17578 1.18802 1.17578H2.97004H3.56405H8.31612C10.9409 1.17578 13.0682 3.2818 13.0682 5.88033C13.0682 7.03074 12.6487 8.08926 11.9544 8.9052C12.9239 9.48469 13.669 10.3974 14.0252 11.4844C16.2631 11.7446 18 13.6465 18 15.9541C18 18.4394 15.9853 20.4541 13.5 20.4541C11.6115 20.4541 9.99472 19.2908 9.32714 17.6417H3.56405H2.97004H1.18802C0.530895 17.6417 0 17.1161 0 16.4656C0 15.815 0.530895 15.2894 1.18802 15.2894H1.78202V9.40874V3.52805H1.18802C0.530895 3.52805 0 3.00247 0 2.35192ZM9.50413 10.5849C10.4248 10.5849 11.2245 11.1054 11.6188 11.865C10.2655 12.4886 9.27454 13.7643 9.04875 15.2894H4.15806V10.5849H8.31612H9.50413ZM8.31612 8.2326C9.62665 8.2326 10.6921 7.17775 10.6921 5.88033C10.6921 4.5829 9.62665 3.52805 8.31612 3.52805H4.15806V8.2326H8.31612ZM11.6592 18.1519C11.6387 18.1899 11.6284 18.2822 11.6284 18.4287V18.7275C11.6284 18.8301 11.6548 18.9004 11.7075 18.9385C11.7632 18.9766 11.8379 18.9956 11.9316 18.9956H15.3813C15.481 18.9956 15.5557 18.9795 15.6055 18.9473C15.6582 18.9121 15.6846 18.8447 15.6846 18.7451V18.354C15.6846 18.2632 15.6685 18.1899 15.6362 18.1343C15.6069 18.0757 15.5352 18.0479 15.4209 18.0508L13.0698 18.1035L13.8564 17.6201C14.1201 17.4561 14.3955 17.2363 14.6826 16.9609C15.2334 16.4453 15.5088 15.8813 15.5088 15.269C15.5088 14.8706 15.4004 14.5381 15.1836 14.2715C15.084 14.1484 14.9683 14.0459 14.8364 13.9639C14.7046 13.8789 14.5669 13.8115 14.4233 13.7617C14.2798 13.709 14.1333 13.6724 13.9839 13.6519C13.8345 13.6284 13.647 13.6167 13.4214 13.6167C13.1987 13.6167 12.9409 13.6724 12.6479 13.7837C12.5015 13.8394 12.3623 13.9082 12.2305 13.9902C12.0986 14.0723 11.9829 14.1675 11.8833 14.2759C11.7837 14.3813 11.7046 14.5015 11.646 14.6362C11.5903 14.7681 11.5625 14.9233 11.5625 15.1021C11.5625 15.2808 11.6577 15.3862 11.8481 15.4185L12.0327 15.4492C12.0679 15.4551 12.1016 15.458 12.1338 15.458C12.2861 15.458 12.396 15.3657 12.4634 15.1812C12.5425 14.9761 12.6875 14.8149 12.8984 14.6978C12.9922 14.645 13.0918 14.6055 13.1973 14.5791C13.3027 14.5527 13.4375 14.5396 13.6016 14.5396C13.7686 14.5396 13.9355 14.5967 14.1025 14.7109C14.3105 14.8574 14.4146 15.0742 14.4146 15.3613C14.4146 15.6982 14.252 16.0557 13.9268 16.4336C13.7803 16.6064 13.6147 16.772 13.4302 16.9302C13.2456 17.0884 13.0581 17.2349 12.8677 17.3696C12.6772 17.5015 12.4912 17.6216 12.3096 17.73C12.1309 17.8354 11.9844 17.9175 11.8701 17.9761C11.7559 18.0317 11.6855 18.0903 11.6592 18.1519Z" fill="#FFFEFE"/>
</svg>
