<svg width="18" height="24" viewBox="0 0 18 24" fill="none" xmlns="http://www.w3.org/2000/svg">
<path fill-rule="evenodd" clip-rule="evenodd" d="M0 2.35192C0 1.70137 0.530895 1.17578 1.18802 1.17578H2.97004H3.56405H8.31612C10.9409 1.17578 13.0682 3.2818 13.0682 5.88033C13.0682 7.03074 12.6487 8.08926 11.9544 8.9052C12.9239 9.48469 13.669 10.3974 14.0252 11.4844C16.2631 11.7446 18 13.6465 18 15.9541C18 18.4394 15.9853 20.4541 13.5 20.4541C11.6115 20.4541 9.99472 19.2908 9.32714 17.6417H3.56405H2.97004H1.18802C0.530895 17.6417 0 17.1161 0 16.4656C0 15.815 0.530895 15.2894 1.18802 15.2894H1.78202V9.40874V3.52805H1.18802C0.530895 3.52805 0 3.00247 0 2.35192ZM9.50413 10.5849C10.4248 10.5849 11.2245 11.1054 11.6188 11.865C10.2655 12.4886 9.27454 13.7643 9.04875 15.2894H4.15806V10.5849H8.31612H9.50413ZM8.31612 8.2326C9.62665 8.2326 10.6921 7.17775 10.6921 5.88033C10.6921 4.5829 9.62665 3.52805 8.31612 3.52805H4.15806V8.2326H8.31612ZM11.8481 18.8066C11.7837 18.8066 11.7163 18.8594 11.646 18.9648L11.4395 19.2637C11.4072 19.3076 11.3911 19.353 11.3911 19.3999C11.3911 19.5435 11.5654 19.7002 11.9141 19.8701C12.3096 20.0664 12.7153 20.1646 13.1313 20.1646C13.7817 20.1646 14.3164 19.98 14.7354 19.6108C14.9287 19.4409 15.0898 19.2432 15.2188 19.0176C15.3477 18.792 15.4502 18.5547 15.5264 18.3057C15.6055 18.0537 15.6611 17.7974 15.6934 17.5366C15.7256 17.2729 15.7417 16.9624 15.7417 16.605C15.7417 16.2446 15.7021 15.8711 15.623 15.4844C15.374 14.2422 14.6636 13.6211 13.4917 13.6211C12.8647 13.6211 12.3389 13.8115 11.9141 14.1924C11.4746 14.582 11.2549 15.0786 11.2549 15.6821C11.2549 16.3208 11.4482 16.835 11.835 17.2246C12.0137 17.4062 12.2231 17.5454 12.4634 17.6421C12.7036 17.7388 12.9219 17.7871 13.1182 17.7871C13.3174 17.7871 13.4844 17.7783 13.6191 17.7607C14.0791 17.6934 14.4395 17.5645 14.7002 17.374C14.668 17.9307 14.5376 18.3643 14.3091 18.6748C14.186 18.8418 14.0293 18.9736 13.8389 19.0703C13.6484 19.1699 13.4463 19.2197 13.2324 19.2197C13.0215 19.2197 12.8164 19.1919 12.6172 19.1362C12.5234 19.1099 12.4312 19.0762 12.3403 19.0352C12.2495 18.9971 12.1602 18.9502 12.0723 18.8945C11.9873 18.8359 11.9126 18.8066 11.8481 18.8066ZM13.4302 14.5483C14.2563 14.5483 14.6694 15.2061 14.6694 16.5215C14.3706 16.7646 13.9736 16.8862 13.4785 16.8862C13.2822 16.8862 13.1094 16.8569 12.96 16.7983C12.5146 16.6226 12.292 16.2549 12.292 15.6953C12.292 15.3584 12.4004 15.0801 12.6172 14.8604C12.8281 14.6523 13.0991 14.5483 13.4302 14.5483Z" fill="#FFFEFE"/>
</svg>
