<svg width="18" height="24" viewBox="0 0 18 24" fill="none" xmlns="http://www.w3.org/2000/svg">
<path fill-rule="evenodd" clip-rule="evenodd" d="M0 2.35192C0 1.70137 0.530895 1.17578 1.18802 1.17578H2.97004H3.56405H8.31612C10.9409 1.17578 13.0682 3.2818 13.0682 5.88033C13.0682 7.03074 12.6487 8.08926 11.9544 8.9052C12.9239 9.48469 13.669 10.3974 14.0252 11.4844C16.2631 11.7446 18 13.6465 18 15.9541C18 18.4394 15.9853 20.4541 13.5 20.4541C11.6115 20.4541 9.99472 19.2908 9.32714 17.6417H3.56405H2.97004H1.18802C0.530895 17.6417 0 17.1161 0 16.4656C0 15.815 0.530895 15.2894 1.18802 15.2894H1.78202V9.40874V3.52805H1.18802C0.530895 3.52805 0 3.00247 0 2.35192ZM9.50413 10.5849C10.4248 10.5849 11.2245 11.1054 11.6188 11.865C10.2655 12.4886 9.27454 13.7643 9.04875 15.2894H4.15806V10.5849H8.31612H9.50413ZM8.31612 8.2326C9.62665 8.2326 10.6921 7.17775 10.6921 5.88033C10.6921 4.5829 9.62665 3.52805 8.31612 3.52805H4.15806V8.2326H8.31612ZM11.5977 19.1167C11.7236 19.3335 11.8906 19.5166 12.0986 19.666C12.5176 19.9619 13.0332 20.1099 13.6455 20.1099C14.2197 20.1099 14.7207 19.9443 15.1484 19.6133C15.3564 19.4521 15.5234 19.2588 15.6494 19.0332C15.7754 18.8047 15.8384 18.5381 15.8384 18.2334C15.8384 17.9287 15.7241 17.6416 15.4956 17.3721C15.3931 17.249 15.2744 17.1436 15.1396 17.0557C15.0049 16.9648 14.8892 16.9033 14.7925 16.8711C14.6958 16.8359 14.6475 16.814 14.6475 16.8052C14.6475 16.7935 14.6841 16.77 14.7573 16.7349C14.8335 16.6997 14.9302 16.6367 15.0474 16.5459C15.4634 16.2178 15.6714 15.7725 15.6714 15.21C15.6714 14.709 15.4663 14.3135 15.0562 14.0234C14.6841 13.7568 14.2109 13.6235 13.6367 13.6235C13.1094 13.6235 12.6553 13.7451 12.2744 13.9883C11.8115 14.2783 11.5801 14.7075 11.5801 15.2759C11.5801 15.6128 11.6855 15.9028 11.8965 16.146C11.9902 16.2515 12.0928 16.3423 12.2041 16.4185C12.3184 16.4917 12.4048 16.5444 12.4634 16.5767C12.5249 16.606 12.5557 16.6265 12.5557 16.6382C12.5557 16.6499 12.5498 16.6587 12.5381 16.6646C12.5293 16.6675 12.5176 16.6733 12.5029 16.6821C12.1777 16.8579 11.9258 17.0688 11.7471 17.3149C11.6445 17.4526 11.5625 17.6079 11.501 17.7808C11.4395 17.9536 11.4087 18.1646 11.4087 18.4136C11.4087 18.6626 11.4717 18.897 11.5977 19.1167ZM14.6387 15.3638C14.6387 15.8267 14.3633 16.1753 13.8125 16.4097C13.4521 16.2896 13.1709 16.146 12.9688 15.979C12.8604 15.8911 12.7754 15.7974 12.7139 15.6978C12.6553 15.5952 12.626 15.481 12.626 15.355C12.626 15.2261 12.6553 15.1104 12.7139 15.0078C12.8867 14.6914 13.1973 14.5332 13.6455 14.5332C13.9268 14.5332 14.1582 14.6035 14.3398 14.7441C14.5391 14.8994 14.6387 15.106 14.6387 15.3638ZM12.5381 18.6685C12.4707 18.5454 12.437 18.4048 12.437 18.2466C12.437 17.9653 12.5396 17.7119 12.7446 17.4863C12.9204 17.293 13.1167 17.1729 13.3335 17.126C13.7642 17.2432 14.0938 17.3765 14.3223 17.5259C14.4629 17.6167 14.5757 17.7236 14.6606 17.8467C14.7485 17.9697 14.7925 18.1089 14.7925 18.2642C14.7925 18.4165 14.7617 18.5498 14.7002 18.6641C14.5186 19.0127 14.1743 19.187 13.6675 19.187C13.3159 19.187 13.0303 19.1123 12.8105 18.9629C12.6963 18.8867 12.6055 18.7886 12.5381 18.6685Z" fill="#FFFEFE"/>
</svg>
