<svg width="18" height="24" viewBox="0 0 18 24" fill="none" xmlns="http://www.w3.org/2000/svg">
<path fill-rule="evenodd" clip-rule="evenodd" d="M0 2.35192C0 1.70137 0.530895 1.17578 1.18802 1.17578H2.97004H3.56405H8.31612C10.9409 1.17578 13.0682 3.2818 13.0682 5.88033C13.0682 7.03074 12.6487 8.08926 11.9544 8.9052C12.9239 9.48469 13.669 10.3974 14.0252 11.4844C16.2631 11.7446 18 13.6465 18 15.9541C18 18.4394 15.9853 20.4541 13.5 20.4541C11.6115 20.4541 9.99472 19.2908 9.32714 17.6417H3.56405H2.97004H1.18802C0.530895 17.6417 0 17.1161 0 16.4656C0 15.815 0.530895 15.2894 1.18802 15.2894H1.78202V9.40874V3.52805H1.18802C0.530895 3.52805 0 3.00247 0 2.35192ZM9.50413 10.5849C10.4248 10.5849 11.2245 11.1054 11.6188 11.865C10.2655 12.4886 9.27454 13.7643 9.04875 15.2894H4.15806V10.5849H8.31612H9.50413ZM8.31612 8.2326C9.62665 8.2326 10.6921 7.17775 10.6921 5.88033C10.6921 4.5829 9.62665 3.52805 8.31612 3.52805H4.15806V8.2326H8.31612ZM14.1597 16.082C13.7144 16.082 13.3467 16.1816 13.0566 16.3809V14.6802H15.377C15.5029 14.6802 15.585 14.6523 15.623 14.5967C15.6436 14.5674 15.6538 14.4985 15.6538 14.3901V13.9639C15.6538 13.8643 15.6274 13.8013 15.5747 13.7749C15.5249 13.7485 15.4502 13.7354 15.3506 13.7354H12.4634C12.2993 13.7354 12.1836 13.7808 12.1162 13.8716C12.0723 13.9243 12.0503 14.0386 12.0503 14.2144V17.0488C12.0503 17.1572 12.0723 17.2305 12.1162 17.2686C12.1426 17.2891 12.1777 17.3052 12.2217 17.3169C12.2656 17.3257 12.3154 17.3345 12.3711 17.3433C12.4268 17.3491 12.4707 17.3564 12.5029 17.3652C12.5381 17.3711 12.5732 17.374 12.6084 17.374C12.7432 17.374 12.8662 17.3271 12.9775 17.2334C13.2178 17.0312 13.5225 16.9302 13.8916 16.9302C14.1582 16.9302 14.394 17.0283 14.5991 17.2246C14.8247 17.4385 14.9375 17.7124 14.9375 18.0464C14.9375 18.4185 14.8159 18.707 14.5728 18.9121C14.3472 19.1055 14.0674 19.2021 13.7334 19.2021C13.1709 19.2021 12.7109 19.0513 12.3535 18.7495C12.3096 18.7173 12.2715 18.688 12.2393 18.6616C12.21 18.6323 12.1587 18.6177 12.0854 18.6177C12.0151 18.6177 11.9448 18.6719 11.8745 18.7803L11.6943 19.0396C11.5918 19.186 11.5845 19.3047 11.6724 19.3955C11.8481 19.5801 12.0239 19.7192 12.1997 19.813C12.6216 20.0415 13.1079 20.1558 13.6587 20.1558C14.3765 20.1558 14.9521 19.9639 15.3857 19.5801C15.8252 19.1934 16.0449 18.6792 16.0449 18.0376C16.0449 17.4282 15.8545 16.9434 15.4736 16.583C15.1221 16.249 14.6841 16.082 14.1597 16.082Z" fill="#FFFEFE"/>
</svg>
