<svg width="1042" height="400" viewBox="0 0 1042 400" fill="none" xmlns="http://www.w3.org/2000/svg">
<g clip-path="url(#clip0_741_782)">
<path d="M1041.7 400H0V0H1041.7V400Z" fill="white"/>
<path d="M1041.7 364H0V343.4H1041.7V364Z" fill="#DCC7FA"/>
<path d="M963.3 155.5V217.1C963.3 219 961.8 220.5 959.9 220.5H849.7C847.8 220.5 846.3 219 846.3 217.1V155.5C846.3 153.7 847.8 152.1 849.7 152.1H959.9C961.8 152.1 963.3 153.7 963.3 155.5Z" fill="#C2BFD9"/>
<path d="M963.3 156.2V160.5H846.3V156.2C846.3 153.9 847.8 152.1 849.7 152.1H959.9C961.8 152.1 963.3 153.9 963.3 156.2Z" fill="#B099D0"/>
<path d="M867.5 156.3C867.5 157.4 866.6 158.3 865.5 158.3C864.4 158.3 863.5 157.4 863.5 156.3C863.5 155.2 864.4 154.3 865.5 154.3C866.6 154.3 867.5 155.2 867.5 156.3Z" fill="#DFC9FF"/>
<path d="M861.1 156.3C861.1 157.4 860.2 158.3 859.1 158.3C858 158.3 857.1 157.4 857.1 156.3C857.1 155.2 858 154.3 859.1 154.3C860.2 154.3 861.1 155.2 861.1 156.3Z" fill="#C4A1F7"/>
<path d="M854.7 156.3C854.7 157.4 853.9 158.3 852.8 158.3C851.7 158.3 850.8 157.4 850.8 156.3C850.8 155.2 851.7 154.3 852.8 154.3C853.9 154.3 854.7 155.2 854.7 156.3Z" fill="#EBE4F5"/>
<path d="M950.2 190.8H892.7V186H950.2V190.8Z" fill="#A68FD1"/>
<path d="M950.2 180.7H892.7V176H950.2V180.7Z" fill="#A68FD1"/>
<path d="M950.2 200.5H892.7V195.8H950.2V200.5Z" fill="#A68FD1"/>
<path d="M887 201.6H860.6V175.2H887V201.6Z" fill="#F0E6FF"/>
<path fill-rule="evenodd" clip-rule="evenodd" d="M780.1 109.7H728.1C726.7 109.7 725.6 108.5 725.6 107.2V81.7998C725.6 80.3998 726.7 79.2998 728.1 79.2998H780.1C781.4 79.2998 782.5 80.3998 782.5 81.7998V107.2C782.5 108.5 781.4 109.7 780.1 109.7ZM728.1 80.0998C727.1 80.0998 726.4 80.7998 726.4 81.7998V107.2C726.4 108.1 727.1 108.9 728.1 108.9H780.1C781 108.9 781.8 108.1 781.8 107.2V81.7998C781.8 80.7998 781 80.0998 780.1 80.0998H728.1Z" fill="#EBE4F5"/>
<path d="M782.2 85.0999H726C725.8 85.0999 725.6 84.8999 725.6 84.6999C725.6 84.4999 725.8 84.3999 726 84.3999H782.2C782.4 84.3999 782.5 84.4999 782.5 84.6999C782.5 84.8999 782.4 85.0999 782.2 85.0999Z" fill="#EBE4F5"/>
<path d="M731.7 83.4999C731.633 83.4999 731.567 83.4666 731.5 83.3999L728.5 81.5999C728.3 81.4999 728.3 81.2999 728.4 81.0999C728.5 80.9999 728.7 80.8999 728.9 80.9999L731.9 82.7999C732 82.8999 732.1 83.0999 732 83.2999C731.933 83.4333 731.833 83.4999 731.7 83.4999Z" fill="#EBE4F5"/>
<path d="M728.7 83.4999C728.567 83.4999 728.467 83.4333 728.4 83.2999C728.3 83.0999 728.3 82.8999 728.5 82.7999L731.5 80.9999C731.7 80.8999 731.9 80.9999 732 81.0999C732.1 81.2999 732 81.4999 731.9 81.5999L728.9 83.3999C728.834 83.4666 728.767 83.4999 728.7 83.4999Z" fill="#EBE4F5"/>
<path d="M892.6 64.7999V127.5C892.6 129.4 891.1 131 889.2 131H778.7C776.8 131 775.3 129.4 775.3 127.5V64.7999C775.3 62.8999 776.8 61.3999 778.7 61.3999H889.2C891.1 61.3999 892.6 62.8999 892.6 64.7999Z" fill="#F0E6FF"/>
<path d="M892.6 64.7999V68.4999H775.3V64.7999C775.3 62.8999 776.8 61.3999 778.7 61.3999H889.2C891.1 61.3999 892.6 62.8999 892.6 64.7999Z" fill="#B099D0"/>
<path d="M887.9 64.9001C887.9 65.9001 887.1 66.8001 886.1 66.8001C885.1 66.8001 884.3 65.9001 884.3 64.9001C884.3 63.9001 885.1 63.1001 886.1 63.1001C887.1 63.1001 887.9 63.9001 887.9 64.9001Z" fill="#C4A1F7"/>
<path d="M882.1 64.9001C882.1 65.9001 881.2 66.8001 880.2 66.8001C879.2 66.8001 878.4 65.9001 878.4 64.9001C878.4 63.9001 879.2 63.1001 880.2 63.1001C881.2 63.1001 882.1 63.9001 882.1 64.9001Z" fill="#A68FD1"/>
<path d="M876.2 64.9001C876.2 65.9001 875.4 66.8001 874.3 66.8001C873.3 66.8001 872.5 65.9001 872.5 64.9001C872.5 63.9001 873.3 63.1001 874.3 63.1001C875.4 63.1001 876.2 63.9001 876.2 64.9001Z" fill="#EBE4F5"/>
<path d="M880.5 85.0997H787.4V79.6997H880.5V85.0997Z" fill="#C0B7CE"/>
<path d="M828.2 96.4998H790.2C790 96.4998 789.8 96.3998 789.8 96.1998C789.8 95.9998 790 95.7998 790.2 95.7998H828.2C828.4 95.7998 828.6 95.9998 828.6 96.1998C828.6 96.3998 828.4 96.4998 828.2 96.4998Z" fill="#A68FD1"/>
<path d="M828.2 102.6H790.2C790 102.6 789.8 102.4 789.8 102.2C789.8 102 790 101.9 790.2 101.9H828.2C828.4 101.9 828.6 102 828.6 102.2C828.6 102.4 828.4 102.6 828.2 102.6Z" fill="#A68FD1"/>
<path d="M828.2 108.7H790.2C790 108.7 789.8 108.5 789.8 108.3C789.8 108.1 790 108 790.2 108H828.2C828.4 108 828.6 108.1 828.6 108.3C828.6 108.5 828.4 108.7 828.2 108.7Z" fill="#A68FD1"/>
<path d="M877.7 96.4998H839.6C839.4 96.4998 839.3 96.3998 839.3 96.1998C839.3 95.9998 839.4 95.7998 839.6 95.7998H877.7C877.9 95.7998 878 95.9998 878 96.1998C878 96.3998 877.9 96.4998 877.7 96.4998Z" fill="#A68FD1"/>
<path d="M877.7 102.6H839.6C839.4 102.6 839.3 102.4 839.3 102.2C839.3 102 839.4 101.9 839.6 101.9H877.7C877.9 101.9 878 102 878 102.2C878 102.4 877.9 102.6 877.7 102.6Z" fill="#A68FD1"/>
<path d="M877.7 108.7H839.6C839.4 108.7 839.3 108.5 839.3 108.3C839.3 108.1 839.4 108 839.6 108H877.7C877.9 108 878 108.1 878 108.3C878 108.5 877.9 108.7 877.7 108.7Z" fill="#A68FD1"/>
<path d="M744.2 320.1V337H722.7V314.8L744.2 320.1Z" fill="#C6C2CC"/>
<path d="M800.1 313.8L804.7 330.1L783.9 335.8L778 314.4L800.1 313.8Z" fill="#C6C2CC"/>
<path d="M738.3 138.9C738.3 138.9 732.8 129.6 724 134.1C715.1 138.6 716.1 148 709.4 150.1C702.7 152.3 697.3 158 701.1 165.5C704.4 171.7 713.2 169.7 713.2 169.7C713.2 169.7 718.7 179.1 728.4 175.9C738 172.7 742.5 167.6 741.4 159.6C740.4 151.6 738.3 138.9 738.3 138.9Z" fill="#EBE4F5"/>
<path d="M754 152.4C754 152.4 759.3 144.7 748.7 138.7C738.1 132.7 730.4 140.9 730.3 145.4C730.2 149.8 732.7 151.9 732.7 151.9C732.7 151.9 731.7 161.5 741 160.8C750.2 160.2 754 152.4 754 152.4Z" fill="#EBE4F5"/>
<path d="M740.1 159.3L739.9 167C739.9 167 741.2 169.3 745.8 169.8C749.1 170.2 750.3 169.4 750.3 169.4L750 165.5L749.6 161.6L741.4 159.6L740.1 159.3Z" fill="#C6C2CC"/>
<path d="M740.1 158.9C740.1 159.1 740.167 159.367 740.3 159.7C741.9 163.6 748 165.3 750 165.5L749.6 161.6L740.1 158.9Z" fill="black"/>
<path d="M751.8 144C751.8 144 755.6 153.8 753.9 159.2C752.1 164.6 747.2 163.5 744.3 162.3C741.4 161.2 740.1 159.3 740.1 159.3C740.1 159.3 737.3 160.1 735.5 157.5C733.8 154.8 735 151.9 736.6 151.3C738.2 150.7 740.1 151.9 740.1 151.9L738.7 149C738.7 149 745.5 135 751.8 144Z" fill="#C6C2CC"/>
<path d="M752.4 156.7C752.4 156.7 752.367 156.7 752.3 156.7C752.1 156.6 752 156.4 752 156.2C752.5 153.3 751.4 151.7 751.4 151.7C751.2 151.5 751.3 151.3 751.4 151.2C751.6 151 751.8 151.1 751.9 151.2C752 151.3 753.3 153.1 752.8 156.4C752.7 156.5 752.6 156.7 752.4 156.7Z" fill="black"/>
<path d="M739.9 155.9C739.833 155.9 739.767 155.867 739.7 155.8L735.9 153.8C735.7 153.7 735.7 153.5 735.8 153.3C735.9 153.2 736.1 153.1 736.3 153.2L740 155.2C740.2 155.3 740.3 155.5 740.2 155.7C740.133 155.833 740.033 155.9 739.9 155.9Z" fill="black"/>
<path d="M736.3 156.6C736.233 156.6 736.166 156.533 736.1 156.4C735.9 156.3 735.9 156.1 736.1 155.9L737.9 154.3C738.1 154.2 738.3 154.2 738.4 154.4C738.6 154.5 738.6 154.8 738.4 154.9L736.6 156.5C736.533 156.567 736.433 156.6 736.3 156.6Z" fill="black"/>
<path d="M753.3 148.8C753.3 148.8 753.1 146.4 751.3 144.4C749.3 142.2 747.7 142.6 747.7 142.6C747.7 142.6 750.6 148.9 745.7 151.1C742.3 152.7 740.1 151.9 740.1 151.9L735.2 147L745 139C745 139 753.9 137.8 753.3 148.8Z" fill="#EBE4F5"/>
<path d="M750 158.7C749.933 158.7 749.867 158.667 749.8 158.6C749.8 158.6 748.6 158.2 747.9 156.9C747.8 156.8 747.8 156.5 748 156.4C748.2 156.3 748.4 156.4 748.5 156.6C749.1 157.6 750.1 157.9 750.1 157.9C750.3 158 750.4 158.2 750.3 158.4C750.3 158.6 750.1 158.7 750 158.7Z" fill="black"/>
<path d="M749 152.6C748.8 152.6 748.6 152.4 748.6 152.3L748.2 150.5C748.2 150.433 748.234 150.367 748.3 150.3L748.8 149.4C748.9 149.2 749.2 149.2 749.3 149.3C749.5 149.4 749.5 149.6 749.4 149.8L749 150.5L749.3 152.1C749.4 152.3 749.2 152.5 749 152.5C749 152.567 749 152.6 749 152.6Z" fill="black"/>
<path d="M753.8 152.5C753.6 152.5 753.5 152.4 753.4 152.2L753.1 150.5C753.033 150.433 753.033 150.333 753.1 150.2L753.7 149.3C753.8 149.2 754 149.1 754.2 149.2C754.3 149.3 754.4 149.6 754.3 149.7L753.8 150.5L754.2 152.1C754.2 152.3 754.1 152.5 753.9 152.5C753.833 152.5 753.8 152.5 753.8 152.5Z" fill="black"/>
<path d="M753 148C752.933 148 752.9 148 752.9 148L751.8 147.8C751.6 147.7 751.5 147.6 751.6 147.4C751.6 147.2 751.8 147 752 147.1L753.1 147.3C753.3 147.3 753.4 147.5 753.3 147.7C753.3 147.9 753.2 148 753 148Z" fill="black"/>
<path d="M791 163.8L808.4 174.5L828 148.3L810.5 137.5L791 163.8Z" fill="#A68FD1"/>
<path d="M788.7 162.5L806.2 173.2L825.8 147L808.3 136.3L788.7 162.5Z" fill="#B099D0"/>
<path d="M820.9 149.1C820.833 149.1 820.767 149.1 820.7 149.1L807.8 141.2C807.7 141.1 807.6 140.9 807.7 140.7C807.8 140.5 808 140.5 808.2 140.6L821 148.5C821.2 148.6 821.3 148.8 821.2 149C821.133 149.067 821.033 149.1 820.9 149.1Z" fill="#EBE4F5"/>
<path d="M818.8 151.9C818.734 151.9 818.667 151.867 818.6 151.8L805.8 143.9C805.6 143.8 805.5 143.6 805.6 143.4C805.7 143.3 806 143.2 806.1 143.3L819 151.2C819.1 151.3 819.2 151.5 819.1 151.7C819.034 151.767 818.934 151.834 818.8 151.9Z" fill="#EBE4F5"/>
<path d="M816.7 154.6C816.633 154.6 816.6 154.567 816.6 154.5L803.7 146.7C803.6 146.6 803.5 146.3 803.6 146.2C803.7 146 803.9 145.9 804.1 146L816.9 153.9C817.1 154 817.2 154.2 817.1 154.4C816.967 154.533 816.833 154.6 816.7 154.6Z" fill="#EBE4F5"/>
<path d="M814.7 157.3C814.634 157.3 814.567 157.3 814.5 157.3L801.7 149.4C801.5 149.3 801.5 149.1 801.6 148.9C801.7 148.7 801.9 148.7 802.1 148.8L814.9 156.6C815.1 156.8 815.1 157 815 157.1C814.934 157.233 814.834 157.3 814.7 157.3Z" fill="#EBE4F5"/>
<path d="M770 150.1L751.1 175.4L769.3 186L781.1 154.8L770 150.1Z" fill="#C6C2CC"/>
<path d="M747.5 148.5C747.3 148.5 747.2 148.4 747.1 148.2C747 148 747.1 147.8 747.3 147.8L749.6 147C749.8 146.9 750 147 750.1 147.2C750.1 147.4 750 147.6 749.8 147.7L747.6 148.4C747.533 148.467 747.5 148.5 747.5 148.5Z" fill="black"/>
<path d="M797.5 175.2C797.5 175.2 797.9 168 800.1 165.1C802.2 162.3 806 160.1 806.8 161.7C807.7 163.4 805.1 165.8 805.5 166.7C805.9 167.7 808.6 167.2 812.7 165.8C816.8 164.3 819.5 159.6 819.5 159.6C819.5 159.6 820.3 161.5 820 163.2C819.7 164.9 819.2 165.8 819.2 165.8C819.2 165.8 820.1 163.8 820.1 167.4C820.1 169.2 818.5 170.4 818.5 170.4C818.5 170.4 819.7 171.9 817.2 175.2C814.6 178.4 807.4 181.4 807.4 181.4C807.4 181.4 799.4 201 786.2 206.1C773 211.3 762.7 204.4 762.7 204.4L766.8 182.9C766.8 182.9 780.9 187.9 797.5 175.2Z" fill="#C6C2CC"/>
<path d="M812.8 169.9C812.6 169.9 812.4 169.7 812.4 169.6C812.4 169.4 812.5 169.2 812.7 169.1C815.7 168.5 819.2 164.9 819.2 164.8C819.4 164.7 819.6 164.7 819.8 164.8C819.9 165 819.9 165.2 819.8 165.4C819.6 165.5 816.1 169.2 812.8 169.8C812.8 169.867 812.8 169.9 812.8 169.9Z" fill="black"/>
<path d="M813.4 173.4C813.2 173.4 813.1 173.3 813 173.1C813 172.9 813.1 172.7 813.3 172.7C816.7 172.1 818.2 170.2 818.2 170.2C818.4 170.1 818.6 170 818.7 170.2C818.9 170.3 818.9 170.5 818.8 170.7C818.7 170.8 817.2 172.8 813.4 173.4Z" fill="black"/>
<path d="M755.3 214.8C755.3 214.8 772.9 238.4 787.2 264.7C801.6 290.9 809.6 323.6 809.6 323.6L772.8 325.9L746 261.2L753.9 325.1L718.3 323.8C718.3 323.8 710.5 264.5 714.7 236.5C718.8 208.5 723.6 202.6 723.6 202.6L755.3 214.8Z" fill="#DFC9FF"/>
<path d="M734.1 153.1C734.033 153.1 733.967 153.067 733.9 153C727.6 145.2 736 138.2 736.1 138.1C736.2 138 736.5 138 736.6 138.2C736.7 138.3 736.7 138.5 736.6 138.7C736.2 138.9 728.7 145.3 734.4 152.5C734.6 152.7 734.5 152.9 734.4 153C734.333 153.067 734.233 153.1 734.1 153.1Z" fill="#B099D0"/>
<path d="M775.5 183.2C775.5 183.2 761.5 167.5 744.6 166.5C727.7 165.5 721.9 173.6 721.1 177.5C720.3 181.4 718.9 209.1 719.9 210.9C720.9 212.7 727.9 216 739.2 216.8C750.5 217.6 756.4 216.2 757.2 215.6C758 215 759 206.4 759 206.4L768.6 208.9L775.5 183.2Z" fill="#A68FD1"/>
<path d="M740.1 159.3C740.1 159.3 744.8 170 739.9 174.3C734.9 178.5 727.5 175.8 727.5 175.8C727.5 175.8 725 177.4 720.3 175.7C715.5 174.1 713.2 169.7 713.2 169.7L740.1 159.3Z" fill="#EBE4F5"/>
<path d="M770 150.1C770 150.1 774.8 142.7 777.2 141C779.6 139.4 792.9 134.1 794.2 135.4C795.5 136.7 787.7 142.1 787.7 142.1C787.7 142.1 789.1 142.3 789.4 143.4C789.7 144.5 789.2 145.4 789.2 145.4C789.2 145.4 790.8 145.3 791.3 146.5C791.8 147.6 791 148.8 791 148.8C791 148.8 787.9 154.4 786.2 154.5C784.4 154.7 784.7 151.6 784.7 151.6C784.7 151.6 784 154.4 782.5 155.9C781 157.5 777.9 157.7 774.7 156C771.4 154.3 770 150.1 770 150.1Z" fill="#C6C2CC"/>
<path d="M773.7 155C773.6 155 773.4 154.9 773.4 154.7C773.4 154.5 773.5 154.3 773.7 154.3C777.4 153.9 778.3 149.2 778.3 149.1C778.3 149.034 778.333 148.967 778.4 148.9C778.533 148.833 778.633 148.8 778.7 148.8C780.5 149.2 782.5 149.4 782.9 148.9C783 148.8 782.9 148.7 782.8 148.5C781.9 146.6 777.4 144.7 777.4 144.6C777.2 144.6 777.1 144.4 777.2 144.2C777.3 144 777.5 143.9 777.7 144C777.9 144.1 782.4 146.1 783.5 148.2C783.8 148.8 783.6 149.2 783.5 149.4C782.8 150.3 780.1 149.9 778.9 149.6C778.6 150.8 777.4 154.7 773.8 155C773.8 155 773.767 155 773.7 155Z" fill="black"/>
<path d="M782.7 148.1C782.6 148.1 782.4 148 782.4 147.9C782.3 147.7 782.4 147.5 782.6 147.4C784.7 146.7 787.4 141.9 787.4 141.9C787.5 141.7 787.8 141.6 787.9 141.7C788.1 141.8 788.2 142.1 788.1 142.2C788 142.4 785.2 147.3 782.9 148.1C782.833 148.1 782.767 148.1 782.7 148.1Z" fill="black"/>
<path d="M783.6 152.2C782.867 152.134 782.333 151.9 782 151.5C781.3 150.6 781.6 149.5 781.6 149.5C781.6 149.3 781.8 149.1 782 149.2C782.2 149.2 782.4 149.4 782.3 149.6C782.3 149.6 782.1 150.5 782.5 151C782.767 151.267 783.133 151.434 783.6 151.5C784.9 151.5 787.5 147.7 788.8 145.2C788.9 145 789.1 145 789.3 145.1C789.5 145.2 789.6 145.4 789.5 145.6C789.1 146.2 785.9 152.2 783.6 152.2Z" fill="black"/>
<path fill-rule="evenodd" clip-rule="evenodd" d="M759 206.8C758.9 206.8 758.8 206.7 758.7 206.6C758.2 205.5 756 199.8 757.7 198.6C758.1 198.4 758.4 198.5 758.6 198.6C759.8 199.3 759.5 204.8 759.4 206.4C759.4 206.6 759.3 206.8 759.1 206.8C759.1 206.8 759.066 206.8 759 206.8ZM758.2 199.2C757.4 199.8 757.9 202.3 758.7 204.7C758.8 201.8 758.6 199.4 758.2 199.2Z" fill="#B099D0"/>
<path d="M743.8 221.5C736.3 221.5 726.1 220.2 720 214.3C719.9 214.1 719.9 213.9 720 213.7C720.2 213.6 720.4 213.6 720.5 213.7C730.7 223.7 753.3 220.1 753.5 220.1C753.7 220 753.9 220.2 754 220.4C754 220.6 753.9 220.7 753.7 220.8C753.3 220.8 749.2 221.5 743.8 221.5Z" fill="#B099D0"/>
<path d="M746.2 261.5C746.067 261.5 745.967 261.433 745.9 261.3C745.8 261.3 740.7 252.7 727.4 247.6C727.2 247.5 727.1 247.3 727.2 247.1C727.2 246.9 727.4 246.8 727.6 246.9C741.2 252.1 746.4 260.9 746.5 261C746.6 261.2 746.5 261.4 746.3 261.5C746.3 261.5 746.267 261.5 746.2 261.5Z" fill="#B099D0"/>
<path d="M715.1 241.7C714.767 241.7 714.433 241.7 714.1 241.7C713.9 241.7 713.7 241.5 713.7 241.3C713.7 241.1 713.9 240.9 714.1 240.9C717.3 241.2 719.8 240.4 721.6 238.6C724.6 235.8 724.9 231.2 725 230.1L716.2 226.6C716 226.6 715.9 226.3 716 226.2C716.1 226 716.3 225.9 716.5 225.9L725.5 229.5C725.6 229.6 725.7 229.7 725.7 229.9C725.7 230.1 725.8 235.7 722.1 239.1C720.3 240.834 717.967 241.7 715.1 241.7Z" fill="#B099D0"/>
<path fill-rule="evenodd" clip-rule="evenodd" d="M752.4 245.1C744.7 245.1 742.1 232.8 742.1 232.6C742 232.4 742.2 232.3 742.3 232.2L755.9 228C756.1 227.9 756.3 228 756.4 228.2C756.5 228.6 760.1 237.7 757.5 242.4C756.7 243.8 755.433 244.667 753.7 245C753.233 245.067 752.8 245.1 752.4 245.1ZM742.9 232.8C743.4 234.8 746.3 245.4 753.5 244.2C755.033 244 756.167 243.267 756.9 242C759.1 238.1 756.4 230.4 755.8 228.8L742.9 232.8Z" fill="#B099D0"/>
<path d="M783.3 351.4C783.3 351.4 778.1 326.9 782.1 326.9C786 326.8 792.4 329.3 792.4 329.3C792.4 329.3 800.5 323.3 804.8 325.3C809 327.3 812.1 332.7 812.1 332.7L835.8 343.3C835.8 343.3 839.1 347.1 838.6 349.3C838.3 351 805.4 355.1 791 356.8C787.2 357.3 783.9 354.9 783.3 351.4Z" fill="#C4A1F7"/>
<path d="M814.5 340.2C814.434 340.2 814.367 340.133 814.3 340C814.2 339.9 814.1 339.8 814.2 339.6L815.7 336.5L806.8 338.8C806.6 338.8 806.5 338.7 806.4 338.6C806.3 338.5 806.3 338.3 806.4 338.2L811.9 332.4C812 332.3 812.2 332.2 812.4 332.4C812.5 332.5 812.5 332.8 812.4 332.9L807.8 337.8L816.3 335.6C816.4 335.5 816.6 335.6 816.7 335.7C816.8 335.8 816.8 335.9 816.7 336.1L815.2 339.2L821.8 337.1C822 337 822.2 337.2 822.2 337.3C822.3 337.5 822.2 337.7 822 337.8L814.6 340.1C814.6 340.167 814.567 340.2 814.5 340.2Z" fill="#EBE4F5"/>
<path d="M746.4 329.7C746.4 329.7 760.5 352.6 758.1 355.5C755.7 358.3 738.5 358.7 730.7 357.4C722.9 356.2 719.9 355.2 719.3 353.3C718.7 351.4 722.4 327.9 722.4 327.9C722.4 327.9 725.9 324 730.6 325C735.3 326 742.7 329.6 742.7 329.6C742.7 329.6 744.5 326.5 746.4 329.7Z" fill="#C4A1F7"/>
<path d="M745.9 331.9C745.834 331.9 745.767 331.867 745.7 331.8L742.5 329.9C742.3 329.8 742.3 329.6 742.4 329.4C742.5 329.3 742.7 329.2 742.9 329.3L746.1 331.2C746.3 331.3 746.3 331.5 746.2 331.7C746.133 331.834 746.034 331.9 745.9 331.9Z" fill="#EBE4F5"/>
<path d="M797.8 230.4H834.2C835.7 230.4 837 229.1 837 227.5V210.9C837 209.4 835.7 208.1 834.2 208.1H797.8C796.2 208.1 794.9 209.4 794.9 210.9V227.5C794.9 229.1 796.2 230.4 797.8 230.4Z" fill="#B099D0"/>
<path d="M813.6 209.7L800.3 200.2L803.6 209.7H813.6Z" fill="#B099D0"/>
<path d="M824.7 226H829.4V212.4H824.7V226Z" fill="#A68FD1"/>
<path d="M817.3 226H822V214.9H817.3V226Z" fill="#DFC9FF"/>
<path d="M802.5 226H807.2V214.9H802.5V226Z" fill="#C0B7CE"/>
<path d="M809.9 226H814.6V219.2H809.9V226Z" fill="#EDE5F8"/>
<path d="M934.4 322.2C934.4 322.2 935.8 338.5 935.3 339.1C934.8 339.6 896.1 351.1 896.1 351.1L901.3 327.6L909.9 311.7L934.4 322.2Z" fill="#D9D9D9"/>
<path d="M1013.3 355.9H953.9C950.7 355.9 948.1 353.3 948.1 350.1V326.3C948.1 323.1 950.7 320.4 953.9 320.4H1013.3C1016.5 320.4 1019.2 323.1 1019.2 326.3V350.1C1019.2 353.3 1016.5 355.9 1013.3 355.9Z" fill="#BFBCE0"/>
<path d="M980.1 232.3C980.1 232.3 971.4 230.5 965.3 235.7C959.2 241 955.7 280.9 955.7 280.9C955.7 280.9 976.3 292 993.8 292C1011.3 292 1009.7 291.2 1009.7 291.2L1013.8 275L980.1 232.3Z" fill="#EBE4F5"/>
<path d="M1008 355.9H948.6C945.3 355.9 942.7 353.3 942.7 350.1V326.3C942.7 323.1 945.3 320.4 948.6 320.4H1008C1011.2 320.4 1013.8 323.1 1013.8 326.3V350.1C1013.8 353.3 1011.2 355.9 1008 355.9Z" fill="#C2BFD9"/>
<path d="M930 211.4C930 211.4 927.5 205 926.2 206.9C924.8 208.7 927.3 218.3 927.3 218.3C927.3 218.3 933 219.2 930 211.4Z" fill="#C6C2CC"/>
<path d="M967.6 238.3H942C941 238.3 940.3 237.5 940.3 236.6V210.9C940.3 210 941 209.2 942 209.2H967.6C968.5 209.2 969.3 210 969.3 210.9V236.6C969.3 237.5 968.5 238.3 967.6 238.3Z" fill="#B099D0"/>
<path d="M960.5 222.2C960.5 226.4 957.1 229.8 952.9 229.8C948.8 229.8 945.4 226.4 945.4 222.2C945.4 218.1 948.8 214.7 952.9 214.7C957.1 214.7 960.5 218.1 960.5 222.2Z" fill="#C0B7CE"/>
<path d="M958.1 222.3L961.2 227.6L964.2 232.8H958.1H952.1L955.1 227.6L958.1 222.3Z" fill="#C4A1F7"/>
<path d="M936 235.9C936 235.9 942.2 230.2 941.9 227.1C941.6 224.1 940.2 217.2 940.2 217.2C940.2 217.2 946.2 211 945.9 209.6C945.6 208.3 941 210.4 941 210.4C941 210.4 945.9 205.5 945.9 203.6C945.9 201.7 943.3 202.6 943.3 202.6C943.3 202.6 943.7 200.4 942.2 200.6C940.6 200.8 931.1 207.4 928.3 211C925.5 214.5 928.5 223.6 928.3 224.8C928.1 226.1 926.2 228.7 926.2 228.7L936 235.9Z" fill="#C6C2CC"/>
<path d="M924.9 224.8L943.3 234C943.3 234 940.8 241.2 946.6 243.3C952.3 245.4 959 236 966.7 233.6C974.3 231.3 980.5 232.8 980.5 232.8L976.8 264.7C976.8 264.7 942.4 283 925.8 270.9C909.1 258.8 924.9 224.8 924.9 224.8Z" fill="#EBE4F5"/>
<path d="M927.2 214.5C926.9 214.4 926.8 214.3 926.8 214.1C926.8 214 927.2 211.4 928.7 209.9C928.9 209.8 929.1 209.8 929.3 209.9C929.4 210 929.4 210.3 929.3 210.4C927.9 211.7 927.5 214.1 927.5 214.2C927.5 214.3 927.4 214.5 927.2 214.5Z" fill="black"/>
<path d="M935.3 209.6C935.166 209.6 935.066 209.566 935 209.5C934.9 209.3 934.9 209.1 935 209L943.1 202.4C943.2 202.2 943.5 202.3 943.6 202.4C943.7 202.6 943.7 202.8 943.6 202.9L935.5 209.5C935.433 209.566 935.366 209.6 935.3 209.6Z" fill="black"/>
<path d="M938.3 212.5C938.233 212.5 938.133 212.433 938 212.3C937.9 212.2 938 211.9 938.1 211.8L940.8 210.1C940.9 210 941.2 210 941.3 210.2C941.4 210.4 941.4 210.6 941.2 210.7L938.5 212.4C938.5 212.467 938.433 212.5 938.3 212.5Z" fill="black"/>
<path d="M884.9 327C884.9 327 856.6 342.2 852.9 344.3C849.3 346.4 847.1 352.9 848.6 354.1C850 355.4 896.7 354.8 900.3 354.1C903.9 353.5 906.5 336.5 906.5 336.5L884.9 327Z" fill="#B099D0"/>
<path d="M875.7 335C875.7 335 875.666 335 875.6 335C875.2 334.8 865.5 331.1 866.3 325.4C866.433 324.466 866.8 323.933 867.4 323.8C868.7 323.5 871.1 326 873 328.2C871.7 325.4 870.4 321.7 871.2 320.1C871.4 319.566 871.766 319.233 872.3 319.1C872.833 318.966 873.333 319.1 873.8 319.5C876.6 321.5 877.6 331.5 877.7 331.9C877.7 332.1 877.6 332.3 877.4 332.3C877.1 332.3 877 332.2 877 332C876.7 329.2 875.5 321.6 873.4 320C873.067 319.8 872.766 319.733 872.5 319.8C872.166 319.866 871.933 320.066 871.8 320.4C870.9 322.4 874.1 329.1 875.4 331.5C875.5 331.6 875.4 331.9 875.3 332C875.1 332.1 874.9 332 874.8 331.9C872.5 328.6 868.8 324.2 867.5 324.5C867.2 324.6 867.1 325.1 867 325.5C866.3 330.6 875.8 334.2 875.9 334.3C876.1 334.4 876.1 334.6 876.1 334.8C876 334.9 875.9 335 875.7 335Z" fill="#DFC9FF"/>
<path d="M965.7 272.1C965.7 272.1 937.6 246.9 921.5 250.9C905.3 255 904.1 271.8 901.2 290.7C898.4 309.7 897.5 323.6 897.5 323.6L936.1 324.3L938.3 291.2L979.6 278.4L965.7 272.1Z" fill="#A68FD1"/>
<path d="M1009.7 291.2C1009.7 291.2 1007.2 311.9 998.7 318C990.2 324.1 975.5 322.2 961.2 314.4C947.2 306.8 943 303.9 941.4 303.9C939.8 303.9 912 342.4 912 342.4L879.6 325.5C879.6 325.5 904.3 265.7 924.8 261.3C944.6 257 989.2 285.1 989.2 285.1L1009.7 291.2Z" fill="#D9D9D9"/>
<path d="M993.8 208.5C993.8 208.5 1005.4 205.4 1009.6 213.2C1013.8 221.1 1010.2 253.1 1010.2 253.1L992.3 241.3L992.7 225.5L993.8 208.5Z" fill="#B099D0"/>
<path d="M970.3 249.9L956.7 262C956.7 262 976 292.4 1003.6 287.6C1031.2 282.7 1019 257.2 1014.5 250.3C1007.3 239.6 998.6 233.4 990.7 232.9C982.8 232.3 970.3 249.9 970.3 249.9Z" fill="#EBE4F5"/>
<path d="M990.7 226.7L990.5 235.2C990.5 235.2 988.9 237.6 983.9 237.8C980.2 238 979.1 236.1 979.1 236.1L980.2 228.7L989.2 227L990.7 226.7Z" fill="#C6C2CC"/>
<path d="M989.2 227C989.133 227.2 989.033 227.467 988.9 227.8C986.9 232 981.7 232.8 979.6 232.9L980.2 228.7L989.2 227Z" fill="black"/>
<path d="M978.8 209.4C978.8 209.4 974.1 219.9 975.7 225.8C977.3 231.8 982.7 230.9 985.9 229.8C989.2 228.7 990.7 226.7 990.7 226.7C990.7 226.7 993.7 227.7 995.8 225C997.8 222.2 996.6 218.9 994.9 218.2C993.2 217.4 991.1 218.6 991.1 218.6L992.7 215.6C992.7 215.6 986.1 199.9 978.8 209.4Z" fill="#C6C2CC"/>
<path d="M985.1 215C984.967 215 984.867 214.933 984.8 214.8C984.533 214.333 984.167 214.066 983.7 214C983.1 213.8 982.4 214.2 982.3 214.2C982.2 214.3 982 214.3 981.8 214.1C981.7 213.9 981.8 213.7 982 213.6C982 213.6 982.9 213 983.9 213.3C984.5 213.433 985 213.833 985.4 214.5C985.5 214.7 985.4 214.9 985.3 215C985.233 215 985.167 215 985.1 215Z" fill="black"/>
<path d="M977.3 214C977.233 214 977.167 214 977.1 214C977 213.9 976.9 213.7 977 213.5C977.133 213.167 977.333 212.967 977.6 212.9C978.3 212.7 979.2 213.3 979.3 213.4C979.5 213.5 979.5 213.7 979.4 213.9C979.3 214 979.1 214.1 978.9 214C978.7 213.8 978.1 213.5 977.8 213.6C977.8 213.6 977.7 213.7 977.6 213.8C977.6 213.9 977.4 214 977.3 214Z" fill="black"/>
<path d="M984.7 217.3C984.567 217.3 984.467 217.233 984.4 217.1C984.267 216.9 984.1 216.767 983.9 216.7C983.5 216.7 982.9 217 982.7 217.2C982.6 217.3 982.4 217.3 982.2 217.1C982.1 217 982.1 216.7 982.3 216.6C982.4 216.5 983.2 215.9 984 216C984.467 216.067 984.8 216.3 985 216.7C985.1 216.9 985.1 217.1 984.9 217.2C984.833 217.267 984.767 217.3 984.7 217.3Z" fill="black"/>
<path d="M978.7 217C978.6 217 978.4 216.9 978.4 216.8C978.3 216.7 977.9 215.9 977 216.2C976.8 216.3 976.6 216.2 976.5 216C976.4 215.8 976.5 215.6 976.7 215.6C977.9 215 978.8 215.9 979 216.5C979.1 216.6 979 216.9 978.9 217C978.833 217 978.766 217 978.7 217Z" fill="black"/>
<path d="M979.1 222.1C978.9 222.1 978.8 222 978.7 221.8C978.6 219.7 979.7 217.2 979.8 217.1C979.9 216.9 980.1 216.8 980.3 216.9C980.5 217 980.5 217.2 980.5 217.4C980.4 217.4 979.3 219.8 979.5 221.7C979.5 221.9 979.3 222.1 979.1 222.1Z" fill="black"/>
<path d="M981.7 225.2C981.5 225.2 981.4 225.1 981.3 224.9C981.3 224.7 981.4 224.5 981.6 224.5C981.6 224.5 983.5 224 984 222.7C984.1 222.5 984.3 222.4 984.5 222.5C984.7 222.6 984.8 222.8 984.7 223C984 224.7 981.9 225.2 981.8 225.2C981.733 225.2 981.7 225.2 981.7 225.2Z" fill="black"/>
<path d="M991.4 223.2C991.267 223.2 991.167 223.166 991.1 223.1C991 222.9 991 222.7 991.2 222.5L994.6 219.8C994.8 219.6 995 219.7 995.1 219.8C995.2 220 995.2 220.2 995.1 220.3L991.6 223.1C991.533 223.166 991.467 223.2 991.4 223.2Z" fill="black"/>
<path d="M994.8 223.2C994.733 223.2 994.7 223.2 994.7 223.2L992.5 222.1C992.4 222 992.3 221.8 992.4 221.6C992.5 221.4 992.7 221.4 992.9 221.5L995 222.5C995.2 222.6 995.2 222.8 995.2 223C995.1 223.1 995 223.2 994.8 223.2Z" fill="black"/>
<path d="M991.1 218.6C991.1 218.6 987.4 218.2 985.1 215.2C982.8 212.1 981.7 209 981.7 209C981.7 209 980.1 209.2 979.1 210.5C978.4 211.4 977.5 212.7 977.5 212.7C977.5 212.7 977.4 208.4 979.6 206.3C981.8 204.3 983.6 205 983.6 205C983.6 205 988.4 202.4 993.1 206.7C997.9 211 995.6 218.6 995.6 218.6C995.6 218.6 993.1 217.7 991.1 218.6Z" fill="#B099D0"/>
<path fill-rule="evenodd" clip-rule="evenodd" d="M972.4 235.9C972 240.2 969.5 241.4 967.2 243.2C964.9 245.1 966.3 250.2 966.3 250.2L958.7 258.3C958.7 258.3 954.6 258.1 952.4 252.7C950.3 247.2 952.8 240.8 955.7 238C958.7 235.2 958.8 230.8 959.6 227.8C960.3 224.8 962.4 226.3 962.4 226.3C962.4 226.3 962.8 223.9 963.9 222.8C965.1 221.7 966.1 225.2 966.1 225.2C966.1 225.2 967 223.4 968.1 224.6C969.3 225.9 969.1 229.4 969.1 229.4C969.1 229.4 972.6 234.3 972.4 235.9ZM968.5 234L967.7 237.8C967.7 237.8 970.8 237.1 968.5 234Z" fill="#C6C2CC"/>
<path d="M967.7 238.2C967.7 238.2 967.667 238.2 967.6 238.2C967.4 238.1 967.3 237.9 967.4 237.7C968.5 234.5 968.8 229.5 968.8 229.4C968.8 229.2 969 229.1 969.1 229.1C969.4 229.1 969.5 229.3 969.5 229.5C969.5 229.7 969.2 234.7 968.1 238C968 238.1 967.9 238.2 967.7 238.2Z" fill="black"/>
<path d="M964.1 237.5C964.033 237.5 963.967 237.467 963.9 237.4C963.7 237.3 963.7 237.1 963.8 236.9C965.9 233.1 965.2 225 965.2 224.9C965.2 224.7 965.3 224.5 965.5 224.5C965.7 224.5 965.9 224.6 965.9 224.8C965.9 225.1 966.6 233.3 964.4 237.3C964.333 237.433 964.233 237.5 964.1 237.5Z" fill="black"/>
<path d="M960.6 237.5C960.466 237.5 960.366 237.467 960.3 237.4C960.2 237.2 960.2 237 960.3 236.9C961.9 235.3 962.1 228.7 962 226.3C962 226.1 962.2 225.9 962.4 225.9C962.5 225.9 962.7 226.1 962.7 226.3C962.7 226.7 962.9 235.3 960.8 237.4C960.733 237.467 960.666 237.5 960.6 237.5Z" fill="black"/>
<path d="M902.5 282.3C902.433 282.3 902.4 282.3 902.4 282.3C902.2 282.2 902.1 282 902.2 281.8C902.3 281.7 910.2 268.6 921 262.3C932.9 255.4 961 269.5 962.2 270.1C962.4 270.2 962.4 270.4 962.3 270.6C962.3 270.8 962 270.9 961.9 270.8C961.6 270.6 932.9 256.2 921.3 262.9C910.7 269.1 902.9 282 902.9 282.2C902.767 282.266 902.633 282.3 902.5 282.3Z" fill="#B099D0"/>
<path fill-rule="evenodd" clip-rule="evenodd" d="M941.4 304.3C941.4 304.3 941.367 304.3 941.3 304.3C941.233 304.233 941.167 304.133 941.1 304C940.8 303.3 938.7 296.9 940.8 295.3C941.2 295 941.7 295 942 295.4C943.1 296.8 942.6 303.4 941.7 304.2C941.633 304.266 941.533 304.3 941.4 304.3ZM941.4 295.8C941.333 295.8 941.267 295.833 941.2 295.9C940.1 296.7 940.7 300.3 941.5 302.9C941.9 301.1 942.2 296.8 941.5 295.9C941.433 295.833 941.4 295.8 941.4 295.8Z" fill="#B099D0"/>
<path fill-rule="evenodd" clip-rule="evenodd" d="M946.6 252C946.2 252 945.9 251.866 945.7 251.6C944.5 250 946 243.9 946.2 243.2C946.3 242.9 946.8 242.9 946.9 243.2C947.1 243.9 948.7 250 947.4 251.6C947.2 251.866 946.933 252 946.6 252ZM946.6 244.9C946.1 247.4 945.7 250.4 946.3 251.2C946.5 251.4 946.7 251.4 946.9 251.2C947.5 250.4 947.1 247.4 946.6 244.9Z" fill="#DFC9FF"/>
<path d="M984 238.3C980.5 238.3 978.1 236.2 978 236.2C977.9 236.1 977.9 235.8 978 235.7C978.1 235.5 978.3 235.5 978.5 235.7C978.7 235.9 984.1 240.5 990.2 234.9C990.4 234.8 990.6 234.8 990.8 234.9C990.9 235.1 990.9 235.3 990.7 235.4C988.3 237.6 986 238.3 984 238.3Z" fill="#DFC9FF"/>
<path d="M996.1 258.7C996.1 258.7 996.066 258.7 996 258.7C988.7 256.2 972.5 250.3 972.3 250.3C972.1 250.2 972 250 972.1 249.8C972.2 249.6 972.4 249.5 972.6 249.6C972.7 249.6 988.9 255.6 996.2 258C996.4 258 996.5 258.2 996.5 258.4C996.4 258.6 996.3 258.7 996.1 258.7Z" fill="#DFC9FF"/>
<path fill-rule="evenodd" clip-rule="evenodd" d="M1002.8 260.7C1000.2 260.7 995.3 258.5 994.7 258.2C994.5 258.1 994.4 258 994.5 257.8C994.5 257.6 994.7 257.5 994.8 257.5C996.2 257.5 1003.3 257.4 1004.4 259C1004.6 259.266 1004.63 259.566 1004.5 259.9C1004.43 260.233 1004.2 260.466 1003.8 260.6C1003.53 260.733 1003.2 260.766 1002.8 260.7ZM996.6 258.2C998.9 259.2 1002.3 260.4 1003.6 259.9C1003.8 259.8 1003.8 259.7 1003.9 259.6C1003.9 259.533 1003.87 259.466 1003.8 259.4C1003.3 258.6 999.6 258.3 996.6 258.2Z" fill="#DFC9FF"/>
<path d="M1002 298.7C995.4 298.6 993.4 292.2 993.4 292.1C993.4 291.9 993.5 291.7 993.7 291.7C993.9 291.6 994.1 291.7 994.1 291.9C994.2 292.2 995.9 297.9 1002 298C1002.2 298 1002.4 298.2 1002.4 298.4C1002.3 298.6 1002.2 298.7 1002 298.7Z" fill="#B099D0"/>
<path d="M344.4 256.5L332.2 268.8L319.8 249.4L326.8 242.2L344.4 256.5Z" fill="#C6C2CC"/>
<path d="M337.9 223.9C339.2 223.5 344.6 229.5 345.2 229.9C345.9 230.2 344.3 234.9 345.8 235.3C347.2 235.6 349.9 235 352 235.6C354 236 376.3 255.6 380.2 260C380.5 260.3 380.4 260.9 380 261.2C379.1 261.9 377.4 263.3 375.4 264.4C373.2 265.6 370.5 266.7 368.1 266.5C362.3 266.1 354.1 260.8 350 260.2C345.8 259.7 339.2 261.3 338.3 259.1C337.4 257 337.6 250.7 332.9 247.5C328.1 244.3 325.2 243.6 324.9 241.6C324.8 240.2 330.2 232.8 334.1 228C336 225.7 337.5 224.1 337.9 223.9Z" fill="#C4A1F7"/>
<path d="M337.9 223.9C339.2 223.5 344.6 229.5 345.2 229.9C345.9 230.2 344.3 234.9 345.8 235.3C347.2 235.6 349.9 235 352 235.6C354 236 376.3 255.6 380.2 260C380.5 260.3 380.4 260.9 380 261.2C379.1 261.9 377.4 263.3 375.4 264.4L334.1 228C336 225.7 337.5 224.1 337.9 223.9Z" fill="#B099D0"/>
<path d="M288.9 325.3L291.5 332.6L306 337.2L313 334.1L309.3 317.4L288.9 325.3Z" fill="#C6C2CC"/>
<path d="M315 210.1C315 210.1 317.6 223.1 318.8 234.2C320.1 245.4 322.1 260.3 322.1 260.3C322.1 260.3 331.2 294.5 309.3 297.5C282.1 301.2 283.5 269 283.5 269L291.7 201.6L315 210.1Z" fill="#DFC9FF"/>
<path d="M344.8 262.1L322.3 242.7L315.6 252.2L313.8 296.3C313.8 296.3 323.6 295 344.8 262.1Z" fill="#DFC9FF"/>
<path d="M271.5 207C271.5 207 262.5 243.1 265.3 269.8C268.2 296.5 281.4 329.2 281.4 329.2L316.7 322.6L304.9 283.1L296.4 208.8L271.5 207Z" fill="#DFC9FF"/>
<path d="M316.5 355.2C315.9 356.4 307.8 355.4 307.1 355.6C306.4 355.8 304.4 351.3 303.1 352C301.8 352.7 300.2 354.9 298.3 355.9C296.5 356.9 266.8 357.3 261 356.6C260.5 356.6 260.2 356.1 260.3 355.6C260.4 354.5 260.8 352.4 261.6 350.2C262.4 347.7 263.7 345.2 265.6 343.7C270.2 340.2 279.8 338.6 283.2 336.3C286.7 333.9 290.5 328.2 292.6 329.3C294.7 330.3 298.8 335 304.5 334.2C310.2 333.4 312.8 332 314.3 333.4C315.4 334.3 316.3 343.4 316.6 349.6C316.7 352.5 316.7 354.8 316.5 355.2Z" fill="#C4A1F7"/>
<path d="M307.3 297.9C303.2 297.9 294.1 296.9 287.4 288.1C275.9 272.9 282.7 232.1 283.6 227.3L272 226.4C271.8 226.4 271.6 226.2 271.7 226C271.7 225.8 271.8 225.6 272 225.7L284 226.6C284.133 226.667 284.233 226.734 284.3 226.8C284.367 226.867 284.4 226.967 284.4 227.1C284.3 227.5 276.2 272.1 288 287.7C296.5 298.9 309.1 297.1 309.2 297.1C309.4 297.1 309.6 297.2 309.6 297.4C309.7 297.6 309.5 297.8 309.3 297.8C309.3 297.8 308.5 297.9 307.3 297.9Z" fill="#C4A1F7"/>
<path fill-rule="evenodd" clip-rule="evenodd" d="M313.1 258.5C312.767 258.5 312.5 258.4 312.3 258.2C311.9 257.867 311.667 257.467 311.6 257C311.4 253.6 319.5 245.9 319.9 245.6C320 245.5 320.2 245.4 320.3 245.5C320.5 245.6 320.5 245.8 320.5 246C320.1 247.1 316.5 257.5 313.5 258.4C313.366 258.467 313.233 258.5 313.1 258.5ZM319.3 247.2C316.6 249.9 312.2 254.8 312.3 256.9C312.366 257.234 312.5 257.467 312.7 257.6C312.9 257.734 313.1 257.767 313.3 257.7C315.2 257.1 317.9 250.9 319.3 247.2Z" fill="#C4A1F7"/>
<path d="M313 224.9C313 224.9 312.967 224.867 312.9 224.8C308 222.4 304.8 216.5 304.7 216.2C304.6 216.1 304.7 215.8 304.9 215.7C305.1 215.7 305.3 215.7 305.4 215.9C305.4 216 308.5 221.9 313.2 224.2C313.4 224.3 313.5 224.5 313.4 224.7C313.3 224.8 313.2 224.9 313 224.9Z" fill="#C4A1F7"/>
<path d="M316.5 355.2C315.9 356.4 307.8 355.4 307.1 355.6C306.4 355.8 304.4 351.3 303.1 352C301.8 352.7 300.2 354.9 298.3 355.9C296.5 356.9 266.8 357.3 261 356.6C260.5 356.6 260.2 356.1 260.3 355.6C260.4 354.5 260.8 352.4 261.6 350.2L316.6 349.6C316.7 352.5 316.7 354.8 316.5 355.2Z" fill="#B099D0"/>
<path d="M308.2 161.2C308.2 161.2 324.6 164.7 330.1 182.4C335.6 200.1 313.4 218.7 313.4 218.7L271.5 207C271.5 207 276.6 161.6 281.6 157.1C286.6 152.5 308.2 161.2 308.2 161.2Z" fill="#C7BEDD"/>
<path d="M295.6 151.4C295.6 151.4 293.4 134.5 271.5 130.3C249.7 126.2 236.7 153.3 236.7 153.3L300.9 165L295.6 151.4Z" fill="#C7BEDD"/>
<path d="M297.2 144C297.2 144 290.2 139.1 292.9 134.6C295.6 130 302.4 134 302.4 134C302.4 134 304.7 131.3 308.4 133.1C312.1 134.9 312.9 139.8 312.9 139.8C312.9 139.8 316.5 139.5 317 143.9C317.5 148.3 313 152.5 313 152.5L297.2 144Z" fill="#EBE4F5"/>
<path d="M309.6 155.2L310.3 163.6C310.3 163.6 309 166.1 304.1 166.9C300.4 167.5 299.2 165.2 299.2 165.2L299.3 162.5L299.4 158.3L308.2 155.7L309.6 155.2Z" fill="#C6C2CC"/>
<path d="M308.2 155.7C308.2 155.9 308.133 156.167 308 156.5C306.4 160.8 301.4 162.1 299.3 162.5L299.4 158.3L308.2 155.7Z" fill="black"/>
<path d="M296.1 139.3C296.1 139.3 292.5 150.2 294.7 155.9C296.9 161.6 302.1 160.2 305.2 158.8C308.3 157.3 309.6 155.2 309.6 155.2C309.6 155.2 312.7 155.9 314.5 153C316.2 150 314.7 146.9 312.9 146.4C311.1 145.8 309.2 147.2 309.2 147.2L310.5 144C310.5 144 302.4 129.2 296.1 139.3Z" fill="#C6C2CC"/>
<path d="M309.8 151.8C309.733 151.8 309.666 151.734 309.6 151.6C309.4 151.5 309.4 151.2 309.6 151.1L313.2 148.1C313.3 148 313.6 148 313.7 148.1C313.8 148.3 313.8 148.5 313.6 148.7L310.1 151.7C310.033 151.767 309.933 151.8 309.8 151.8Z" fill="black"/>
<path d="M313.3 151.4C313.233 151.4 313.2 151.4 313.2 151.4L310.7 151C310.5 151 310.3 150.8 310.4 150.6C310.4 150.4 310.6 150.2 310.8 150.3L313.3 150.7C313.5 150.8 313.7 150.9 313.6 151.1C313.6 151.3 313.5 151.4 313.3 151.4Z" fill="black"/>
<path d="M303.4 143.2C303.333 143.2 303.267 143.167 303.2 143.1C302 141.8 300.7 142.6 300.7 142.6C300.5 142.7 300.3 142.7 300.2 142.5C300.1 142.3 300.1 142.1 300.3 142C300.9 141.6 302.4 141.2 303.7 142.6C303.8 142.8 303.8 143 303.7 143.1C303.633 143.167 303.533 143.2 303.4 143.2Z" fill="black"/>
<path d="M295.2 143.5C295.133 143.5 295.066 143.434 295 143.3C294.8 143.2 294.9 143 295 142.8C296.2 141.7 297.6 142.3 297.6 142.4C297.8 142.5 297.9 142.7 297.8 142.9C297.7 143 297.5 143.1 297.3 143C297.3 143 296.3 142.6 295.5 143.4C295.433 143.467 295.333 143.5 295.2 143.5Z" fill="black"/>
<path d="M297.6 152.2C297.4 152.2 297.3 152.1 297.2 152C295.9 148.6 298 146.5 298.1 146.4C298.2 146.2 298.5 146.2 298.6 146.4C298.8 146.5 298.8 146.8 298.6 146.9C298.5 147 296.8 148.8 297.9 151.7C298 151.9 297.9 152.1 297.7 152.2C297.633 152.2 297.6 152.2 297.6 152.2Z" fill="black"/>
<path d="M295.6 147.5C295.6 147.5 295.566 147.5 295.5 147.5C295.3 147.4 295.2 147.3 295.2 147.1L295.6 145.1C295.7 144.9 295.9 144.8 296 144.8C296.2 144.8 296.4 145 296.3 145.2L296 147.2C295.9 147.4 295.8 147.5 295.6 147.5Z" fill="black"/>
<path d="M300.9 147.2C300.7 147.1 300.5 146.9 300.6 146.7L300.9 144.8C301 144.6 301.2 144.5 301.4 144.5C301.6 144.5 301.7 144.7 301.7 144.9L301.3 146.9C301.3 147.1 301.1 147.2 300.9 147.2Z" fill="black"/>
<path d="M295.4 141.7C295.4 141.7 296.2 140 298.2 139.8C300.3 139.6 301.7 141 301.7 141C301.7 141 301 144.6 304 146.3C307 147.9 309.2 147.2 309.2 147.2L311.2 146.3L312.5 143.2L306 137.2L297.9 133.7L294.3 137.6L295.4 141.7Z" fill="#EBE4F5"/>
<path d="M299.7 154.5C299.4 154.5 299.3 154.4 299.3 154.2C299.3 154 299.4 153.8 299.6 153.8C299.7 153.8 301.4 153.8 301.9 152.3C302 152.1 302.2 152 302.4 152C302.6 152.1 302.7 152.3 302.6 152.5C302 154.1 300.4 154.5 299.7 154.5Z" fill="black"/>
<path d="M201.6 222.4H278.3C281.1 222.4 283.3 220.2 283.3 217.4V153C283.3 150.2 281.1 147.9 278.3 147.9H201.6C198.8 147.9 196.5 150.2 196.5 153V217.4C196.5 220.2 198.8 222.4 201.6 222.4Z" fill="#EDE5F8"/>
<path d="M291.1 184C291.1 184 280.6 178.4 277.4 177.9C274.3 177.5 268.8 181 268.8 181L271.5 182.6C271.5 182.6 267.2 192 268 193.4C268.8 194.8 270.9 193.4 270.9 193.4C270.9 193.4 275.8 198.5 277.3 198.6C278.7 198.8 286.4 195.8 286.4 195.8L291.1 184Z" fill="#C6C2CC"/>
<path d="M289.7 181.8L312.5 189.9L310.1 161.8C310.1 161.8 327.6 167.1 332.2 185.1C336.8 203.1 330.2 217.4 315.8 218.7C301.5 220 282.1 199.9 282.1 199.9L289.7 181.8Z" fill="#C7BEDD"/>
<path d="M248.4 141.1C248.4 141.1 250.9 136.8 253.3 140.4C255.6 144 253.6 154.2 251.7 154.7C249.7 155.2 248.4 151.3 248.4 151.3C248.4 151.3 248 154.6 245.8 154.7C243.7 154.8 242.7 151.3 242.7 151.3C242.7 151.3 241.6 155.2 239.8 154.7C237.7 154.1 236.6 141.1 240.6 139.7C242.4 139.1 243.5 141.1 243.5 141.1C243.5 141.1 244.2 138.6 246.4 138.9C248.5 139.3 248.4 141.1 248.4 141.1Z" fill="#C6C2CC"/>
<path d="M271.5 182.6L263.9 177.9L262 181.8L269.9 186.5L271.5 182.6Z" fill="#B099D0"/>
<path d="M259.6 183.1C261.2 183.1 263.1 182.6 264 180.8C265.4 178.1 263.5 174.8 263.3 174.4L260.8 175.9C261.1 176.5 261.9 178.4 261.4 179.5C261 180.3 259.3 180.2 258.6 180.1L257.9 182.9C258.4 183 259 183.1 259.6 183.1Z" fill="#B099D0"/>
<path d="M271.5 182.9C271.433 182.9 271.366 182.9 271.3 182.9C271.2 182.7 271.1 182.5 271.2 182.3L273.2 179.6C273.3 179.5 273.5 179.4 273.7 179.5C273.9 179.7 273.9 179.9 273.8 180L271.8 182.8C271.733 182.867 271.633 182.9 271.5 182.9Z" fill="black"/>
<path d="M270.9 193.7C270.833 193.7 270.767 193.7 270.7 193.7C270.5 193.6 270.5 193.3 270.6 193.2L271.7 191.6C271.8 191.5 272.1 191.4 272.2 191.5C272.4 191.6 272.4 191.9 272.3 192L271.2 193.6C271.133 193.667 271.033 193.7 270.9 193.7Z" fill="black"/>
<path d="M248.4 151.2C248.2 151.2 248 151.1 248 150.9V141.1C248 140.9 248.2 140.7 248.4 140.7C248.6 140.7 248.7 140.9 248.7 141.1V150.9C248.7 151.1 248.6 151.2 248.4 151.2Z" fill="black"/>
<path d="M242.7 151.7C242.5 151.7 242.3 151.5 242.3 151.3L243.1 141.1C243.1 140.9 243.3 140.7 243.5 140.7C243.7 140.8 243.9 140.9 243.9 141.1L243.1 151.3C243.1 151.5 242.9 151.7 242.7 151.7Z" fill="black"/>
<path d="M303.1 167.3C303.1 167.3 303.066 167.3 303 167.3C301.4 167.3 300.033 166.667 298.9 165.4C298.8 165.3 298.8 165.1 298.9 164.9C299 164.8 299.3 164.8 299.4 164.9C301.2 166.8 303.5 167.1 306.2 165.9C308.4 164.9 310 163.4 310 163.3C310.2 163.2 310.4 163.2 310.5 163.4C310.7 163.5 310.7 163.7 310.5 163.9C310.4 164 306.9 167.3 303.1 167.3Z" fill="#B099D0"/>
<path d="M318 190.6C317.933 190.6 317.9 190.6 317.9 190.6C308.2 186.5 294.3 183.5 294.2 183.4C294 183.4 293.9 183.2 293.9 183C294 182.8 294.2 182.7 294.4 182.7C294.5 182.8 308.4 185.8 318.2 189.9C318.3 190 318.4 190.2 318.3 190.4C318.3 190.6 318.2 190.6 318 190.6Z" fill="#B099D0"/>
<path fill-rule="evenodd" clip-rule="evenodd" d="M313.1 187.6C311.6 187.6 310.2 187.5 309.3 187.5C309.1 187.5 308.9 187.3 308.9 187.2C308.9 187 309 186.8 309.1 186.8C309.4 186.6 316.6 183.5 319.1 185.5C319.6 185.9 319.6 186.2 319.5 186.5C319.2 187.4 316 187.6 313.1 187.6ZM311 186.8C314.7 186.9 318.4 186.7 318.8 186.2C318.8 186.2 318.767 186.167 318.7 186.1C317.2 184.9 313.5 185.9 311 186.8Z" fill="#B099D0"/>
<path fill-rule="evenodd" clip-rule="evenodd" d="M273.8 148.3C273.7 148.3 273.5 148.2 273.5 148C273.2 147.2 272 143 273 141.9C273.2 141.7 273.4 141.6 273.9 141.6C274.233 141.667 274.5 141.867 274.7 142.2C275.6 143.7 274.3 147.6 274.2 148C274.1 148.2 274 148.3 273.8 148.3ZM273.7 142.3C273.633 142.367 273.6 142.4 273.6 142.4C273.1 142.8 273.4 144.8 273.8 146.6C274.2 145.2 274.5 143.3 274.1 142.6C274.033 142.467 273.933 142.367 273.8 142.3C273.733 142.3 273.7 142.3 273.7 142.3Z" fill="#B099D0"/>
<path d="M300.5 214.6C300.433 214.6 300.366 214.6 300.3 214.6C300.2 214.6 290 209.3 284.3 202.6C284.2 202.4 284.2 202.2 284.3 202.1C284.5 201.9 284.7 201.9 284.8 202.1C290.4 208.7 300.6 213.9 300.7 214C300.8 214 300.9 214.3 300.8 214.4C300.733 214.534 300.633 214.6 300.5 214.6Z" fill="#B099D0"/>
<path d="M247 246.8C246.867 246.8 246.767 246.767 246.7 246.7C246.6 246.6 246.6 246.3 246.7 246.2L250.1 242.4C250.2 242.3 250.5 242.2 250.6 242.4C250.8 242.5 250.8 242.7 250.7 242.9L247.2 246.7C247.133 246.767 247.067 246.8 247 246.8Z" fill="#B099D0"/>
<path d="M250.4 246.8C250.267 246.8 250.167 246.767 250.1 246.7L246.7 242.9C246.6 242.7 246.6 242.5 246.7 242.4C246.9 242.2 247.1 242.3 247.2 242.4L250.7 246.2C250.8 246.3 250.8 246.6 250.6 246.7C250.533 246.767 250.467 246.8 250.4 246.8Z" fill="#B099D0"/>
<path fill-rule="evenodd" clip-rule="evenodd" d="M225.5 298H170.2C168 298 166.3 296.2 166.3 294.1V249.3C166.3 247.2 168 245.5 170.2 245.5H225.5C227.6 245.5 229.3 247.2 229.3 249.3V294.1C229.3 296.2 227.6 298 225.5 298ZM170.2 246.2C168.4 246.2 167.1 247.6 167.1 249.3V294.1C167.1 295.8 168.4 297.2 170.2 297.2H225.5C227.2 297.2 228.5 295.8 228.5 294.1V249.3C228.5 247.6 227.2 246.2 225.5 246.2H170.2Z" fill="#C4A1F7"/>
<path d="M228.9 255.8H166.7C166.5 255.8 166.3 255.7 166.3 255.5C166.3 255.3 166.5 255.1 166.7 255.1H228.9C229.1 255.1 229.3 255.3 229.3 255.5C229.3 255.7 229.1 255.8 228.9 255.8Z" fill="#C4A1F7"/>
<path d="M174 253.1C173.866 253.1 173.766 253.067 173.7 253L170.4 249.1C170.3 248.9 170.3 248.7 170.5 248.6C170.6 248.4 170.8 248.5 171 248.6L174.3 252.5C174.4 252.7 174.4 252.9 174.2 253C174.133 253.067 174.066 253.1 174 253.1Z" fill="#C4A1F7"/>
<path d="M170.7 253.1C170.633 253.1 170.566 253.067 170.5 253C170.3 252.9 170.3 252.7 170.4 252.5L173.7 248.6C173.9 248.5 174.1 248.4 174.2 248.6C174.4 248.7 174.4 248.9 174.3 249.1L171 253C170.866 253.067 170.766 253.1 170.7 253.1Z" fill="#C4A1F7"/>
<path d="M30.6998 354.6H83.9998C88.8998 354.6 92.8998 350.6 92.8998 345.7V281C92.8998 276.1 88.8998 272.1 83.9998 272.1H30.6998C25.7998 272.1 21.7998 276.1 21.7998 281V345.7C21.7998 350.6 25.7998 354.6 30.6998 354.6Z" fill="#BFBCE0"/>
<path d="M36.0997 354.6H89.2997C94.2997 354.6 98.1997 350.6 98.1997 345.7V281C98.1997 276.1 94.2997 272.1 89.2997 272.1H36.0997C31.0997 272.1 27.1997 276.1 27.1997 281V345.7C27.1997 350.6 31.0997 354.6 36.0997 354.6Z" fill="#C2BFD9"/>
<path d="M150.1 259.1C149.966 259.1 149.866 259.067 149.8 259C149.733 258.934 149.7 258.834 149.7 258.7V145.6C149.7 145.4 149.9 145.3 150.1 145.3C150.3 145.3 150.4 145.4 150.4 145.6V258.3H239.6V193.4C239.6 193.2 239.7 193.1 239.9 193.1C240.1 193.1 240.3 193.2 240.3 193.4V258.6C240.3 258.8 240.1 259 239.9 259L150.1 259.1Z" fill="#C4A1F7"/>
<path d="M104.7 324.5L108.9 339L127 335.9L122.8 322.4L104.7 324.5Z" fill="#C6C2CC"/>
<path d="M76.4996 321.9L74.5996 338.4L92.5996 341.9L94.2996 326.4L76.4996 321.9Z" fill="#C6C2CC"/>
<path d="M134.9 175.2C134.9 175.2 136.7 180.9 133.6 182.1C130.4 183.3 130.4 180 130.4 180L132.3 175.9L134.9 175.2Z" fill="#C6C2CC"/>
<path d="M120.3 186.6C120.3 186.6 124.4 176 128.2 174.1C132 172.2 139.2 172.5 140.3 174.4C141.3 176.4 138.1 176.4 137.2 176.2C136.4 176 133.8 176.6 133.2 177.4C132.6 178.3 132.3 182 132.3 182C132.3 182 135.1 182.5 136.4 181.5C137.6 180.5 138.8 178.7 139.6 180C140.5 181.4 137.1 188.4 134.7 190.4C132.2 192.3 126 194.7 126 194.7L120.3 186.6Z" fill="#C6C2CC"/>
<path d="M132.3 182.3C132.1 182.3 132 182.1 132 181.9C132 181.9 132.1 180.7 132.6 178.7C133.1 176.5 135 176.1 135.1 176C135.3 176 135.5 176.1 135.6 176.3C135.6 176.5 135.5 176.7 135.3 176.8C135.2 176.8 133.7 177.1 133.3 178.8C132.8 180.8 132.7 182 132.7 182C132.7 182.2 132.5 182.3 132.3 182.3Z" fill="black"/>
<path d="M156.6 182.5H143.5C142.8 182.5 142.2 181.9 142.2 181.2V168.1C142.2 167.3 142.8 166.8 143.5 166.8H156.6C157.4 166.8 157.9 167.3 157.9 168.1V181.2C157.9 181.9 157.4 182.5 156.6 182.5Z" fill="#EDE5F8"/>
<path d="M156.6 202.6H143.5C142.8 202.6 142.2 202 142.2 201.3V188.2C142.2 187.4 142.8 186.9 143.5 186.9H156.6C157.4 186.9 157.9 187.4 157.9 188.2V201.3C157.9 202 157.4 202.6 156.6 202.6Z" fill="#EDE5F8"/>
<path d="M156.6 222.7H143.5C142.8 222.7 142.2 222.1 142.2 221.4V208.3C142.2 207.6 142.8 207 143.5 207H156.6C157.4 207 157.9 207.6 157.9 208.3V221.4C157.9 222.1 157.4 222.7 156.6 222.7Z" fill="#EDE5F8"/>
<path d="M143.6 183.5L136.3 177.3L138.2 175.1L143.4 179.5L147.6 174.9L149.8 176.9L143.6 183.5Z" fill="#B099D0"/>
<path d="M149.9 200.6L143.9 195.5L145.7 193.3L149.4 196.4L154.2 190.1L156.5 191.8L149.9 200.6Z" fill="#B099D0"/>
<path d="M149.9 220.7L143.9 215.6L145.7 213.4L149.4 216.5L154.2 210.2L156.5 211.9L149.9 220.7Z" fill="#B099D0"/>
<path d="M169.6 149.6H131C129.5 149.6 128.2 148.3 128.2 146.8V125.5C128.2 123.9 129.5 122.7 131 122.7H169.6C171.2 122.7 172.4 123.9 172.4 125.5V146.8C172.4 148.3 171.2 149.6 169.6 149.6Z" fill="#C0B7CE"/>
<path d="M257.9 246.8V307.1C257.9 310.7 254.6 313.6 250.6 313.6H144.6C140.5 313.6 137.2 310.7 137.2 307.1V246.8C137.2 243.1 140.5 240.2 144.6 240.2H250.6C254.6 240.2 257.9 243.1 257.9 246.8Z" fill="#C2BFD9"/>
<path d="M110.6 352.6C109.3 352.7 108.1 351.7 108 350.3C107.4 344.7 105.3 332.3 106.3 332.2C107.6 332 121 334.1 121 334.1C121 334.1 120.5 326.4 126 327.2C130.2 327.8 135.6 332.1 137.8 334.1C138.5 334.8 139.4 335.2 140.3 335.3C144.2 335.8 155.1 337.8 155.9 343.4C156.9 350.3 154 349.9 152.7 350C151.6 350.1 119.6 352.1 110.6 352.6Z" fill="#DFC9FF"/>
<path d="M69.9998 348C68.7998 347.5 68.0998 346.1 68.5998 344.7C70.2998 339.4 73.4998 327.3 74.4998 327.6C75.6998 328 87.0998 335.4 87.0998 335.4C87.0998 335.4 89.7998 328.2 94.4998 331.1C98.0998 333.4 101.2 339.6 102.4 342.4C102.8 343.2 103.4 344 104.2 344.4C107.5 346.6 116.7 352.8 115 358.3C113.1 365 110.7 363.4 109.4 363C108.4 362.6 78.3998 351.2 69.9998 348Z" fill="#DFC9FF"/>
<path d="M61.2 164.1C61.2 164.1 50.4 161.2 42.4 171.1C34.4 180.9 39.4 193 52.1 192.6C64.8 192.3 67.7 179.3 67.7 179.3L61.2 164.1Z" fill="#B099D0"/>
<path d="M77.3997 172.2C77.3997 172.2 80.4997 169 79.6997 163.8C79.1997 160.3 77.6997 159.1 77.6997 159.1C77.6997 159.1 80.0997 154.4 73.0997 154.6C65.9997 154.7 60.2997 154.1 57.0997 160.2C55.2997 163.8 55.9997 171.5 55.9997 171.5L77.3997 172.2Z" fill="#B099D0"/>
<path d="M61.7998 177.7L61.8998 186.3C61.8998 186.3 63.4998 188.8 68.4998 189.2C72.1998 189.4 73.3998 187.5 73.3998 187.5L72.4998 180L63.3998 178.1L61.7998 177.7Z" fill="#C6C2CC"/>
<path d="M61.8999 177.2C61.8999 177.467 61.9666 177.734 62.0999 178C64.0999 182.3 70.7999 184.1 72.9999 184.2L72.4999 180L61.8999 177.2Z" fill="black"/>
<path d="M74.2999 160.4C74.2999 160.4 78.7999 171.1 77.0999 177.1C75.3999 183.1 69.8999 182.1 66.5999 180.9C63.2999 179.8 61.7999 177.7 61.7999 177.7C61.7999 177.7 58.7999 178.7 56.7999 175.9C54.6999 173 55.9999 169.7 57.7999 169C59.4999 168.3 61.5999 169.6 61.5999 169.6L59.9999 166.4C59.9999 166.4 66.9999 150.7 74.2999 160.4Z" fill="#C6C2CC"/>
<path d="M61.6 169.6C61.6 169.6 66.2 170.6 69.5 165.5C72.8 160.5 72.5 158.4 72.5 158.4L75.6 163.7C75.6 163.7 76.4 160.1 75 157.7C73.5 155.3 72 155.8 72 155.8L61.8 158.1L59 166.2L61.6 169.6Z" fill="#B099D0"/>
<path d="M73.1998 174C73.1331 174 73.0664 174 72.9998 174C72.7998 173.9 72.6998 173.7 72.7998 173.5C73.4998 171.5 72.5998 169.4 72.5998 169.4C72.4998 169.2 72.5998 169 72.7998 168.9C72.9998 168.8 73.1998 168.9 73.2998 169.1C73.2998 169.2 74.1998 171.5 73.4998 173.8C73.3998 173.9 73.2998 174 73.1998 174Z" fill="black"/>
<path d="M61.0997 174.6C60.9663 174.6 60.8663 174.567 60.7997 174.5L57.8997 171.4C57.7997 171.2 57.7997 171 57.9997 170.8C58.0997 170.7 58.2997 170.7 58.4997 170.9L61.2997 174C61.4997 174.1 61.4997 174.4 61.2997 174.5C61.233 174.567 61.1663 174.6 61.0997 174.6Z" fill="black"/>
<path d="M57.9996 173.7C57.7996 173.7 57.6996 173.6 57.5996 173.4C57.5996 173.2 57.7996 173 57.9996 173L59.9996 172.7C60.1996 172.7 60.3996 172.8 60.3996 173C60.3996 173.2 60.2996 173.4 60.0996 173.5L58.0996 173.7C58.0329 173.7 57.9996 173.7 57.9996 173.7Z" fill="black"/>
<path d="M75.8999 165.3C75.8333 165.3 75.7999 165.3 75.7999 165.3L73.9999 164.9C73.7999 164.9 73.5999 164.7 73.6999 164.5C73.6999 164.3 73.8999 164.2 74.0999 164.2L75.8999 164.6C76.0999 164.6 76.2999 164.8 76.1999 165C76.1999 165.2 75.9999 165.3 75.8999 165.3Z" fill="black"/>
<path d="M68.7997 165.7C68.6997 165.7 68.4997 165.6 68.4997 165.5C68.3997 165.3 68.4997 165.1 68.6997 165L70.5997 164.3C70.7997 164.2 70.9997 164.3 71.0997 164.5C71.0997 164.7 71.0997 164.9 70.8997 165L68.8997 165.7C68.8997 165.7 68.8663 165.7 68.7997 165.7Z" fill="black"/>
<path d="M74.7999 169.7C74.6999 169.7 74.4999 169.6 74.4999 169.4L73.8999 167.5C73.8999 167.367 73.9332 167.234 73.9999 167.1L74.5999 166.4C74.6999 166.3 74.9999 166.3 75.0999 166.4C75.2999 166.5 75.2999 166.7 75.1999 166.9L74.6999 167.5L75.1999 169.2C75.1999 169.4 75.0999 169.6 74.8999 169.7C74.8999 169.7 74.8666 169.7 74.7999 169.7Z" fill="black"/>
<path d="M69.4 170.1C69.3 170.1 69.1 170 69.1 169.8L68.5 167.9C68.5 167.767 68.5333 167.667 68.6 167.6L69.4 166.6C69.6 166.5 69.8 166.4 70 166.6C70.1 166.7 70.1 166.9 70 167.1L69.3 167.9L69.8 169.6C69.8 169.8 69.7 170 69.5 170.1C69.5 170.1 69.4667 170.1 69.4 170.1Z" fill="black"/>
<path fill-rule="evenodd" clip-rule="evenodd" d="M71.8999 177.1C71.7666 177.1 71.6666 177.1 71.5999 177.1C70.3999 176.9 69.6999 175.5 69.6999 175.4C69.6332 175.267 69.6332 175.134 69.6999 175C69.7999 174.9 69.9999 174.9 70.0999 174.9L73.3999 175.6C73.5332 175.667 73.6332 175.767 73.6999 175.9C73.6999 176.034 73.6666 176.134 73.5999 176.2C72.9999 176.8 72.4332 177.1 71.8999 177.1ZM70.7999 175.8C70.9999 176.1 71.3999 176.3 71.6999 176.4C71.9666 176.4 72.2332 176.334 72.4999 176.2L70.7999 175.8Z" fill="black"/>
<path d="M76.7998 240.2C76.7998 240.2 110 242.1 118.6 248.7C127.2 255.4 127.7 325.4 127.7 325.4L100.6 328.4L100.4 260L76.7998 240.2Z" fill="#C4A1F7"/>
<path d="M59.5996 186.8C59.5996 186.8 60.5996 183.5 61.0996 183.5C61.6996 183.5 65.1996 185.1 68.2996 185.1C71.4996 185.1 72.0996 184.1 72.9996 184.2C73.8996 184.4 74.2996 186.8 74.2996 186.8C74.2996 186.8 80.0996 188.7 86.9996 190.3C93.7996 191.9 104.5 189.8 109 187.7C113.5 185.5 121.1 180.7 121.1 180.7L129 201.5C129 201.5 113 222.1 98.2996 222.2C83.5996 222.3 65.7996 219.4 65.7996 219.4L59.5996 186.8Z" fill="#EBE4F5"/>
<path d="M37.0996 241.3C37.0996 241.3 34.5996 267.4 38.4996 269.9C47.5996 275.6 72.3996 274.2 72.4996 275.2C72.5996 276.3 69.6996 324 69.6996 324L102.4 330.1C102.4 330.1 114.4 260.5 107.6 249.3C100.8 238.1 60.7996 239.1 60.7996 239.1L37.0996 241.3Z" fill="#C4A1F7"/>
<path d="M100.7 235.2L82.5 233.4L89.4 203.8L107.5 205.7L100.7 235.2Z" fill="#DFC9FF"/>
<path d="M103.4 235.4L85.2998 233.6L92.0998 204.1L110.3 205.9L103.4 235.4Z" fill="#B099D0"/>
<path d="M79.7996 217L80.4996 239.3C80.4996 239.3 66.1996 243.4 55.2996 244.3C44.4996 245.3 37.0996 244.3 37.0996 244.3V235.7L79.7996 217Z" fill="#EBE4F5"/>
<path d="M77.5 219.9C77.5 219.9 79.7 215.4 81.8 213.8C84 212.2 87.4 212.2 87.4 212.2L86.7 215.4C86.7 215.4 91.8 216.1 92.7 215.4C93.5 214.8 97.2 211.9 98.1 212.1C99.1 212.3 97.1 215.4 97.1 215.4C97.1 215.4 99.2 213.4 100 214.7C100.7 215.9 97.9 220.7 97.9 220.7C97.9 220.7 100.5 218.2 99.6 222.2C98.8 226.2 91.4 230.1 88.8 230.5C86.2 230.8 76 230.9 76 230.9L77.5 219.9Z" fill="#C6C2CC"/>
<path d="M86.6999 215.8C86.6999 215.8 86.6666 215.8 86.5999 215.8L83.9999 215.3C83.7999 215.2 83.5999 215 83.6999 214.8C83.6999 214.6 83.8999 214.5 84.0999 214.5L86.7999 215.1C86.9999 215.1 87.0999 215.3 87.0999 215.5C86.9999 215.7 86.8999 215.8 86.6999 215.8Z" fill="black"/>
<path d="M89.4 220C89.2 220 89 219.9 89 219.7C89 219.5 89.2 219.3 89.4 219.3C89.4 219.3 91.9 219.1 93.2 218.5C94.6 217.8 96.7 215.2 96.8 215.2C96.9 215.1 97.1 215 97.3 215.2C97.4 215.3 97.5 215.5 97.3 215.7C97.2 215.8 95.1 218.4 93.6 219.1C92.1 219.9 89.5 220 89.4 220Z" fill="black"/>
<path d="M89.9996 224.6C89.7996 224.6 89.5996 224.5 89.5996 224.3C89.5996 224.1 89.7996 223.9 89.9996 223.9C89.9996 223.9 92.0996 223.8 93.7996 223C95.9996 221.9 97.5996 220.5 97.6996 220.5C97.7996 220.3 97.9996 220.3 98.1996 220.5C98.2996 220.6 98.2996 220.9 98.0996 221C98.0996 221.1 96.4996 222.5 94.0996 223.7C92.1996 224.6 90.0996 224.6 89.9996 224.6Z" fill="black"/>
<path d="M145.8 139.2H136.7V130.1H145.8V139.2Z" fill="#C7BEDD"/>
<path d="M157.8 126.8L160.7 131.7L163.5 136.6H157.8H152.2L155 131.7L157.8 126.8Z" fill="#C4A1F7"/>
<path d="M156.3 139.2C156.3 142.7 153.4 145.5 150 145.5C146.5 145.5 143.6 142.7 143.6 139.2C143.6 135.7 146.5 132.8 150 132.8C153.4 132.8 156.3 135.7 156.3 139.2Z" fill="#B099D0"/>
<path d="M241.9 208.5C241.9 209.6 241 210.4 239.9 210.4C238.9 210.4 238 209.6 238 208.5C238 207.4 238.9 206.6 239.9 206.6C241 206.6 241.9 207.4 241.9 208.5Z" fill="#C4A1F7"/>
<path d="M241.9 233.5C241.9 234.6 241 235.4 239.9 235.4C238.9 235.4 238 234.6 238 233.5C238 232.4 238.9 231.6 239.9 231.6C241 231.6 241.9 232.4 241.9 233.5Z" fill="#C4A1F7"/>
<path d="M152 231.5C152 232.5 151.1 233.4 150.1 233.4C149 233.4 148.1 232.5 148.1 231.5C148.1 230.4 149 229.5 150.1 229.5C151.1 229.5 152 230.4 152 231.5Z" fill="#C4A1F7"/>
<path d="M257.9 246.8V248.5H137.2V246.8C137.2 243.1 140.5 240.2 144.6 240.2H250.6C254.6 240.2 257.9 243.1 257.9 246.8Z" fill="#EDE5F8"/>
<path fill-rule="evenodd" clip-rule="evenodd" d="M174.1 281.8H150.3C150.1 281.8 149.9 281.6 149.9 281.4V257.6C149.9 257.4 150.1 257.2 150.3 257.2H174.1C174.3 257.2 174.5 257.4 174.5 257.6V281.4C174.5 281.6 174.3 281.8 174.1 281.8ZM150.7 281H173.8V257.9H150.7V281Z" fill="#B099D0"/>
<path fill-rule="evenodd" clip-rule="evenodd" d="M207.8 293H162.2C162 293 161.9 292.8 161.9 292.6V268.8C161.9 268.6 162 268.4 162.2 268.4H207.8C208 268.4 208.1 268.6 208.1 268.8V292.6C208.1 292.8 208 293 207.8 293ZM162.6 292.3H207.4V269.1H162.6V292.3Z" fill="#B099D0"/>
<path d="M103.3 322.7C103.1 322.7 102.9 322.5 103 322.3C103.1 321.8 113.2 267 108.9 255.6C104.6 244.3 78.0999 244 77.7999 244C77.5999 244 77.4999 243.9 77.3999 243.7C77.3999 243.5 77.4999 243.3 77.6999 243.3L83.8999 241.6C84.0999 241.6 84.2999 241.7 84.3999 241.9C84.3999 242.1 84.2999 242.3 84.0999 242.4L80.2999 243.3C87.1999 243.7 105.9 245.6 109.6 255.3C114 267 104.1 320.2 103.7 322.4C103.6 322.6 103.5 322.7 103.3 322.7Z" fill="#B099D0"/>
<path d="M61.1 186.6C61.1 186.6 40.1 187 28.1 210.8C16.1 234.5 28.7 246.6 49.1 244C69.6 241.3 79.8 234.8 79.8 234.8L77.5 214.7L61.1 186.6Z" fill="#EBE4F5"/>
<path d="M48.2997 217.9C48.0997 217.9 47.9997 217.8 47.9997 217.6C47.8997 217.4 47.9997 217.2 48.1997 217.2C56.5997 214.8 73.8997 214.8 73.9997 214.8C74.1997 214.8 74.3997 215 74.3997 215.2C74.3997 215.4 74.1997 215.5 73.9997 215.5C73.2997 215.5 56.5997 215.6 48.3997 217.9C48.3997 217.9 48.3663 217.9 48.2997 217.9Z" fill="#DFC9FF"/>
<path d="M66.0997 189.3C62.7997 189.3 59.5997 187.2 59.3997 187.1C59.2997 187 59.1997 186.8 59.2997 186.6C59.3997 186.4 59.6997 186.4 59.7997 186.5C59.8997 186.5 63.2997 188.8 66.5997 188.5C66.7997 188.5 66.9997 188.7 66.9997 188.9C66.9997 189.1 66.7997 189.2 66.5997 189.3C66.4664 189.3 66.2997 189.3 66.0997 189.3Z" fill="#DFC9FF"/>
<path fill-rule="evenodd" clip-rule="evenodd" d="M97.4997 198.2C97.233 198.2 96.9997 198.134 96.7997 198C95.1997 196.9 94.6997 191.5 94.6997 190.8C94.6997 190.7 94.7997 190.5 94.8997 190.5C95.0997 190.4 95.1997 190.4 95.2997 190.6C95.6997 191.1 99.0997 195.4 98.5997 197.3C98.4664 197.7 98.233 197.967 97.8997 198.1C97.7664 198.167 97.633 198.2 97.4997 198.2ZM95.4997 192.1C95.7997 194.2 96.3997 196.8 97.1997 197.4C97.333 197.467 97.4664 197.467 97.5997 197.4C97.733 197.334 97.833 197.234 97.8997 197.1C98.1997 196.2 96.7997 193.9 95.4997 192.1Z" fill="#DFC9FF"/>
<path fill-rule="evenodd" clip-rule="evenodd" d="M49.5 217.1C46.3 217.1 42.4 216.9 41.9 215.7C41.8 215.4 41.7 215 42.2 214.5C44.8 211.7 53 216.2 53.3 216.3C53.4 216.4 53.5 216.6 53.5 216.8C53.4 216.9 53.3 217 53.1 217C52.4 217.1 51 217.1 49.5 217.1ZM44.8 214.3C43.9 214.3 43.2 214.5 42.7 215C42.6 215.1 42.5 215.3 42.5 215.4C42.9 216.2 47.4 216.5 51.7 216.4C49.8 215.4 46.9 214.3 44.8 214.3Z" fill="#DFC9FF"/>
<path fill-rule="evenodd" clip-rule="evenodd" d="M72.5 275.6C72.3667 275.6 72.2667 275.567 72.2 275.5C72.1 275.4 72.1 275.2 72.2 275.1C72.9 273.6 75.4 268.7 77 268.7C77.3 268.7 77.6 268.8 77.8 269.3C78.9 271.9 73.3 275.2 72.7 275.5C72.6333 275.567 72.5667 275.6 72.5 275.6ZM77 269.4C76.3 269.4 74.8 271.7 73.4 274.2C75.2 273 77.7 271 77.2 269.6C77.1 269.6 77.1 269.4 77 269.4Z" fill="#B099D0"/>
<path d="M58.9996 240.6C58.7996 240.6 58.6996 240.4 58.6996 240.3C58.5996 240.1 58.7996 239.9 58.8996 239.8C59.0996 239.8 69.4996 237.8 77.5996 233.1C77.7996 233 77.9996 233 78.0996 233.2C78.1996 233.4 78.1996 233.6 77.9996 233.7C69.6996 238.5 59.1996 240.5 59.0996 240.6C59.0329 240.6 58.9996 240.6 58.9996 240.6Z" fill="#DFC9FF"/>
<path d="M227.8 200.6H252.1C254.1 200.6 255.7 199 255.7 197V172.7C255.7 170.6 254.1 169 252.1 169H227.8C225.8 169 224.1 170.6 224.1 172.7V197C224.1 199 225.8 200.6 227.8 200.6Z" fill="#C0B7CE"/>
<path fill-rule="evenodd" clip-rule="evenodd" d="M226.9 187.7C226.7 186.767 226.6 185.8 226.6 184.8C226.6 183.733 226.733 182.7 227 181.7H228.9L230 179L228.6 177.8C229.7 176.1 231.1 174.6 232.8 173.6L234.3 175L236.9 173.8V171.9C237.833 171.633 238.833 171.5 239.9 171.5C240.9 171.5 241.833 171.6 242.7 171.8V173.9L245.4 175.1L246.9 173.5C248.6 174.5 250 176 251.1 177.6L249.6 179L250.7 181.7H252.9C253.1 182.7 253.2 183.733 253.2 184.8C253.2 185.8 253.1 186.767 252.9 187.7L250.7 187.8L249.6 190.4L251.2 191.9C250.1 193.6 248.7 195 247 196.1L245.4 194.4L242.7 195.5V197.8C241.833 198 240.9 198.1 239.9 198.1C238.833 198.1 237.8 198 236.8 197.8L236.9 195.6L234.3 194.5L232.7 196C231 194.9 229.6 193.5 228.6 191.8L230 190.4L228.9 187.8L226.9 187.7ZM239.8 191.2C243.4 191.2 246.3 188.3 246.3 184.7C246.3 181.2 243.4 178.3 239.8 178.3C236.3 178.3 233.4 181.2 233.4 184.7C233.4 188.3 236.3 191.2 239.8 191.2Z" fill="#B099D0"/>
<path fill-rule="evenodd" clip-rule="evenodd" d="M579.7 281.1H530.5C528.5 281.1 526.8 279.4 526.8 277.3V205.3C526.8 203.3 528.5 201.6 530.5 201.6H579.7C581.8 201.6 583.4 203.3 583.4 205.3V277.3C583.4 279.4 581.8 281.1 579.7 281.1ZM530.5 202.3C528.9 202.3 527.5 203.7 527.5 205.3V277.3C527.5 279 528.9 280.4 530.5 280.4H579.7C581.3 280.4 582.7 279 582.7 277.3V205.3C582.7 203.7 581.3 202.3 579.7 202.3H530.5Z" fill="#B099D0"/>
<path d="M524 286.6H573.2C575.1 286.6 576.6 285.1 576.6 283.2V211.2C576.6 209.3 575.1 207.8 573.2 207.8H524C522.2 207.8 520.6 209.3 520.6 211.2V283.2C520.6 285.1 522.2 286.6 524 286.6Z" fill="#EBE4F5"/>
<path fill-rule="evenodd" clip-rule="evenodd" d="M559.7 243L558.4 246.2L560 247.8C558.8 249.8 557.1 251.6 555.1 252.8L553.3 251.1L550.1 252.4L550.2 254.9C549 255.234 547.767 255.4 546.5 255.4C545.367 255.4 544.267 255.267 543.2 255V252.3L540 250.9L538.1 252.9C536.1 251.7 534.4 250 533.1 248L535 246.2L533.6 243H531.1C530.833 241.867 530.7 240.7 530.7 239.5C530.7 238.234 530.833 237 531.1 235.8H533.6L535 232.6L533.2 230.9C534.5 229 536.2 227.3 538.2 226L540 227.9L543.2 226.6V224C544.267 223.8 545.367 223.7 546.5 223.7C547.767 223.7 549 223.834 550.2 224.1L550.1 226.4L553.3 227.8L555 226.1C557 227.4 558.7 229.1 560 231.1L558.4 232.6L559.7 235.8L561.9 235.9C562.234 237.034 562.4 238.234 562.4 239.5C562.4 240.7 562.267 241.867 562 243H559.7ZM554.2 239.5C554.2 235.2 550.8 231.8 546.5 231.8C542.3 231.8 538.8 235.2 538.8 239.5C538.8 243.7 542.3 247.2 546.5 247.2C550.8 247.2 554.2 243.7 554.2 239.5Z" fill="#B099D0"/>
<path fill-rule="evenodd" clip-rule="evenodd" d="M563.6 265.5L562.4 267.1L563 268.3C562 269.2 560.8 269.9 559.4 270.3L558.7 269L556.6 269.2L556.3 270.7C555.567 270.633 554.834 270.5 554.1 270.3C553.5 270.1 552.9 269.867 552.3 269.6L552.8 268L551.2 266.7L549.8 267.5C548.8 266.5 548.2 265.2 547.8 263.9L549.1 263.2L548.9 261.2L547.4 260.8C547.467 260.067 547.6 259.367 547.8 258.7C548 257.967 548.3 257.3 548.7 256.7L550.1 257.1L551.4 255.5L550.7 254.3C551.7 253.4 553 252.7 554.3 252.3L555 253.7L557 253.5L557.4 252C558.067 252.067 558.734 252.2 559.4 252.4C560.134 252.6 560.8 252.867 561.4 253.2L561 254.5L562.5 255.8L563.8 255.2C564.7 256.2 565.4 257.5 565.8 258.8L564.6 259.4L564.8 261.5L566.1 261.8C566.034 262.533 565.9 263.267 565.7 264C565.5 264.667 565.234 265.3 564.9 265.9L563.6 265.5ZM561.1 262.6C561.8 260.2 560.4 257.7 558 257C555.6 256.3 553.1 257.6 552.4 260C551.7 262.4 553.1 265 555.5 265.7C557.9 266.4 560.4 265 561.1 262.6Z" fill="#C0B7CE"/>
<path d="M549.8 120.2V188C549.8 190.1 548.4 191.8 546.6 191.8H445C443.3 191.8 441.9 190.1 441.9 188V120.2C441.9 118.1 443.3 116.5 445 116.5H546.6C548.4 116.5 549.8 118.1 549.8 120.2Z" fill="#C2BFD9"/>
<path d="M549.8 120.2V124.2H441.9V120.2C441.9 118.1 443.3 116.5 445 116.5H546.6C548.4 116.5 549.8 118.1 549.8 120.2Z" fill="#F0E6FF"/>
<path d="M461.4 120.3C461.4 121.3 460.6 122.1 459.6 122.1C458.6 122.1 457.7 121.3 457.7 120.3C457.7 119.3 458.6 118.5 459.6 118.5C460.6 118.5 461.4 119.3 461.4 120.3Z" fill="#DFC9FF"/>
<path d="M455.5 120.3C455.5 121.3 454.7 122.1 453.7 122.1C452.7 122.1 451.9 121.3 451.9 120.3C451.9 119.3 452.7 118.5 453.7 118.5C454.7 118.5 455.5 119.3 455.5 120.3Z" fill="#A68FD1"/>
<path d="M449.7 120.3C449.7 121.3 448.8 122.1 447.8 122.1C446.8 122.1 446 121.3 446 120.3C446 119.3 446.8 118.5 447.8 118.5C448.8 118.5 449.7 119.3 449.7 120.3Z" fill="#C0B7CE"/>
<path d="M539.8 151.1H451.9V146.5H539.8V151.1Z" fill="#F0E6FF"/>
<path d="M539.8 141.4H451.9V136.9H539.8V141.4Z" fill="#F0E6FF"/>
<path d="M539.8 179.2H451.9V174.6H539.8V179.2Z" fill="#F0E6FF"/>
<path d="M539.8 160.4H451.9V155.9H539.8V160.4Z" fill="#F0E6FF"/>
<path d="M539.8 169.8H451.9V165.2H539.8V169.8Z" fill="#F0E6FF"/>
<path fill-rule="evenodd" clip-rule="evenodd" d="M449.5 105.6H377.6C375.8 105.6 374.4 104.1 374.4 102.3V67.2C374.4 65.4 375.8 64 377.6 64H449.5C451.3 64 452.7 65.4 452.7 67.2V102.3C452.7 104.1 451.3 105.6 449.5 105.6ZM377.6 64.7C376.2 64.7 375.1 65.8 375.1 67.2V102.3C375.1 103.7 376.2 104.9 377.6 104.9H449.5C450.9 104.9 452 103.7 452 102.3V67.2C452 65.8 450.9 64.7 449.5 64.7H377.6Z" fill="#C0B7CE"/>
<path d="M452.4 71.5999H374.7C374.5 71.5999 374.4 71.4999 374.4 71.2999C374.4 71.0999 374.5 70.8999 374.7 70.8999H452.4C452.6 70.8999 452.7 71.0999 452.7 71.2999C452.7 71.4999 452.6 71.5999 452.4 71.5999Z" fill="#C0B7CE"/>
<path d="M444.5 69.4001C444.367 69.4001 444.267 69.3334 444.2 69.2001C444.1 69.0001 444.1 68.8001 444.3 68.7001L448.4 66.3001C448.6 66.2001 448.8 66.2001 448.9 66.4001C449 66.6001 449 66.8001 448.8 66.9001L444.7 69.3001C444.633 69.3667 444.567 69.4001 444.5 69.4001Z" fill="#C0B7CE"/>
<path d="M448.6 69.4001C448.533 69.4001 448.467 69.3667 448.4 69.3001L444.3 66.9001C444.1 66.8001 444.1 66.6001 444.2 66.4001C444.3 66.2001 444.5 66.2001 444.7 66.3001L448.8 68.7001C449 68.8001 449 69.0001 448.9 69.2001C448.833 69.3334 448.733 69.4001 448.6 69.4001Z" fill="#C0B7CE"/>
<path d="M550.7 148.8H510.6C509.6 148.8 508.7 147.9 508.7 146.8V100.1C508.7 99.1002 509.6 98.2002 510.6 98.2002H550.7C551.7 98.2002 552.6 99.1002 552.6 100.1V146.8C552.6 147.9 551.7 148.8 550.7 148.8Z" fill="#EBE4F5"/>
<path d="M533.3 126.8H516.6V107.2H533.3V126.8Z" fill="#DFC9FF"/>
<path d="M544.7 139.8H526.3V121.3H544.7V139.8Z" fill="#A68FD1"/>
<path d="M531.2 125L527.7 125.2L530.4 127.3C530.4 127.3 532.5 126.8 531.2 125Z" fill="#B099D0"/>
<path d="M626.8 317.1L627.9 335.1L643.8 336.9L648.5 327.5L647.5 313.8L626.8 317.1Z" fill="#C6C2CC"/>
<path d="M657.6 310.1L671.1 322.2L683.6 312.3L680.3 302.2L670 293.3L657.6 310.1Z" fill="#C6C2CC"/>
<path d="M670.8 187C670.8 187 653 178.6 643.9 180.8C634.7 183 630.8 164 630.8 164C630.8 164 657 145.9 678.2 177.5C693.5 200.4 672 185.5 672 185.5L670.8 187Z" fill="#C6C2CC"/>
<path d="M645.1 216L680 295.6L659.2 317.1C659.2 317.1 648.7 308.4 638.2 279.3C627.7 250.2 631.4 222 631.4 222L645.1 216Z" fill="#A68FD1"/>
<path d="M616.6 139.7C616.6 139.7 631.2 131.9 626.3 126.8C621.4 121.6 614.9 133.5 614.9 133.5L616.6 139.7Z" fill="#B099D0"/>
<path d="M605.2 129.3C605.2 129.3 614.1 125.1 618.7 131.8C623.2 138.2 617.6 144.5 617.6 144.5L607.1 135.6L605.2 129.3Z" fill="#B099D0"/>
<path d="M614.3 148.3L614.4 155.7C614.4 155.7 613.1 157.9 608.7 158.3C605.5 158.6 604.3 157.9 604.3 157.9L604.7 154.1L605.1 150.4L613 148.6L614.3 148.3Z" fill="#C6C2CC"/>
<path d="M613 148.6C613 148.8 612.934 149.033 612.8 149.3C611.2 153 606.6 153.9 604.7 154.1L605.1 150.4L613 148.6Z" fill="black"/>
<path d="M604.3 132.8C604.3 132.8 599.7 142.1 600.9 147.6C602.1 153 607.1 152.4 610 151.6C613 150.7 614.5 148.9 614.5 148.9C614.5 148.9 617.2 150 619.1 147.6C621.1 145.1 620.1 142.1 618.6 141.4C617.1 140.6 615.2 141.7 615.2 141.7L616.8 139C616.8 139 611.4 124.5 604.3 132.8Z" fill="#C6C2CC"/>
<path d="M602.6 145.2C602.4 145.2 602.3 145.1 602.2 144.9C602 141.6 603.4 140 603.5 139.9C603.6 139.8 603.9 139.8 604 139.9C604.2 140 604.2 140.3 604 140.4C604 140.4 602.8 141.9 603 144.8C603 145.1 602.8 145.2 602.6 145.2Z" fill="black"/>
<path d="M615 145.6C614.9 145.6 614.8 145.5 614.7 145.4C614.6 145.2 614.7 145 614.9 144.9L618.8 143.3C619 143.2 619.2 143.3 619.3 143.5C619.4 143.7 619.3 143.9 619.1 143.9L615.2 145.6C615.134 145.6 615.067 145.6 615 145.6Z" fill="black"/>
<path d="M618.4 146.6C618.334 146.6 618.267 146.567 618.2 146.5L616.5 144.8C616.4 144.6 616.4 144.4 616.5 144.2C616.7 144.1 616.9 144.1 617.1 144.3L618.7 146C618.9 146.1 618.8 146.4 618.7 146.5C618.634 146.567 618.534 146.6 618.4 146.6Z" fill="black"/>
<path fill-rule="evenodd" clip-rule="evenodd" d="M604.8 148.2C603.8 148.2 603.3 147.4 603.2 147C603.2 146.933 603.234 146.833 603.3 146.7C603.367 146.633 603.434 146.6 603.5 146.6C603.6 146.6 604.8 146.4 605.5 145.4C605.6 145.3 605.8 145.2 605.9 145.3C606.1 145.3 606.2 145.4 606.2 145.6C606.2 145.8 606.2 147.2 605.6 147.9C605.4 148.1 605.167 148.2 604.9 148.2C604.834 148.2 604.8 148.2 604.8 148.2ZM604.1 147.2C604.3 147.3 604.5 147.5 604.8 147.5C604.934 147.5 605.033 147.466 605.1 147.4C605.2 147.2 605.3 146.9 605.4 146.6C604.9 146.9 604.5 147.1 604.1 147.2Z" fill="black"/>
<path d="M606.4 141.5C606.333 141.5 606.3 141.5 606.3 141.5C606.1 141.4 606 141.2 606 141L606.5 139.5L606.1 138.7C606 138.5 606.1 138.3 606.3 138.2C606.5 138.1 606.7 138.2 606.8 138.4L607.2 139.3C607.267 139.367 607.3 139.467 607.3 139.6L606.7 141.2C606.7 141.4 606.5 141.5 606.4 141.5Z" fill="black"/>
<path d="M601.6 141C601.533 141 601.5 141 601.5 141C601.3 140.9 601.2 140.7 601.3 140.5L601.7 139L601.4 138.2C601.3 138.1 601.3 137.8 601.5 137.7C601.7 137.7 601.9 137.7 602 137.9L602.5 138.8C602.5 138.933 602.5 139.033 602.5 139.1L601.9 140.8C601.9 140.9 601.8 141 601.6 141Z" fill="black"/>
<path d="M602.8 136.7C602.6 136.7 602.5 136.5 602.5 136.3C602.4 136.1 602.6 136 602.8 135.9L603.9 135.8C604.1 135.8 604.2 135.9 604.3 136.1C604.3 136.3 604.1 136.5 603.9 136.5L602.9 136.7C602.834 136.7 602.8 136.7 602.8 136.7Z" fill="black"/>
<path d="M558.1 145.8C558.1 145.8 567.6 158.9 576.7 161.3C585.8 163.8 580.2 182.3 580.2 182.3C580.2 182.3 548.5 185.7 545 147.8C542.5 120.4 555.4 145.8 555.4 145.8H558.1Z" fill="#C6C2CC"/>
<path d="M608.2 137.6C608.134 137.6 608.1 137.6 608.1 137.6L605.9 136.6C605.7 136.5 605.7 136.3 605.7 136.1C605.8 135.9 606 135.8 606.2 135.9L608.4 136.9C608.6 137 608.6 137.2 608.6 137.4C608.5 137.5 608.4 137.6 608.2 137.6Z" fill="black"/>
<path d="M639.8 192C639.8 192 647.3 216.1 646.7 218.4C646.2 220.6 641 233.1 640.7 234.1C640.3 235.2 649.9 319.7 649.9 319.7L618.7 327.5C618.7 327.5 597.7 237.3 600.3 211.1C602.8 185 639.8 192 639.8 192Z" fill="#A68FD1"/>
<path d="M530.4 127.3L531.2 124.9L566.5 136.8L565.7 139.1L530.4 127.3Z" fill="#B099D0"/>
<path d="M614.3 143.3C614.3 143.3 610.5 142.1 607.6 137.8C604.6 133.4 604.7 132.3 604.7 132.3L602.7 136.5C602.7 136.5 601.5 133.1 602.7 131C603.9 128.9 605.2 129.3 605.2 129.3L614.1 131.2L617.4 138.3L614.3 143.3Z" fill="#B099D0"/>
<path d="M570.6 157.3C570.6 157.3 587.1 159.1 592 157.9C596.9 156.7 609.3 155.2 618.4 154.7C627.6 154.1 641.4 154.7 647.7 155.8C654 156.8 656.7 157.6 656.7 157.6C656.7 157.6 656.2 167.6 654.8 174.1C653.4 180.6 653.1 181.8 653.1 181.8L639.4 180.8L644.3 201.6C644.3 201.6 637.4 206.1 622 210C606.6 213.9 598.3 210.9 598.3 210.9L593.3 186.6C593.3 186.6 581.7 186.4 575.9 185.1C570.1 183.8 569.2 183.6 569.2 183.6L570.6 157.3Z" fill="#C4A1F7"/>
<path d="M557.2 147.8C557.2 147.8 560.8 140.3 560.6 138.6C560.4 136.9 556.7 135.8 556.7 135.8C556.7 135.8 555.9 128.9 554.5 128.4C553 127.9 552.3 130 552.3 130C552.3 130 551.4 125.7 549.7 126.2C547.9 126.7 547.6 129.2 547.6 129.2C547.6 129.2 547.2 125.9 545.1 126.7C543 127.5 541.2 135.8 542.2 142.9C543.2 150 549.5 152.8 549.5 152.8L557.2 147.8Z" fill="#C6C2CC"/>
<path d="M557.2 140.9C557 140.9 556.8 140.8 556.8 140.6L556.3 135.8C556.3 135.6 556.4 135.4 556.6 135.4C556.8 135.4 557 135.5 557 135.7L557.5 140.5C557.5 140.7 557.4 140.9 557.2 140.9Z" fill="black"/>
<path d="M669.5 184.4C669.5 184.4 669.9 190.8 670.9 193.1C671.9 195.4 673.7 198.1 675.1 197.7C676.5 197.3 674.3 191.2 674.3 191.2C674.3 191.2 678.3 193.8 681.3 196.4C684.3 199 685.3 201.1 686.8 201C688.3 201 688.1 198.1 688.1 198.1C688.1 198.1 689.3 199.7 690.5 199.1C691.7 198.6 690.8 195.5 690.8 195.5C690.8 195.5 692.9 196.2 693.1 194C693.3 191.8 688 185.1 683.2 181.8C678.4 178.6 673.8 179.1 673.8 179.1L669.5 184.4Z" fill="#C6C2CC"/>
<path d="M677.2 191.5C677.067 191.5 676.933 191.433 676.8 191.3C676.7 191.1 676.8 190.9 677 190.8L685.2 186.5C685.4 186.4 685.6 186.5 685.7 186.7C685.8 186.8 685.7 187.1 685.5 187.1L677.3 191.4C677.3 191.466 677.267 191.5 677.2 191.5Z" fill="black"/>
<path d="M690.8 195.8C690.667 195.8 690.567 195.766 690.5 195.7C690.5 195.6 687.4 190.7 684.4 187.4C684.3 187.3 684.3 187.1 684.4 186.9C684.6 186.8 684.8 186.8 684.9 186.9C687.9 190.2 691.1 195.2 691.1 195.3C691.2 195.4 691.2 195.7 691 195.8C690.934 195.8 690.867 195.8 690.8 195.8Z" fill="black"/>
<path d="M688.1 198.5C687.967 198.5 687.867 198.433 687.8 198.3L680.9 189.6C680.8 189.4 680.9 189.2 681 189.1C681.2 188.9 681.4 189 681.5 189.1L688.3 197.9C688.5 198 688.4 198.3 688.3 198.4C688.234 198.466 688.167 198.5 688.1 198.5Z" fill="black"/>
<path d="M677 188.6C677 188.6 676.967 188.6 676.9 188.6C676.7 188.6 676.6 188.4 676.6 188.2C677.2 184.7 673.4 181.8 673.4 181.7C673.2 181.6 673.2 181.4 673.3 181.2C673.4 181.1 673.6 181 673.8 181.2C674 181.3 678 184.4 677.3 188.3C677.3 188.5 677.2 188.6 677 188.6Z" fill="black"/>
<path d="M634.5 331.4C634.5 331.4 628.8 326.7 626.3 328.2C623.8 329.7 616.9 343.6 616.9 343.6C616.9 343.6 607.4 346.1 604.5 348.9C601.7 351.8 603.9 356.7 604.5 357C605.2 357.4 627.5 356.6 628.5 356.1C629.5 355.6 655.7 338.8 656.2 338.1C656.7 337.4 649.5 320.8 648.1 321.3C646.8 321.8 634.5 331.4 634.5 331.4Z" fill="#DFC9FF"/>
<path d="M664.8 318.4C664.8 318.4 670.8 335.9 669.8 336.9C668.8 337.9 666.1 345.5 666.1 349C666.1 352.5 670.5 355.7 671.3 355.7C672.2 355.7 687.5 338.1 688.1 337.1C688.7 336 694.6 302.6 693.9 302.4C693.2 302.2 676.8 298.4 676 299.3C675.1 300.2 673.5 317.4 673.5 317.4C673.5 317.4 668 313.9 664.8 318.4Z" fill="#DFC9FF"/>
<path d="M669.8 337.3C669.734 337.3 669.667 337.233 669.6 337.1C669.4 337 669.4 336.8 669.6 336.6L673.1 333.1C673.3 333 673.5 333 673.6 333.1C673.8 333.2 673.8 333.5 673.6 333.6L670.1 337.1C670.034 337.233 669.934 337.3 669.8 337.3Z" fill="#EBE4F5"/>
<path d="M616.9 344C616.7 344 616.6 343.9 616.5 343.7C616.5 343.5 616.6 343.3 616.8 343.3L620.8 342.3C621 342.2 621.2 342.3 621.3 342.5C621.3 342.7 621.2 342.9 621 343L617 344C616.933 344 616.9 344 616.9 344Z" fill="#EBE4F5"/>
<path d="M647.9 301.6C647.7 301.6 647.5 301.4 647.5 301.3C646.7 294 639.3 230.6 639.4 229.4C639.6 228.2 645.1 220.5 646.2 218.9C646.3 218.8 646.6 218.7 646.7 218.9C646.9 219 646.9 219.2 646.8 219.4C644.3 222.9 640.3 228.7 640.2 229.5C640.1 230.9 645.4 277 648.2 301.2C648.2 301.4 648.1 301.6 647.9 301.6Z" fill="#EBE4F5"/>
<path d="M610.3 230.2C610.233 230.2 610.2 230.2 610.2 230.2C603.6 228.5 603.8 221.4 603.9 221.3C603.9 221.1 604 221 604.2 221C604.4 221 604.6 221.1 604.6 221.3C604.6 221.6 604.3 228 610.4 229.4C610.5 229.5 610.7 229.7 610.6 229.9C610.6 230.1 610.4 230.2 610.3 230.2Z" fill="#EBE4F5"/>
<path d="M653.4 310.6C653.334 310.6 653.267 310.567 653.2 310.5C653 310.4 653 310.2 653.2 310L675.7 286.1C675.8 286 676.1 286 676.2 286.1C676.4 286.2 676.4 286.5 676.2 286.6L653.7 310.5C653.634 310.567 653.534 310.6 653.4 310.6Z" fill="#EBE4F5"/>
<path d="M616.8 319.5C616.6 319.5 616.5 319.4 616.5 319.2C616.4 319 616.5 318.8 616.7 318.8L648.4 311.5C648.6 311.5 648.8 311.6 648.8 311.8C648.8 312 648.7 312.2 648.5 312.2L616.9 319.5C616.834 319.5 616.8 319.5 616.8 319.5Z" fill="#EBE4F5"/>
<path d="M593.3 186.9C593.2 186.9 593.1 186.8 593 186.7L590.7 181.9C590.6 181.7 590.7 181.5 590.9 181.4C591.1 181.3 591.3 181.4 591.4 181.6L593.7 186.4C593.7 186.6 593.7 186.8 593.5 186.9C593.434 186.9 593.367 186.9 593.3 186.9Z" fill="#B099D0"/>
<path d="M639.4 181.2C639.2 181.2 639.1 181 639.1 180.8V176.2C639.1 176 639.2 175.8 639.4 175.8C639.6 175.8 639.8 176 639.8 176.2V180.8C639.8 181 639.6 181.2 639.4 181.2Z" fill="#B099D0"/>
<path d="M417.1 325.2V335.9L437.6 335.2V325.2H417.1Z" fill="#C6C2CC"/>
<path d="M366.7 324V334.7L385.7 334V324H366.7Z" fill="#C6C2CC"/>
<path d="M390.4 352.4C390.4 354.3 389.8 356.4 388.4 357C387.1 357.5 376.4 358.6 367 357.8C358.1 357.1 356.2 356.4 355.6 355.6C355.2 355.2 355.9 353.3 356.6 351.5C356.6 351.433 356.634 351.333 356.7 351.2C357.1 350.3 357.5 349.4 357.7 348.8C358.034 348.2 358.4 347.6 358.8 347C359.7 345.7 361.6 343 362.1 341.6C362.8 339.7 363.8 335.7 364.4 333.8C365.1 331.9 366.7 331.5 366.7 331.5C366.7 331.5 385.1 330.3 386.5 331.4C387.8 332.5 388.4 341.4 388.4 342.7V344C388.4 345.3 389.3 347.8 389.9 349.8C390.034 350.333 390.134 350.8 390.2 351.2C390.334 351.666 390.4 352.066 390.4 352.4Z" fill="#B099D0"/>
<path d="M472.1 356.2C470.9 356.7 418.6 358.1 417.4 356.2C417 355.6 416.7 353.7 416.6 351.3C416.1 345.5 416.1 336.9 416.1 336.9C416.1 336.9 415.8 334 415.8 332.7C415.9 331.3 441.1 331.8 441.1 331.8L457.3 342.3C457.3 342.3 461.9 343.7 466.8 344.5C469.4 344.9 471.1 348 471.9 350.9C472.7 353.5 472.7 356 472.1 356.2Z" fill="#B099D0"/>
<path d="M405.2 206.5C405.2 206.5 428.3 229.6 437.6 265.8C446.8 301.9 446.2 328.6 446.2 328.6H411.3C411.3 328.6 410.4 306.5 406.5 288.4C402.7 270.3 397.1 257 397.1 257L393.4 328.6H358.5C358.5 328.6 364.9 224.6 371.1 209.1C376.2 196.5 405.2 206.5 405.2 206.5Z" fill="#EBE4F5"/>
<path d="M381.2 339.6C381.1 339.6 375 338.7 368.7 339.6C368.5 339.6 368.3 339.5 368.2 339.3C368.2 339.1 368.4 338.9 368.6 338.9C375 338 381.2 338.9 381.3 338.9C381.5 338.9 381.6 339.1 381.6 339.3C381.6 339.5 381.4 339.6 381.2 339.6Z" fill="#DFC9FF"/>
<path d="M381.2 344.1C381.1 344.1 375 343.2 368.7 344.1C368.5 344.1 368.3 344 368.2 343.8C368.2 343.6 368.4 343.4 368.6 343.4C375 342.5 381.2 343.4 381.3 343.4C381.5 343.4 381.6 343.6 381.6 343.8C381.6 344 381.4 344.1 381.2 344.1Z" fill="#DFC9FF"/>
<path d="M397.1 257.3C396.9 257.3 396.7 257.2 396.7 257L397 232.2C397.1 232 397.1 231.9 397.3 231.9L406.4 228.4C406.6 228.3 406.8 228.4 406.9 228.6C406.9 228.7 406.8 229 406.6 229L397.8 232.4L397.5 257C397.5 257.2 397.3 257.3 397.1 257.3Z" fill="#B099D0"/>
<path d="M443.9 338C443.7 338 443.5 337.8 443.5 337.6C443.5 337.4 443.7 337.2 443.9 337.2H449.3C449.5 337.2 449.7 337.3 449.7 337.5C449.7 337.7 449.5 337.9 449.3 337.9L443.9 338Z" fill="#DFC9FF"/>
<path d="M447.7 340.9C447.5 340.9 447.3 340.8 447.3 340.6C447.3 340.3 447.4 340.2 447.7 340.2L453.1 340.1C453.3 340.1 453.5 340.3 453.5 340.5C453.5 340.7 453.3 340.8 453.1 340.8L447.7 340.9Z" fill="#DFC9FF"/>
<path d="M443.9 174.2C444.4 171.6 445.4 169 447 166.8C449.2 163.6 452.5 159.6 455.6 159.2C460.6 158.5 468.3 160.8 468.8 164.3C469.2 167.8 467.3 168.6 467.3 168.6C467.3 168.6 467.7 170.8 466.8 171.8C465.9 172.8 465.9 172.8 465.9 172.8C465.9 172.8 466.5 175.6 463.2 175.9C459.9 176.3 458.1 175.6 457.6 175.2C457 174.7 456.7 174.2 456.7 174.2C456.7 174.2 458.5 177.6 454.6 179.1C450.8 180.6 443.9 174.2 443.9 174.2Z" fill="#C6C2CC"/>
<path d="M465.9 169C464.3 169 461.8 168.8 459.6 167.7C457.4 166.7 456.3 165.7 456.4 164.7C456.5 164.3 456.8 163.7 458.2 163.4C459.1 163.2 459.8 163.3 460.4 163.3C461.5 163.4 462.4 163.4 463.7 162.5C463.9 162.4 464.1 162.4 464.2 162.6C464.3 162.7 464.3 163 464.1 163.1C462.6 164.1 461.5 164.1 460.4 164C459.8 164 459.1 163.9 458.3 164.1C457.6 164.3 457.2 164.5 457.1 164.8C457.1 165.3 457.8 166.1 459.9 167.1C463.2 168.7 467.2 168.2 467.3 168.2C467.5 168.2 467.7 168.3 467.7 168.5C467.7 168.7 467.6 168.9 467.4 169C467.3 169 466.7 169 465.9 169Z" fill="black"/>
<path d="M452.4 162.8C452.4 162.8 459.4 164.9 458.7 166.4C458 168 453.8 168 453.8 168C453.8 168 457.7 173.9 453.4 177L452.4 162.8Z" fill="#C6C2CC"/>
<path d="M453.4 177.3C453.267 177.3 453.167 177.267 453.1 177.2C453 177 453 176.8 453.2 176.7C457.1 173.8 453.7 168.4 453.5 168.2C453.433 168.067 453.433 167.933 453.5 167.8C453.567 167.667 453.667 167.6 453.8 167.6C453.9 167.6 453.9 167.6 454 167.6C455.5 167.6 457.9 167.3 458.4 166.3C458.4 166.3 458.4 166.2 458.3 166.1C457.9 165.1 454.4 163.8 452.3 163.1C452.1 163.1 452 162.9 452 162.7C452.1 162.5 452.3 162.4 452.5 162.4C453.1 162.6 458.3 164.2 459 165.8C459.133 166.067 459.133 166.333 459 166.6C458.4 168 455.7 168.3 454.5 168.3C455.3 169.9 457.3 174.6 453.6 177.3C453.533 177.3 453.467 177.3 453.4 177.3Z" fill="black"/>
<path d="M465.9 173.1C465.7 173.1 460.7 173.1 457.8 172C454.6 170.8 455.2 167.9 455.2 167.9C455.2 167.7 455.4 167.6 455.6 167.6C455.8 167.6 455.9 167.8 455.9 168C455.9 168.1 455.5 170.4 458 171.3C460.8 172.4 465.9 172.4 465.9 172.4C466.1 172.4 466.3 172.6 466.3 172.8C466.3 173 466.1 173.1 465.9 173.1Z" fill="black"/>
<path d="M458.7 163.7H461.6V152.4H458.7V163.7Z" fill="black"/>
<path d="M455.1 141.4C455.1 147.5 456.9 152.5 459 152.5C461.2 152.5 462.9 147.5 462.9 141.4C462.9 135.2 461.2 130.2 459 130.2C456.9 130.2 455.1 135.2 455.1 141.4Z" fill="#B099D0"/>
<path d="M419.8 328.9C419.6 328.9 419.5 328.8 419.5 328.6C419.4 328 414.2 262.7 397.1 243.3C397 243.2 397 243 397.2 242.8C397.3 242.7 397.6 242.7 397.7 242.9C414.9 262.4 420.2 327.9 420.2 328.6C420.2 328.8 420.1 328.9 419.9 328.9C419.9 328.9 419.867 328.9 419.8 328.9Z" fill="#B099D0"/>
<path d="M372.3 224.8C372.1 224.8 371.867 224.8 371.6 224.8C371.4 224.7 371.2 224.6 371.3 224.4C371.3 224.2 371.5 224 371.7 224C376.3 224.5 379.5 220 379.5 219.9C379.6 219.8 379.8 219.7 380 219.8C380.2 219.9 380.2 220.2 380.1 220.3C380 220.5 377 224.8 372.3 224.8Z" fill="#B099D0"/>
<path d="M364.7 328.9C364.5 328.9 364.3 328.8 364.3 328.6L372.6 224.4C372.6 224.2 372.7 224 373 224.1C373.2 224.1 373.3 224.3 373.3 224.5L365 328.6C365 328.8 364.9 328.9 364.7 328.9Z" fill="#B099D0"/>
<path d="M444.2 164.3L458.3 181.5C458.3 181.5 448.3 193.9 437 197.9C425.8 202 413.2 197.9 413.2 197.9V216.2H368.7C368.7 216.2 370.7 166 372.2 165.5C382.7 162 397.1 160.6 403.8 162.2C406.6 162.8 423.3 171.6 425.8 171.9C428.3 172.2 444.2 164.3 444.2 164.3Z" fill="#DFC9FF"/>
<path d="M384.9 149.8C384.9 149.8 387.6 149 388.8 147.3C390 145.6 390 141.6 390 141.6C390 141.6 395.1 143.9 396.4 143.6C397.7 143.2 400 137.1 398.1 134.7C396.2 132.2 392.8 135.6 392.8 135.6C392.8 135.6 391.9 132 388.1 133.1C383.6 134.4 382.8 139.1 382.8 139.1C382.8 139.1 382.1 134.1 379.1 136.5C376.1 138.9 377.6 144.5 377.6 144.5C377.6 144.5 375.2 145.8 375.8 148.1C376.5 150.4 380 152.5 380 152.5L384.9 149.8Z" fill="#B099D0"/>
<path d="M384.9 157L384.7 164.5C384.7 164.5 386.1 166.7 390.6 167.2C394 167.5 395.2 166.8 395.2 166.8L394.9 163L394.5 159.2L386.3 157.3L384.9 157Z" fill="#C6C2CC"/>
<path d="M386.3 157.3C386.3 157.5 386.366 157.733 386.5 158C388.1 161.8 392.9 162.7 394.9 163L394.5 159.2L386.3 157.3Z" fill="black"/>
<path d="M396.6 142C396.6 142 400.5 151.6 398.8 156.8C397 162 392.1 161 389.1 159.9C386.2 158.8 384.9 157 384.9 157C384.9 157 382.1 157.8 380.3 155.2C378.6 152.7 379.8 149.9 381.4 149.2C383 148.6 384.9 149.8 384.9 149.8L383.5 147C383.5 147 390.3 133.4 396.6 142Z" fill="#C6C2CC"/>
<path d="M384.5 154C384.433 154 384.367 153.967 384.3 153.9L380.8 151.4C380.7 151.3 380.6 151 380.8 150.9C380.9 150.7 381.1 150.7 381.3 150.8L384.7 153.3C384.9 153.4 384.9 153.6 384.8 153.8C384.733 153.867 384.633 153.933 384.5 154Z" fill="black"/>
<path d="M389.4 146.8C389.333 146.8 389.267 146.766 389.2 146.7C389 146.6 389 146.3 389.1 146.2C390.5 144.5 392.1 145.1 392.2 145.1C392.4 145.2 392.5 145.4 392.4 145.6C392.4 145.8 392.2 145.9 392 145.8C391.9 145.8 390.7 145.4 389.7 146.6C389.633 146.733 389.533 146.8 389.4 146.8Z" fill="black"/>
<path d="M397.6 145.8C397.533 145.8 397.467 145.766 397.4 145.7C396.6 145 395.7 145.5 395.7 145.5C395.5 145.6 395.3 145.5 395.2 145.3C395.1 145.1 395.2 144.9 395.3 144.8C395.4 144.8 396.7 144.1 397.8 145.1C398 145.2 398 145.5 397.9 145.6C397.833 145.733 397.733 145.8 397.6 145.8Z" fill="black"/>
<path d="M397.4 149.4C397.2 149.4 397.1 149.3 397.1 149.1L396.6 147.4C396.6 147.2 396.7 147 396.9 146.9C397.1 146.9 397.3 147 397.3 147.2L397.8 148.9C397.8 149.1 397.7 149.3 397.5 149.4C397.5 149.4 397.467 149.4 397.4 149.4Z" fill="black"/>
<path d="M391.8 149.7C391.6 149.7 391.5 149.6 391.4 149.5L391 147.7C390.9 147.5 391 147.3 391.2 147.3C391.4 147.2 391.6 147.3 391.7 147.5L392.1 149.3C392.2 149.5 392.1 149.7 391.9 149.7C391.833 149.7 391.8 149.7 391.8 149.7Z" fill="black"/>
<path fill-rule="evenodd" clip-rule="evenodd" d="M393.4 156.5C393.333 156.5 393.267 156.467 393.2 156.4C392.467 156.267 391.867 155.533 391.4 154.2C391.4 154.1 391.4 153.9 391.5 153.8C391.7 153.7 391.8 153.7 392 153.8L394.6 155.3C394.733 155.367 394.8 155.467 394.8 155.6C394.8 155.667 394.767 155.767 394.7 155.9C394.7 155.9 394.2 156.5 393.4 156.5ZM392.5 155C392.767 155.4 393.033 155.633 393.3 155.7C393.433 155.767 393.6 155.767 393.8 155.7L392.5 155Z" fill="black"/>
<path d="M384.9 149.8C384.9 149.8 387.8 149.1 388.8 146.6C389.7 144.1 389.4 141.9 389.4 141.9C389.4 141.9 391 143.5 393.6 143C396.2 142.6 396.7 139.9 396.7 139.9L394.2 137.2C394.2 137.2 384.5 139.9 384.2 139.6C384 139.4 380.8 145.9 380.8 145.9L384.9 149.8Z" fill="#B099D0"/>
<path d="M381.3 154.1C381.167 154.1 381.067 154.033 381 153.9C380.9 153.7 381 153.5 381.1 153.4L382.9 152.3C383.1 152.2 383.3 152.2 383.4 152.4C383.6 152.6 383.5 152.8 383.3 152.9L381.5 154C381.433 154.067 381.367 154.1 381.3 154.1Z" fill="black"/>
<path fill-rule="evenodd" clip-rule="evenodd" d="M389.7 151.9C389.2 151.9 388.7 151.7 388.3 151.4C387.9 151 387.7 150.5 387.6 150L387.5 148.2C387.5 147.933 387.6 147.7 387.8 147.5C387.933 147.3 388.167 147.2 388.5 147.2L392.3 146.9C392.9 146.9 393.3 147.3 393.4 147.9L393.5 149.6C393.5 150.7 392.7 151.7 391.5 151.8L389.8 151.9C389.8 151.9 389.767 151.9 389.7 151.9ZM392.4 147.6C392.3 147.7 388.5 147.9 388.5 147.9C388.433 147.9 388.367 147.933 388.3 148C388.233 148.067 388.2 148.133 388.2 148.2L388.4 149.9C388.4 150.3 388.5 150.6 388.8 150.9C389.067 151.1 389.4 151.2 389.8 151.2L391.5 151.1C392.2 151 392.8 150.4 392.7 149.6L392.6 147.9C392.6 147.8 392.5 147.6 392.4 147.6Z" fill="#C4A1F7"/>
<path d="M387.8 149.6C387.8 149.6 387.767 149.6 387.7 149.6C387.7 149.6 384.7 148.9 382 149.5C381.8 149.5 381.6 149.4 381.6 149.2C381.6 149 381.7 148.8 381.9 148.8C384.7 148.2 387.8 148.8 387.9 148.9C388.1 148.9 388.2 149.1 388.2 149.3C388.1 149.5 388 149.6 387.8 149.6Z" fill="#C4A1F7"/>
<path d="M394.6 153C394.533 153 394.5 153 394.5 153C394.3 152.9 394.2 152.7 394.2 152.5C395.1 149.9 394 148.9 394 148.8C393.8 148.7 393.8 148.5 394 148.3C394.1 148.2 394.3 148.2 394.5 148.3C394.5 148.3 396 149.7 394.9 152.8C394.9 152.9 394.7 153 394.6 153Z" fill="black"/>
<path fill-rule="evenodd" clip-rule="evenodd" d="M397 151.5C396.6 151.5 396.1 151.4 395.8 151.1C395.4 150.7 395.2 150.3 395.2 149.8L395 147.8C395 147.533 395.1 147.3 395.3 147.1C395.433 146.9 395.633 146.8 395.9 146.8L398.7 146.6C399.3 146.6 399.7 147 399.7 147.5L399.8 149.5C399.9 150.5 399.1 151.4 398.1 151.5H397.2C397.133 151.5 397.067 151.5 397 151.5ZM398.8 147.3L395.9 147.5C395.9 147.5 395.867 147.533 395.8 147.6C395.8 147.6 395.8 147.633 395.8 147.7L395.9 149.7C395.9 150.033 396.033 150.3 396.3 150.5C396.5 150.7 396.767 150.8 397.1 150.8H398C398.7 150.7 399.2 150.2 399.1 149.5L399 147.5C399 147.4 398.9 147.3 398.8 147.3Z" fill="#C4A1F7"/>
<path d="M394 182.7V195.7C394 196.4 394.6 197 395.3 197H408.3C409 197 409.6 196.4 409.6 195.7V182.7C409.6 182 409 181.4 408.3 181.4H395.3C394.6 181.4 394 182 394 182.7Z" fill="#EBE4F5"/>
<path d="M395.1 182.7V195.7C395.1 196.4 395.7 197 396.4 197H409.4C410.2 197 410.7 196.4 410.7 195.7V182.7C410.7 182 410.2 181.4 409.4 181.4H396.4C395.7 181.4 395.1 182 395.1 182.7Z" fill="#B099D0"/>
<path d="M397.5 185.2C397.5 186.4 398.4 187.4 399.6 187.4C400.8 187.4 401.8 186.4 401.8 185.2C401.8 184 400.8 183 399.6 183C398.4 183 397.5 184 397.5 185.2Z" fill="#C7BEDD"/>
<path d="M395.1 191.6V195.7C395.1 196.4 395.7 197 396.4 197H409.4C410.2 197 410.7 196.4 410.7 195.7V191.7C408.7 190.7 405.2 189.1 402.9 189.5C399.6 190.1 399.6 192.5 398.6 192.7C398 192.8 396.4 192.2 395.1 191.6Z" fill="#C4A1F7"/>
<path d="M392.9 149.7C392.767 149.7 392.633 149.633 392.5 149.5C392.4 149.4 392.5 149.1 392.7 149C392.7 149 394.6 147.9 395.7 148.7C395.9 148.9 395.9 149.1 395.8 149.3C395.6 149.4 395.4 149.4 395.2 149.3C394.7 148.8 393.5 149.4 393 149.6C393 149.666 392.967 149.7 392.9 149.7Z" fill="#C4A1F7"/>
<path d="M385.3 194.7C385.3 194.7 390.5 192.1 393.8 191.7C397.2 191.3 398.8 194.7 398.8 194.7C398.8 194.7 401.8 195.6 405.2 196C408.5 196.4 411.2 196.8 411.2 197.9C411.2 199.1 408.5 199.8 408.5 199.8C408.5 199.8 412.8 200.4 411.2 202.1C409.6 203.8 406.8 204.3 406.8 204.3C406.8 204.3 410.3 205.3 405.5 207C400.7 208.7 390.2 209.1 384.9 205.1C379.6 201.1 385.3 194.7 385.3 194.7Z" fill="#C6C2CC"/>
<path d="M372.2 165.5C372.2 165.5 342.1 179.4 345.6 196.3C349 213.2 388.8 210.8 388.8 210.8V189.2L374.5 188.2L372.2 165.5Z" fill="#DFC9FF"/>
<path d="M388.8 189.6C388.733 189.6 388.7 189.566 388.7 189.5C388.6 189.5 380 187.6 371.6 187.8C371.4 187.8 371.3 187.7 371.3 187.5C371.3 187.3 371.4 187.1 371.6 187.1C380.1 186.9 388.8 188.8 388.9 188.8C389.1 188.9 389.2 189.1 389.1 189.3C389.1 189.4 389 189.6 388.8 189.6Z" fill="#EBE4F5"/>
<path fill-rule="evenodd" clip-rule="evenodd" d="M368.2 188.2C366.7 188.2 365.2 188 364.4 187.4C364.067 187.067 363.9 186.7 363.9 186.3C363.9 185.833 364.067 185.467 364.4 185.2C366.2 184.1 372.4 186.8 373.1 187.1C373.2 187.2 373.3 187.3 373.3 187.5C373.3 187.6 373.2 187.8 373 187.8C372.6 187.9 370.4 188.2 368.2 188.2ZM365.7 185.7C365.3 185.7 365 185.733 364.8 185.8C364.7 185.9 364.6 186 364.6 186.3C364.6 186.5 364.7 186.667 364.9 186.8C366 187.8 369.4 187.5 371.6 187.3C369.6 186.5 367.1 185.7 365.7 185.7Z" fill="#EBE4F5"/>
<path d="M391.5 167.7C389.2 167.7 386.3 167.1 384 164.7C383.9 164.6 383.9 164.3 384.1 164.2C384.2 164.1 384.4 164.1 384.6 164.2C388.7 168.5 394.9 166.4 395 166.4C395.2 166.4 395.4 166.5 395.5 166.7C395.5 166.8 395.4 167.1 395.2 167.1C395.2 167.1 393.6 167.7 391.5 167.7Z" fill="#EBE4F5"/>
<path fill-rule="evenodd" clip-rule="evenodd" d="M424.5 178.1C424.3 178.1 424.133 178 424 177.8C423.2 176.8 424.9 172.9 425.4 171.7C425.5 171.6 425.7 171.5 425.8 171.5C426 171.5 426.1 171.7 426.1 171.8C426.2 173.2 426.5 177.8 424.7 178.1C424.633 178.1 424.566 178.1 424.5 178.1ZM425.5 173.5C424.7 175.5 424.3 177.1 424.5 177.4C425.2 177.3 425.4 175.4 425.5 173.5Z" fill="#EBE4F5"/>
<path d="M398.8 195.1C398.8 195.1 398.767 195.1 398.7 195.1L394.7 194.1C394.5 194.1 394.3 193.9 394.4 193.7C394.4 193.5 394.6 193.4 394.8 193.4L398.9 194.3C399.1 194.4 399.2 194.6 399.1 194.8C399.1 194.9 399 195.1 398.8 195.1Z" fill="black"/>
<path d="M405.6 200.4C404 200.4 401.7 200.2 399.1 199.6C398.9 199.5 398.8 199.3 398.9 199.1C398.9 198.9 399.1 198.8 399.3 198.9C404.6 200.2 408.4 199.5 408.5 199.5C408.7 199.4 408.9 199.5 408.9 199.7C408.9 199.9 408.8 200.1 408.6 200.2C408.5 200.2 407.4 200.4 405.6 200.4Z" fill="black"/>
<path d="M403.3 205.1C401.8 205.1 400 204.8 398.6 204.1C398.4 204 398.4 203.7 398.5 203.6C398.6 203.4 398.8 203.3 399 203.4C401.8 205 406.6 204 406.7 204C406.9 203.9 407.1 204.1 407.1 204.3C407.2 204.5 407 204.7 406.8 204.7C406.7 204.7 405.2 205.1 403.3 205.1Z" fill="black"/>
<path fill-rule="evenodd" clip-rule="evenodd" d="M460.7 152.9C458.3 152.9 456.5 147.8 456.5 141.4C456.5 134.9 458.3 129.9 460.7 129.9C463.1 129.9 465 134.9 465 141.4C465 147.8 463.1 152.9 460.7 152.9ZM460.7 130.6C459 130.6 457.2 134.9 457.2 141.4C457.2 147.8 459 152.2 460.7 152.2C462.4 152.2 464.3 147.8 464.3 141.4C464.3 134.9 462.4 130.6 460.7 130.6Z" fill="#C0B7CE"/>
<path d="M459.5 149.5C459.366 149.5 459.266 149.467 459.2 149.4C459.1 149.3 458.2 148.3 457.8 144.8C457.8 144.6 458 144.5 458.2 144.4C458.4 144.4 458.5 144.6 458.6 144.8C458.9 148 459.7 148.9 459.7 148.9C459.9 149.1 459.9 149.3 459.7 149.4C459.633 149.467 459.566 149.5 459.5 149.5Z" fill="#EBE4F5"/>
<path fill-rule="evenodd" clip-rule="evenodd" d="M984.1 166.6H931.9C930.5 166.6 929.3 165.5 929.3 164.1V138.7C929.3 137.3 930.5 136.2 931.9 136.2H984.1C985.5 136.2 986.6 137.3 986.6 138.7V164.1C986.6 165.5 985.5 166.6 984.1 166.6ZM931.9 136.9C930.9 136.9 930.1 137.7 930.1 138.7V164.1C930.1 165.1 930.9 165.9 931.9 165.9H984.1C985.1 165.9 985.9 165.1 985.9 164.1V138.7C985.9 137.7 985.1 136.9 984.1 136.9H931.9Z" fill="#C4A1F7"/>
<path d="M986.3 142.5H929.7C929.5 142.5 929.3 142.4 929.3 142.2C929.3 142 929.5 141.8 929.7 141.8H986.3C986.5 141.8 986.6 142 986.6 142.2C986.6 142.4 986.5 142.5 986.3 142.5Z" fill="#C4A1F7"/>
<path fill-rule="evenodd" clip-rule="evenodd" d="M982.3 141.2C981.3 141.2 980.5 140.4 980.5 139.4C980.5 138.4 981.3 137.6 982.3 137.6C983.3 137.6 984.1 138.4 984.1 139.4C984.1 140.4 983.3 141.2 982.3 141.2ZM982.3 138.4C981.7 138.4 981.3 138.8 981.3 139.4C981.3 140 981.7 140.4 982.3 140.4C982.9 140.4 983.3 140 983.3 139.4C983.3 138.8 982.9 138.4 982.3 138.4Z" fill="#C4A1F7"/>
<path fill-rule="evenodd" clip-rule="evenodd" d="M977.6 141.2C976.6 141.2 975.8 140.4 975.8 139.4C975.8 138.4 976.6 137.6 977.6 137.6C978.6 137.6 979.4 138.4 979.4 139.4C979.4 140.4 978.6 141.2 977.6 141.2ZM977.6 138.4C977 138.4 976.6 138.8 976.6 139.4C976.6 140 977 140.4 977.6 140.4C978.2 140.4 978.6 140 978.6 139.4C978.6 138.8 978.2 138.4 977.6 138.4Z" fill="#C4A1F7"/>
<path fill-rule="evenodd" clip-rule="evenodd" d="M972.9 141.2C971.9 141.2 971.1 140.4 971.1 139.4C971.1 138.4 971.9 137.6 972.9 137.6C973.9 137.6 974.7 138.4 974.7 139.4C974.7 140.4 973.9 141.2 972.9 141.2ZM972.9 138.4C972.3 138.4 971.9 138.8 971.9 139.4C971.9 140 972.3 140.4 972.9 140.4C973.5 140.4 973.9 140 973.9 139.4C973.9 138.8 973.5 138.4 972.9 138.4Z" fill="#C4A1F7"/>
</g>
<defs>
<clipPath id="clip0_741_782">
<rect width="1042" height="400" fill="white"/>
</clipPath>
</defs>
</svg>
