<svg width="23" height="23" viewBox="0 0 23 23" fill="none" xmlns="http://www.w3.org/2000/svg">
<g clip-path="url(#clip0_275_463)">
<path d="M13.4167 14.375H3.83333C3.30625 14.375 2.875 14.8062 2.875 15.3333C2.875 15.8604 3.30625 16.2917 3.83333 16.2917H13.4167C13.9437 16.2917 14.375 15.8604 14.375 15.3333C14.375 14.8062 13.9437 14.375 13.4167 14.375ZM13.4167 6.70833H3.83333C3.30625 6.70833 2.875 7.13958 2.875 7.66667C2.875 8.19375 3.30625 8.625 3.83333 8.625H13.4167C13.9437 8.625 14.375 8.19375 14.375 7.66667C14.375 7.13958 13.9437 6.70833 13.4167 6.70833ZM3.83333 12.4583H19.1667C19.6938 12.4583 20.125 12.0271 20.125 11.5C20.125 10.9729 19.6938 10.5417 19.1667 10.5417H3.83333C3.30625 10.5417 2.875 10.9729 2.875 11.5C2.875 12.0271 3.30625 12.4583 3.83333 12.4583ZM3.83333 20.125H19.1667C19.6938 20.125 20.125 19.6938 20.125 19.1667C20.125 18.6396 19.6938 18.2083 19.1667 18.2083H3.83333C3.30625 18.2083 2.875 18.6396 2.875 19.1667C2.875 19.6938 3.30625 20.125 3.83333 20.125ZM2.875 3.83333C2.875 4.36042 3.30625 4.79167 3.83333 4.79167H19.1667C19.6938 4.79167 20.125 4.36042 20.125 3.83333C20.125 3.30625 19.6938 2.875 19.1667 2.875H3.83333C3.30625 2.875 2.875 3.30625 2.875 3.83333Z" fill="white"/>
</g>
<defs>
<clipPath id="clip0_275_463">
<rect width="23" height="23" fill="white"/>
</clipPath>
</defs>
</svg>
