<svg width="27" height="16" viewBox="0 0 27 16" fill="none" xmlns="http://www.w3.org/2000/svg">
<path d="M10.6543 14.4824C10.6543 14.8275 10.485 15 10.1465 15H9.19922C8.94531 15 8.79232 14.9512 8.74023 14.8535C8.68815 14.7493 8.65885 14.6582 8.65234 14.5801C8.64583 14.4954 8.63281 14.3945 8.61328 14.2773C8.57422 13.9583 8.51888 13.6133 8.44727 13.2422C7.93945 14.1732 7.14193 14.7884 6.05469 15.0879C5.67057 15.1921 5.2474 15.2441 4.78516 15.2441C4.32292 15.2441 3.86068 15.166 3.39844 15.0098C2.9362 14.86 2.52604 14.6354 2.16797 14.3359C1.36068 13.6589 0.957031 12.7702 0.957031 11.6699C0.957031 10.4655 1.39974 9.54427 2.28516 8.90625C3.01432 8.39193 3.95182 8.13477 5.09766 8.13477C6.24349 8.13477 7.21354 8.47005 8.00781 9.14062C8.02734 8.91927 8.03711 8.64258 8.03711 8.31055C8.03711 7.97852 7.97201 7.64648 7.8418 7.31445C7.71159 6.98242 7.52604 6.70573 7.28516 6.48438C6.79036 6.04818 6.10026 5.83008 5.21484 5.83008C4.42057 5.83008 3.61328 6.04818 2.79297 6.48438C2.63672 6.56901 2.5 6.61133 2.38281 6.61133C2.20703 6.61133 2.03776 6.4388 1.875 6.09375C1.69922 5.74219 1.61133 5.48828 1.61133 5.33203C1.61133 5.04557 1.82617 4.76888 2.25586 4.50195C3.07617 3.99414 4.17318 3.74023 5.54688 3.74023C6.79688 3.74023 7.83203 4.08203 8.65234 4.76562C9.6224 5.58594 10.1074 6.74479 10.1074 8.24219C10.1074 8.90625 10 9.74284 9.78516 10.752C10.3385 12.3275 10.6283 13.571 10.6543 14.4824ZM4.11133 10.3418C3.8444 10.5371 3.65234 10.7324 3.53516 10.9277C3.42448 11.123 3.36914 11.3542 3.36914 11.6211C3.36914 11.8815 3.41471 12.1159 3.50586 12.3242C3.60352 12.526 3.73698 12.6953 3.90625 12.832C4.26432 13.112 4.66471 13.252 5.10742 13.252C5.55664 13.252 5.92448 13.1999 6.21094 13.0957C6.4974 12.9915 6.74479 12.8581 6.95312 12.6953C7.40234 12.3438 7.62695 11.9727 7.62695 11.582C7.58789 11.0938 7.31771 10.7096 6.81641 10.4297C6.36719 10.1693 5.83659 10.0391 5.22461 10.0391C4.74935 10.0391 4.37826 10.14 4.11133 10.3418ZM12.9199 15C12.7311 15 12.5879 14.9414 12.4902 14.8242C12.3926 14.7005 12.3438 14.5964 12.3438 14.5117C12.3438 14.4206 12.3535 14.349 12.373 14.2969L17.3047 1.03516C17.526 0.455729 17.8809 0.130208 18.3691 0.0585938C18.5384 0.0390625 18.7402 0.0292969 18.9746 0.0292969H19.1406C19.5833 0.0292969 19.8893 0.0846354 20.0586 0.195312C20.332 0.364583 20.5436 0.634766 20.6934 1.00586L25.9961 14.3066C26.0156 14.3587 26.0254 14.4336 26.0254 14.5312C26.0254 14.6224 25.9863 14.7233 25.9082 14.834C25.8301 14.9447 25.6999 15 25.5176 15H24.1504C23.8509 15 23.6426 14.86 23.5254 14.5801L22.3145 11.4062H15.8984L14.7754 14.5801C14.6842 14.86 14.4857 15 14.1797 15H12.9199ZM21.4941 9.29688L19.1602 2.94922C19.1406 2.88411 19.1016 2.85156 19.043 2.85156C18.9844 2.85156 18.9453 2.88411 18.9258 2.94922L16.6602 9.29688H21.4941Z" fill="white"/>
</svg>
