<svg width="18" height="21" viewBox="0 0 18 21" fill="none" xmlns="http://www.w3.org/2000/svg">
<path d="M0 1.875C0 1.07988 0.648871 0.4375 1.45202 0.4375H3.63005H4.35606H10.1641C13.3722 0.4375 15.9722 3.01152 15.9722 6.1875C15.9722 7.59355 15.4595 8.88731 14.611 9.88457C16.2944 10.8908 17.4242 12.7191 17.4242 14.8125C17.4242 17.9885 14.8242 20.5625 11.6162 20.5625H4.35606H3.63005H1.45202C0.648871 20.5625 0 19.9201 0 19.125C0 18.3299 0.648871 17.6875 1.45202 17.6875H2.17803V10.5V3.3125H1.45202C0.648871 3.3125 0 2.67012 0 1.875ZM10.1641 9.0625C11.7659 9.0625 13.0682 7.77324 13.0682 6.1875C13.0682 4.60176 11.7659 3.3125 10.1641 3.3125H5.08207V9.0625H10.1641ZM5.08207 11.9375V17.6875H11.6162C13.2179 17.6875 14.5202 16.3982 14.5202 14.8125C14.5202 13.2268 13.2179 11.9375 11.6162 11.9375H10.1641H5.08207Z" fill="white"/>
</svg>
