<svg width="113" height="119" viewBox="0 0 113 119" fill="none" xmlns="http://www.w3.org/2000/svg">
<path d="M93.455 25.4204C95.605 22.9047 95.3005 19.1317 92.7749 16.9933C90.2494 14.8549 86.459 15.1607 84.309 17.6765M68.2106 54.1889L29.1417 99.9029C27.1711 102.209 23.6971 102.489 21.3822 100.529C19.0674 98.569 18.7883 95.1109 20.7589 92.8051L59.8278 47.0911L68.2106 54.1889Z" stroke="white"/>
<path fill-rule="evenodd" clip-rule="evenodd" d="M91.7453 18.1877C89.2198 16.0492 85.4295 16.355 83.2795 18.8708L58.742 47.5826L67.8877 55.3269L92.4252 26.6151C94.5752 24.0993 94.2708 20.3263 91.7453 18.1877V18.1877Z" fill="white"/>
<rect x="83.1201" y="68.0752" width="52" height="8" rx="4" transform="rotate(-139.277 83.1201 68.0752)" fill="white"/>
</svg>
