<svg width="18" height="23" viewBox="0 0 18 23" fill="none" xmlns="http://www.w3.org/2000/svg">
<path d="M10.3816 1.49917C10.1519 0.923926 9.60346 0.546875 8.99877 0.546875C8.39408 0.546875 7.84565 0.923926 7.61596 1.49917L1.99096 15.421L0.11596 20.0617C-0.20279 20.8496 0.158148 21.7536 0.92221 22.0823C1.68627 22.411 2.56284 22.0388 2.88159 21.2508L4.37221 17.5625H13.6253L15.116 21.2508C15.4347 22.0388 16.3113 22.411 17.0753 22.0823C17.8394 21.7536 18.2003 20.8496 17.8816 20.0617L16.0066 15.421L10.3816 1.49917ZM12.3738 14.4688H5.62377L8.99877 6.11562L12.3738 14.4688Z" fill="white"/>
</svg>
