<svg width="102" height="100" viewBox="0 0 102 100" fill="none" xmlns="http://www.w3.org/2000/svg">
<path fill-rule="evenodd" clip-rule="evenodd" d="M0 50C0 77.6142 22.3858 100 50 100C53.8634 99.6445 57.5 96.1175 58 94.5C58.5 92.8825 59 90 57.5 87.5C57.2925 87.1542 57.0468 86.7798 56.784 86.3792C55.1466 83.884 52.8458 80.3776 55 76.5C57.5 72 61.7053 71.4184 73 72.5C82 72.5 86.5 69 91 65.5C95.5 62 99.2902 55.4856 101.5 48C105 21.5 77.2801 0 50 0C22.3858 0 0 22.3858 0 50ZM28.5 41C28.5 45.6944 24.6944 49.5 20 49.5C15.3056 49.5 11.5 45.6944 11.5 41C11.5 36.3056 15.3056 32.5 20 32.5C24.6944 32.5 28.5 36.3056 28.5 41ZM42 25.5C46.6944 25.5 50.5 21.6944 50.5 17C50.5 12.3056 46.6944 8.5 42 8.5C37.3056 8.5 33.5 12.3056 33.5 17C33.5 21.6944 37.3056 25.5 42 25.5ZM81.5 24C81.5 28.6944 77.6944 32.5 73 32.5C68.3056 32.5 64.5 28.6944 64.5 24C64.5 19.3056 68.3056 15.5 73 15.5C77.6944 15.5 81.5 19.3056 81.5 24ZM82 57.5C86.6944 57.5 90.5 53.6944 90.5 49C90.5 44.3056 86.6944 40.5 82 40.5C77.3056 40.5 73.5 44.3056 73.5 49C73.5 53.6944 77.3056 57.5 82 57.5Z" fill="#FCFFFC"/>
</svg>
