<svg width="15" height="23" viewBox="0 0 15 23" fill="none" xmlns="http://www.w3.org/2000/svg">
<g clip-path="url(#clip0_275_454)">
<path d="M14.6364 2.15625V3.59375C14.6364 3.78437 14.5593 3.96719 14.422 4.10198C14.2848 4.23677 14.0986 4.3125 13.9045 4.3125H11.034L7.3749 18.6875H9.51364C9.70773 18.6875 9.89387 18.7632 10.0311 18.898C10.1684 19.0328 10.2455 19.2156 10.2455 19.4062V20.8437C10.2455 21.0344 10.1684 21.2172 10.0311 21.352C9.89387 21.4868 9.70773 21.5625 9.51364 21.5625H0.731818C0.537728 21.5625 0.351587 21.4868 0.214345 21.352C0.0771021 21.2172 0 21.0344 0 20.8437V19.4062C0 19.2156 0.0771021 19.0328 0.214345 18.898C0.351587 18.7632 0.537728 18.6875 0.731818 18.6875H3.60237L7.26147 4.3125H5.12273C4.92864 4.3125 4.7425 4.23677 4.60525 4.10198C4.46801 3.96719 4.39091 3.78437 4.39091 3.59375V2.15625C4.39091 1.96563 4.46801 1.78281 4.60525 1.64802C4.7425 1.51323 4.92864 1.4375 5.12273 1.4375H13.9045C14.0986 1.4375 14.2848 1.51323 14.422 1.64802C14.5593 1.78281 14.6364 1.96563 14.6364 2.15625Z" fill="white"/>
</g>
<defs>
<clipPath id="clip0_275_454">
<rect width="14.6364" height="23" fill="white"/>
</clipPath>
</defs>
</svg>
