<svg width="17" height="20" viewBox="0 0 17 20" fill="none" xmlns="http://www.w3.org/2000/svg">
<path d="M3.70938 15.014C3.70938 14.5827 3.19188 14.3719 2.89479 14.6785L0.690625 16.8731C0.498958 17.0648 0.498958 17.3619 0.690625 17.5535L2.89479 19.7481C3.19188 20.0452 3.70938 19.8344 3.70938 19.4031V18.1669H13.2927V19.4031C13.2927 19.8344 13.8102 20.0452 14.1073 19.7385L16.3019 17.544C16.4935 17.3523 16.4935 17.0552 16.3019 16.8635L14.1073 14.669C13.8102 14.3719 13.2927 14.5827 13.2927 15.014V16.2502H3.70938V15.014ZM3.70938 11.4585L3.70938 1.87521C3.70938 1.34813 3.27813 0.916876 2.75104 0.916876C2.22396 0.916876 1.79271 1.34813 1.79271 1.87521L1.79271 11.4585C1.79271 11.9856 2.22396 12.4169 2.75104 12.4169C3.27813 12.4169 3.70938 11.9856 3.70938 11.4585ZM13.2927 1.87521L13.2927 11.4585C13.2927 11.9856 13.724 12.4169 14.251 12.4169C14.7781 12.4169 15.2094 11.9856 15.2094 11.4585L15.2094 1.87521C15.2094 1.34813 14.7781 0.916876 14.251 0.916876C13.724 0.916876 13.2927 1.34813 13.2927 1.87521ZM7.54271 1.87521V11.4585C7.54271 11.9856 7.97396 12.4169 8.50104 12.4169C9.02813 12.4169 9.45938 11.9856 9.45938 11.4585L9.45938 1.87521C9.45938 1.34813 9.02813 0.916876 8.50104 0.916876C7.97396 0.916876 7.54271 1.34813 7.54271 1.87521Z" fill="white"/>
</svg>
