<svg width="23" height="23" viewBox="0 0 23 23" fill="none" xmlns="http://www.w3.org/2000/svg">
<g clip-path="url(#clip0_275_492)">
<path d="M6.98604 6.70742C7.41729 6.70742 7.62812 6.18992 7.32146 5.89284L5.12687 3.68867C4.93521 3.49701 4.63812 3.49701 4.44646 3.68867L2.25187 5.89284C1.95479 6.18992 2.16562 6.70742 2.59687 6.70742H3.83312V16.2908H2.59687C2.16562 16.2908 1.95479 16.8083 2.26146 17.1053L4.45604 19.2999C4.64771 19.4916 4.94479 19.4916 5.13646 19.2999L7.33104 17.1053C7.62812 16.8083 7.41729 16.2908 6.98604 16.2908H5.74979V6.70742H6.98604ZM10.5415 6.70742H20.1248C20.6519 6.70742 21.0831 6.27617 21.0831 5.74909C21.0831 5.22201 20.6519 4.79076 20.1248 4.79076H10.5415C10.0144 4.79076 9.58312 5.22201 9.58312 5.74909C9.58312 6.27617 10.0144 6.70742 10.5415 6.70742ZM20.1248 16.2908H10.5415C10.0144 16.2908 9.58312 16.722 9.58312 17.2491C9.58312 17.7762 10.0144 18.2074 10.5415 18.2074H20.1248C20.6519 18.2074 21.0831 17.7762 21.0831 17.2491C21.0831 16.722 20.6519 16.2908 20.1248 16.2908ZM20.1248 10.5408H10.5415C10.0144 10.5408 9.58312 10.972 9.58312 11.4991C9.58312 12.0262 10.0144 12.4574 10.5415 12.4574H20.1248C20.6519 12.4574 21.0831 12.0262 21.0831 11.4991C21.0831 10.972 20.6519 10.5408 20.1248 10.5408Z" fill="white"/>
</g>
<defs>
<clipPath id="clip0_275_492">
<rect width="23" height="23" fill="white"/>
</clipPath>
</defs>
</svg>
