<?xml version="1.0" encoding="utf-8"?>
<!-- Generator: Adobe Illustrator 27.5.0, SVG Export Plug-In . SVG Version: 6.00 Build 0)  -->
<svg version="1.1" xmlns="http://www.w3.org/2000/svg" xmlns:xlink="http://www.w3.org/1999/xlink" x="0px" y="0px"
	 viewBox="0 0 750 500" style="enable-background:new 0 0 750 500;" xml:space="preserve">
<g id="Background_Complete">
	<g>
		<g>
			
				<ellipse transform="matrix(0.8304 -0.5572 0.5572 0.8304 4.608 372.3121)" style="fill:#E0E0E0;" cx="613.852" cy="178.587" rx="12.295" ry="12.295"/>
		</g>
		<g>
			<circle style="fill:#E0E0E0;" cx="577.344" cy="178.587" r="13.098"/>
		</g>
		<g>
			<circle style="fill:#E0E0E0;" cx="549.281" cy="155.415" r="13.903"/>
		</g>
		<g>
			<circle style="fill:#E0E0E0;" cx="543.585" cy="119.787" r="14.521"/>
		</g>
		<g>
			<circle style="fill:#E0E0E0;" cx="561.367" cy="88.598" r="15.007"/>
		</g>
		<g>
			<circle style="fill:#E0E0E0;" cx="595.543" cy="76.275" r="16.355"/>
		</g>
		<g>
			
				<ellipse transform="matrix(0.2286 -0.9735 0.9735 0.2286 343.4394 743.6743)" style="fill:#E0E0E0;" cx="640.98" cy="155.126" rx="11.876" ry="11.876"/>
		</g>
		<g>
			<circle style="fill:#E0E0E0;" cx="647.335" cy="119.389" r="11.022"/>
		</g>
		<g>
			<circle style="fill:#E0E0E0;" cx="629.004" cy="88.186" r="10.069"/>
		</g>
	</g>
	<g>
		<g>
			<g>
				<g>
					<g>
						<g>
							<g>
								<g>
									<path style="fill:none;" d="M212.214,62.166c2.8,0.351,5.506,1.075,8.055,2.127l5.921-4.962l10.17,7.741l-3.204,7.029
										c1.693,2.177,3.113,4.591,4.198,7.198l7.693,0.678l1.717,12.665l-7.233,2.703c-0.35,2.801-1.076,5.507-2.128,8.056
										l4.962,5.921l-7.739,10.17l-7.03-3.204c-2.177,1.693-4.592,3.111-7.199,4.196l-0.677,7.692l-12.666,1.719l-2.703-7.234
										c-2.801-0.35-5.506-1.075-8.056-2.128l-5.922,4.962l-10.17-7.741l3.206-7.03c-1.693-2.177-3.111-4.591-4.197-7.198
										l-7.692-0.678L169.8,92.186l7.233-2.703c0.35-2.801,1.075-5.507,2.128-8.057l-4.962-5.921l7.739-10.17l7.03,3.205
										c2.177-1.693,4.591-3.112,7.199-4.197l0.677-7.692l12.664-1.718L212.214,62.166L212.214,62.166z M207.014,79.75
										c-7.503,1.018-12.761,7.925-11.743,15.43c1.018,7.504,7.927,12.761,15.43,11.743c7.504-1.018,12.761-7.926,11.743-15.43
										C221.425,83.989,214.518,78.731,207.014,79.75z"/>
								</g>
							</g>
						</g>
					</g>
				</g>
			</g>
			<g>
				<g>
					<g>
						<g>
							<g>
								<g>
									<g>
										<path style="fill:#E0E0E0;" d="M207.014,79.75c0,0,1.189-0.35,3.392-0.177c2.158,0.174,5.458,1.076,8.332,3.881
											c1.407,1.392,2.699,3.228,3.434,5.462c0.72,2.22,1.014,4.804,0.428,7.394c-0.256,1.297-0.737,2.582-1.405,3.794
											c-0.65,1.222-1.51,2.369-2.554,3.361c-2.047,2.034-4.859,3.41-7.885,3.847c-3.034,0.386-6.112-0.192-8.628-1.606
											c-1.271-0.678-2.406-1.555-3.359-2.559c-0.966-0.99-1.773-2.101-2.365-3.283c-1.256-2.34-1.66-4.91-1.558-7.241
											c0.114-2.349,0.87-4.464,1.855-6.179c2.023-3.469,4.963-5.218,6.997-5.96C205.775,79.73,207.014,79.75,207.014,79.75
											c0.02,0.095-1.207,0.194-3.202,1.017c-1.956,0.812-4.747,2.585-6.627,5.951c-0.915,1.666-1.607,3.697-1.688,5.937
											c-0.068,2.224,0.34,4.664,1.549,6.872c0.569,1.117,1.341,2.163,2.262,3.095c0.907,0.947,1.984,1.771,3.189,2.407
											c2.384,1.33,5.286,1.866,8.153,1.503c2.859-0.416,5.512-1.705,7.455-3.622c0.991-0.934,1.81-2.015,2.432-3.169
											c0.639-1.144,1.104-2.357,1.355-3.585c0.577-2.45,0.32-4.91-0.339-7.036c-0.674-2.138-1.882-3.911-3.208-5.273
											c-2.709-2.744-5.871-3.709-7.973-3.97C208.229,79.615,207.02,79.847,207.014,79.75z"/>
									</g>
								</g>
							</g>
						</g>
					</g>
				</g>
			</g>
			<g>
				<g>
					<g>
						<g>
							<g>
								<g>
									<g>
										<path style="fill:#E0E0E0;" d="M212.214,62.165c-0.007,0.009-0.072-0.139-0.195-0.441
											c-0.133-0.333-0.311-0.78-0.541-1.359c-0.484-1.25-1.181-3.052-2.086-5.39l0.134,0.08
											c-3.24,0.459-7.501,1.062-12.654,1.792l0.172-0.18c-0.196,2.331-0.413,4.922-0.646,7.694l-0.011,0.139l-0.13,0.055
											c-2.394,1.007-4.826,2.386-7.129,4.188l-0.123,0.096l-0.143-0.065c-2.194-0.993-4.569-2.067-7.039-3.185l0.339-0.085
											c-2.43,3.208-5.008,6.613-7.716,10.187l-0.009-0.386c1.539,1.83,3.235,3.845,4.974,5.911l0.127,0.15l-0.075,0.183
											c-0.977,2.371-1.742,5.11-2.092,7.974l-0.025,0.204l-0.193,0.072c-2.241,0.841-4.712,1.769-7.229,2.713l0.225-0.376
											c0.545,3.977,1.132,8.267,1.734,12.663l-0.331-0.315c2.395,0.209,5.026,0.438,7.692,0.671l0.225,0.02l0.087,0.209
											c0.992,2.382,2.395,4.856,4.152,7.108l0.142,0.182l-0.096,0.21c-1.003,2.202-2.096,4.605-3.201,7.031l-0.117-0.466
											c3.221,2.449,6.674,5.075,10.173,7.736l-0.488,0.011c1.87-1.568,3.888-3.26,5.921-4.964l0.182-0.153l0.22,0.091
											c2.416,1,5.144,1.752,7.947,2.1l0.004,0l0.002,0c0.143,0.113-0.318-0.252,0.321,0.253l0.003,0.007l0.005,0.014
											l0.011,0.029l0.021,0.057l0.043,0.114l0.085,0.228l0.17,0.455l0.34,0.909l0.678,1.814c0.451,1.207,0.9,2.409,1.347,3.606
											l-0.421-0.252c4.28-0.58,8.504-1.152,12.666-1.716l-0.335,0.352c0.229-2.589,0.456-5.153,0.68-7.692l0.021-0.233
											l0.216-0.09c2.572-1.068,4.967-2.472,7.113-4.14l0.182-0.142l0.21,0.096c2.376,1.085,4.716,2.154,7.027,3.209
											l-0.453,0.114c2.645-3.469,5.229-6.858,7.749-10.162l0.011,0.452c-1.681-2.011-3.332-3.986-4.955-5.927l-0.137-0.164
											l0.082-0.197c1.078-2.601,1.778-5.291,2.117-7.963l0.026-0.205l0.193-0.072c2.482-0.923,4.887-1.817,7.237-2.691
											l-0.21,0.35c-0.595-4.457-1.156-8.664-1.691-12.668l0.272,0.259c-2.705-0.245-5.243-0.475-7.691-0.696l-0.171-0.015
											l-0.065-0.157c-1.129-2.725-2.552-5.087-4.141-7.148l-0.096-0.125l0.065-0.141c1.173-2.55,2.229-4.848,3.228-7.018
											l0.07,0.281c-3.926-3.016-7.272-5.586-10.136-7.785l0.22-0.005c-2.378,1.966-4.328,3.58-5.953,4.924l-0.06,0.049
											l-0.07-0.029c-2.59-1.083-4.63-1.568-5.979-1.855c-0.655-0.124-1.156-0.219-1.523-0.288
											C212.368,62.207,212.207,62.174,212.214,62.165c0.007-0.008,0.183,0.003,0.514,0.036c0.34,0.041,0.855,0.103,1.538,0.225
											c1.363,0.247,3.424,0.694,6.051,1.749l-0.129,0.02c1.607-1.365,3.536-3.003,5.889-5l0.107-0.091l0.113,0.086
											c2.883,2.174,6.251,4.715,10.204,7.696l0.148,0.111l-0.077,0.17c-0.984,2.177-2.025,4.481-3.181,7.04l-0.031-0.266
											c1.629,2.084,3.091,4.48,4.254,7.248l-0.236-0.173c2.449,0.21,4.988,0.427,7.694,0.659l0.239,0.021l0.033,0.239
											c0.551,4.002,1.13,8.207,1.743,12.661l0.036,0.259l-0.245,0.092c-2.347,0.882-4.749,1.785-7.228,2.716l0.219-0.277
											c-0.338,2.733-1.045,5.486-2.14,8.148l-0.056-0.361c1.627,1.937,3.283,3.908,4.969,5.915l0.186,0.221l-0.176,0.231
											c-2.513,3.309-5.09,6.703-7.729,10.177l-0.181,0.239l-0.273-0.124c-2.312-1.052-4.654-2.117-7.032-3.198l0.391-0.046
											c-2.197,1.712-4.649,3.154-7.284,4.252l0.236-0.322c-0.222,2.539-0.447,5.103-0.673,7.692l-0.027,0.31l-0.309,0.042
											c-4.162,0.566-8.385,1.141-12.665,1.723l-0.311,0.042l-0.11-0.294c-0.447-1.197-0.897-2.399-1.348-3.606l-0.678-1.814
											l-0.34-0.909l-0.17-0.455l-0.085-0.228l-0.042-0.114l-0.021-0.057l-0.01-0.028l-0.005-0.014l-0.003-0.007
											c0.639,0.505,0.176,0.14,0.318,0.252l-0.002,0l-0.004-0.001c-2.876-0.356-5.673-1.128-8.149-2.154l0.402-0.062
											c-2.033,1.703-4.052,3.394-5.923,4.961l-0.24,0.201l-0.248-0.189c-3.498-2.665-6.948-5.293-10.167-7.745l-0.245-0.187
											l0.128-0.28c1.108-2.425,2.205-4.826,3.21-7.027l0.046,0.391c-1.798-2.309-3.23-4.846-4.242-7.287l0.312,0.229
											c-2.665-0.238-5.295-0.472-7.69-0.686l-0.292-0.026l-0.039-0.29c-0.591-4.397-1.168-8.688-1.703-12.667l-0.037-0.278
											l0.262-0.098c2.52-0.937,4.993-1.857,7.237-2.692l-0.218,0.275c0.367-2.926,1.158-5.721,2.165-8.139l0.051,0.333
											c-1.73-2.073-3.418-4.095-4.95-5.931l-0.159-0.191l0.15-0.196c2.724-3.562,5.318-6.955,7.763-10.152l0.137-0.178
											l0.203,0.093c2.464,1.132,4.832,2.219,7.021,3.224l-0.266,0.031c2.352-1.818,4.832-3.202,7.269-4.206l-0.141,0.193
											c0.255-2.77,0.493-5.359,0.708-7.689l0.015-0.16l0.157-0.02c5.162-0.67,9.429-1.224,12.674-1.645l0.101-0.013l0.034,0.094
											c0.844,2.338,1.493,4.138,1.944,5.388c0.209,0.596,0.37,1.055,0.49,1.398C212.169,61.992,212.221,62.157,212.214,62.165z"
											/>
									</g>
								</g>
							</g>
						</g>
					</g>
				</g>
			</g>
		</g>
		<g>
			<g>
				<g>
					<g>
						<g>
							<g>
								<path style="fill-rule:evenodd;clip-rule:evenodd;fill:#E0E0E0;" d="M151.031,136.029c3.959,0.497,7.785,1.521,11.389,3.008
									l8.371-7.016l14.38,10.945l-4.531,9.938c2.394,3.078,4.402,6.492,5.936,10.178l10.877,0.958l2.428,17.907l-10.226,3.823
									c-0.495,3.961-1.521,7.786-3.01,11.391l7.016,8.372l-10.943,14.379l-9.939-4.53c-3.078,2.394-6.492,4.399-10.179,5.933
									l-0.957,10.876l-17.909,2.431l-3.822-10.228c-3.961-0.495-7.785-1.521-11.39-3.009l-8.373,7.016l-14.38-10.945l4.532-9.939
									c-2.394-3.078-4.399-6.492-5.935-10.177l-10.875-0.959l-2.43-17.908l10.227-3.821c0.495-3.961,1.52-7.787,3.009-11.392
									l-7.016-8.372l10.943-14.379l9.94,4.531c3.078-2.394,6.492-4.4,10.178-5.934l0.958-10.875l17.906-2.429L151.031,136.029
									L151.031,136.029z M143.678,160.892c-10.608,1.439-18.044,11.206-16.604,21.816c1.439,10.609,11.208,18.042,21.816,16.604
									c10.61-1.44,18.043-11.207,16.604-21.816C164.054,166.886,154.288,159.452,143.678,160.892z"/>
							</g>
						</g>
					</g>
				</g>
			</g>
		</g>
	</g>
</g>
<g id="Background_Simple" style="display:none;">
	<g style="display:inline;">
		<path style="fill:#EBEBEB;" d="M555.008,317.829c-58.492,35.82-136.926,44.092-211.135,30.313
			c-52.973-9.836-105.961-31.291-144.4-67.364s-59.954-88.117-46.695-132.594c5.008-16.8,15.487-32.74,32.789-40.296
			c27.627-12.064,62.751,0.073,93.092,12.151c30.341,12.077,65.414,24.283,93.113,12.332c21.283-9.182,31.599-30.063,46.854-45.883
			c25.938-26.899,69.249-39.421,111.041-32.103c41.791,7.318,72.871,16.417,99.817,69.026
			C661.503,185.924,613.5,282.009,555.008,317.829z"/>
	</g>
</g>
<g id="Floor">
	<g>
		<g>
			<path style="fill:#263238;" d="M714,428.963c0,0.144-151.788,0.26-338.984,0.26c-187.261,0-339.016-0.117-339.016-0.26
				s151.755-0.26,339.016-0.26C562.212,428.703,714,428.819,714,428.963z"/>
		</g>
	</g>
</g>
<g id="Device">
	<g>
		<g>
			<g>
				<g>
					<g>
						<g>
							<g>
								<g>
									<g>
										<path style="fill:#455A64;" d="M592.104,422.408H183.929c-8.045,0-14.567-6.522-14.567-14.567V147.787
											c0-8.045,6.522-14.567,14.567-14.567h408.175c8.045,0,14.567,6.522,14.567,14.567v260.054
											C606.672,415.886,600.15,422.408,592.104,422.408z"/>
									</g>
								</g>
							</g>
						</g>
						<g>
							<g>
								<g>
									<g>
										<path style="fill:#455A64;" d="M608.265,429.035H170.068c-9.829,0-17.798-7.968-17.798-17.798v-7.506h473.792v7.506
											C626.063,421.067,618.095,429.035,608.265,429.035z"/>
									</g>
								</g>
							</g>
						</g>
						<g>
							<g>
								<g>
									<g>
										<rect x="181.1" y="144.709" style="fill:#263238;" width="412.61" height="244.216"/>
									</g>
								</g>
							</g>
						</g>
						<g>
							<g>
								<g>
									<g>
										<polygon style="fill:#263238;" points="344.907,401.02 350.786,410.371 433.516,410.371 438.976,401.02 										"/>
									</g>
								</g>
							</g>
						</g>
					</g>
					<g>
						<g>
							<g>
								<g>
									<g>
										<g>
											<g>
												<g>
													<path style="fill:#EBEBEB;" d="M582.788,388.143H192.872c-1.808,0-3.273-1.466-3.273-3.273v-228.62
														c0-1.808,1.465-3.273,3.273-3.273h389.916c1.807,0,3.272,1.465,3.272,3.273v228.622
														C586.06,386.678,584.595,388.143,582.788,388.143z"/>
												</g>
											</g>
										</g>
									</g>
								</g>
								<g>
									<g>
										<g>
											<g>
												<g>
													<polygon style="fill:#FAFAFA;" points="585.636,388.487 189.175,388.487 189.599,170.551 585.636,170.551 
																											"/>
												</g>
											</g>
										</g>
									</g>
								</g>
								<g>
									<g>
										<g>
											<g>
												<g>
													<path style="fill:#263238;" d="M222.115,162.059c0,1.749-1.418,3.166-3.166,3.166c-1.749,0-3.166-1.418-3.166-3.166
														c0-1.749,1.417-3.166,3.166-3.166C220.697,158.893,222.115,160.31,222.115,162.059z"/>
												</g>
											</g>
										</g>
									</g>
								</g>
								<g>
									<g>
										<g>
											<g>
												<g>
													<path style="fill:#263238;" d="M202.925,162.059c0,1.749-1.417,3.166-3.167,3.166c-1.748,0-3.166-1.418-3.166-3.166
														c0-1.749,1.418-3.166,3.166-3.166C201.508,158.893,202.925,160.31,202.925,162.059z"/>
												</g>
											</g>
										</g>
									</g>
								</g>
								<g>
									<g>
										<g>
											<g>
												<g>
													<path style="fill:#263238;" d="M212.136,162.059c0,1.749-1.417,3.166-3.166,3.166c-1.749,0-3.166-1.418-3.166-3.166
														c0-1.749,1.418-3.166,3.166-3.166C210.719,158.893,212.136,160.31,212.136,162.059z"/>
												</g>
											</g>
										</g>
									</g>
								</g>
							</g>
						</g>
					</g>
					<g>
						<g>
							<g>
								<g>
									<path style="fill:#263238;" d="M602.914,401.019c0,0.157-97.062,0.283-216.765,0.283
										c-119.746,0-216.786-0.127-216.786-0.283c0-0.156,97.041-0.283,216.786-0.283
										C505.852,400.736,602.914,400.863,602.914,401.019z"/>
								</g>
							</g>
						</g>
					</g>
				</g>
			</g>
		</g>
		<g>
			<g>
				<g>
					<path style="fill:#EBEBEB;" d="M526.596,278.752H257.194c-6.592,0-11.936-5.344-11.936-11.935l0,0
						c0-6.592,5.344-11.936,11.936-11.936h269.402c6.592,0,11.936,5.344,11.936,11.936l0,0
						C538.531,273.409,533.188,278.752,526.596,278.752z"/>
				</g>
			</g>
			<g>
				<path style="fill:#E0E0E0;" d="M396.386,278.752h-14.438c-6.656,0-12.052-5.396-12.052-12.052v0
					c0-6.656,5.163-11.819,11.819-11.819l14.68,0.062c6.656,0,12.044,5.628,12.044,12.284l0,0
					C408.438,273.884,403.042,278.752,396.386,278.752z"/>
			</g>
			<g>
				<defs>
					<path id="SVGID_1_" d="M392.31,278.752H257.194c-6.592,0-11.936-5.344-11.936-11.935l0,0c0-6.592,5.344-11.936,11.936-11.936
						H392.31c4.721,0,8.549,3.827,8.549,8.549v6.773C400.859,274.925,397.032,278.752,392.31,278.752z"/>
				</defs>
				<clipPath id="SVGID_00000078724778334625874220000008324628596900293518_">
					<use xlink:href="#SVGID_1_"  style="overflow:visible;"/>
				</clipPath>
				<g style="clip-path:url(#SVGID_00000078724778334625874220000008324628596900293518_);">
					<g>
						<path style="fill:#E8505B;" d="M388.924,278.752h-131.73c-6.592,0-11.936-5.344-11.936-11.935l0,0
							c0-6.592,5.344-11.936,11.936-11.936h131.73c6.592,0,11.935,5.344,11.935,11.936l0,0
							C400.859,273.409,395.516,278.752,388.924,278.752z"/>
					</g>
				</g>
				<g style="opacity:0.2;clip-path:url(#SVGID_00000078724778334625874220000008324628596900293518_);">
					<polygon style="fill:#FFFFFF;" points="261.754,254.881 276.327,278.752 286.645,278.752 271.484,254.881 					"/>
				</g>
				<g style="opacity:0.2;clip-path:url(#SVGID_00000078724778334625874220000008324628596900293518_);">
					<polygon style="fill:#FFFFFF;" points="239.694,254.881 254.267,278.752 264.584,278.752 249.423,254.881 					"/>
				</g>
				<g style="opacity:0.2;clip-path:url(#SVGID_00000078724778334625874220000008324628596900293518_);">
					<polygon style="fill:#FFFFFF;" points="283.09,254.881 297.664,278.752 307.981,278.752 292.82,254.881 					"/>
				</g>
				<g style="opacity:0.2;clip-path:url(#SVGID_00000078724778334625874220000008324628596900293518_);">
					<polygon style="fill:#FFFFFF;" points="304.427,254.881 319,278.752 329.317,278.752 314.156,254.881 					"/>
				</g>
				<g style="opacity:0.2;clip-path:url(#SVGID_00000078724778334625874220000008324628596900293518_);">
					<polygon style="fill:#FFFFFF;" points="325.763,254.881 340.337,278.752 350.654,278.752 335.493,254.881 					"/>
				</g>
				<g style="opacity:0.2;clip-path:url(#SVGID_00000078724778334625874220000008324628596900293518_);">
					<polygon style="fill:#FFFFFF;" points="347.099,254.881 361.673,278.752 371.99,278.752 356.829,254.881 					"/>
				</g>
				<g style="opacity:0.2;clip-path:url(#SVGID_00000078724778334625874220000008324628596900293518_);">
					<polygon style="fill:#FFFFFF;" points="368.436,254.881 383.009,278.752 393.326,278.752 378.165,254.881 					"/>
				</g>
				<g style="opacity:0.2;clip-path:url(#SVGID_00000078724778334625874220000008324628596900293518_);">
					<polygon style="fill:#FFFFFF;" points="389.772,254.881 404.346,278.752 414.663,278.752 399.502,254.881 					"/>
				</g>
			</g>
		</g>
	</g>
	<g>
		<path style="fill:#E8505B;" d="M326.709,301.624c2.533,0,3.985,1.253,3.985,3.439c0,2.274-1.453,3.598-3.985,3.598h-2.317v3.036
			h-1.698v-10.073H326.709z M324.392,307.135h2.245c1.554,0,2.432-0.662,2.432-2.029c0-1.324-0.878-1.957-2.432-1.957h-2.245
			V307.135z"/>
		<path style="fill:#E8505B;" d="M332.643,311.697v-10.677h1.654v10.677H332.643z"/>
		<path style="fill:#E8505B;" d="M343.84,308.503h-5.784c0.259,1.18,1.165,1.913,2.374,1.913c0.834,0,1.597-0.316,2.158-0.892
			l0.878,0.935c-0.748,0.82-1.842,1.295-3.165,1.295c-2.36,0-3.914-1.569-3.914-3.871c0-2.316,1.597-3.884,3.871-3.899
			C342.948,303.983,344.041,305.74,343.84,308.503z M342.401,307.293c-0.057-1.237-0.878-1.986-2.13-1.986
			c-1.209,0-2.058,0.763-2.245,1.986H342.401z"/>
		<path style="fill:#E8505B;" d="M350.45,310.762c-0.547,0.676-1.425,1.007-2.533,1.007c-1.654,0-2.69-1.022-2.69-2.374
			c0-1.396,1.05-2.288,2.892-2.302h2.316v-0.23c0-0.964-0.619-1.541-1.827-1.541c-0.735,0-1.497,0.259-2.26,0.778l-0.676-1.152
			c1.065-0.633,1.842-0.964,3.296-0.964c1.971,0,3.079,1.008,3.093,2.691l0.014,5.022h-1.625V310.762z M350.435,309.005v-0.704
			h-2.072c-1.079,0-1.583,0.287-1.583,1.022c0,0.69,0.561,1.137,1.482,1.137C349.442,310.459,350.349,309.841,350.435,309.005z"/>
		<path style="fill:#E8505B;" d="M359.549,304.746l-0.605,1.223c-0.676-0.417-1.525-0.676-2.202-0.676
			c-0.648,0-1.122,0.216-1.122,0.763c0,1.41,4.073,0.647,4.058,3.425c0,1.568-1.396,2.273-2.935,2.273
			c-1.122,0-2.316-0.374-3.079-1.065l0.589-1.18c0.662,0.59,1.727,0.95,2.561,0.95c0.705,0,1.253-0.245,1.253-0.82
			c0-1.569-4.029-0.691-4.015-3.454c0-1.554,1.353-2.216,2.821-2.216C357.836,303.969,358.858,304.258,359.549,304.746z"/>
		<path style="fill:#E8505B;" d="M368.374,308.503h-5.786c0.26,1.18,1.166,1.913,2.375,1.913c0.834,0,1.597-0.316,2.158-0.892
			l0.878,0.935c-0.748,0.82-1.842,1.295-3.166,1.295c-2.36,0-3.913-1.569-3.913-3.871c0-2.316,1.597-3.884,3.871-3.899
			C367.481,303.983,368.574,305.74,368.374,308.503z M366.934,307.293c-0.057-1.237-0.878-1.986-2.129-1.986
			c-1.209,0-2.057,0.763-2.245,1.986H366.934z"/>
		<path style="fill:#E8505B;" d="M383.115,311.697l-2.388-7.857l-2.418,7.857h-1.755l-3.338-10.073h1.828l2.445,8.188l2.432-8.174
			l1.67-0.014l2.445,8.188l2.432-8.188h1.755l-3.367,10.073H383.115z"/>
		<path style="fill:#E8505B;" d="M393.512,310.762c-0.547,0.676-1.425,1.007-2.533,1.007c-1.654,0-2.69-1.022-2.69-2.374
			c0-1.396,1.05-2.288,2.892-2.302h2.316v-0.23c0-0.964-0.619-1.541-1.827-1.541c-0.735,0-1.497,0.259-2.26,0.778l-0.676-1.152
			c1.065-0.633,1.842-0.964,3.296-0.964c1.971,0,3.079,1.008,3.093,2.691l0.014,5.022h-1.625V310.762z M393.497,309.005v-0.704
			h-2.072c-1.079,0-1.583,0.287-1.583,1.022c0,0.69,0.561,1.137,1.482,1.137C392.505,310.459,393.412,309.841,393.497,309.005z"/>
		<path style="fill:#E8505B;" d="M399.432,301.854c0,0.575-0.417,0.992-0.964,0.992c-0.547,0-0.964-0.417-0.964-0.992
			c0-0.591,0.417-1.008,0.964-1.008C399.015,300.847,399.432,301.264,399.432,301.854z M397.647,311.697v-7.656h1.64v7.656H397.647z
			"/>
		<path style="fill:#E8505B;" d="M406.355,311.207c-0.605,0.36-1.238,0.561-1.885,0.561c-1.152,0-2.144-0.662-2.144-2.23v-3.972
			h-1.079v-1.237h1.079v-2.101h1.64v2.101h2.259v1.237h-2.259v3.67c0,0.791,0.302,1.036,0.82,1.036c0.346,0,0.705-0.115,1.151-0.33
			L406.355,311.207z"/>
		<path style="fill:#E8505B;" d="M415.31,301.019c-1.05,1.64-1.698,3.842-1.698,6.231c0,2.389,0.648,4.591,1.698,6.231h-1.496
			c-1.137-1.64-1.755-3.842-1.755-6.231c0-2.389,0.619-4.591,1.755-6.231H415.31z"/>
		<path style="fill:#E8505B;" d="M421.069,307.711v-2.389h1.583v2.389h1.468v1.511h-1.468v2.475h-1.583v-2.475h-4.806v-1.267
			l3.44-6.332h1.64l-3.267,6.087H421.069z"/>
		<path style="fill:#E8505B;" d="M427.449,303.149v2.172l1.381-0.014c2.188,0,3.597,1.295,3.597,3.065
			c0,2.043-1.467,3.381-3.727,3.381c-1.194,0-2.589-0.46-3.583-1.151l0.677-1.381c0.805,0.676,1.813,1.064,2.719,1.064
			c1.309,0,2.101-0.676,2.101-1.813c0-1.022-0.792-1.654-2.087-1.654c-0.605,0-1.972,0.058-2.648,0.129v-5.324h6.13l0.014,1.526
			H427.449z"/>
		<path style="fill:#E8505B;" d="M439.21,304.588c0,1.885-1.008,3.022-2.662,3.022c-1.656,0-2.662-1.137-2.662-3.022
			c0-1.871,1.006-2.993,2.662-2.993C438.203,301.595,439.21,302.717,439.21,304.588z M434.993,304.588
			c0,1.295,0.561,2.043,1.555,2.043c0.992,0,1.568-0.749,1.568-2.043c0-1.281-0.575-2.014-1.568-2.014
			C435.555,302.574,434.993,303.307,434.993,304.588z M443.196,301.624h1.583l-7.397,10.073h-1.597L443.196,301.624z
			 M446.793,308.718c0,1.885-1.008,3.008-2.662,3.008c-1.654,0-2.662-1.122-2.662-3.008c0-1.871,1.008-2.994,2.662-2.994
			C445.786,305.724,446.793,306.847,446.793,308.718z M442.578,308.718c0,1.295,0.561,2.028,1.554,2.028s1.569-0.734,1.569-2.028
			c0-1.281-0.577-2.029-1.569-2.029S442.578,307.438,442.578,308.718z"/>
		<path style="fill:#E8505B;" d="M450.845,301.019c1.136,1.64,1.755,3.842,1.755,6.231c0,2.389-0.619,4.591-1.755,6.231h-1.497
			c1.051-1.64,1.699-3.842,1.699-6.231c0-2.389-0.648-4.591-1.699-6.231H450.845z"/>
	</g>
	<g>
		<path d="M343.715,226.639h1.675v10.269h6.35v1.458h-8.025V226.639z"/>
		<path d="M352.494,232.502c0-3.435,2.647-5.998,6.25-5.998c3.568,0,6.216,2.547,6.216,5.998c0,3.452-2.647,5.998-6.216,5.998
			C355.141,238.5,352.494,235.937,352.494,232.502z M363.284,232.502c0-2.597-1.943-4.507-4.54-4.507
			c-2.631,0-4.574,1.91-4.574,4.507c0,2.598,1.943,4.507,4.574,4.507C361.34,237.009,363.284,235.1,363.284,232.502z"/>
		<path d="M374.827,235.435h-6.232l-1.29,2.932h-1.726l5.311-11.727h1.659l5.328,11.727h-1.759L374.827,235.435z M374.241,234.094
			l-2.53-5.746l-2.53,5.746H374.241z"/>
		<path d="M379.619,226.639h4.942c3.77,0,6.333,2.379,6.333,5.863c0,3.485-2.564,5.864-6.333,5.864h-4.942V226.639z
			 M384.461,236.908c2.898,0,4.758-1.775,4.758-4.406c0-2.63-1.859-4.406-4.758-4.406h-3.167v8.813H384.461z"/>
		<path d="M393.458,226.639h1.676v11.727h-1.676V226.639z"/>
		<path d="M408.737,226.639v11.727h-1.373l-7.037-8.746v8.746h-1.676v-11.727h1.374l7.037,8.745v-8.745H408.737z"/>
		<path d="M420.38,232.436h1.608v4.573c-1.173,0.989-2.798,1.491-4.439,1.491c-3.603,0-6.249-2.529-6.249-5.998
			c0-3.468,2.647-5.998,6.282-5.998c1.859,0,3.434,0.62,4.507,1.81l-1.039,1.039c-0.972-0.939-2.077-1.357-3.4-1.357
			c-2.715,0-4.675,1.894-4.675,4.507c0,2.58,1.96,4.507,4.658,4.507c0.988,0,1.909-0.218,2.747-0.754V232.436z"/>
		<path d="M424.368,237.311c0-0.67,0.52-1.139,1.14-1.139c0.603,0,1.105,0.469,1.105,1.139c0,0.67-0.503,1.156-1.105,1.156
			C424.887,238.467,424.368,237.981,424.368,237.311z"/>
		<path d="M428.171,237.311c0-0.67,0.52-1.139,1.14-1.139c0.603,0,1.105,0.469,1.105,1.139c0,0.67-0.503,1.156-1.105,1.156
			C428.69,238.467,428.171,237.981,428.171,237.311z"/>
		<path d="M431.974,237.311c0-0.67,0.52-1.139,1.14-1.139c0.603,0,1.105,0.469,1.105,1.139c0,0.67-0.503,1.156-1.105,1.156
			C432.494,238.467,431.974,237.981,431.974,237.311z"/>
	</g>
</g>
<g id="Character">
	<g>
		<g>
			<g>
				<polygon style="fill:#B78876;" points="306.038,428.526 343.604,428.126 340.632,414.692 307.061,412.197 				"/>
			</g>
			<g>
				<g>
					<g>
						<path style="fill:#E8505B;" d="M324.999,411.746l17.397,1.143c0,0,7.005-17.3,10.241-17.402l-1.005,33.812l-27.181-0.669
							L324.999,411.746z"/>
					</g>
					<g>
						<g>
							<path style="fill:#E0E0E0;" d="M340.62,423.301c0.159,0.66,0.882,1.134,1.547,1.001c0.666-0.132,1.154-0.863,1.006-1.525
								c-0.148-0.662-0.998-1.258-1.644-1.052c-0.647,0.206-1.173,1.095-0.871,1.702"/>
						</g>
					</g>
					<g>
						<path style="fill:#E0E0E0;" d="M351.632,429.3l-2.737-0.174l1.987-32.354c0,0,0.7-1.486,1.755-1.284L351.632,429.3z"/>
					</g>
					<g>
						<g>
							<path style="fill:#263238;" d="M342.24,412.336c0.165,0.01,0.215,0.838,0.722,1.666c0.485,0.842,1.188,1.281,1.118,1.431
								c-0.037,0.151-1.016-0.124-1.612-1.138C341.863,413.288,342.09,412.296,342.24,412.336z"/>
						</g>
					</g>
					<g>
						<g>
							<path style="fill:#263238;" d="M343.813,408.833c0.161-0.033,0.421,0.69,1.102,1.272c0.664,0.602,1.415,0.765,1.403,0.93
								c0.021,0.156-0.949,0.241-1.783-0.498C343.695,409.805,343.655,408.832,343.813,408.833z"/>
						</g>
					</g>
					<g>
						<g>
							<path style="fill:#263238;" d="M348.117,406.945c0.031,0.151-0.801,0.356-1.693-0.095c-0.895-0.445-1.229-1.234-1.089-1.299
								c0.139-0.089,0.609,0.427,1.347,0.785C347.411,406.712,348.106,406.78,348.117,406.945z"/>
						</g>
					</g>
					<g>
						<g>
							<path style="fill:#263238;" d="M338.247,412.515c0.148,0.074-0.102,0.824-0.066,1.76c0.017,0.936,0.308,1.671,0.164,1.753
								c-0.122,0.092-0.712-0.635-0.739-1.737C337.571,413.189,338.119,412.43,338.247,412.515z"/>
						</g>
					</g>
				</g>
				<g>
					<g>
						<path style="fill:#263238;" d="M334.732,412.349c0.069,0,0.151,0.656-0.059,1.693c-0.105,0.516-0.293,1.122-0.597,1.755
							c-0.152,0.316-0.333,0.639-0.545,0.957c-0.105,0.153-0.211,0.335-0.413,0.5c-0.178,0.178-0.619,0.269-0.881,0.05
							c-0.255-0.181-0.358-0.491-0.356-0.735c-0.001-0.249,0.056-0.45,0.107-0.632c0.103-0.374,0.238-0.723,0.393-1.042
							c0.313-0.637,0.7-1.151,1.071-1.531c0.75-0.763,1.375-1.012,1.405-0.955c0.052,0.076-0.476,0.443-1.099,1.223
							c-0.31,0.389-0.634,0.889-0.896,1.485c-0.129,0.299-0.243,0.621-0.329,0.963c-0.105,0.355-0.116,0.66,0.04,0.757
							c0.06,0.035,0.084,0.04,0.191-0.032c0.099-0.075,0.198-0.217,0.302-0.367c0.204-0.293,0.383-0.589,0.538-0.879
							c0.31-0.581,0.527-1.139,0.676-1.618C334.579,412.98,334.643,412.344,334.732,412.349z"/>
					</g>
				</g>
				<g>
					<g>
						<path style="fill:#263238;" d="M334.963,412.572c0.024,0.059-0.578,0.369-1.649,0.398c-0.531,0.012-1.172-0.062-1.847-0.286
							c-0.336-0.114-0.68-0.266-1.015-0.462c-0.328-0.208-0.768-0.463-0.823-1.105c-0.003-0.335,0.267-0.605,0.493-0.693
							c0.232-0.105,0.429-0.121,0.626-0.155c0.397-0.051,0.784-0.032,1.141,0.033c0.717,0.128,1.307,0.44,1.728,0.775
							c0.857,0.687,1.033,1.382,0.977,1.394c-0.085,0.053-0.386-0.532-1.213-1.063c-0.408-0.262-0.948-0.5-1.575-0.583
							c-0.312-0.042-0.644-0.047-0.979,0.002c-0.361,0.042-0.655,0.168-0.622,0.304c-0.008,0.168,0.254,0.462,0.537,0.609
							c0.298,0.183,0.604,0.33,0.905,0.447c0.605,0.23,1.187,0.34,1.68,0.378C334.317,412.639,334.94,412.481,334.963,412.572z"/>
					</g>
				</g>
			</g>
		</g>
		<g>
			<g>
				<path style="fill:#B78876;" d="M72.517,417.963l-2.872,11l-32.191-0.295c0,0,4.401-3.326,20.577-3.085l1.569-7.621H72.517z"/>
			</g>
		</g>
		<g>
			<g>
				<g>
					<path style="fill:#263238;" d="M105.481,269.029c-0.894-1.839-1.793-3.692-2.309-5.671c-0.516-1.978-0.628-4.114,0.049-6.043
						c0.677-1.929,2.231-3.613,4.214-4.11c1.225-0.307,2.556-0.166,3.717-0.662c1.343-0.574,2.196-1.878,3.211-2.929
						c1.585-1.642,3.716-2.747,5.971-3.097c1.184-0.184,2.434-0.157,3.529,0.328c1.095,0.485,2.007,1.488,2.155,2.677
						c1.372-0.539,2.764-1.083,4.229-1.248c1.465-0.165,3.037,0.091,4.188,1.012c1.151,0.921,1.752,2.597,1.157,3.945
						c1.167-0.756,2.883-0.301,3.68,0.838c0.797,1.139,0.713,2.761-0.033,3.935c-0.746,1.174-2.562,2.278-3.929,2.536
						c-1.367,0.257-2.96,0.472-4.299,0.096"/>
				</g>
			</g>
			<g>
				<g>
					<g>
						<g>
							<g>
								<g>
									<g>
										<g>
											<g>
												<g>
													<g>
														<path style="fill:#B78876;" d="M121.394,312.42L121.394,312.42c5.773-0.714,9.89-5.952,9.215-11.729
															c-0.377-3.227-0.713-5.924-0.713-5.924s8.144-1.693,7.828-9.905c-0.315-8.212-2.695-26.985-2.695-26.985l0,0
															c-9.708-3.6-20.603-1.665-28.477,5.058l-1.169,0.998l4.186,39.108C110.199,308.921,115.525,313.146,121.394,312.42z"
															/>
													</g>
												</g>
											</g>
										</g>
									</g>
								</g>
								<g>
									<g>
										<g>
											<g>
												<g>
													<g>
														<path style="fill:#AA6550;" d="M129.904,294.647c0,0-5.165,0.685-10.854-2.497c0,0,2.829,5.778,10.981,4.623
															L129.904,294.647z"/>
													</g>
												</g>
											</g>
										</g>
									</g>
								</g>
							</g>
						</g>
					</g>
					<g>
						<g>
							<g>
								<g>
									<g>
										<g>
											<g>
												<path style="fill:#B78876;" d="M106.827,272.382c-0.143-0.053-5.724-1.382-5.259,4.22
													c0.464,5.602,5.992,3.98,5.989,3.819C107.552,280.259,106.827,272.382,106.827,272.382z"/>
											</g>
										</g>
									</g>
								</g>
							</g>
						</g>
						<g>
							<g>
								<g>
									<g>
										<g>
											<g>
												<g>
													<path style="fill:#AA6550;" d="M105.669,278.44c-0.026-0.016-0.092,0.076-0.251,0.166
														c-0.155,0.087-0.427,0.161-0.728,0.075c-0.61-0.168-1.186-1.066-1.297-2.074c-0.057-0.509,0.01-1.003,0.157-1.42
														c0.137-0.424,0.378-0.732,0.672-0.81c0.291-0.093,0.517,0.068,0.598,0.22c0.088,0.15,0.062,0.265,0.092,0.272
														c0.017,0.013,0.112-0.104,0.048-0.331c-0.033-0.109-0.109-0.236-0.25-0.333c-0.144-0.098-0.346-0.138-0.551-0.098
														c-0.429,0.066-0.785,0.495-0.947,0.953c-0.186,0.462-0.272,1.018-0.209,1.589c0.129,1.126,0.795,2.134,1.624,2.301
														c0.403,0.07,0.722-0.076,0.88-0.222C105.67,278.577,105.689,278.449,105.669,278.44z"/>
												</g>
											</g>
										</g>
									</g>
								</g>
							</g>
						</g>
					</g>
					<g>
						<g>
							<g>
								<g>
									<g>
										<g>
											<g>
												<g>
													<g>
														<g>
															<g>
																<g>
																	<path style="fill:#263238;" d="M133.14,271.417c0.053,0.618-0.426,1.172-1.07,1.24
																		c-0.643,0.067-1.208-0.378-1.262-0.995c-0.053-0.618,0.426-1.173,1.069-1.241
																		C132.522,270.353,133.087,270.799,133.14,271.417z"/>
																</g>
															</g>
														</g>
													</g>
												</g>
											</g>
											<g>
												<g>
													<g>
														<g>
															<g>
																<g>
																	<g>
																		<path style="fill:#263238;" d="M134.063,269.5c-0.138,0.16-1.059-0.452-2.32-0.384
																			c-1.26,0.049-2.153,0.745-2.298,0.598c-0.071-0.065,0.063-0.348,0.451-0.662c0.382-0.312,1.044-0.631,1.83-0.667
																			c0.786-0.036,1.461,0.22,1.856,0.497C133.986,269.159,134.131,269.429,134.063,269.5z"/>
																	</g>
																</g>
															</g>
														</g>
													</g>
												</g>
											</g>
										</g>
										<g>
											<g>
												<g>
													<g>
														<g>
															<g>
																<g>
																	<path style="fill:#263238;" d="M121.128,272.015c0.053,0.618-0.426,1.172-1.07,1.24
																		c-0.643,0.067-1.208-0.378-1.262-0.995c-0.053-0.618,0.426-1.173,1.069-1.241
																		C120.509,270.952,121.075,271.398,121.128,272.015z"/>
																</g>
															</g>
														</g>
													</g>
												</g>
											</g>
											<g>
												<g>
													<g>
														<g>
															<g>
																<g>
																	<g>
																		<path style="fill:#263238;" d="M121.678,270.365c-0.138,0.16-1.06-0.452-2.32-0.384
																			c-1.26,0.049-2.153,0.745-2.298,0.598c-0.07-0.065,0.062-0.348,0.452-0.662c0.382-0.313,1.044-0.631,1.83-0.668
																			c0.786-0.036,1.461,0.22,1.856,0.497C121.6,270.024,121.745,270.293,121.678,270.365z"/>
																	</g>
																</g>
															</g>
														</g>
													</g>
												</g>
											</g>
										</g>
										<g>
											<g>
												<g>
													<g>
														<g>
															<g>
																<g>
																	<path style="fill:#263238;" d="M126.73,279.486c-0.01-0.071,0.768-0.246,2.03-0.474
																		c0.32-0.05,0.622-0.129,0.665-0.352c0.064-0.237-0.088-0.577-0.264-0.944c-0.342-0.764-0.701-1.565-1.077-2.404
																		c-1.5-3.424-2.603-6.247-2.465-6.306c0.138-0.059,1.466,2.668,2.966,6.093c0.362,0.845,0.708,1.65,1.038,2.421
																		c0.14,0.36,0.371,0.764,0.231,1.255c-0.074,0.245-0.302,0.432-0.506,0.498c-0.203,0.073-0.384,0.086-0.543,0.104
																		C127.531,279.511,126.738,279.557,126.73,279.486z"/>
																</g>
															</g>
														</g>
													</g>
												</g>
											</g>
										</g>
										<g>
											<g>
												<g>
													<g>
														<g>
															<g>
																<g>
																	<path style="fill:#263238;" d="M123.063,280.547c0.205-0.022,0.277,1.346,1.498,2.259
																		c1.219,0.915,2.671,0.688,2.691,0.878c0.024,0.085-0.312,0.283-0.926,0.33c-0.603,0.052-1.495-0.098-2.242-0.656
																		c-0.745-0.56-1.093-1.339-1.168-1.898C122.833,280.891,122.968,280.544,123.063,280.547z"/>
																</g>
															</g>
														</g>
													</g>
												</g>
											</g>
										</g>
									</g>
								</g>
							</g>
							<g>
								<g>
									<g>
										<g>
											<g>
												<g>
													<path style="fill:#263238;" d="M133.486,267.305c-0.207,0.298-1.091,0.045-2.137,0.084
														c-1.047,0.002-1.919,0.29-2.138,0.001c-0.097-0.141,0.028-0.435,0.401-0.726c0.367-0.29,0.993-0.543,1.712-0.558
														c0.719-0.014,1.354,0.214,1.733,0.489C133.441,266.871,133.577,267.16,133.486,267.305z"/>
												</g>
											</g>
										</g>
									</g>
								</g>
							</g>
						</g>
					</g>
				</g>
			</g>
			<g>
				<g>
					<g>
						<path style="fill:#263238;" d="M119.806,265.89c-0.134,0.161-0.46,0.116-0.884,0.054c-0.426-0.065-0.966-0.136-1.568-0.129
							c-0.602,0.014-1.139,0.104-1.562,0.185c-0.421,0.076-0.746,0.134-0.885-0.023c-0.131-0.143-0.028-0.51,0.393-0.893
							c0.413-0.381,1.161-0.723,2.028-0.738c0.866-0.015,1.626,0.299,2.053,0.665C119.815,265.379,119.932,265.742,119.806,265.89z"
							/>
					</g>
				</g>
			</g>
			<g>
				<g>
					<path style="fill:#263238;" d="M135.565,260.376c0,0-5.399,2.126-12.003,0c-4.333-1.396-9.176-1.661-10.088-0.694
						c-0.911,0.967-0.497,5.15-4.301,6.969c0,0,1.482,7.874-1.718,8.073c-3.199,0.199-3.097-12.362-3.097-12.362l7.146-4.949
						l8.183-2.877l7.894-1.204l7.683,1.136L135.565,260.376z"/>
				</g>
			</g>
		</g>
		<g>
			<g>
				<path style="fill:#E8505B;" d="M147.622,311.532l24.638,23.056l38.948-26.619l12.178,14.022l-37.452,29.989
					c-3.759,3.353-8.562,5.303-13.594,5.52l0,0c-6.899,0.297-13.531-2.688-17.884-8.048l-13.2-11.141L147.622,311.532z"/>
			</g>
			<g>
				<path style="fill:#E8505B;" d="M124.734,301.621l22.888,9.911l-0.766,6.34l10.65,42.235l11.587,8.456l-9.595,14.085
					c-2.155,3.163-4.976,5.816-8.266,7.773L128.397,404c-4.446,1.634-9.396-0.469-11.306-4.803L96.9,353.388l-20.289,62.93
					c-1.313,4.073-5.374,6.604-9.609,5.989l-8.037-1.167c-2.733-0.397-4.518-3.077-3.83-5.752l22.686-88.215
					c1.213-4.648,3.173-8.972,5.764-12.878c4.909-7.4,13.182-11.875,22.058-12.129L124.734,301.621z"/>
			</g>
			<g>
				<path style="fill:#E8505B;" d="M132.753,302.281l-0.85-4.591l-24.263-1.632l-0.017,6.104c0.165,1.732,2.992,1.218,5.639,2.308
					l11.877,2.369C128.058,307.069,134.243,305.978,132.753,302.281z"/>
			</g>
			<g>
				<g>
					<path style="fill:#263238;" d="M157.75,360.313c-0.034,0.011-0.256-0.562-0.626-1.608c-0.373-1.046-0.883-2.569-1.489-4.459
						c-1.212-3.78-2.771-9.041-4.279-14.909c-1.505-5.871-2.673-11.232-3.431-15.129c-0.38-1.948-0.666-3.529-0.843-4.625
						c-0.179-1.096-0.261-1.704-0.226-1.711c0.035-0.007,0.185,0.589,0.425,1.672c0.256,1.169,0.594,2.716,1.004,4.588
						c0.85,3.873,2.072,9.213,3.575,15.074c1.505,5.858,3.006,11.126,4.126,14.93c0.543,1.839,0.991,3.358,1.33,4.505
						C157.628,359.707,157.784,360.301,157.75,360.313z"/>
				</g>
			</g>
			<g>
				<g>
					<path style="fill:#263238;" d="M104.229,332.52c0.067,0.025-0.314,1.226-0.97,3.151c-0.719,2.063-1.619,4.646-2.615,7.502
						c-0.999,2.855-1.902,5.436-2.624,7.497c-0.667,1.92-1.08,3.108-1.152,3.087c-0.065-0.019,0.224-1.247,0.802-3.2
						c0.58-1.952,1.451-4.627,2.483-7.557c1.03-2.929,2.015-5.562,2.761-7.456C103.659,333.65,104.162,332.494,104.229,332.52z"/>
				</g>
			</g>
			<g style="opacity:0.2;">
				<g>
					<path d="M96.824,353.495c1.942,4.419,3.883,8.838,5.825,13.258c0.314,0.715,0.638,1.445,1.176,2.012
						c0.537,0.567,1.339,0.947,2.101,0.775c1.439-0.325,1.803-2.179,1.855-3.654c0.341-9.67-0.012-19.567-3.367-28.643
						c-0.243-0.659-0.699-1.438-1.396-1.354c-0.627,0.075-0.922,0.797-1.091,1.405c-1.579,5.674-3.159,11.348-4.739,17.022"/>
				</g>
			</g>
			<g style="opacity:0.2;">
				<g>
					<path d="M159.775,354.401c0.801-0.427,1.194-1.395,1.182-2.303c-0.012-0.908-0.358-1.774-0.716-2.608
						c-2.645-6.168-6.22-11.936-10.567-17.049l4.782,17.011L159.775,354.401z"/>
				</g>
			</g>
			<g>
				<g>
					<g>
						<path style="fill:#E0E0E0;" d="M84.072,346.783c-0.057-0.003,0.182-5.783,0.535-12.909c0.353-7.128,0.686-12.903,0.743-12.9
							c0.057,0.003-0.182,5.782-0.535,12.91C84.462,341.01,84.129,346.786,84.072,346.783z"/>
					</g>
				</g>
				<g>
					<g>
						<path style="fill:#E0E0E0;" d="M88.574,326.736c0.014-0.001,0.032,0.169,0.052,0.478c0.024,0.309,0.026,0.757-0.001,1.31
							c-0.051,1.105-0.286,2.634-0.853,4.232c-0.573,1.597-1.359,2.929-2.019,3.817c-0.329,0.445-0.615,0.791-0.828,1.015
							c-0.211,0.227-0.332,0.347-0.342,0.337c-0.029-0.025,0.429-0.533,1.051-1.437c0.623-0.902,1.378-2.226,1.943-3.802
							c0.56-1.577,0.814-3.08,0.903-4.172C88.568,327.42,88.535,326.737,88.574,326.736z"/>
					</g>
				</g>
				<g>
					<g>
						<path style="fill:#E0E0E0;" d="M80.392,327.542c0.036-0.003,0.085,0.596,0.27,1.543c0.183,0.947,0.535,2.238,1.137,3.58
							c0.605,1.341,1.338,2.462,1.924,3.227c0.586,0.767,1.001,1.201,0.975,1.226c-0.01,0.01-0.122-0.09-0.317-0.28
							c-0.197-0.188-0.463-0.479-0.773-0.854c-0.622-0.749-1.385-1.873-1.999-3.233c-0.61-1.361-0.944-2.678-1.092-3.64
							c-0.075-0.481-0.116-0.874-0.126-1.146C80.378,327.693,80.378,327.543,80.392,327.542z"/>
					</g>
				</g>
				<g>
					<g>
						<path style="fill:#E0E0E0;" d="M87.536,323.321c0.014,0,0.023,0.134,0.026,0.375c0.005,0.242-0.007,0.591-0.04,1.022
							c-0.065,0.862-0.248,2.049-0.624,3.317c-0.379,1.267-0.877,2.361-1.294,3.118c-0.208,0.379-0.389,0.678-0.526,0.878
							c-0.135,0.2-0.215,0.307-0.227,0.3c-0.029-0.018,0.243-0.476,0.622-1.245c0.38-0.768,0.85-1.857,1.225-3.109
							c0.372-1.253,0.575-2.421,0.677-3.272C87.479,323.852,87.503,323.32,87.536,323.321z"/>
					</g>
				</g>
				<g>
					<g>
						<path style="fill:#E0E0E0;" d="M82.257,324.01c0.036,0.003-0.01,0.613,0.013,1.596c0.022,0.983,0.142,2.34,0.481,3.801
							c0.343,1.46,0.836,2.731,1.251,3.622c0.414,0.892,0.725,1.419,0.695,1.437c-0.012,0.007-0.101-0.118-0.25-0.351
							c-0.152-0.232-0.351-0.581-0.577-1.022c-0.453-0.882-0.975-2.161-1.322-3.639c-0.343-1.478-0.442-2.856-0.426-3.847
							c0.007-0.496,0.031-0.897,0.065-1.172C82.219,324.16,82.243,324.009,82.257,324.01z"/>
					</g>
				</g>
				<g>
					<g>
						<path style="fill:#E0E0E0;" d="M83.935,322.112c0.033,0.012-0.093,0.356-0.164,0.933c-0.075,0.576-0.061,1.386,0.124,2.256
							c0.4,1.734,1.04,3.066,0.956,3.096c-0.026,0.01-0.193-0.314-0.43-0.856c-0.233-0.541-0.541-1.306-0.73-2.197
							c-0.19-0.892-0.181-1.734-0.065-2.321C83.737,322.433,83.915,322.102,83.935,322.112z"/>
					</g>
				</g>
				<g>
					<g>
						<path style="fill:#E0E0E0;" d="M80.849,335.217c0.057-0.03,0.638,1.09,1.604,2.295c0.958,1.212,1.918,2.03,1.876,2.079
							c-0.017,0.02-0.279-0.158-0.664-0.496c-0.385-0.337-0.887-0.84-1.375-1.453c-0.487-0.613-0.865-1.215-1.106-1.666
							C80.941,335.525,80.826,335.229,80.849,335.217z"/>
					</g>
				</g>
				<g>
					<g>
						<path style="fill:#E0E0E0;" d="M88.671,336.546c0.022,0.016-0.165,0.321-0.511,0.785c-0.345,0.464-0.855,1.081-1.469,1.716
							c-0.615,0.634-1.215,1.164-1.667,1.524c-0.452,0.361-0.751,0.558-0.768,0.536c-0.019-0.024,0.247-0.261,0.672-0.648
							c0.425-0.387,1.004-0.928,1.613-1.557c0.608-0.629,1.131-1.225,1.503-1.663C88.418,336.802,88.646,336.528,88.671,336.546z"/>
					</g>
				</g>
			</g>
			<g>
				<g>
					<g>
						<path style="fill:#E0E0E0;" d="M67.09,411.43c-0.057-0.003,0.182-5.783,0.535-12.909c0.353-7.128,0.686-12.903,0.743-12.9
							c0.057,0.003-0.182,5.782-0.535,12.91C67.48,405.657,67.147,411.433,67.09,411.43z"/>
					</g>
				</g>
				<g>
					<g>
						<path style="fill:#E0E0E0;" d="M71.592,391.382c0.014-0.001,0.032,0.169,0.052,0.478c0.024,0.309,0.026,0.757-0.001,1.31
							c-0.051,1.105-0.286,2.634-0.853,4.232c-0.572,1.597-1.359,2.929-2.019,3.817c-0.329,0.445-0.614,0.791-0.828,1.015
							c-0.211,0.227-0.332,0.347-0.342,0.337c-0.029-0.026,0.429-0.533,1.051-1.437c0.623-0.902,1.378-2.226,1.943-3.802
							c0.56-1.577,0.814-3.08,0.902-4.172C71.586,392.066,71.553,391.384,71.592,391.382z"/>
					</g>
				</g>
				<g>
					<g>
						<path style="fill:#E0E0E0;" d="M63.41,392.189c0.036-0.003,0.085,0.596,0.27,1.543c0.183,0.947,0.535,2.238,1.137,3.58
							c0.605,1.341,1.338,2.462,1.924,3.227c0.586,0.767,1.001,1.2,0.975,1.226c-0.01,0.01-0.122-0.09-0.317-0.28
							c-0.197-0.188-0.463-0.479-0.773-0.854c-0.622-0.749-1.385-1.873-1.999-3.233c-0.61-1.361-0.944-2.678-1.092-3.64
							c-0.075-0.481-0.116-0.874-0.126-1.146C63.396,392.34,63.396,392.19,63.41,392.189z"/>
					</g>
				</g>
				<g>
					<g>
						<path style="fill:#E0E0E0;" d="M70.555,387.967c0.014,0,0.023,0.134,0.026,0.375c0.005,0.242-0.007,0.591-0.041,1.022
							c-0.065,0.861-0.248,2.049-0.624,3.317c-0.379,1.267-0.877,2.361-1.294,3.118c-0.208,0.379-0.389,0.678-0.526,0.878
							c-0.135,0.2-0.215,0.307-0.227,0.3c-0.029-0.018,0.243-0.476,0.622-1.245c0.38-0.768,0.85-1.857,1.225-3.109
							c0.372-1.253,0.575-2.421,0.677-3.272C70.497,388.499,70.521,387.966,70.555,387.967z"/>
					</g>
				</g>
				<g>
					<g>
						<path style="fill:#E0E0E0;" d="M65.275,388.656c0.036,0.003-0.01,0.613,0.013,1.596c0.022,0.983,0.142,2.34,0.481,3.801
							c0.343,1.46,0.836,2.731,1.251,3.622c0.414,0.892,0.725,1.419,0.695,1.437c-0.012,0.007-0.101-0.118-0.25-0.351
							c-0.152-0.232-0.351-0.581-0.577-1.022c-0.453-0.882-0.975-2.161-1.322-3.639c-0.343-1.478-0.442-2.856-0.426-3.847
							c0.007-0.496,0.031-0.897,0.065-1.172C65.237,388.806,65.261,388.655,65.275,388.656z"/>
					</g>
				</g>
				<g>
					<g>
						<path style="fill:#E0E0E0;" d="M66.953,386.758c0.033,0.012-0.093,0.356-0.164,0.934c-0.075,0.576-0.061,1.386,0.124,2.256
							c0.4,1.734,1.04,3.066,0.956,3.096c-0.026,0.011-0.193-0.314-0.43-0.855c-0.233-0.542-0.541-1.306-0.73-2.198
							c-0.19-0.892-0.181-1.734-0.065-2.321C66.755,387.079,66.933,386.749,66.953,386.758z"/>
					</g>
				</g>
				<g>
					<g>
						<path style="fill:#E0E0E0;" d="M63.868,399.864c0.057-0.03,0.638,1.09,1.604,2.295c0.958,1.212,1.918,2.03,1.876,2.079
							c-0.017,0.02-0.279-0.158-0.664-0.496c-0.385-0.337-0.887-0.841-1.375-1.453c-0.487-0.613-0.865-1.215-1.106-1.666
							C63.959,400.172,63.844,399.876,63.868,399.864z"/>
					</g>
				</g>
				<g>
					<g>
						<path style="fill:#E0E0E0;" d="M71.689,401.193c0.022,0.016-0.165,0.321-0.511,0.785c-0.345,0.464-0.855,1.081-1.469,1.716
							c-0.615,0.634-1.215,1.164-1.667,1.524c-0.452,0.361-0.751,0.558-0.768,0.536c-0.019-0.024,0.247-0.261,0.672-0.648
							c0.425-0.387,1.004-0.929,1.613-1.557c0.608-0.629,1.131-1.225,1.503-1.663C71.436,401.449,71.665,401.175,71.689,401.193z"/>
					</g>
				</g>
			</g>
			<g>
				<g>
					<g>
						<path style="fill:#E0E0E0;" d="M104.088,328.498c-0.058-0.003,0.182-5.783,0.535-12.909c0.353-7.128,0.686-12.903,0.743-12.9
							c0.057,0.003-0.182,5.782-0.535,12.91C104.479,322.725,104.146,328.501,104.088,328.498z"/>
					</g>
				</g>
				<g>
					<g>
						<path style="fill:#E0E0E0;" d="M108.59,308.451c0.014-0.001,0.032,0.169,0.052,0.478c0.024,0.309,0.026,0.757-0.001,1.31
							c-0.051,1.105-0.286,2.634-0.853,4.232c-0.573,1.597-1.359,2.929-2.019,3.817c-0.329,0.445-0.615,0.791-0.828,1.015
							c-0.211,0.227-0.332,0.347-0.342,0.337c-0.029-0.025,0.428-0.533,1.05-1.437c0.623-0.902,1.378-2.226,1.943-3.802
							c0.56-1.577,0.814-3.08,0.902-4.172C108.585,309.135,108.552,308.452,108.59,308.451z"/>
					</g>
				</g>
				<g>
					<g>
						<path style="fill:#E0E0E0;" d="M100.409,309.257c0.036-0.003,0.085,0.596,0.27,1.543c0.183,0.947,0.535,2.238,1.137,3.58
							c0.605,1.341,1.338,2.462,1.924,3.227c0.586,0.767,1.001,1.201,0.975,1.226c-0.01,0.01-0.122-0.09-0.317-0.28
							c-0.197-0.188-0.463-0.479-0.773-0.854c-0.622-0.749-1.385-1.873-1.999-3.233c-0.61-1.361-0.944-2.678-1.092-3.64
							c-0.075-0.481-0.116-0.874-0.126-1.146C100.395,309.408,100.394,309.258,100.409,309.257z"/>
					</g>
				</g>
				<g>
					<g>
						<path style="fill:#E0E0E0;" d="M107.553,305.036c0.014,0,0.023,0.134,0.026,0.375c0.005,0.242-0.007,0.591-0.041,1.022
							c-0.065,0.862-0.248,2.049-0.624,3.317c-0.379,1.267-0.877,2.361-1.294,3.118c-0.208,0.379-0.389,0.678-0.526,0.878
							c-0.135,0.2-0.215,0.307-0.227,0.3c-0.029-0.018,0.243-0.476,0.622-1.245c0.38-0.768,0.85-1.857,1.225-3.109
							c0.372-1.253,0.575-2.421,0.677-3.272C107.495,305.567,107.519,305.035,107.553,305.036z"/>
					</g>
				</g>
				<g>
					<g>
						<path style="fill:#E0E0E0;" d="M102.274,305.725c0.036,0.003-0.01,0.613,0.013,1.596c0.022,0.983,0.142,2.341,0.481,3.801
							c0.343,1.46,0.836,2.731,1.251,3.622c0.414,0.892,0.725,1.419,0.695,1.437c-0.012,0.007-0.101-0.118-0.25-0.351
							c-0.152-0.232-0.351-0.58-0.577-1.022c-0.453-0.882-0.975-2.161-1.322-3.639c-0.343-1.478-0.442-2.856-0.426-3.847
							c0.007-0.496,0.031-0.897,0.065-1.172C102.236,305.875,102.259,305.724,102.274,305.725z"/>
					</g>
				</g>
				<g>
					<g>
						<path style="fill:#E0E0E0;" d="M103.951,303.827c0.033,0.012-0.093,0.356-0.164,0.933c-0.075,0.576-0.061,1.386,0.124,2.256
							c0.4,1.734,1.04,3.066,0.956,3.096c-0.026,0.01-0.193-0.314-0.43-0.855c-0.233-0.542-0.541-1.306-0.73-2.198
							c-0.19-0.892-0.181-1.734-0.066-2.321C103.753,304.148,103.931,303.817,103.951,303.827z"/>
					</g>
				</g>
				<g>
					<g>
						<path style="fill:#E0E0E0;" d="M100.866,316.932c0.057-0.03,0.638,1.09,1.604,2.295c0.958,1.212,1.918,2.03,1.876,2.079
							c-0.017,0.02-0.279-0.158-0.664-0.496c-0.385-0.337-0.887-0.84-1.375-1.453c-0.487-0.613-0.865-1.215-1.106-1.666
							C100.957,317.24,100.842,316.944,100.866,316.932z"/>
					</g>
				</g>
				<g>
					<g>
						<path style="fill:#E0E0E0;" d="M108.688,318.261c0.022,0.016-0.165,0.321-0.511,0.785c-0.345,0.464-0.855,1.081-1.469,1.716
							c-0.615,0.634-1.215,1.164-1.667,1.524c-0.452,0.361-0.751,0.558-0.768,0.536c-0.019-0.024,0.247-0.261,0.672-0.648
							c0.425-0.387,1.004-0.929,1.613-1.557c0.608-0.629,1.131-1.225,1.503-1.663C108.434,318.517,108.663,318.243,108.688,318.261z
							"/>
					</g>
				</g>
			</g>
			<g>
				<g>
					<g>
						<path style="fill:#E0E0E0;" d="M125.765,323.858c-0.057-0.003,0.182-5.783,0.535-12.909c0.353-7.128,0.686-12.903,0.743-12.9
							c0.057,0.003-0.182,5.782-0.535,12.91C126.155,318.085,125.823,323.861,125.765,323.858z"/>
					</g>
				</g>
				<g>
					<g>
						<path style="fill:#E0E0E0;" d="M130.267,303.81c0.014-0.001,0.032,0.169,0.052,0.478c0.024,0.309,0.026,0.757-0.001,1.31
							c-0.051,1.105-0.286,2.634-0.853,4.232c-0.572,1.597-1.359,2.929-2.019,3.817c-0.329,0.445-0.614,0.791-0.828,1.015
							c-0.211,0.227-0.332,0.347-0.343,0.337c-0.029-0.025,0.429-0.533,1.051-1.437c0.623-0.902,1.378-2.226,1.943-3.802
							c0.56-1.577,0.814-3.08,0.902-4.172C130.262,304.494,130.229,303.811,130.267,303.81z"/>
					</g>
				</g>
				<g>
					<g>
						<path style="fill:#E0E0E0;" d="M122.085,304.616c0.036-0.003,0.085,0.596,0.27,1.543c0.183,0.947,0.535,2.238,1.137,3.58
							c0.605,1.341,1.338,2.462,1.924,3.227c0.586,0.767,1.001,1.2,0.975,1.226c-0.01,0.01-0.122-0.09-0.317-0.28
							c-0.197-0.188-0.463-0.479-0.773-0.854c-0.622-0.749-1.385-1.873-1.999-3.233c-0.61-1.361-0.944-2.678-1.092-3.64
							c-0.075-0.481-0.116-0.874-0.126-1.146C122.072,304.768,122.071,304.617,122.085,304.616z"/>
					</g>
				</g>
				<g>
					<g>
						<path style="fill:#E0E0E0;" d="M129.23,300.395c0.014,0,0.023,0.134,0.026,0.375c0.005,0.242-0.007,0.591-0.04,1.022
							c-0.065,0.862-0.248,2.049-0.624,3.317c-0.379,1.267-0.877,2.361-1.294,3.118c-0.208,0.379-0.389,0.678-0.526,0.878
							c-0.135,0.201-0.215,0.307-0.227,0.3c-0.029-0.018,0.243-0.476,0.622-1.245c0.381-0.768,0.85-1.857,1.225-3.109
							c0.372-1.253,0.575-2.421,0.677-3.272C129.172,300.927,129.196,300.394,129.23,300.395z"/>
					</g>
				</g>
				<g>
					<g>
						<path style="fill:#E0E0E0;" d="M123.951,301.084c0.036,0.003-0.01,0.613,0.013,1.596c0.022,0.983,0.142,2.34,0.481,3.801
							c0.343,1.46,0.836,2.731,1.251,3.622c0.414,0.892,0.725,1.419,0.695,1.437c-0.012,0.008-0.101-0.118-0.25-0.351
							c-0.152-0.232-0.351-0.58-0.577-1.022c-0.453-0.882-0.975-2.161-1.322-3.639c-0.343-1.478-0.442-2.856-0.426-3.847
							c0.007-0.496,0.031-0.897,0.065-1.172C123.913,301.234,123.936,301.083,123.951,301.084z"/>
					</g>
				</g>
				<g>
					<g>
						<path style="fill:#E0E0E0;" d="M125.628,299.186c0.033,0.012-0.093,0.356-0.164,0.933c-0.075,0.576-0.061,1.386,0.124,2.256
							c0.4,1.734,1.04,3.066,0.956,3.096c-0.026,0.01-0.193-0.314-0.43-0.855c-0.233-0.542-0.541-1.306-0.73-2.198
							c-0.19-0.892-0.181-1.734-0.065-2.321C125.43,299.507,125.608,299.177,125.628,299.186z"/>
					</g>
				</g>
				<g>
					<g>
						<path style="fill:#E0E0E0;" d="M122.543,312.292c0.057-0.03,0.638,1.09,1.604,2.295c0.958,1.212,1.918,2.03,1.876,2.079
							c-0.017,0.02-0.279-0.158-0.664-0.496c-0.385-0.337-0.887-0.841-1.375-1.453c-0.487-0.613-0.865-1.215-1.106-1.666
							C122.634,312.6,122.519,312.304,122.543,312.292z"/>
					</g>
				</g>
				<g>
					<g>
						<path style="fill:#E0E0E0;" d="M130.365,313.621c0.022,0.016-0.165,0.321-0.511,0.785c-0.345,0.464-0.855,1.081-1.469,1.716
							c-0.615,0.634-1.215,1.164-1.667,1.524c-0.452,0.361-0.751,0.558-0.768,0.536c-0.019-0.024,0.247-0.261,0.672-0.648
							c0.425-0.387,1.004-0.928,1.613-1.557c0.608-0.629,1.131-1.225,1.503-1.663C130.111,313.877,130.34,313.603,130.365,313.621z"
							/>
					</g>
				</g>
			</g>
			<g>
				<g>
					<g>
						<path style="fill:#E0E0E0;" d="M134.679,344.098c-0.057-0.003,0.182-5.783,0.535-12.909c0.353-7.128,0.686-12.903,0.743-12.9
							c0.058,0.003-0.182,5.782-0.535,12.91C135.07,338.325,134.737,344.101,134.679,344.098z"/>
					</g>
				</g>
				<g>
					<g>
						<path style="fill:#E0E0E0;" d="M139.181,324.05c0.014-0.001,0.032,0.169,0.052,0.478c0.024,0.309,0.026,0.757-0.001,1.31
							c-0.051,1.105-0.286,2.634-0.853,4.232c-0.572,1.597-1.359,2.929-2.019,3.817c-0.329,0.445-0.615,0.791-0.828,1.015
							c-0.211,0.227-0.332,0.347-0.342,0.337c-0.029-0.025,0.429-0.533,1.051-1.437c0.623-0.901,1.378-2.226,1.943-3.802
							c0.56-1.577,0.814-3.08,0.902-4.172C139.176,324.734,139.143,324.052,139.181,324.05z"/>
					</g>
				</g>
				<g>
					<g>
						<path style="fill:#E0E0E0;" d="M130.999,324.857c0.036-0.003,0.085,0.596,0.27,1.543c0.183,0.947,0.535,2.238,1.137,3.58
							c0.605,1.341,1.338,2.462,1.924,3.227c0.586,0.767,1.001,1.201,0.975,1.226c-0.01,0.01-0.122-0.09-0.317-0.28
							c-0.197-0.188-0.463-0.479-0.773-0.854c-0.622-0.749-1.385-1.873-1.999-3.233c-0.61-1.361-0.944-2.678-1.092-3.64
							c-0.075-0.481-0.116-0.874-0.126-1.146C130.986,325.008,130.985,324.858,130.999,324.857z"/>
					</g>
				</g>
				<g>
					<g>
						<path style="fill:#E0E0E0;" d="M138.144,320.635c0.014,0,0.023,0.134,0.026,0.375c0.005,0.242-0.007,0.591-0.041,1.022
							c-0.065,0.862-0.248,2.049-0.624,3.317c-0.379,1.267-0.877,2.361-1.294,3.118c-0.208,0.379-0.389,0.678-0.526,0.878
							c-0.135,0.2-0.215,0.307-0.227,0.3c-0.029-0.018,0.242-0.476,0.622-1.245c0.38-0.768,0.85-1.857,1.225-3.109
							c0.372-1.253,0.575-2.421,0.677-3.272C138.086,321.167,138.11,320.635,138.144,320.635z"/>
					</g>
				</g>
				<g>
					<g>
						<path style="fill:#E0E0E0;" d="M132.865,321.325c0.036,0.003-0.01,0.613,0.013,1.596c0.022,0.983,0.142,2.341,0.481,3.801
							c0.343,1.46,0.836,2.731,1.251,3.622c0.414,0.892,0.725,1.419,0.695,1.437c-0.012,0.007-0.101-0.118-0.25-0.351
							c-0.152-0.232-0.351-0.58-0.577-1.022c-0.453-0.882-0.975-2.161-1.322-3.639c-0.343-1.478-0.442-2.856-0.426-3.847
							c0.007-0.496,0.031-0.897,0.065-1.172C132.827,321.475,132.85,321.323,132.865,321.325z"/>
					</g>
				</g>
				<g>
					<g>
						<path style="fill:#E0E0E0;" d="M134.542,319.426c0.033,0.012-0.093,0.356-0.164,0.933c-0.075,0.576-0.061,1.386,0.124,2.256
							c0.4,1.734,1.04,3.065,0.956,3.096c-0.026,0.01-0.193-0.314-0.43-0.855c-0.233-0.542-0.541-1.306-0.73-2.198
							c-0.19-0.892-0.181-1.734-0.066-2.321C134.344,319.747,134.522,319.417,134.542,319.426z"/>
					</g>
				</g>
				<g>
					<g>
						<path style="fill:#E0E0E0;" d="M131.457,332.532c0.057-0.03,0.638,1.09,1.604,2.295c0.958,1.212,1.918,2.03,1.876,2.079
							c-0.017,0.02-0.279-0.158-0.664-0.496c-0.385-0.337-0.887-0.84-1.375-1.453c-0.487-0.613-0.865-1.215-1.106-1.666
							C131.548,332.84,131.433,332.544,131.457,332.532z"/>
					</g>
				</g>
				<g>
					<g>
						<path style="fill:#E0E0E0;" d="M139.279,333.861c0.022,0.016-0.165,0.321-0.511,0.785c-0.345,0.464-0.855,1.081-1.469,1.716
							c-0.615,0.634-1.215,1.164-1.667,1.524c-0.452,0.361-0.751,0.558-0.768,0.536c-0.019-0.024,0.247-0.261,0.672-0.648
							c0.425-0.387,1.004-0.929,1.613-1.557c0.608-0.629,1.131-1.225,1.503-1.663C139.025,334.117,139.254,333.843,139.279,333.861z
							"/>
					</g>
				</g>
			</g>
			<g>
				<g>
					<g>
						<path style="fill:#E0E0E0;" d="M165.608,352.118c-0.055,0.018-1.885-5.47-4.088-12.256c-2.203-6.788-3.945-12.304-3.89-12.322
							c0.055-0.018,1.885,5.469,4.088,12.258C163.921,346.584,165.663,352.1,165.608,352.118z"/>
					</g>
				</g>
				<g>
					<g>
						<path style="fill:#E0E0E0;" d="M162.691,331.779c0.013-0.006,0.09,0.147,0.218,0.428c0.132,0.28,0.293,0.698,0.464,1.225
							c0.345,1.051,0.669,2.564,0.706,4.259c0.032,1.696-0.23,3.221-0.531,4.285c-0.149,0.533-0.293,0.958-0.413,1.243
							c-0.116,0.287-0.187,0.442-0.2,0.437c-0.036-0.013,0.211-0.651,0.471-1.717c0.262-1.064,0.497-2.571,0.465-4.244
							c-0.037-1.673-0.334-3.168-0.639-4.221C162.929,332.421,162.655,331.794,162.691,331.779z"/>
					</g>
				</g>
				<g>
					<g>
						<path style="fill:#E0E0E0;" d="M155.33,335.441c0.033-0.016,0.291,0.527,0.801,1.346c0.508,0.82,1.296,1.901,2.335,2.943
							c1.043,1.038,2.125,1.826,2.946,2.332c0.82,0.509,1.363,0.766,1.347,0.799c-0.006,0.013-0.146-0.041-0.396-0.149
							c-0.251-0.106-0.603-0.283-1.027-0.524c-0.847-0.479-1.96-1.258-3.017-2.311c-1.054-1.055-1.834-2.167-2.314-3.014
							c-0.241-0.423-0.419-0.775-0.525-1.026C155.371,335.587,155.317,335.447,155.33,335.441z"/>
					</g>
				</g>
				<g>
					<g>
						<path style="fill:#E0E0E0;" d="M160.508,328.956c0.014-0.005,0.069,0.117,0.158,0.342c0.091,0.224,0.203,0.555,0.325,0.97
							c0.245,0.828,0.497,2.004,0.595,3.322c0.096,1.319,0.02,2.519-0.101,3.374c-0.06,0.428-0.123,0.772-0.18,1.007
							c-0.055,0.235-0.092,0.364-0.106,0.361c-0.033-0.007,0.057-0.531,0.139-1.385c0.083-0.853,0.134-2.038,0.04-3.342
							c-0.098-1.303-0.323-2.468-0.53-3.299C160.643,329.474,160.476,328.967,160.508,328.956z"/>
					</g>
				</g>
				<g>
					<g>
						<path style="fill:#E0E0E0;" d="M155.818,331.477c0.034-0.01,0.209,0.576,0.58,1.487c0.37,0.911,0.965,2.137,1.801,3.382
							c0.839,1.243,1.752,2.256,2.457,2.941c0.704,0.686,1.182,1.068,1.16,1.096c-0.009,0.011-0.136-0.074-0.359-0.239
							c-0.225-0.162-0.535-0.418-0.903-0.75c-0.737-0.663-1.679-1.673-2.529-2.932c-0.846-1.26-1.428-2.513-1.765-3.445
							c-0.17-0.466-0.29-0.849-0.356-1.118C155.836,331.63,155.804,331.48,155.818,331.477z"/>
					</g>
				</g>
				<g>
					<g>
						<path style="fill:#E0E0E0;" d="M156.712,329.106c0.035-0.001,0.039,0.366,0.179,0.931c0.134,0.565,0.436,1.318,0.917,2.064
							c0.99,1.479,2.062,2.496,1.994,2.554c-0.02,0.019-0.292-0.225-0.706-0.647c-0.411-0.423-0.97-1.028-1.464-1.794
							c-0.494-0.766-0.786-1.556-0.886-2.146C156.64,329.477,156.689,329.104,156.712,329.106z"/>
					</g>
				</g>
				<g>
					<g>
						<path style="fill:#E0E0E0;" d="M158.485,342.453c0.043-0.048,0.984,0.792,2.315,1.576c1.326,0.792,2.515,1.216,2.493,1.276
							c-0.008,0.025-0.317-0.049-0.797-0.228c-0.48-0.178-1.128-0.47-1.802-0.869c-0.673-0.4-1.24-0.828-1.626-1.164
							C158.68,342.708,158.467,342.472,158.485,342.453z"/>
					</g>
				</g>
				<g>
					<g>
						<path style="fill:#E0E0E0;" d="M166.269,340.915c0.026,0.007-0.04,0.359-0.199,0.915c-0.158,0.556-0.415,1.314-0.763,2.125
							c-0.349,0.811-0.722,1.52-1.016,2.017c-0.294,0.498-0.504,0.788-0.527,0.774c-0.026-0.016,0.138-0.332,0.398-0.845
							c0.26-0.512,0.608-1.225,0.954-2.029c0.345-0.804,0.621-1.547,0.814-2.088C166.123,341.244,166.239,340.907,166.269,340.915z"
							/>
					</g>
				</g>
			</g>
			<g>
				<g>
					<g>
						<path style="fill:#E0E0E0;" d="M198.638,323.862c0.045,0.036-3.573,4.551-8.08,10.082c-4.508,5.533-8.198,9.988-8.242,9.951
							c-0.045-0.036,3.573-4.55,8.081-10.083C194.904,328.281,198.594,323.826,198.638,323.862z"/>
					</g>
				</g>
				<g>
					<g>
						<path style="fill:#E0E0E0;" d="M183.133,337.344c-0.012-0.008,0.074-0.155,0.242-0.416c0.163-0.263,0.428-0.625,0.777-1.055
							c0.696-0.86,1.791-1.953,3.195-2.904c1.407-0.947,2.83-1.554,3.888-1.878c0.529-0.164,0.964-0.273,1.268-0.327
							c0.304-0.058,0.473-0.083,0.476-0.069c0.008,0.038-0.661,0.176-1.698,0.535c-1.036,0.357-2.429,0.977-3.818,1.911
							c-1.385,0.939-2.481,1.999-3.199,2.826C183.543,336.797,183.165,337.366,183.133,337.344z"/>
					</g>
				</g>
				<g>
					<g>
						<path style="fill:#E0E0E0;" d="M190.202,341.543c-0.031-0.019,0.285-0.53,0.697-1.403c0.413-0.871,0.895-2.12,1.206-3.558
							c0.307-1.439,0.381-2.776,0.362-3.74c-0.018-0.965-0.095-1.56-0.059-1.565c0.014-0.002,0.045,0.145,0.089,0.414
							c0.047,0.268,0.089,0.66,0.117,1.146c0.057,0.972,0.006,2.33-0.305,3.788c-0.315,1.457-0.826,2.717-1.277,3.579
							c-0.225,0.432-0.424,0.772-0.577,0.997C190.303,341.429,190.214,341.55,190.202,341.543z"/>
					</g>
				</g>
				<g>
					<g>
						<path style="fill:#E0E0E0;" d="M181.945,340.71c-0.011-0.009,0.061-0.121,0.201-0.318c0.139-0.198,0.356-0.472,0.638-0.799
							c0.563-0.655,1.414-1.504,2.468-2.302c1.056-0.796,2.105-1.383,2.889-1.745c0.392-0.182,0.715-0.316,0.943-0.395
							c0.227-0.081,0.355-0.12,0.361-0.107c0.013,0.032-0.478,0.24-1.239,0.634c-0.761,0.393-1.785,0.992-2.829,1.779
							c-1.042,0.789-1.898,1.61-2.484,2.235C182.307,340.316,181.972,340.731,181.945,340.71z"/>
					</g>
				</g>
				<g>
					<g>
						<path style="fill:#E0E0E0;" d="M186.607,343.283c-0.027-0.023,0.371-0.488,0.935-1.294c0.565-0.805,1.272-1.97,1.865-3.347
							c0.589-1.38,0.945-2.695,1.138-3.659c0.195-0.964,0.256-1.573,0.292-1.569c0.014,0.001,0.011,0.154-0.006,0.431
							c-0.015,0.277-0.061,0.676-0.141,1.165c-0.157,0.979-0.495,2.318-1.091,3.714c-0.6,1.394-1.337,2.563-1.937,3.352
							c-0.299,0.395-0.556,0.704-0.747,0.906C186.726,343.184,186.617,343.292,186.607,343.283z"/>
					</g>
				</g>
				<g>
					<g>
						<path style="fill:#E0E0E0;" d="M184.13,343.818c-0.02-0.029,0.286-0.231,0.685-0.655c0.402-0.419,0.871-1.081,1.237-1.891
							c0.705-1.634,0.978-3.086,1.064-3.06c0.027,0.007-0.031,0.367-0.161,0.944c-0.133,0.574-0.338,1.372-0.714,2.203
							c-0.375,0.831-0.881,1.504-1.322,1.908C184.481,343.677,184.141,343.837,184.13,343.818z"/>
					</g>
				</g>
				<g>
					<g>
						<path style="fill:#E0E0E0;" d="M194.382,335.088c-0.064-0.01,0.132-1.256,0.068-2.799c-0.054-1.544-0.343-2.772-0.28-2.786
							c0.026-0.006,0.131,0.293,0.241,0.793c0.111,0.5,0.217,1.203,0.247,1.985c0.029,0.782-0.023,1.491-0.096,1.998
							C194.49,334.786,194.408,335.093,194.382,335.088z"/>
					</g>
				</g>
				<g>
					<g>
						<path style="fill:#E0E0E0;" d="M188.868,329.383c-0.008-0.026,0.323-0.161,0.877-0.33c0.553-0.169,1.329-0.364,2.2-0.512
							c0.871-0.147,1.668-0.218,2.246-0.24c0.578-0.023,0.935-0.004,0.936,0.023c0.001,0.03-0.354,0.064-0.925,0.124
							c-0.571,0.06-1.359,0.153-2.222,0.299c-0.863,0.146-1.637,0.317-2.196,0.449C189.223,329.327,188.877,329.413,188.868,329.383
							z"/>
					</g>
				</g>
			</g>
			<g>
				<g>
					<g>
						<path style="fill:#E0E0E0;" d="M131.46,394.593c-0.057,0.001-0.253-5.78-0.436-12.913c-0.183-7.135-0.285-12.918-0.228-12.919
							c0.057-0.002,0.253,5.779,0.436,12.914C131.415,388.807,131.517,394.591,131.46,394.593z"/>
					</g>
				</g>
				<g>
					<g>
						<path style="fill:#E0E0E0;" d="M134.443,374.264c0.014-0.002,0.045,0.166,0.087,0.473c0.047,0.306,0.083,0.753,0.097,1.306
							c0.032,1.106-0.087,2.648-0.533,4.284c-0.451,1.635-1.135,3.023-1.727,3.958c-0.295,0.469-0.553,0.835-0.75,1.074
							c-0.193,0.242-0.305,0.371-0.316,0.362c-0.031-0.023,0.387-0.564,0.94-1.512c0.554-0.946,1.207-2.323,1.652-3.937
							c0.44-1.614,0.58-3.132,0.586-4.228C134.489,374.946,134.404,374.268,134.443,374.264z"/>
					</g>
				</g>
				<g>
					<g>
						<path style="fill:#E0E0E0;" d="M126.345,375.682c0.036-0.006,0.129,0.588,0.385,1.518c0.254,0.93,0.702,2.191,1.402,3.485
							c0.704,1.292,1.519,2.354,2.161,3.073c0.642,0.721,1.089,1.122,1.064,1.149c-0.009,0.011-0.129-0.081-0.337-0.255
							c-0.211-0.173-0.498-0.443-0.836-0.794c-0.676-0.7-1.522-1.764-2.236-3.073c-0.71-1.311-1.143-2.599-1.362-3.548
							c-0.111-0.474-0.181-0.862-0.211-1.133C126.342,375.835,126.331,375.685,126.345,375.682z"/>
					</g>
				</g>
				<g>
					<g>
						<path style="fill:#E0E0E0;" d="M133.152,370.936c0.014-0.001,0.033,0.132,0.054,0.372c0.023,0.241,0.037,0.59,0.036,1.022
							c0,0.864-0.093,2.062-0.373,3.354c-0.283,1.292-0.697,2.42-1.056,3.206c-0.179,0.393-0.337,0.706-0.458,0.915
							c-0.119,0.21-0.191,0.323-0.204,0.316c-0.03-0.016,0.206-0.493,0.527-1.288c0.322-0.794,0.708-1.916,0.988-3.193
							c0.277-1.277,0.392-2.458,0.43-3.314C133.134,371.471,133.118,370.938,133.152,370.936z"/>
					</g>
				</g>
				<g>
					<g>
						<path style="fill:#E0E0E0;" d="M127.939,372.02c0.036,0,0.036,0.612,0.133,1.591c0.096,0.978,0.318,2.323,0.765,3.754
							c0.452,1.43,1.039,2.661,1.52,3.518c0.48,0.859,0.83,1.36,0.801,1.381c-0.012,0.008-0.109-0.11-0.276-0.331
							c-0.169-0.22-0.394-0.553-0.652-0.976c-0.518-0.845-1.134-2.081-1.591-3.529c-0.453-1.448-0.655-2.815-0.713-3.805
							c-0.03-0.495-0.036-0.897-0.023-1.173C127.913,372.173,127.925,372.02,127.939,372.02z"/>
					</g>
				</g>
				<g>
					<g>
						<path style="fill:#E0E0E0;" d="M129.47,370.001c0.034,0.009-0.066,0.362-0.093,0.943c-0.032,0.58,0.043,1.387,0.293,2.24
							c0.529,1.699,1.268,2.979,1.186,3.015c-0.025,0.012-0.216-0.299-0.493-0.821c-0.273-0.523-0.638-1.261-0.893-2.136
							c-0.256-0.875-0.311-1.715-0.24-2.309C129.296,370.336,129.449,369.993,129.47,370.001z"/>
					</g>
				</g>
				<g>
					<g>
						<path style="fill:#E0E0E0;" d="M127.377,383.302c0.054-0.034,0.718,1.039,1.771,2.168c1.046,1.137,2.065,1.88,2.027,1.932
							c-0.015,0.022-0.29-0.137-0.7-0.445c-0.41-0.307-0.948-0.771-1.48-1.345c-0.532-0.575-0.954-1.147-1.229-1.578
							C127.492,383.602,127.355,383.316,127.377,383.302z"/>
					</g>
				</g>
				<g>
					<g>
						<path style="fill:#E0E0E0;" d="M135.277,384.039c0.023,0.014-0.141,0.333-0.45,0.821c-0.309,0.488-0.771,1.142-1.336,1.821
							c-0.565,0.679-1.124,1.252-1.548,1.645c-0.424,0.394-0.707,0.612-0.725,0.592c-0.021-0.022,0.227-0.279,0.621-0.697
							c0.395-0.418,0.931-1.001,1.491-1.674c0.559-0.673,1.036-1.307,1.374-1.771C135.044,384.314,135.251,384.023,135.277,384.039z
							"/>
					</g>
				</g>
			</g>
			<g>
				<g>
					<g>
						<path style="fill:#E0E0E0;" d="M153.466,374.132c-0.055,0.018-1.885-5.47-4.088-12.256c-2.203-6.788-3.945-12.304-3.89-12.322
							c0.055-0.018,1.885,5.469,4.088,12.258C151.779,368.597,153.52,374.114,153.466,374.132z"/>
					</g>
				</g>
				<g>
					<g>
						<path style="fill:#E0E0E0;" d="M150.549,353.793c0.013-0.006,0.09,0.147,0.218,0.428c0.132,0.28,0.293,0.698,0.464,1.225
							c0.345,1.051,0.669,2.564,0.707,4.259c0.032,1.696-0.23,3.221-0.531,4.285c-0.149,0.533-0.293,0.958-0.413,1.243
							c-0.116,0.287-0.187,0.442-0.2,0.437c-0.036-0.014,0.211-0.651,0.471-1.716c0.262-1.064,0.497-2.571,0.465-4.244
							c-0.037-1.673-0.334-3.168-0.639-4.221C150.787,354.435,150.513,353.808,150.549,353.793z"/>
					</g>
				</g>
				<g>
					<g>
						<path style="fill:#E0E0E0;" d="M143.188,357.455c0.033-0.016,0.291,0.527,0.801,1.346c0.508,0.82,1.296,1.902,2.335,2.943
							c1.042,1.038,2.125,1.826,2.945,2.332c0.82,0.509,1.363,0.766,1.347,0.799c-0.006,0.013-0.146-0.04-0.396-0.149
							c-0.251-0.106-0.603-0.283-1.027-0.524c-0.847-0.479-1.96-1.259-3.017-2.311c-1.053-1.055-1.834-2.167-2.314-3.014
							c-0.241-0.423-0.419-0.775-0.525-1.026C143.229,357.601,143.175,357.461,143.188,357.455z"/>
					</g>
				</g>
				<g>
					<g>
						<path style="fill:#E0E0E0;" d="M148.366,350.97c0.014-0.005,0.069,0.117,0.158,0.342c0.091,0.224,0.203,0.555,0.325,0.97
							c0.245,0.828,0.497,2.004,0.595,3.322c0.096,1.319,0.02,2.519-0.101,3.374c-0.06,0.428-0.122,0.772-0.18,1.007
							c-0.055,0.235-0.092,0.364-0.106,0.361c-0.033-0.007,0.057-0.531,0.139-1.385c0.083-0.853,0.135-2.038,0.04-3.342
							c-0.098-1.303-0.323-2.468-0.53-3.299C148.501,351.487,148.333,350.981,148.366,350.97z"/>
					</g>
				</g>
				<g>
					<g>
						<path style="fill:#E0E0E0;" d="M143.676,353.49c0.035-0.01,0.209,0.577,0.58,1.487c0.369,0.911,0.965,2.137,1.801,3.382
							c0.84,1.243,1.752,2.256,2.457,2.941c0.704,0.686,1.182,1.068,1.16,1.096c-0.009,0.011-0.136-0.074-0.359-0.239
							c-0.225-0.163-0.535-0.418-0.902-0.75c-0.737-0.663-1.679-1.673-2.529-2.932c-0.846-1.26-1.428-2.513-1.765-3.445
							c-0.17-0.466-0.29-0.849-0.356-1.118C143.694,353.644,143.662,353.494,143.676,353.49z"/>
					</g>
				</g>
				<g>
					<g>
						<path style="fill:#E0E0E0;" d="M144.569,351.12c0.035-0.001,0.039,0.366,0.179,0.931c0.134,0.565,0.436,1.317,0.917,2.064
							c0.99,1.479,2.062,2.496,1.994,2.554c-0.02,0.019-0.292-0.225-0.706-0.647c-0.411-0.423-0.97-1.028-1.464-1.794
							c-0.494-0.766-0.786-1.556-0.886-2.146C144.498,351.49,144.547,351.118,144.569,351.12z"/>
					</g>
				</g>
				<g>
					<g>
						<path style="fill:#E0E0E0;" d="M146.343,364.467c0.043-0.048,0.984,0.792,2.315,1.576c1.326,0.792,2.514,1.215,2.493,1.276
							c-0.009,0.025-0.317-0.049-0.797-0.228c-0.48-0.178-1.128-0.47-1.802-0.869c-0.673-0.4-1.24-0.828-1.626-1.164
							C146.538,364.721,146.325,364.486,146.343,364.467z"/>
					</g>
				</g>
				<g>
					<g>
						<path style="fill:#E0E0E0;" d="M154.127,362.929c0.026,0.007-0.04,0.359-0.199,0.915c-0.158,0.556-0.415,1.314-0.763,2.126
							c-0.349,0.811-0.722,1.52-1.016,2.017c-0.294,0.498-0.504,0.788-0.527,0.774c-0.026-0.016,0.138-0.332,0.398-0.845
							c0.26-0.512,0.608-1.225,0.954-2.029c0.345-0.804,0.621-1.547,0.814-2.089C153.981,363.258,154.097,362.921,154.127,362.929z"
							/>
					</g>
				</g>
			</g>
			<g>
				<g>
					<g>
						<path style="fill:#E0E0E0;" d="M85.156,382.163c-0.055,0.018-1.885-5.47-4.088-12.256c-2.203-6.788-3.945-12.304-3.89-12.322
							c0.055-0.018,1.885,5.469,4.088,12.258C83.469,376.628,85.211,382.145,85.156,382.163z"/>
					</g>
				</g>
				<g>
					<g>
						<path style="fill:#E0E0E0;" d="M82.24,361.824c0.013-0.006,0.09,0.147,0.218,0.428c0.132,0.28,0.293,0.699,0.464,1.225
							c0.345,1.051,0.669,2.564,0.707,4.259c0.032,1.696-0.23,3.221-0.531,4.285c-0.149,0.533-0.293,0.958-0.414,1.243
							c-0.116,0.287-0.187,0.442-0.2,0.437c-0.036-0.014,0.211-0.651,0.471-1.717c0.262-1.064,0.497-2.571,0.465-4.244
							c-0.037-1.673-0.334-3.168-0.639-4.221C82.477,362.466,82.204,361.839,82.24,361.824z"/>
					</g>
				</g>
				<g>
					<g>
						<path style="fill:#E0E0E0;" d="M74.879,365.486c0.033-0.016,0.291,0.527,0.801,1.346c0.508,0.82,1.296,1.901,2.335,2.943
							c1.043,1.038,2.125,1.826,2.946,2.332c0.82,0.509,1.363,0.766,1.347,0.799c-0.006,0.013-0.146-0.041-0.396-0.149
							c-0.251-0.105-0.603-0.283-1.027-0.524c-0.847-0.479-1.96-1.258-3.017-2.311c-1.053-1.055-1.834-2.167-2.314-3.014
							c-0.241-0.423-0.419-0.775-0.525-1.026C74.919,365.632,74.865,365.492,74.879,365.486z"/>
					</g>
				</g>
				<g>
					<g>
						<path style="fill:#E0E0E0;" d="M80.056,359.001c0.014-0.005,0.069,0.117,0.158,0.341c0.091,0.224,0.203,0.555,0.325,0.97
							c0.245,0.828,0.497,2.004,0.595,3.322c0.096,1.319,0.02,2.519-0.101,3.374c-0.06,0.428-0.122,0.772-0.179,1.007
							c-0.055,0.235-0.092,0.364-0.106,0.361c-0.033-0.007,0.057-0.531,0.139-1.385c0.083-0.853,0.134-2.038,0.04-3.342
							c-0.098-1.303-0.323-2.468-0.53-3.299C80.191,359.518,80.024,359.012,80.056,359.001z"/>
					</g>
				</g>
				<g>
					<g>
						<path style="fill:#E0E0E0;" d="M75.367,361.521c0.034-0.01,0.209,0.576,0.58,1.487c0.37,0.911,0.965,2.137,1.801,3.382
							c0.839,1.243,1.752,2.256,2.457,2.941c0.704,0.687,1.182,1.068,1.16,1.096c-0.009,0.011-0.136-0.074-0.359-0.239
							c-0.225-0.163-0.535-0.418-0.902-0.75c-0.737-0.663-1.679-1.673-2.529-2.932c-0.846-1.26-1.428-2.513-1.765-3.445
							c-0.17-0.466-0.29-0.849-0.356-1.118C75.384,361.675,75.353,361.525,75.367,361.521z"/>
					</g>
				</g>
				<g>
					<g>
						<path style="fill:#E0E0E0;" d="M76.26,359.151c0.035-0.001,0.039,0.366,0.179,0.931c0.134,0.565,0.436,1.318,0.917,2.064
							c0.99,1.479,2.062,2.496,1.994,2.554c-0.02,0.019-0.292-0.225-0.706-0.647c-0.41-0.423-0.97-1.028-1.464-1.795
							c-0.494-0.766-0.786-1.556-0.886-2.146C76.189,359.521,76.238,359.149,76.26,359.151z"/>
					</g>
				</g>
				<g>
					<g>
						<path style="fill:#E0E0E0;" d="M78.034,372.498c0.043-0.048,0.984,0.792,2.315,1.576c1.326,0.792,2.515,1.216,2.493,1.276
							c-0.009,0.025-0.317-0.049-0.797-0.228c-0.48-0.178-1.128-0.47-1.802-0.869c-0.673-0.4-1.24-0.828-1.626-1.164
							C78.229,372.753,78.016,372.517,78.034,372.498z"/>
					</g>
				</g>
				<g>
					<g>
						<path style="fill:#E0E0E0;" d="M85.817,370.96c0.026,0.007-0.04,0.359-0.199,0.915c-0.158,0.556-0.415,1.314-0.763,2.126
							c-0.349,0.811-0.722,1.52-1.016,2.017c-0.294,0.498-0.504,0.788-0.527,0.774c-0.026-0.016,0.138-0.332,0.398-0.845
							c0.26-0.512,0.608-1.225,0.954-2.029c0.345-0.804,0.621-1.547,0.814-2.088C85.672,371.289,85.788,370.952,85.817,370.96z"/>
					</g>
				</g>
			</g>
			<g>
				<g>
					<g>
						<path style="fill:#E0E0E0;" d="M114.228,362.397c-0.057-0.003,0.182-5.783,0.535-12.909c0.353-7.128,0.686-12.903,0.743-12.9
							c0.057,0.003-0.182,5.782-0.535,12.91C114.618,356.624,114.285,362.4,114.228,362.397z"/>
					</g>
				</g>
				<g>
					<g>
						<path style="fill:#E0E0E0;" d="M118.73,342.349c0.014-0.001,0.032,0.169,0.052,0.478c0.024,0.308,0.026,0.757-0.001,1.31
							c-0.051,1.105-0.286,2.634-0.853,4.232c-0.573,1.597-1.359,2.929-2.019,3.817c-0.329,0.445-0.614,0.791-0.828,1.015
							c-0.211,0.227-0.332,0.347-0.342,0.337c-0.029-0.026,0.429-0.533,1.05-1.437c0.623-0.901,1.378-2.226,1.943-3.802
							c0.56-1.577,0.814-3.08,0.903-4.172C118.724,343.033,118.691,342.351,118.73,342.349z"/>
					</g>
				</g>
				<g>
					<g>
						<path style="fill:#E0E0E0;" d="M110.548,343.156c0.036-0.003,0.085,0.596,0.27,1.543c0.183,0.947,0.535,2.238,1.136,3.58
							c0.605,1.341,1.338,2.462,1.924,3.227c0.586,0.767,1.001,1.201,0.975,1.226c-0.01,0.01-0.122-0.09-0.317-0.28
							c-0.197-0.188-0.463-0.479-0.773-0.854c-0.622-0.749-1.385-1.873-1.999-3.233c-0.61-1.361-0.944-2.678-1.091-3.64
							c-0.075-0.481-0.116-0.874-0.126-1.146C110.534,343.307,110.534,343.157,110.548,343.156z"/>
					</g>
				</g>
				<g>
					<g>
						<path style="fill:#E0E0E0;" d="M117.692,338.934c0.014,0,0.023,0.134,0.026,0.375c0.005,0.242-0.007,0.591-0.04,1.022
							c-0.065,0.861-0.248,2.049-0.624,3.317c-0.379,1.267-0.877,2.361-1.294,3.118c-0.208,0.379-0.389,0.678-0.526,0.878
							c-0.135,0.2-0.215,0.307-0.227,0.3c-0.029-0.018,0.243-0.476,0.622-1.245c0.38-0.768,0.85-1.857,1.225-3.109
							c0.372-1.253,0.575-2.421,0.677-3.272C117.635,339.466,117.658,338.934,117.692,338.934z"/>
					</g>
				</g>
				<g>
					<g>
						<path style="fill:#E0E0E0;" d="M112.413,339.624c0.036,0.003-0.01,0.613,0.013,1.596c0.022,0.983,0.142,2.34,0.481,3.801
							c0.343,1.46,0.836,2.731,1.251,3.622c0.414,0.892,0.725,1.419,0.695,1.437c-0.012,0.008-0.101-0.118-0.25-0.351
							c-0.152-0.232-0.351-0.581-0.577-1.022c-0.453-0.882-0.975-2.161-1.322-3.639c-0.343-1.478-0.442-2.856-0.426-3.847
							c0.007-0.496,0.031-0.897,0.065-1.172C112.375,339.774,112.399,339.622,112.413,339.624z"/>
					</g>
				</g>
				<g>
					<g>
						<path style="fill:#E0E0E0;" d="M114.091,337.725c0.033,0.012-0.093,0.356-0.164,0.933c-0.075,0.576-0.061,1.386,0.124,2.256
							c0.4,1.734,1.04,3.066,0.956,3.096c-0.026,0.01-0.193-0.314-0.43-0.855c-0.233-0.542-0.541-1.306-0.73-2.198
							c-0.19-0.892-0.181-1.734-0.065-2.321C113.892,338.047,114.071,337.716,114.091,337.725z"/>
					</g>
				</g>
				<g>
					<g>
						<path style="fill:#E0E0E0;" d="M111.005,350.831c0.057-0.03,0.638,1.09,1.604,2.295c0.958,1.212,1.918,2.03,1.876,2.079
							c-0.017,0.02-0.279-0.158-0.664-0.496c-0.385-0.337-0.887-0.84-1.375-1.453c-0.487-0.613-0.865-1.215-1.106-1.666
							C111.097,351.139,110.981,350.843,111.005,350.831z"/>
					</g>
				</g>
				<g>
					<g>
						<path style="fill:#E0E0E0;" d="M118.827,352.16c0.022,0.016-0.165,0.321-0.511,0.785c-0.345,0.464-0.855,1.081-1.469,1.716
							c-0.615,0.634-1.215,1.164-1.667,1.524c-0.452,0.361-0.751,0.558-0.768,0.536c-0.019-0.024,0.247-0.261,0.672-0.648
							c0.425-0.387,1.004-0.929,1.613-1.557c0.608-0.629,1.131-1.225,1.503-1.663C118.574,352.416,118.802,352.142,118.827,352.16z"
							/>
					</g>
				</g>
			</g>
			<g style="opacity:0.3;">
				<g>
					<path d="M108.395,302.689c3.906,3.1,8.394,5.463,13.16,6.93c2.045,0.63,4.21,1.098,6.316,0.719
						c2.106-0.379,4.144-1.772,4.741-3.827c0.148-0.509,0.132-1.189-0.348-1.415c-0.507-0.239-1.039,0.228-1.489,0.563
						c-1.438,1.072-5.694,1.329-7.476,1.121c-5.827-0.68-9.622-2.103-14.895-4.066"/>
				</g>
			</g>
			<g>
				<g>
					<path style="fill:#263238;" d="M145.976,343.266c0.017-0.004,0.074,0.163,0.167,0.488c0.084,0.326,0.24,0.802,0.361,1.431
						c0.284,1.25,0.574,3.093,0.668,5.389c0.216,4.56-0.659,11.1-4.076,17.294c-3.422,6.194-8.492,10.419-12.466,12.665
						c-1.994,1.144-3.707,1.88-4.916,2.306c-0.597,0.233-1.083,0.354-1.403,0.457c-0.324,0.095-0.496,0.136-0.502,0.119
						c-0.014-0.042,0.653-0.28,1.831-0.765c1.179-0.481,2.854-1.262,4.802-2.434c3.885-2.304,8.832-6.508,12.198-12.6
						c3.361-6.092,4.284-12.518,4.164-17.033c-0.046-2.273-0.278-4.107-0.499-5.361
						C146.086,343.968,145.932,343.276,145.976,343.266z"/>
				</g>
			</g>
			<g style="opacity:0.2;">
				<g>
					<path d="M146.82,349.842c0.174,4.32-1.759,8.676-5.079,11.445c-2.154,1.796-4.804,2.923-6.949,4.731
						c-1.961,1.653-3.451,3.86-4.251,6.297c-0.415,1.263-0.587,2.812,0.327,3.778c1.03,1.088,2.829,0.814,4.209,0.23
						c4.512-1.909,7.725-6.142,9.452-10.727c1.727-4.585,2.149-9.545,2.448-14.436"/>
				</g>
			</g>
			<g>
				<g>
					<path style="fill:#263238;" d="M172.12,346.142c-0.11,0.059-1.191-2.623-1.135-6.127c0.026-3.506,1.169-6.161,1.277-6.1
						c0.158,0.045-0.734,2.704-0.757,6.106C171.449,343.422,172.28,346.1,172.12,346.142z"/>
				</g>
			</g>
			<g>
				<g>
					<path style="fill:#263238;" d="M175.144,344.925c-0.09,0.087-1.743-2.099-2.463-5.333c-0.749-3.229-0.204-5.914-0.085-5.874
						c0.164,0.01-0.134,2.639,0.593,5.759C173.881,342.603,175.287,344.845,175.144,344.925z"/>
				</g>
			</g>
		</g>
		<g>
			<g>
				<g>
					<g>
						<path style="fill:#AA6550;" d="M224.585,316.676c-0.038,0.039-0.301-0.232-0.855-0.497c-0.541-0.261-1.432-0.493-2.391-0.219
							l-0.449,0.128l0.227-0.413c0.296-0.539,0.52-1.187,0.624-1.888c0.23-1.502-0.138-2.891-0.584-3.775
							c-0.431-0.907-0.904-1.348-0.845-1.402c0.02-0.03,0.581,0.344,1.107,1.262c0.538,0.892,0.984,2.367,0.737,3.979
							c-0.111,0.751-0.363,1.447-0.699,2.017l-0.222-0.285c1.099-0.277,2.063,0.045,2.609,0.386
							C224.405,316.317,224.612,316.656,224.585,316.676z"/>
					</g>
				</g>
			</g>
		</g>
		<g>
			<g>
				<path style="fill:#B78876;" d="M231.299,312.313c0.927-2.28,10.253-6.3,9.03-7.729c-1.593-1.861-9.545,4.636-10.257,5.135
					c-0.692,0.485-1.432-0.532-0.765-0.947c0.958-0.598,10.866-7.127,9.319-8.971c-0.858-1.022-2.52,0.743-2.52,0.743
					s-8.838,6.805-9.54,5.909c-0.713-0.909,4.347-5.082,6.149-6.367c1.78-1.269,1.923-2.647,0.726-2.984
					c-0.816-0.229-6.425,3.572-8.178,4.885c-1.753,1.312-6.501,5-5.587,1.244c0.914-3.756,0.238-6.983-0.538-7.72
					c-0.777-0.737-2.071,0.111-1.854,1.288c0.175,0.951-0.013,2.632-0.205,3.891c-0.158,1.037-0.582,1.998-0.968,2.971
					c-0.411,1.037-1.608,3.395-4.369,5.454l9.851,11.597l1.262-0.855c4.865-3.307,9.439-4.579,12.077-6.101
					c4.908-2.832,4.671-3.284,4.257-3.811C238.075,308.53,230.373,314.593,231.299,312.313z"/>
			</g>
			<g>
				<g>
					<path style="fill:#455A64;" d="M217.949,293.973l3.188,20.704l12.487-0.205l0.579-3.867c0,0,7.071-0.024,7.616-6.003
						c0.545-5.979-5.518-6.063-5.518-6.063l0.921-5.407L217.949,293.973z M234.496,308.492l1.469-7.683c0,0,4.275-0.07,3.949,3.382
						C239.588,307.642,234.496,308.492,234.496,308.492z"/>
				</g>
				<g>
					<g>
						<path style="fill:#263238;" d="M227.28,266.105c0.013-0.012,0.09,0.051,0.227,0.186c0.136,0.136,0.312,0.364,0.483,0.692
							c0.341,0.655,0.544,1.764,0.301,3.058c-0.189,1.313-0.925,2.722-1.639,4.231c-0.35,0.762-0.683,1.576-0.85,2.448
							c-0.171,0.87-0.118,1.795,0.214,2.672c0.672,1.774,2.049,3.084,3.164,4.358c1.133,1.265,2.05,2.608,2.297,3.937
							c0.266,1.309-0.023,2.419-0.408,3.045c-0.185,0.322-0.39,0.528-0.532,0.656c-0.151,0.121-0.234,0.176-0.246,0.162
							c-0.04-0.039,0.298-0.282,0.599-0.915c0.307-0.616,0.519-1.657,0.227-2.87c-0.271-1.214-1.158-2.467-2.295-3.696
							c-1.113-1.24-2.557-2.567-3.295-4.498c-0.365-0.956-0.42-2.011-0.226-2.948c0.189-0.942,0.549-1.785,0.917-2.555
							c0.756-1.535,1.487-2.853,1.712-4.098c0.275-1.228,0.141-2.262-0.124-2.905C227.535,266.423,227.24,266.139,227.28,266.105z"
							/>
					</g>
				</g>
				<g>
					<g>
						<path style="fill:#263238;" d="M223.964,266.16c0.013-0.013,0.09,0.051,0.228,0.186c0.135,0.136,0.312,0.364,0.483,0.692
							c0.342,0.655,0.544,1.763,0.301,3.058c-0.189,1.313-0.925,2.723-1.639,4.231c-0.35,0.762-0.683,1.576-0.85,2.448
							c-0.171,0.87-0.118,1.795,0.214,2.672c0.672,1.774,2.049,3.084,3.164,4.358c1.133,1.265,2.049,2.608,2.297,3.937
							c0.266,1.309-0.023,2.419-0.408,3.045c-0.185,0.322-0.39,0.528-0.532,0.656c-0.151,0.121-0.235,0.176-0.246,0.163
							c-0.04-0.039,0.298-0.282,0.599-0.915c0.307-0.616,0.519-1.657,0.227-2.87c-0.271-1.214-1.158-2.467-2.295-3.696
							c-1.113-1.241-2.557-2.567-3.295-4.498c-0.365-0.956-0.42-2.011-0.226-2.948c0.189-0.942,0.549-1.785,0.917-2.555
							c0.756-1.535,1.487-2.853,1.712-4.098c0.275-1.228,0.141-2.262-0.124-2.905C224.219,266.478,223.925,266.193,223.964,266.16z"
							/>
					</g>
				</g>
				<g>
					<g>
						<path style="fill:#FAFAFA;" d="M219.171,302.477c-0.023-0.004,0.03-0.301,0.426-0.623c0.387-0.311,1.142-0.564,2.028-0.338
							c0.888,0.231,1.703,0.945,2.501,1.702c0.787,0.728,1.78,1.566,2.969,1.406c1.179-0.157,2.169-0.976,3.212-1.436
							c0.522-0.24,1.069-0.405,1.604-0.426c0.533-0.009,1.021,0.108,1.426,0.289c0.814,0.371,1.299,0.942,1.53,1.365
							c0.235,0.43,0.262,0.703,0.236,0.71c-0.041,0.015-0.136-0.232-0.406-0.6c-0.266-0.364-0.754-0.845-1.502-1.136
							c-0.372-0.142-0.806-0.223-1.264-0.198c-0.456,0.036-0.937,0.193-1.42,0.428c-0.975,0.44-1.945,1.312-3.357,1.519
							c-0.702,0.091-1.408-0.115-1.952-0.447c-0.555-0.327-1.002-0.738-1.405-1.127c-0.788-0.786-1.515-1.455-2.275-1.697
							c-0.755-0.239-1.438-0.075-1.81,0.151C219.33,302.254,219.211,302.502,219.171,302.477z"/>
					</g>
				</g>
				<g>
					<g>
						<path style="fill:#FAFAFA;" d="M218.716,299.813c-0.023-0.003,0.036-0.318,0.457-0.658c0.411-0.328,1.212-0.594,2.15-0.353
							c0.94,0.246,1.805,1.005,2.653,1.81c0.836,0.775,1.896,1.671,3.171,1.5c1.261-0.169,2.314-1.042,3.421-1.53
							c0.555-0.255,1.133-0.43,1.701-0.453c0.565-0.01,1.082,0.113,1.512,0.305c0.864,0.392,1.38,0.997,1.627,1.445
							c0.251,0.455,0.283,0.746,0.257,0.752c-0.042,0.015-0.14-0.248-0.427-0.642c-0.282-0.389-0.8-0.903-1.598-1.215
							c-0.396-0.152-0.861-0.24-1.35-0.214c-0.487,0.037-1.002,0.205-1.517,0.455c-1.039,0.469-2.072,1.395-3.566,1.613
							c-0.743,0.097-1.489-0.122-2.067-0.473c-0.588-0.346-1.063-0.782-1.492-1.196c-0.839-0.835-1.615-1.548-2.427-1.805
							c-0.807-0.254-1.536-0.077-1.932,0.167C218.88,299.572,218.756,299.838,218.716,299.813z"/>
					</g>
				</g>
			</g>
		</g>
		<g>
			<path style="fill:#263238;" d="M203.489,325.939"/>
		</g>
		<g>
			<g>
				<polygon style="fill:#263238;" points="125.249,404.549 142.482,428.872 331.625,428.778 331.522,407.311 235.869,398.207 
					156.4,386.392 				"/>
			</g>
			<g>
				<path style="fill:#263238;" d="M155.663,387.104l13.43-18.542l37.833-46.722c5.288-5.701,12.955-8.574,20.687-7.754l0,0
					c9.469,1.005,17.514,7.369,20.67,16.352l24.964,76.238l-33.097-5.193l-16.824-47.165l-26.513,37.032L155.663,387.104z"/>
			</g>
			<g>
				<g>
					<path style="fill:#455A64;" d="M273.248,401.764c-0.001,0.009-0.101,0.009-0.295,0.001c-0.223-0.012-0.507-0.028-0.862-0.048
						c-0.794-0.056-1.902-0.135-3.31-0.236c-2.911-0.23-7.057-0.559-12.165-0.963c-10.301-0.866-24.47-2.057-40.12-3.373
						c-7.833-0.681-15.293-1.329-22.085-1.919c-3.394-0.312-6.617-0.553-9.636-0.883c-3.016-0.347-5.812-0.809-8.328-1.405
						c-2.51-0.593-4.768-1.315-6.575-2.327c-1.806-0.999-3.195-2.148-4.155-3.235c-0.973-1.08-1.543-2.067-1.868-2.753
						c-0.329-0.687-0.429-1.077-0.429-1.077c0.082-0.054,0.489,1.58,2.446,3.694c0.969,1.05,2.354,2.157,4.144,3.115
						c1.788,0.97,4.017,1.657,6.52,2.225c2.503,0.569,5.288,1.007,8.293,1.335c3.006,0.31,6.241,0.536,9.633,0.835
						c6.792,0.578,14.253,1.212,22.087,1.878c15.645,1.375,29.808,2.62,40.105,3.525c5.102,0.474,9.244,0.858,12.151,1.128
						c1.405,0.142,2.51,0.253,3.302,0.333c0.353,0.041,0.635,0.074,0.858,0.1C273.15,401.738,273.249,401.755,273.248,401.764z"/>
				</g>
			</g>
			<g>
				<g>
					<path style="fill:#455A64;" d="M225.96,337.262c0.075,0.033-0.286,0.944-0.767,2.443c-0.482,1.498-1.048,3.598-1.407,5.968
						c-0.354,2.371-0.43,4.546-0.409,6.119c0.019,1.574,0.096,2.55,0.015,2.56c-0.062,0.008-0.269-0.956-0.383-2.545
						c-0.116-1.587-0.097-3.801,0.262-6.211c0.365-2.408,0.998-4.53,1.575-6.013C225.422,338.097,225.903,337.236,225.96,337.262z"
						/>
				</g>
			</g>
			<g>
				<g>
					<path style="fill:#455A64;" d="M218.701,343.625c0.161-0.025,0.502,2.675,1.815,5.713c1.286,3.051,2.999,5.164,2.87,5.263
						c-0.084,0.094-2.024-1.923-3.349-5.059C218.689,346.417,218.575,343.62,218.701,343.625z"/>
				</g>
			</g>
			<g>
				<g>
					<path style="fill:#455A64;" d="M326.706,413.738c0.161,0.056-1.249,3.269-1.587,7.509c-0.381,4.238,0.467,7.642,0.298,7.67
						c-0.06,0.015-0.35-0.811-0.594-2.204c-0.246-1.39-0.403-3.354-0.223-5.51c0.186-2.155,0.672-4.064,1.149-5.393
						C326.224,414.479,326.65,413.713,326.706,413.738z"/>
				</g>
			</g>
		</g>
		<g>
			<g>
				<path style="fill:#263238;" d="M132.813,304.471c0.013,0.012-0.041,0.089-0.158,0.224c-0.112,0.141-0.302,0.324-0.563,0.544
					c-0.522,0.438-1.393,0.949-2.568,1.296c-2.368,0.721-5.776,0.548-9.395-0.019c-3.639-0.589-6.824-1.644-9.038-2.585
					c-1.112-0.463-1.982-0.903-2.577-1.216c-0.589-0.325-0.907-0.52-0.89-0.552c0.039-0.078,1.367,0.587,3.604,1.425
					c2.231,0.846,5.392,1.831,8.986,2.413c3.586,0.561,6.924,0.783,9.215,0.177C131.749,305.613,132.751,304.375,132.813,304.471z"
					/>
			</g>
		</g>
	</g>
</g>
<g id="Plant">
	<g>
		<g>
			<g>
				<path style="fill:#E8505B;" d="M664.518,349.461c4.193-2.164,9.131-2.445,13.787-1.675c2.501,0.413,5.109,1.162,6.811,3.04
					c1.702,1.879,2.024,5.185,0.07,6.799c-1.163,0.961-2.786,1.107-4.294,1.089c-3.645-0.043-7.688-0.684-10.6,1.509
					c-1.661,1.251-2.767,3.331-4.753,3.946c-1.943,0.602-4.136-0.545-5.166-2.298c-1.03-1.754-1.065-3.946-0.584-5.922
					C659.788,355.949,660.294,351.641,664.518,349.461z"/>
			</g>
			<g>
				<path style="fill:#E8505B;" d="M654.91,330.914c2.564,3.662,7.548,2.45,9.859,0.214c2.311-2.236,3.288-5.475,4.177-8.565
					c2.031-7.059,4.079-14.465,2.569-21.654c-0.452-2.149-1.255-4.293-2.765-5.887c-1.51-1.594-3.833-2.543-5.956-1.982
					c-2.513,0.664-4.075,3.125-5.203,5.466c-3.318,6.882-5.075,14.511-5.101,22.151C652.477,324.227,652.897,327.969,654.91,330.914
					"/>
			</g>
			<g>
				<path style="fill:#E8505B;" d="M647.869,336.169c2.784-3.304,3.313-8.124,2.074-12.263c-1.239-4.14-4.038-7.661-7.263-10.536
					c-3.782-3.371-8.227-5.994-13.006-7.674c-1.881-0.661-3.865-1.183-5.849-0.994c-1.985,0.189-3.983,1.204-4.909,2.97
					c-1.369,2.611-0.056,5.777,1.363,8.36c2.501,4.551,5.36,8.905,8.543,13.009c2.561,3.301,5.494,6.557,9.396,8.049
					c3.902,1.492,7.956,1.316,10.024-1.39"/>
			</g>
			<g>
				<g>
					<path style="fill:#263238;" d="M654.737,386.16c0.048,0.003,0.126-0.59,0.232-1.664c0.118-1.211,0.266-2.732,0.442-4.542
						c0.212-1.911,0.491-4.185,1.022-6.662c0.529-2.47,1.357-5.148,2.421-7.862c1.102-2.699,2.445-5.152,4.015-7.114
						c1.559-1.971,3.372-3.397,5.076-4.22c1.698-0.839,3.222-1.18,4.274-1.331c1.062-0.109,1.656-0.193,1.657-0.24
						c0.001-0.048-0.595-0.055-1.686-0.026c-1.081,0.072-2.667,0.346-4.457,1.16c-1.796,0.797-3.719,2.245-5.354,4.257
						c-1.648,2.003-3.041,4.51-4.162,7.257c-1.082,2.763-1.898,5.467-2.404,7.991c-0.504,2.52-0.735,4.819-0.886,6.746
						c-0.144,1.929-0.199,3.49-0.225,4.57C654.678,385.56,654.69,386.158,654.737,386.16z"/>
				</g>
			</g>
			<g>
				<g>
					<path style="fill:#263238;" d="M655.05,382.666c0.024-0.001,0.038-0.267,0.045-0.772c-0.002-0.58-0.003-1.311-0.006-2.208
						c-0.005-1.916-0.004-4.689,0.098-8.114c0.17-6.849,0.759-14.22,1.898-24.612c1.079-9.772,2.526-21.144,4.054-28.538
						c0.328-1.682,0.658-3.195,0.968-4.52c0.296-1.328,0.549-2.473,0.793-3.4c0.21-0.872,0.38-1.582,0.516-2.146
						c0.111-0.493,0.158-0.755,0.135-0.762c-0.023-0.007-0.115,0.243-0.268,0.724c-0.168,0.556-0.38,1.256-0.641,2.116
						c-0.285,0.918-0.576,2.055-0.908,3.378c-0.347,1.319-0.711,2.829-1.07,4.508c-1.512,6.7-3.112,16.063-4.262,26.48
						c-1.141,10.414-1.655,19.895-1.701,26.762c-0.041,3.433,0.032,6.212,0.12,8.13c0.055,0.897,0.099,1.627,0.135,2.207
						C654.994,382.403,655.026,382.667,655.05,382.666z"/>
				</g>
			</g>
			<g>
				<g>
					<path style="fill:#263238;" d="M655.095,364.378c0.048-0.002,0.04-0.821-0.016-2.307c-0.085-1.482-0.289-3.625-0.706-6.249
						c-0.443-2.618-1.061-5.727-2.032-9.105c-0.421-1.544-1.411-5.245-3.807-10.774c-3.158-7.492-7.449-13.617-11.182-17.411
						c-0.875-1.007-1.851-1.733-2.63-2.445c-0.404-0.341-0.76-0.681-1.124-0.951c-0.365-0.252-0.705-0.486-1.021-0.703
						c-1.229-0.84-1.917-1.283-1.942-1.243c-0.11,0.15,2.752,1.834,6.365,5.679c3.599,3.836,7.77,9.919,10.903,17.348
						c1.747,4.029,2.965,7.624,3.829,10.675c0.998,3.345,1.662,6.423,2.163,9.015c0.476,2.598,0.752,4.719,0.918,6.188
						C654.95,363.564,655.048,364.38,655.095,364.378z"/>
				</g>
			</g>
		</g>
		<g>
			<polygon style="fill:#263238;" points="637.419,396.638 639.252,421.743 671.504,421.743 673.337,396.638 			"/>
		</g>
		<g>
			<rect x="634.304" y="386.742" style="fill:#263238;" width="42.881" height="9.896"/>
		</g>
		<g>
			<polygon style="fill:#455A64;" points="634.304,420.783 634.304,423.526 636.319,423.526 676.476,423.526 676.476,420.783 			"/>
		</g>
		<g>
			<polygon style="fill:#455A64;" points="638.294,428.353 636.319,423.526 674.94,423.526 672.636,428.353 			"/>
		</g>
		<g>
			<g>
				<path style="fill:#E0E0E0;" d="M672.738,404.843c0.007,0.006-0.044,0.084-0.15,0.23c-0.128,0.17-0.287,0.38-0.482,0.639
					c-0.458,0.586-1.087,1.391-1.879,2.404l-0.083,0.107l-0.081-0.112c-1.181-1.633-2.759-3.815-4.616-6.384h0.266
					c-1.373,1.944-2.902,4.11-4.545,6.435l-0.142,0.202l-0.16-0.19c-1.677-1.995-3.499-4.163-5.39-6.413l0.311-0.004
					c-0.094,0.118-0.195,0.245-0.297,0.372c-1.672,2.096-3.289,4.124-4.819,6.042l-0.161,0.201l-0.148-0.21
					c-1.636-2.315-3.165-4.478-4.547-6.433l0.264,0.013c-2.241,2.553-4.141,4.718-5.6,6.38l-0.099,0.113l-0.076-0.128
					c-0.738-1.24-1.327-2.229-1.753-2.946c-0.183-0.32-0.332-0.578-0.45-0.784c-0.099-0.179-0.146-0.274-0.137-0.28
					c0.008-0.005,0.072,0.079,0.188,0.249c0.131,0.198,0.295,0.447,0.498,0.755c0.448,0.704,1.066,1.674,1.841,2.892l-0.175-0.014
					c1.435-1.682,3.305-3.874,5.51-6.458l0.139-0.163l0.126,0.175c1.394,1.947,2.937,4.1,4.588,6.404l-0.309-0.008
					c1.526-1.921,3.14-3.952,4.808-6.051c0.102-0.128,0.203-0.255,0.297-0.372l0.153-0.193l0.158,0.188
					c1.886,2.254,3.702,4.426,5.375,6.425l-0.302,0.012c1.658-2.313,3.203-4.468,4.59-6.402l0.134-0.188l0.131,0.188
					c1.818,2.597,3.362,4.802,4.518,6.453l-0.164-0.005c0.823-0.987,1.478-1.772,1.955-2.343c0.212-0.245,0.384-0.445,0.523-0.606
					C672.665,404.904,672.73,404.837,672.738,404.843z"/>
			</g>
		</g>
		<g>
			<g>
				<path style="fill:#455A64;" d="M673.785,396.472c0,0.111-8.081,0.201-18.048,0.201c-9.97,0-18.05-0.09-18.05-0.201
					c0-0.111,8.08-0.201,18.05-0.201C665.704,396.271,673.785,396.361,673.785,396.472z"/>
			</g>
		</g>
		<g>
			<g>
				<path style="fill:#263238;" d="M675.415,423.796c0,0.111-8.783,0.201-19.615,0.201c-10.836,0-19.616-0.09-19.616-0.201
					c0-0.111,8.781-0.201,19.616-0.201C666.632,423.595,675.415,423.685,675.415,423.796z"/>
			</g>
		</g>
	</g>
</g>
</svg>
