<svg width="30" height="30" viewBox="0 0 30 30" fill="none" xmlns="http://www.w3.org/2000/svg">
<path d="M21.2286 1.23257C20.8975 1.23775 20.5819 1.37407 20.3513 1.61163C20.1206 1.84918 19.9936 2.16856 19.9981 2.49966V3.90347C19.0466 4.12599 18.239 4.59581 17.6348 5.22183L16.4605 4.54312C16.2444 4.41353 15.9942 4.35226 15.7427 4.36734C15.4732 4.38415 15.2164 4.48776 15.0107 4.66267C14.805 4.83757 14.6615 5.07438 14.6016 5.33766C14.5417 5.60093 14.5686 5.87653 14.6784 6.12323C14.7881 6.36992 14.9748 6.57444 15.2105 6.70621L16.4336 7.41177C16.3216 7.85162 16.2481 8.29982 16.2481 8.74966C16.2481 9.19951 16.3216 9.64771 16.4336 10.0876L15.2105 10.7931C15.0615 10.8715 14.9299 10.9792 14.8236 11.1097C14.7172 11.2402 14.6383 11.3908 14.5916 11.5525C14.5449 11.7142 14.5313 11.8837 14.5517 12.0508C14.5721 12.2179 14.626 12.3792 14.7102 12.5249C14.7944 12.6707 14.9072 12.7979 15.0418 12.899C15.1764 13.0001 15.3301 13.073 15.4935 13.1133C15.657 13.1535 15.8269 13.1604 15.993 13.1334C16.1592 13.1064 16.3182 13.0461 16.4605 12.9562L17.6348 12.2775C18.239 12.9035 19.0466 13.3733 19.9981 13.5959V14.9997C19.9957 15.1653 20.0263 15.3298 20.0881 15.4835C20.1499 15.6372 20.2416 15.7771 20.3579 15.895C20.4742 16.013 20.6128 16.1067 20.7656 16.1706C20.9184 16.2345 21.0824 16.2675 21.2481 16.2675C21.4137 16.2675 21.5778 16.2345 21.7306 16.1706C21.8834 16.1067 22.022 16.013 22.1383 15.895C22.2546 15.7771 22.3463 15.6372 22.4081 15.4835C22.4698 15.3298 22.5004 15.1653 22.4981 14.9997V13.5959C23.4495 13.3733 24.2571 12.9035 24.8614 12.2775L26.0357 12.9562C26.178 13.0461 26.337 13.1064 26.5031 13.1334C26.6693 13.1604 26.8392 13.1535 27.0027 13.1133C27.1661 13.073 27.3197 13.0001 27.4543 12.899C27.5889 12.7979 27.7017 12.6707 27.786 12.5249C27.8702 12.3792 27.9241 12.2179 27.9445 12.0508C27.9649 11.8837 27.9513 11.7142 27.9046 11.5525C27.8579 11.3908 27.779 11.2402 27.6726 11.1097C27.5663 10.9792 27.4347 10.8715 27.2857 10.7931L26.0625 10.0876C26.1746 9.64771 26.2481 9.19951 26.2481 8.74966C26.2481 8.29982 26.1746 7.85162 26.0625 7.41177L27.2857 6.70621C27.5233 6.57254 27.7106 6.36487 27.8193 6.11484C27.9279 5.86482 27.9518 5.58613 27.8874 5.32125C27.823 5.05636 27.6737 4.8198 27.4624 4.64759C27.2511 4.47538 26.9893 4.37697 26.7168 4.36734C26.4776 4.35953 26.2412 4.42054 26.0357 4.54312L24.8614 5.22183C24.2571 4.59581 23.4495 4.12599 22.4981 3.90347V2.49966C22.5004 2.33243 22.4691 2.16643 22.4061 2.01151C22.343 1.85658 22.2496 1.71588 22.1312 1.59772C22.0128 1.47957 21.8719 1.38638 21.7169 1.32366C21.5618 1.26093 21.3958 1.22996 21.2286 1.23257ZM21.126 6.25943C21.2088 6.26772 21.2922 6.26772 21.375 6.25943C22.2286 6.28824 22.7495 6.57856 23.1255 7.00162C23.1637 7.04457 23.1931 7.09676 23.2281 7.14322C23.2781 7.3916 23.4024 7.61893 23.5845 7.79507C23.5845 7.79589 23.5845 7.7967 23.5845 7.79752C23.6902 8.09579 23.7481 8.42061 23.7481 8.74966C23.7481 9.11074 23.6743 9.46344 23.5479 9.78482C23.4191 9.92906 23.3255 10.1012 23.2745 10.2878C23.2252 10.3584 23.1817 10.4345 23.1255 10.4977C22.7483 10.922 22.226 11.2126 21.3677 11.2399C21.3215 11.2349 21.275 11.2324 21.2286 11.2326C21.1927 11.2335 21.1568 11.2359 21.1211 11.2399C20.2676 11.2111 19.7467 10.9208 19.3706 10.4977C19.3122 10.432 19.2653 10.3542 19.2144 10.2804C19.1642 10.1019 19.075 9.93679 18.9532 9.79703C18.8236 9.47243 18.7481 9.11538 18.7481 8.74966C18.7481 8.42061 18.806 8.09579 18.9117 7.79752C18.9117 7.7967 18.9117 7.79589 18.9117 7.79507C19.0938 7.61893 19.2181 7.3916 19.2681 7.14322C19.3031 7.09676 19.3325 7.04457 19.3706 7.00162C19.7475 6.57771 20.2693 6.28721 21.126 6.25943ZM9.97856 11.2326C9.64746 11.2378 9.33195 11.3741 9.10126 11.6116C8.87057 11.8492 8.74355 12.1686 8.74809 12.4997V13.8669C7.32799 14.1224 6.14208 14.7994 5.31303 15.7321C5.28943 15.7586 5.27504 15.7906 5.25199 15.8175L4.12895 15.1681C3.91287 15.0385 3.66268 14.9773 3.41117 14.9923C3.14169 15.0092 2.88489 15.1128 2.67919 15.2877C2.47349 15.4626 2.32995 15.6994 2.27004 15.9627C2.21013 16.2259 2.23707 16.5015 2.34683 16.7482C2.45659 16.9949 2.64327 17.1994 2.87895 17.3312L4.06059 18.0148C3.8623 18.6606 3.74809 19.3294 3.74809 19.9997C3.74809 20.6699 3.8623 21.3387 4.06059 21.9845L2.87895 22.6681C2.72997 22.7465 2.59836 22.8542 2.49201 22.9847C2.38566 23.1152 2.30676 23.2658 2.26005 23.4275C2.21333 23.5892 2.19975 23.7587 2.22014 23.9258C2.24052 24.0929 2.29444 24.2542 2.37867 24.3999C2.4629 24.5457 2.57569 24.6729 2.71029 24.774C2.84489 24.8751 2.99853 24.948 3.16198 24.9883C3.32543 25.0285 3.49533 25.0354 3.66149 25.0084C3.82765 24.9814 3.98665 24.9211 4.12895 24.8312L5.25199 24.1818C5.27504 24.2087 5.28943 24.2407 5.31303 24.2672C6.14208 25.1999 7.32799 25.8769 8.74809 26.1325V27.4997C8.74575 27.6653 8.77635 27.8298 8.83812 27.9835C8.89988 28.1372 8.99158 28.2771 9.10789 28.395C9.22419 28.513 9.36278 28.6067 9.51561 28.6706C9.66843 28.7345 9.83243 28.7675 9.99809 28.7675C10.1637 28.7675 10.3278 28.7345 10.4806 28.6706C10.6334 28.6067 10.772 28.513 10.8883 28.395C11.0046 28.2771 11.0963 28.1372 11.1581 27.9835C11.2198 27.8298 11.2504 27.6653 11.2481 27.4997V26.1325C12.6682 25.8769 13.8541 25.1999 14.6831 24.2672C14.7067 24.2407 14.7211 24.2087 14.7442 24.1818L15.8672 24.8312C16.0095 24.9211 16.1685 24.9814 16.3347 25.0084C16.5008 25.0354 16.6708 25.0285 16.8342 24.9883C16.9977 24.948 17.1513 24.8751 17.2859 24.774C17.4205 24.6729 17.5333 24.5457 17.6175 24.3999C17.7017 24.2542 17.7557 24.0929 17.776 23.9258C17.7964 23.7587 17.7829 23.5892 17.7361 23.4275C17.6894 23.2658 17.6105 23.1152 17.5042 22.9847C17.3978 22.8542 17.2662 22.7465 17.1172 22.6681L15.9356 21.9845C16.1339 21.3387 16.2481 20.6699 16.2481 19.9997C16.2481 19.3294 16.1339 18.6606 15.9356 18.0148L17.1172 17.3312C17.3548 17.1975 17.5422 16.9899 17.6508 16.7398C17.7595 16.4898 17.7834 16.2111 17.719 15.9462C17.6545 15.6814 17.5053 15.4448 17.294 15.2726C17.0826 15.1004 16.8208 15.002 16.5484 14.9923C16.3092 14.9845 16.0728 15.0455 15.8672 15.1681L14.7442 15.8175C14.7211 15.7906 14.7067 15.7586 14.6831 15.7321C13.8541 14.7994 12.6682 14.1224 11.2481 13.8669V12.4997C11.2504 12.3324 11.2191 12.1664 11.1561 12.0115C11.093 11.8566 10.9996 11.7159 10.8812 11.5977C10.7628 11.4796 10.6219 11.3864 10.4669 11.3237C10.3118 11.2609 10.1458 11.23 9.97856 11.2326ZM9.87846 16.2594C9.95876 16.268 10.0397 16.2689 10.1202 16.2619C11.3981 16.2912 12.2287 16.7349 12.813 17.3922C12.9044 17.495 12.9761 17.6147 13.0547 17.7292C13.1006 18.003 13.2363 18.2539 13.4405 18.442C13.6355 18.9281 13.7481 19.4587 13.7481 19.9997C13.7481 20.5695 13.622 21.1268 13.4063 21.633C13.2532 21.7948 13.1462 21.9945 13.0962 22.2116C13.0066 22.348 12.9202 22.4865 12.813 22.6071C12.2279 23.2653 11.3963 23.7118 10.1153 23.7399C10.0699 23.735 10.0242 23.7325 9.97856 23.7326C9.94433 23.7328 9.91012 23.7344 9.87602 23.7375C8.59807 23.7082 7.76744 23.2644 7.18315 22.6071C7.07448 22.4848 6.98571 22.3453 6.89506 22.2067C6.8455 21.9959 6.74203 21.8015 6.59477 21.6427C6.37627 21.134 6.24809 20.5732 6.24809 19.9997C6.24809 19.4605 6.3596 18.9316 6.55326 18.4469C6.75978 18.2572 6.8965 18.0035 6.94145 17.7267C7.01979 17.6128 7.09224 17.4945 7.18315 17.3922C7.76787 16.7344 8.59889 16.2881 9.87846 16.2594ZM9.99809 18.7497C9.66657 18.7497 9.34863 18.8814 9.11421 19.1158C8.87979 19.3502 8.74809 19.6681 8.74809 19.9997C8.74809 20.3312 8.87979 20.6491 9.11421 20.8835C9.34863 21.118 9.66657 21.2497 9.99809 21.2497C10.3296 21.2497 10.6476 21.118 10.882 20.8835C11.1164 20.6491 11.2481 20.3312 11.2481 19.9997C11.2481 19.6681 11.1164 19.3502 10.882 19.1158C10.6476 18.8814 10.3296 18.7497 9.99809 18.7497Z" fill="white"/>
</svg>
