<svg width="23" height="23" viewBox="0 0 23 23" fill="none" xmlns="http://www.w3.org/2000/svg">
<path d="M7.2459 6.46874C7.38965 5.69608 7.8748 5.11659 8.75977 4.73476C9.70762 4.33046 11.0867 4.18222 12.7398 4.44276C13.2744 4.52812 14.932 4.85155 15.4396 4.98183C16.2078 5.18397 16.9939 4.73026 17.2006 3.9621C17.4072 3.19394 16.949 2.4078 16.1809 2.20116C15.5385 2.03046 13.773 1.68905 13.1891 1.59921C11.1811 1.28476 9.22246 1.41054 7.63223 2.08886C5.99258 2.78964 4.73926 4.10136 4.40684 6.01054C4.40234 6.03749 4.39785 6.05995 4.39785 6.0869C4.27207 7.16054 4.42031 8.13534 4.85156 8.98886C5.05371 9.39315 5.30977 9.74804 5.60176 10.0625H1.4375C0.642383 10.0625 0 10.7049 0 11.5C0 12.2951 0.642383 12.9375 1.4375 12.9375H21.5625C22.3576 12.9375 23 12.2951 23 11.5C23 10.7049 22.3576 10.0625 21.5625 10.0625H12.1334C12.1289 10.0625 12.1199 10.058 12.1154 10.058L12.066 10.0445C10.4488 9.55937 9.13711 9.16405 8.23867 8.55761C7.8209 8.2746 7.56484 7.99159 7.42109 7.6996C7.28184 7.42558 7.1875 7.04374 7.25039 6.46874H7.2459ZM15.6732 15.1476C15.7945 15.4396 15.8709 15.8574 15.7586 16.4998C15.6238 17.2904 15.1387 17.8834 14.2357 18.2697C13.2879 18.674 11.9133 18.8223 10.2602 18.5617C9.45156 18.4314 8.05449 17.9553 6.91797 17.5689C6.66641 17.4836 6.42383 17.4027 6.20371 17.3264C5.44902 17.0748 4.63594 17.4836 4.38438 18.2383C4.13281 18.993 4.5416 19.806 5.29629 20.0576C5.45801 20.1115 5.65117 20.1789 5.8668 20.2508C6.98535 20.6326 8.72383 21.2256 9.80195 21.4008H9.81094C11.8189 21.7152 13.7775 21.5894 15.3678 20.9111C17.0074 20.2103 18.2607 18.8986 18.5932 16.9894C18.7549 16.0461 18.7145 15.1746 18.4539 14.3795H15.0533C15.3678 14.631 15.5654 14.8826 15.6777 15.1521L15.6732 15.1476Z" fill="white"/>
</svg>
