<svg width="133" height="128" viewBox="0 0 133 128" fill="none" xmlns="http://www.w3.org/2000/svg">
<path fill-rule="evenodd" clip-rule="evenodd" d="M8 105.456C8 105.744 8.03173 106.039 8.09777 106.32C13.3416 128.573 42.1928 128.56 46.9202 106.28C46.9741 106.025 47 105.759 47 105.499V4C47 1.79086 45.2091 0 43 0H12C9.79086 0 8 1.79087 8 4.00001V105.456ZM27 114C32.5228 114 37 109.523 37 104C37 98.4771 32.5228 94 27 94C21.4772 94 17 98.4771 17 104C17 109.523 21.4772 114 27 114Z" fill="#FFFDFD"/>
<path fill-rule="evenodd" clip-rule="evenodd" d="M113.524 46.0942C115.133 44.5809 115.211 42.0495 113.698 40.4401L92.4627 17.8555C90.9494 16.2461 88.418 16.1682 86.8085 17.6814L54.7531 47.8219L54.8771 101.238L113.524 46.0942Z" fill="white"/>
<path fill-rule="evenodd" clip-rule="evenodd" d="M127.962 122.994C130.171 123.05 132.006 121.305 132.062 119.096L132.845 88.1061C132.901 85.8977 131.156 84.0622 128.948 84.0064L84.9616 82.8947L47.4879 120.96L127.962 122.994Z" fill="white"/>
</svg>
