<svg width="21" height="23" viewBox="0 0 21 23" fill="none" xmlns="http://www.w3.org/2000/svg">
<g clip-path="url(#clip0_275_456)">
<path d="M0.721861 2.875C0.721861 2.07988 1.36703 1.4375 2.16558 1.4375H6.49675C7.29531 1.4375 7.94048 2.07988 7.94048 2.875C7.94048 3.67012 7.29531 4.3125 6.49675 4.3125H5.77489V10.0625C5.77489 12.4434 7.71489 14.375 10.1061 14.375C12.4972 14.375 14.4372 12.4434 14.4372 10.0625V4.3125H13.7154C12.9168 4.3125 12.2716 3.67012 12.2716 2.875C12.2716 2.07988 12.9168 1.4375 13.7154 1.4375H18.0465C18.8451 1.4375 19.4903 2.07988 19.4903 2.875C19.4903 3.67012 18.8451 4.3125 18.0465 4.3125H17.3247V10.0625C17.3247 14.0336 14.0943 17.25 10.1061 17.25C6.11778 17.25 2.88745 14.0336 2.88745 10.0625V4.3125H2.16558C1.36703 4.3125 0.721861 3.67012 0.721861 2.875ZM0 20.125C0 19.3299 0.645164 18.6875 1.44372 18.6875H18.7684C19.567 18.6875 20.2121 19.3299 20.2121 20.125C20.2121 20.9201 19.567 21.5625 18.7684 21.5625H1.44372C0.645164 21.5625 0 20.9201 0 20.125Z" fill="white"/>
</g>
<defs>
<clipPath id="clip0_275_456">
<rect width="20.2121" height="23" fill="white"/>
</clipPath>
</defs>
</svg>
